<?xml version="1.0" encoding="UTF-8" standalone="no"?>
<!DOCTYPE svg PUBLIC "-//W3C//DTD SVG 1.1//EN"
 "http://www.w3.org/Graphics/SVG/1.1/DTD/svg11.dtd">
<!-- Generated by graphviz version 2.43.0 (0)
 -->
<!-- Title: ClassDiagram Pages: 1 -->
<svg width="1542pt" height="295pt"
 viewBox="0.00 0.00 1541.50 295.00" xmlns="http://www.w3.org/2000/svg" xmlns:xlink="http://www.w3.org/1999/xlink">
<g id="graph0" class="graph" transform="scale(1 1) rotate(0) translate(4 291)">
<title>ClassDiagram</title>
<polygon fill="#ffffff" stroke="transparent" points="-4,4 -4,-291 1537.5,-291 1537.5,4 -4,4"/>
<!-- DigitalOut -->
<g id="node1" class="node">
<title>DigitalOut</title>
<polygon fill="#f8f9fa" stroke="black" points="51,-6.5 51,-78.5 141,-78.5 141,-6.5 51,-6.5"/>
<text text-anchor="middle" x="96" y="-65.7" font-family="Helvetica,sans-Serif" font-size="11.00">DigitalOut</text>
<polyline fill="none" stroke="black" points="51,-58.5 141,-58.5 "/>
<text text-anchor="start" x="59" y="-45.7" font-family="Helvetica,sans-Serif" font-size="11.00">&#45; pin: int</text>
<polyline fill="none" stroke="black" points="51,-38.5 141,-38.5 "/>
<text text-anchor="start" x="59" y="-25.7" font-family="Helvetica,sans-Serif" font-size="11.00">+read(): bool</text>
<text text-anchor="start" x="59" y="-13.7" font-family="Helvetica,sans-Serif" font-size="11.00">+write(bool)</text>
</g>
<!-- DigitalIn -->
<g id="node2" class="node">
<title>DigitalIn</title>
<polygon fill="#f8f9fa" stroke="black" points="346.5,-6.5 346.5,-78.5 459.5,-78.5 459.5,-6.5 346.5,-6.5"/>
<text text-anchor="middle" x="403" y="-65.7" font-family="Helvetica,sans-Serif" font-size="11.00">DigitalIn</text>
<polyline fill="none" stroke="black" points="346.5,-58.5 459.5,-58.5 "/>
<text text-anchor="start" x="354.5" y="-45.7" font-family="Helvetica,sans-Serif" font-size="11.00">&#45; pin: int</text>
<text text-anchor="start" x="354.5" y="-33.7" font-family="Helvetica,sans-Serif" font-size="11.00">&#45; pullMode: string</text>
<polyline fill="none" stroke="black" points="346.5,-26.5 459.5,-26.5 "/>
<text text-anchor="start" x="354.5" y="-13.7" font-family="Helvetica,sans-Serif" font-size="11.00">+read(): bool</text>
</g>
<!-- set_led1_state -->
<g id="node3" class="node">
<title>set_led1_state</title>
<path fill="#e9ecef" stroke="black" d="M557.5,-20.5C557.5,-20.5 770.5,-20.5 770.5,-20.5 776.5,-20.5 782.5,-26.5 782.5,-32.5 782.5,-32.5 782.5,-52.5 782.5,-52.5 782.5,-58.5 776.5,-64.5 770.5,-64.5 770.5,-64.5 557.5,-64.5 557.5,-64.5 551.5,-64.5 545.5,-58.5 545.5,-52.5 545.5,-52.5 545.5,-32.5 545.5,-32.5 545.5,-26.5 551.5,-20.5 557.5,-20.5"/>
<text text-anchor="start" x="553.5" y="-51.7" font-family="Helvetica,sans-Serif" font-size="11.00">set_led1_state(DigitalOut &amp;led, bool on)</text>
<text text-anchor="start" x="553.5" y="-39.7" font-family="Helvetica,sans-Serif" font-size="11.00">&#45; led: DigitalOut</text>
<text text-anchor="start" x="553.5" y="-27.7" font-family="Helvetica,sans-Serif" font-size="11.00">&#45; on: bool</text>
</g>
<!-- blink_led1 -->
<g id="node4" class="node">
<title>blink_led1</title>
<path fill="#e9ecef" stroke="black" d="M978,-24.5C978,-24.5 1118,-24.5 1118,-24.5 1124,-24.5 1130,-30.5 1130,-36.5 1130,-36.5 1130,-48.5 1130,-48.5 1130,-54.5 1124,-60.5 1118,-60.5 1118,-60.5 978,-60.5 978,-60.5 972,-60.5 966,-54.5 966,-48.5 966,-48.5 966,-36.5 966,-36.5 966,-30.5 972,-24.5 978,-24.5"/>
<text text-anchor="start" x="974" y="-45.7" font-family="Helvetica,sans-Serif" font-size="11.00">blink_led1(DigitalOut &amp;led)</text>
<text text-anchor="start" x="974" y="-33.7" font-family="Helvetica,sans-Serif" font-size="11.00">&#45; led: DigitalOut</text>
</g>
<!-- main_loop -->
<g id="node5" class="node">
<title>main_loop</title>
<path fill="#e9ecef" stroke="black" d="M454.5,-230.5C454.5,-230.5 613.5,-230.5 613.5,-230.5 619.5,-230.5 625.5,-236.5 625.5,-242.5 625.5,-242.5 625.5,-274.5 625.5,-274.5 625.5,-280.5 619.5,-286.5 613.5,-286.5 613.5,-286.5 454.5,-286.5 454.5,-286.5 448.5,-286.5 442.5,-280.5 442.5,-274.5 442.5,-274.5 442.5,-242.5 442.5,-242.5 442.5,-236.5 448.5,-230.5 454.5,-230.5"/>
<text text-anchor="start" x="450.5" y="-273.7" font-family="Helvetica,sans-Serif" font-size="11.00">main()</text>
<text text-anchor="start" x="450.5" y="-261.7" font-family="Helvetica,sans-Serif" font-size="11.00">&#45; loop_started: bool</text>
<text text-anchor="start" x="450.5" y="-249.7" font-family="Helvetica,sans-Serif" font-size="11.00">&#45; previous_led_state: bool</text>
<text text-anchor="start" x="450.5" y="-237.7" font-family="Helvetica,sans-Serif" font-size="11.00">&#45; button_press_count: uint32_t</text>
</g>
<!-- main_loop&#45;&gt;DigitalOut -->
<g id="edge1" class="edge">
<title>main_loop&#45;&gt;DigitalOut</title>
<path fill="none" stroke="black" d="M442.33,-268C309.96,-268 81,-268 81,-268 81,-268 81,-88.73 81,-88.73"/>
<polygon fill="black" stroke="black" points="84.5,-88.73 81,-78.73 77.5,-88.73 84.5,-88.73"/>
<text text-anchor="middle" x="50" y="-153.8" font-family="Times,serif" font-size="14.00">[#ifdef LED1]</text>
</g>
<!-- main_loop&#45;&gt;DigitalOut -->
<g id="edge5" class="edge">
<title>main_loop&#45;&gt;DigitalOut</title>
<path fill="none" stroke="black" d="M442.48,-249C318.1,-249 111,-249 111,-249 111,-249 111,-88.94 111,-88.94"/>
<polygon fill="black" stroke="black" points="114.5,-88.94 111,-78.94 107.5,-88.94 114.5,-88.94"/>
<text text-anchor="middle" x="261" y="-153.8" font-family="Times,serif" font-size="14.00">[#if defined(LED1)]</text>
</g>
<!-- main_loop&#45;&gt;DigitalIn -->
<g id="edge2" class="edge">
<title>main_loop&#45;&gt;DigitalIn</title>
<path fill="none" stroke="black" d="M451,-230.26C451,-230.26 451,-88.67 451,-88.67"/>
<polygon fill="black" stroke="black" points="454.5,-88.67 451,-78.67 447.5,-88.67 454.5,-88.67"/>
<text text-anchor="middle" x="488.5" y="-153.8" font-family="Times,serif" font-size="14.00">[#ifdef BUTTON1]</text>
</g>
<!-- main_loop&#45;&gt;set_led1_state -->
<g id="edge3" class="edge">
<title>main_loop&#45;&gt;set_led1_state</title>
<path fill="none" stroke="black" d="M572.17,-230.26C572.17,-230.26 572.17,-74.53 572.17,-74.53"/>
<polygon fill="black" stroke="black" points="575.67,-74.53 572.17,-64.53 568.67,-74.53 575.67,-74.53"/>
<text text-anchor="middle" x="801.5" y="-153.8" font-family="Times,serif" font-size="14.00">[#if defined(LED1) &amp;&amp; defined(BUTTON1)]</text>
</g>
<!-- main_loop&#45;&gt;blink_led1 -->
<g id="edge4" class="edge">
<title>main_loop&#45;&gt;blink_led1</title>
<path fill="none" stroke="black" d="M625.6,-258C773.37,-258 1048,-258 1048,-258 1048,-258 1048,-70.5 1048,-70.5"/>
<polygon fill="black" stroke="black" points="1051.5,-70.5 1048,-60.5 1044.5,-70.5 1051.5,-70.5"/>
<text text-anchor="middle" x="1124.5" y="-153.8" font-family="Times,serif" font-size="14.00">[#elif defined(LED1)]</text>
</g>
<!-- config_note -->
<g id="node6" class="node">
<title>config_note</title>
<path fill="#e9ecef" stroke="transparent" d="M1521.5,-85C1521.5,-85 1228.5,-85 1228.5,-85 1222.5,-85 1216.5,-79 1216.5,-73 1216.5,-73 1216.5,-12 1216.5,-12 1216.5,-6 1222.5,0 1228.5,0 1228.5,0 1521.5,0 1521.5,0 1527.5,0 1533.5,-6 1533.5,-12 1533.5,-12 1533.5,-73 1533.5,-73 1533.5,-79 1527.5,-85 1521.5,-85"/>
<text text-anchor="start" x="1224.5" y="-73" font-family="Helvetica,sans-Serif" font-size="10.00">{Configuration Settings:</text>
<text text-anchor="start" x="1224.5" y="-62" font-family="Helvetica,sans-Serif" font-size="10.00">&#45; MBED_CONF_NANOSTACK_CONFIGURATION: nanostack_full</text>
<text text-anchor="start" x="1224.5" y="-51" font-family="Helvetica,sans-Serif" font-size="10.00">&#45; MBED_CONF_NSAPI_DEFAULT_STACK: LWIP</text>
<text text-anchor="start" x="1224.5" y="-40" font-family="Helvetica,sans-Serif" font-size="10.00">&#45; MBED_CONF_PLATFORM_STDIO_BAUD_RATE: 9600</text>
<text text-anchor="start" x="1224.5" y="-29" font-family="Helvetica,sans-Serif" font-size="10.00">&#45; MBED_CONF_LWIP_TCP_MSS: 1460</text>
<text text-anchor="start" x="1224.5" y="-18" font-family="Helvetica,sans-Serif" font-size="10.00">&#45; MBED_CONF_QUECTEL_BG96_BAUDRATE: 115200</text>
<text text-anchor="middle" x="1375" y="-7" font-family="Helvetica,sans-Serif" font-size="10.00">}</text>
</g>
<!-- main_loop&#45;&gt;config_note -->
<g id="edge6" class="edge">
<title>main_loop&#45;&gt;config_note</title>
<path fill="none" stroke="black" stroke-dasharray="1,5" d="M598.83,-230.17C598.83,-178 598.83,-72 598.83,-72 598.83,-72 988.98,-72 1216.06,-72"/>
</g>
</g>
</svg>
