<?xml version="1.0" encoding="UTF-8" standalone="no"?>
<!DOCTYPE svg PUBLIC "-//W3C//DTD SVG 1.1//EN"
 "http://www.w3.org/Graphics/SVG/1.1/DTD/svg11.dtd">
<!-- Generated by graphviz version 2.43.0 (0)
 -->
<!-- Title: ClassDiagram Pages: 1 -->
<svg width="819pt" height="278pt"
 viewBox="0.00 0.00 819.00 278.00" xmlns="http://www.w3.org/2000/svg" xmlns:xlink="http://www.w3.org/1999/xlink">
<g id="graph0" class="graph" transform="scale(1 1) rotate(0) translate(4 274)">
<title>ClassDiagram</title>
<polygon fill="#ffffff" stroke="transparent" points="-4,4 -4,-274 815,-274 815,4 -4,4"/>
<!-- DigitalOut -->
<g id="node1" class="node">
<title>DigitalOut</title>
<polygon fill="none" stroke="black" points="378,-0.5 378,-72.5 492,-72.5 492,-0.5 378,-0.5"/>
<text text-anchor="middle" x="435" y="-59.7" font-family="Helvetica,sans-Serif" font-size="11.00">DigitalOut</text>
<polyline fill="none" stroke="black" points="378,-52.5 492,-52.5 "/>
<text text-anchor="start" x="386" y="-39.7" font-family="Helvetica,sans-Serif" font-size="11.00">+led: PinName</text>
<polyline fill="none" stroke="black" points="378,-32.5 492,-32.5 "/>
<text text-anchor="start" x="386" y="-19.7" font-family="Helvetica,sans-Serif" font-size="11.00">+write(value: int)</text>
<text text-anchor="start" x="386" y="-7.7" font-family="Helvetica,sans-Serif" font-size="11.00">+read(): int</text>
</g>
<!-- DigitalIn -->
<g id="node2" class="node">
<title>DigitalIn</title>
<polygon fill="none" stroke="black" points="0,-110.5 0,-182.5 110,-182.5 110,-110.5 0,-110.5"/>
<text text-anchor="middle" x="55" y="-169.7" font-family="Helvetica,sans-Serif" font-size="11.00">DigitalIn</text>
<polyline fill="none" stroke="black" points="0,-162.5 110,-162.5 "/>
<text text-anchor="start" x="8" y="-149.7" font-family="Helvetica,sans-Serif" font-size="11.00">+pin: PinName</text>
<text text-anchor="start" x="8" y="-137.7" font-family="Helvetica,sans-Serif" font-size="11.00">+mode: PinMode</text>
<polyline fill="none" stroke="black" points="0,-130.5 110,-130.5 "/>
<text text-anchor="start" x="8" y="-117.7" font-family="Helvetica,sans-Serif" font-size="11.00">+read(): int</text>
</g>
<!-- set_led1_state -->
<g id="node3" class="node">
<title>set_led1_state</title>
<path fill="none" stroke="black" d="M434.5,-164.5C434.5,-164.5 213.5,-164.5 213.5,-164.5 207.5,-164.5 201.5,-158.5 201.5,-152.5 201.5,-152.5 201.5,-140.5 201.5,-140.5 201.5,-134.5 207.5,-128.5 213.5,-128.5 213.5,-128.5 434.5,-128.5 434.5,-128.5 440.5,-128.5 446.5,-134.5 446.5,-140.5 446.5,-140.5 446.5,-152.5 446.5,-152.5 446.5,-158.5 440.5,-164.5 434.5,-164.5"/>
<text text-anchor="middle" x="324" y="-143.7" font-family="Helvetica,sans-Serif" font-size="11.00">set_led1_state(led: DigitalOut&amp;, on: bool)</text>
</g>
<!-- set_led1_state&#45;&gt;DigitalOut -->
<g id="edge4" class="edge">
<title>set_led1_state&#45;&gt;DigitalOut</title>
<path fill="none" stroke="black" d="M412.25,-128.34C412.25,-128.34 412.25,-82.95 412.25,-82.95"/>
<polygon fill="black" stroke="black" points="415.75,-82.95 412.25,-72.95 408.75,-82.95 415.75,-82.95"/>
</g>
<!-- blink_led1 -->
<g id="node4" class="node">
<title>blink_led1</title>
<path fill="none" stroke="black" d="M655.5,-164.5C655.5,-164.5 512.5,-164.5 512.5,-164.5 506.5,-164.5 500.5,-158.5 500.5,-152.5 500.5,-152.5 500.5,-140.5 500.5,-140.5 500.5,-134.5 506.5,-128.5 512.5,-128.5 512.5,-128.5 655.5,-128.5 655.5,-128.5 661.5,-128.5 667.5,-134.5 667.5,-140.5 667.5,-140.5 667.5,-152.5 667.5,-152.5 667.5,-158.5 661.5,-164.5 655.5,-164.5"/>
<text text-anchor="middle" x="584" y="-143.7" font-family="Helvetica,sans-Serif" font-size="11.00">blink_led1(led: DigitalOut&amp;)</text>
</g>
<!-- blink_led1&#45;&gt;DigitalOut -->
<g id="edge5" class="edge">
<title>blink_led1&#45;&gt;DigitalOut</title>
<path fill="none" stroke="black" d="M500.3,-146C482.66,-146 469.25,-146 469.25,-146 469.25,-146 469.25,-82.66 469.25,-82.66"/>
<polygon fill="black" stroke="black" points="472.75,-82.66 469.25,-72.66 465.75,-82.66 472.75,-82.66"/>
</g>
<!-- main_func -->
<g id="node5" class="node">
<title>main_func</title>
<path fill="none" stroke="black" d="M264,-270C264,-270 234,-270 234,-270 228,-270 222,-264 222,-258 222,-258 222,-246 222,-246 222,-240 228,-234 234,-234 234,-234 264,-234 264,-234 270,-234 276,-240 276,-246 276,-246 276,-258 276,-258 276,-264 270,-270 264,-270"/>
<text text-anchor="middle" x="249" y="-249.2" font-family="Helvetica,sans-Serif" font-size="11.00">main()</text>
</g>
<!-- main_func&#45;&gt;DigitalIn -->
<g id="edge3" class="edge">
<title>main_func&#45;&gt;DigitalIn</title>
<path fill="none" stroke="black" stroke-dasharray="5,2" d="M240,-233.68C240,-210.34 240,-173 240,-173 240,-173 120.01,-173 120.01,-173"/>
<polygon fill="black" stroke="black" points="120.01,-169.5 110.01,-173 120.01,-176.5 120.01,-169.5"/>
<text text-anchor="middle" x="140.5" y="-204.8" font-family="Times,serif" font-size="14.00">&lt;&lt;#ifdef BUTTON1&gt;&gt;</text>
</g>
<!-- main_func&#45;&gt;set_led1_state -->
<g id="edge1" class="edge">
<title>main_func&#45;&gt;set_led1_state</title>
<path fill="none" stroke="black" stroke-dasharray="5,2" d="M258,-233.62C258,-233.62 258,-174.67 258,-174.67"/>
<polygon fill="black" stroke="black" points="261.5,-174.67 258,-164.67 254.5,-174.67 261.5,-174.67"/>
<text text-anchor="middle" x="423.5" y="-204.8" font-family="Times,serif" font-size="14.00">&lt;&lt;#if defined(LED1) &amp;&amp; defined(BUTTON1)&gt;&gt;</text>
</g>
<!-- main_func&#45;&gt;blink_led1 -->
<g id="edge2" class="edge">
<title>main_func&#45;&gt;blink_led1</title>
<path fill="none" stroke="black" stroke-dasharray="5,2" d="M276.13,-252C355.88,-252 584,-252 584,-252 584,-252 584,-174.88 584,-174.88"/>
<polygon fill="black" stroke="black" points="587.5,-174.88 584,-164.88 580.5,-174.88 587.5,-174.88"/>
<text text-anchor="middle" x="716" y="-204.8" font-family="Times,serif" font-size="14.00">&lt;&lt;#elif defined(LED1)&gt;&gt;</text>
</g>
</g>
</svg>
