<?xml version="1.0" encoding="UTF-8" standalone="no"?>
<!DOCTYPE svg PUBLIC "-//W3C//DTD SVG 1.1//EN"
 "http://www.w3.org/Graphics/SVG/1.1/DTD/svg11.dtd">
<!-- Generated by graphviz version 2.43.0 (0)
 -->
<!-- Title: ClassDiagram Pages: 1 -->
<svg width="1041pt" height="291pt"
 viewBox="0.00 0.00 1041.00 291.00" xmlns="http://www.w3.org/2000/svg" xmlns:xlink="http://www.w3.org/1999/xlink">
<g id="graph0" class="graph" transform="scale(1 1) rotate(0) translate(4 287)">
<title>ClassDiagram</title>
<polygon fill="#ffffff" stroke="transparent" points="-4,4 -4,-287 1037,-287 1037,4 -4,4"/>
<!-- DigitalOut -->
<g id="node1" class="node">
<title>DigitalOut</title>
<polygon fill="#f8f9fa" stroke="black" points="0,-0.5 0,-72.5 90,-72.5 90,-0.5 0,-0.5"/>
<text text-anchor="middle" x="45" y="-59.7" font-family="Helvetica,sans-Serif" font-size="11.00">DigitalOut</text>
<polyline fill="none" stroke="black" points="0,-52.5 90,-52.5 "/>
<text text-anchor="start" x="8" y="-39.7" font-family="Helvetica,sans-Serif" font-size="11.00">&#45; pin: int</text>
<polyline fill="none" stroke="black" points="0,-32.5 90,-32.5 "/>
<text text-anchor="start" x="8" y="-19.7" font-family="Helvetica,sans-Serif" font-size="11.00">+read(): bool</text>
<text text-anchor="start" x="8" y="-7.7" font-family="Helvetica,sans-Serif" font-size="11.00">+write(bool)</text>
</g>
<!-- DigitalIn -->
<g id="node2" class="node">
<title>DigitalIn</title>
<polygon fill="#f8f9fa" stroke="black" points="178.5,-0.5 178.5,-72.5 291.5,-72.5 291.5,-0.5 178.5,-0.5"/>
<text text-anchor="middle" x="235" y="-59.7" font-family="Helvetica,sans-Serif" font-size="11.00">DigitalIn</text>
<polyline fill="none" stroke="black" points="178.5,-52.5 291.5,-52.5 "/>
<text text-anchor="start" x="186.5" y="-39.7" font-family="Helvetica,sans-Serif" font-size="11.00">&#45; pin: int</text>
<text text-anchor="start" x="186.5" y="-27.7" font-family="Helvetica,sans-Serif" font-size="11.00">&#45; pullMode: string</text>
<polyline fill="none" stroke="black" points="178.5,-20.5 291.5,-20.5 "/>
<text text-anchor="start" x="186.5" y="-7.7" font-family="Helvetica,sans-Serif" font-size="11.00">+read(): bool</text>
</g>
<!-- set_led1_state -->
<g id="node3" class="node">
<title>set_led1_state</title>
<path fill="#e9ecef" stroke="black" d="M389.5,-18.5C389.5,-18.5 602.5,-18.5 602.5,-18.5 608.5,-18.5 614.5,-24.5 614.5,-30.5 614.5,-30.5 614.5,-42.5 614.5,-42.5 614.5,-48.5 608.5,-54.5 602.5,-54.5 602.5,-54.5 389.5,-54.5 389.5,-54.5 383.5,-54.5 377.5,-48.5 377.5,-42.5 377.5,-42.5 377.5,-30.5 377.5,-30.5 377.5,-24.5 383.5,-18.5 389.5,-18.5"/>
<text text-anchor="start" x="385.5" y="-33.7" font-family="Helvetica,sans-Serif" font-size="11.00">set_led1_state(DigitalOut &amp;led, bool on)</text>
</g>
<!-- blink_led1 -->
<g id="node4" class="node">
<title>blink_led1</title>
<path fill="#e9ecef" stroke="black" d="M810,-18.5C810,-18.5 950,-18.5 950,-18.5 956,-18.5 962,-24.5 962,-30.5 962,-30.5 962,-42.5 962,-42.5 962,-48.5 956,-54.5 950,-54.5 950,-54.5 810,-54.5 810,-54.5 804,-54.5 798,-48.5 798,-42.5 798,-42.5 798,-30.5 798,-30.5 798,-24.5 804,-18.5 810,-18.5"/>
<text text-anchor="start" x="806" y="-33.7" font-family="Helvetica,sans-Serif" font-size="11.00">blink_led1(DigitalOut &amp;led)</text>
</g>
<!-- main_loop -->
<g id="node5" class="node">
<title>main_loop</title>
<path fill="#e9ecef" stroke="black" d="M277.5,-218.5C277.5,-218.5 436.5,-218.5 436.5,-218.5 442.5,-218.5 448.5,-224.5 448.5,-230.5 448.5,-230.5 448.5,-270.5 448.5,-270.5 448.5,-276.5 442.5,-282.5 436.5,-282.5 436.5,-282.5 277.5,-282.5 277.5,-282.5 271.5,-282.5 265.5,-276.5 265.5,-270.5 265.5,-270.5 265.5,-230.5 265.5,-230.5 265.5,-224.5 271.5,-218.5 277.5,-218.5"/>
<text text-anchor="middle" x="357" y="-269.7" font-family="Helvetica,sans-Serif" font-size="11.00">main()</text>
<polyline fill="none" stroke="black" points="265.5,-262.5 448.5,-262.5 "/>
<text text-anchor="start" x="273.5" y="-249.7" font-family="Helvetica,sans-Serif" font-size="11.00">&#45; loop_started: bool</text>
<text text-anchor="start" x="273.5" y="-237.7" font-family="Helvetica,sans-Serif" font-size="11.00">&#45; previous_led_state: bool</text>
<text text-anchor="start" x="273.5" y="-225.7" font-family="Helvetica,sans-Serif" font-size="11.00">&#45; button_press_count: uint32_t</text>
</g>
<!-- main_loop&#45;&gt;DigitalOut -->
<g id="edge1" class="edge">
<title>main_loop&#45;&gt;DigitalOut</title>
<path fill="none" stroke="black" d="M265.5,-250C173.44,-250 45,-250 45,-250 45,-250 45,-82.72 45,-82.72"/>
<polygon fill="black" stroke="black" points="48.5,-82.72 45,-72.72 41.5,-82.72 48.5,-82.72"/>
<text text-anchor="middle" x="95" y="-141.8" font-family="Times,serif" font-size="14.00">[#ifdef LED1]</text>
</g>
<!-- main_loop&#45;&gt;DigitalIn -->
<g id="edge2" class="edge">
<title>main_loop&#45;&gt;DigitalIn</title>
<path fill="none" stroke="black" d="M278.5,-218.46C278.5,-218.46 278.5,-82.7 278.5,-82.7"/>
<polygon fill="black" stroke="black" points="282,-82.7 278.5,-72.7 275,-82.7 282,-82.7"/>
<text text-anchor="middle" x="302.5" y="-141.8" font-family="Times,serif" font-size="14.00">[#ifdef BUTTON1]</text>
</g>
<!-- main_loop&#45;&gt;set_led1_state -->
<g id="edge3" class="edge">
<title>main_loop&#45;&gt;set_led1_state</title>
<path fill="none" stroke="black" d="M413,-218.46C413,-218.46 413,-64.55 413,-64.55"/>
<polygon fill="black" stroke="black" points="416.5,-64.55 413,-54.55 409.5,-64.55 416.5,-64.55"/>
<text text-anchor="middle" x="633.5" y="-141.8" font-family="Times,serif" font-size="14.00">[#if defined(LED1) &amp;&amp; defined(BUTTON1)]</text>
</g>
<!-- main_loop&#45;&gt;blink_led1 -->
<g id="edge4" class="edge">
<title>main_loop&#45;&gt;blink_led1</title>
<path fill="none" stroke="black" d="M448.7,-250C598.69,-250 880,-250 880,-250 880,-250 880,-64.7 880,-64.7"/>
<polygon fill="black" stroke="black" points="883.5,-64.7 880,-54.7 876.5,-64.7 883.5,-64.7"/>
<text text-anchor="middle" x="956.5" y="-141.8" font-family="Times,serif" font-size="14.00">[#elif defined(LED1)]</text>
</g>
</g>
</svg>
