<?xml version="1.0" encoding="UTF-8" standalone="no"?>
<!DOCTYPE svg PUBLIC "-//W3C//DTD SVG 1.1//EN"
 "http://www.w3.org/Graphics/SVG/1.1/DTD/svg11.dtd">
<!-- Generated by graphviz version 2.43.0 (0)
 -->
<!-- Title: ClassDiagram Pages: 1 -->
<svg width="256pt" height="81pt"
 viewBox="0.00 0.00 256.00 81.00" xmlns="http://www.w3.org/2000/svg" xmlns:xlink="http://www.w3.org/1999/xlink">
<g id="graph0" class="graph" transform="scale(1 1) rotate(0) translate(4 77)">
<title>ClassDiagram</title>
<polygon fill="#ffffff" stroke="transparent" points="-4,4 -4,-77 252,-77 252,4 -4,4"/>
<!-- DigitalIn -->
<g id="node1" class="node">
<title>DigitalIn</title>
<polygon fill="none" stroke="black" points="0,-0.5 0,-72.5 100,-72.5 100,-0.5 0,-0.5"/>
<text text-anchor="middle" x="50" y="-59.7" font-family="Helvetica,sans-Serif" font-size="11.00">DigitalIn</text>
<polyline fill="none" stroke="black" points="0,-52.5 100,-52.5 "/>
<text text-anchor="start" x="8" y="-39.7" font-family="Helvetica,sans-Serif" font-size="11.00">+read(): int</text>
<text text-anchor="start" x="8" y="-27.7" font-family="Helvetica,sans-Serif" font-size="11.00">+mode(PullUp)</text>
<polyline fill="none" stroke="black" points="0,-20.5 100,-20.5 "/>
<text text-anchor="middle" x="50" y="-7.7" font-family="Helvetica,sans-Serif" font-size="11.00"> </text>
</g>
<!-- ThisThread -->
<g id="node2" class="node">
<title>ThisThread</title>
<polygon fill="none" stroke="black" points="118,-6.5 118,-66.5 248,-66.5 248,-6.5 118,-6.5"/>
<text text-anchor="middle" x="183" y="-53.7" font-family="Helvetica,sans-Serif" font-size="11.00">ThisThread</text>
<polyline fill="none" stroke="black" points="118,-46.5 248,-46.5 "/>
<text text-anchor="middle" x="183" y="-33.7" font-family="Helvetica,sans-Serif" font-size="11.00"> </text>
<polyline fill="none" stroke="black" points="118,-26.5 248,-26.5 "/>
<text text-anchor="start" x="126" y="-13.7" font-family="Helvetica,sans-Serif" font-size="11.00">+sleep_for(duration)</text>
</g>
</g>
</svg>
