<?xml version="1.0" encoding="UTF-8" standalone="no"?>
<!DOCTYPE svg PUBLIC "-//W3C//DTD SVG 1.1//EN"
 "http://www.w3.org/Graphics/SVG/1.1/DTD/svg11.dtd">
<!-- Generated by graphviz version 2.43.0 (0)
 -->
<!-- Title: ClassDiagram Pages: 1 -->
<svg width="311pt" height="133pt"
 viewBox="0.00 0.00 311.00 133.00" xmlns="http://www.w3.org/2000/svg" xmlns:xlink="http://www.w3.org/1999/xlink">
<g id="graph0" class="graph" transform="scale(1 1) rotate(0) translate(4 129)">
<title>ClassDiagram</title>
<polygon fill="white" stroke="transparent" points="-4,4 -4,-129 307,-129 307,4 -4,4"/>
<!-- class -->
<g id="node1" class="node">
<title>class</title>
<polygon fill="none" stroke="black" points="49.5,-88.5 49.5,-124.5 103.5,-124.5 103.5,-88.5 49.5,-88.5"/>
<text text-anchor="middle" x="76.5" y="-102.8" font-family="Times,serif" font-size="14.00">class</text>
</g>
<!-- DigitalOut -->
<g id="node2" class="node">
<title>DigitalOut</title>
<polygon fill="none" stroke="black" points="0,-0.5 0,-36.5 91,-36.5 91,-0.5 0,-0.5"/>
<text text-anchor="middle" x="45.5" y="-14.8" font-family="Times,serif" font-size="14.00">DigitalOut</text>
</g>
<!-- DigitalIn -->
<g id="node3" class="node">
<title>DigitalIn</title>
<polygon fill="none" stroke="black" points="109,-0.5 109,-36.5 188,-36.5 188,-0.5 109,-0.5"/>
<text text-anchor="middle" x="148.5" y="-14.8" font-family="Times,serif" font-size="14.00">DigitalIn</text>
</g>
<!-- ThisThread -->
<g id="node4" class="node">
<title>ThisThread</title>
<polygon fill="none" stroke="black" points="206,-0.5 206,-36.5 303,-36.5 303,-0.5 206,-0.5"/>
<text text-anchor="middle" x="254.5" y="-14.8" font-family="Times,serif" font-size="14.00">ThisThread</text>
</g>
<!-- main -->
<g id="node5" class="node">
<title>main</title>
<polygon fill="none" stroke="black" points="121.5,-88.5 121.5,-124.5 175.5,-124.5 175.5,-88.5 121.5,-88.5"/>
<text text-anchor="middle" x="148.5" y="-102.8" font-family="Times,serif" font-size="14.00">main</text>
</g>
<!-- main&#45;&gt;DigitalOut -->
<g id="edge1" class="edge">
<title>main&#45;&gt;DigitalOut</title>
<path fill="none" stroke="black" d="M127.66,-88.1C112.2,-75.19 90.95,-57.45 73.93,-43.24"/>
<polygon fill="black" stroke="black" points="75.88,-40.31 65.96,-36.58 71.39,-45.68 75.88,-40.31"/>
<text text-anchor="middle" x="120" y="-58.8" font-family="Times,serif" font-size="14.00">uses</text>
</g>
<!-- main&#45;&gt;DigitalIn -->
<g id="edge2" class="edge">
<title>main&#45;&gt;DigitalIn</title>
<path fill="none" stroke="black" d="M148.5,-88.1C148.5,-76.25 148.5,-60.32 148.5,-46.79"/>
<polygon fill="black" stroke="black" points="152,-46.58 148.5,-36.58 145,-46.58 152,-46.58"/>
<text text-anchor="middle" x="165" y="-58.8" font-family="Times,serif" font-size="14.00">uses</text>
</g>
<!-- main&#45;&gt;ThisThread -->
<g id="edge3" class="edge">
<title>main&#45;&gt;ThisThread</title>
<path fill="none" stroke="black" d="M169.7,-88.3C185.58,-75.41 207.52,-57.61 225.1,-43.35"/>
<polygon fill="black" stroke="black" points="227.78,-45.69 233.34,-36.67 223.37,-40.25 227.78,-45.69"/>
<text text-anchor="middle" x="224" y="-58.8" font-family="Times,serif" font-size="14.00">uses</text>
</g>
</g>
</svg>
