<?xml version="1.0" encoding="UTF-8" standalone="no"?>
<!DOCTYPE svg PUBLIC "-//W3C//DTD SVG 1.1//EN"
 "http://www.w3.org/Graphics/SVG/1.1/DTD/svg11.dtd">
<!-- Generated by graphviz version 2.43.0 (0)
 -->
<!-- Title: ClassDiagram Pages: 1 -->
<svg width="1345pt" height="150pt"
 viewBox="0.00 0.00 1344.50 150.00" xmlns="http://www.w3.org/2000/svg" xmlns:xlink="http://www.w3.org/1999/xlink">
<g id="graph0" class="graph" transform="scale(1 1) rotate(0) translate(4 146)">
<title>ClassDiagram</title>
<polygon fill="#ffffff" stroke="transparent" points="-4,4 -4,-146 1340.5,-146 1340.5,4 -4,4"/>
<!-- DigitalOut -->
<g id="node1" class="node">
<title>DigitalOut</title>
<polygon fill="none" stroke="black" points="0,-89.5 0,-141.5 107,-141.5 107,-89.5 0,-89.5"/>
<text text-anchor="middle" x="53.5" y="-128.7" font-family="Helvetica,sans-Serif" font-size="11.00">DigitalOut</text>
<polyline fill="none" stroke="black" points="0,-121.5 107,-121.5 "/>
<text text-anchor="start" x="8" y="-108.7" font-family="Helvetica,sans-Serif" font-size="11.00">+read(): int</text>
<text text-anchor="start" x="8" y="-96.7" font-family="Helvetica,sans-Serif" font-size="11.00">+write(int): void</text>
</g>
<!-- DigitalIn -->
<g id="node2" class="node">
<title>DigitalIn</title>
<polygon fill="none" stroke="black" points="0,-0.5 0,-52.5 107,-52.5 107,-0.5 0,-0.5"/>
<text text-anchor="middle" x="53.5" y="-39.7" font-family="Helvetica,sans-Serif" font-size="11.00">DigitalIn</text>
<polyline fill="none" stroke="black" points="0,-32.5 107,-32.5 "/>
<text text-anchor="start" x="8" y="-19.7" font-family="Helvetica,sans-Serif" font-size="11.00">+read(): int</text>
<text text-anchor="start" x="8" y="-7.7" font-family="Helvetica,sans-Serif" font-size="11.00">+write(int): void</text>
</g>
<!-- DigitalOut&#45;&gt;DigitalIn -->
<g id="edge1" class="edge">
<title>DigitalOut&#45;&gt;DigitalIn</title>
<path fill="none" stroke="black" d="M53.5,-89.28C53.5,-89.28 53.5,-60.53 53.5,-60.53"/>
<polygon fill="none" stroke="black" points="56.3,-60.53 53.5,-52.53 50.7,-60.53 56.3,-60.53"/>
</g>
<!-- MBED_CONF_NANOSTACK_CONFIGURATION -->
<g id="node3" class="node">
<title>MBED_CONF_NANOSTACK_CONFIGURATION</title>
<polygon fill="none" stroke="black" points="125,-95.5 125,-135.5 380,-135.5 380,-95.5 125,-95.5"/>
<text text-anchor="middle" x="252.5" y="-122.7" font-family="Helvetica,sans-Serif" font-size="11.00">MBED_CONF_NANOSTACK_CONFIGURATION</text>
<polyline fill="none" stroke="black" points="125,-115.5 380,-115.5 "/>
<text text-anchor="start" x="133" y="-102.7" font-family="Helvetica,sans-Serif" font-size="11.00">value: nanostack_full</text>
</g>
<!-- MBED_CONF_NSAPI_DEFAULT_STACK -->
<g id="node4" class="node">
<title>MBED_CONF_NSAPI_DEFAULT_STACK</title>
<polygon fill="none" stroke="black" points="398.5,-95.5 398.5,-135.5 614.5,-135.5 614.5,-95.5 398.5,-95.5"/>
<text text-anchor="middle" x="506.5" y="-122.7" font-family="Helvetica,sans-Serif" font-size="11.00">MBED_CONF_NSAPI_DEFAULT_STACK</text>
<polyline fill="none" stroke="black" points="398.5,-115.5 614.5,-115.5 "/>
<text text-anchor="start" x="406.5" y="-102.7" font-family="Helvetica,sans-Serif" font-size="11.00">value: LWIP</text>
</g>
<!-- MBED_CONF_PLATFORM_STDIO_BAUD_RATE -->
<g id="node5" class="node">
<title>MBED_CONF_PLATFORM_STDIO_BAUD_RATE</title>
<polygon fill="none" stroke="black" points="632.5,-95.5 632.5,-135.5 890.5,-135.5 890.5,-95.5 632.5,-95.5"/>
<text text-anchor="middle" x="761.5" y="-122.7" font-family="Helvetica,sans-Serif" font-size="11.00">MBED_CONF_PLATFORM_STDIO_BAUD_RATE</text>
<polyline fill="none" stroke="black" points="632.5,-115.5 890.5,-115.5 "/>
<text text-anchor="start" x="640.5" y="-102.7" font-family="Helvetica,sans-Serif" font-size="11.00">value: 9600</text>
</g>
<!-- MBED_CONF_LWIP_TCP_MSS -->
<g id="node6" class="node">
<title>MBED_CONF_LWIP_TCP_MSS</title>
<polygon fill="none" stroke="black" points="908.5,-95.5 908.5,-135.5 1078.5,-135.5 1078.5,-95.5 908.5,-95.5"/>
<text text-anchor="middle" x="993.5" y="-122.7" font-family="Helvetica,sans-Serif" font-size="11.00">MBED_CONF_LWIP_TCP_MSS</text>
<polyline fill="none" stroke="black" points="908.5,-115.5 1078.5,-115.5 "/>
<text text-anchor="start" x="916.5" y="-102.7" font-family="Helvetica,sans-Serif" font-size="11.00">value: 1460</text>
</g>
<!-- MBED_CONF_QUECTEL_BG96_BAUDRATE -->
<g id="node7" class="node">
<title>MBED_CONF_QUECTEL_BG96_BAUDRATE</title>
<polygon fill="none" stroke="black" points="1096.5,-95.5 1096.5,-135.5 1336.5,-135.5 1336.5,-95.5 1096.5,-95.5"/>
<text text-anchor="middle" x="1216.5" y="-122.7" font-family="Helvetica,sans-Serif" font-size="11.00">MBED_CONF_QUECTEL_BG96_BAUDRATE</text>
<polyline fill="none" stroke="black" points="1096.5,-115.5 1336.5,-115.5 "/>
<text text-anchor="start" x="1104.5" y="-102.7" font-family="Helvetica,sans-Serif" font-size="11.00">value: 115200</text>
</g>
</g>
</svg>
