<?xml version="1.0" encoding="UTF-8" standalone="no"?>
<!DOCTYPE svg PUBLIC "-//W3C//DTD SVG 1.1//EN"
 "http://www.w3.org/Graphics/SVG/1.1/DTD/svg11.dtd">
<!-- Generated by graphviz version 2.43.0 (0)
 -->
<!-- Title: ClassDiagram Pages: 1 -->
<svg width="1516pt" height="278pt"
 viewBox="0.00 0.00 1516.00 278.00" xmlns="http://www.w3.org/2000/svg" xmlns:xlink="http://www.w3.org/1999/xlink">
<g id="graph0" class="graph" transform="scale(1 1) rotate(0) translate(4 274)">
<title>ClassDiagram</title>
<polygon fill="#ffffff" stroke="transparent" points="-4,4 -4,-274 1512,-274 1512,4 -4,4"/>
<!-- DigitalOut -->
<g id="node1" class="node">
<title>DigitalOut</title>
<polygon fill="none" stroke="black" points="1037,-0.5 1037,-72.5 1151,-72.5 1151,-0.5 1037,-0.5"/>
<text text-anchor="middle" x="1094" y="-59.7" font-family="Helvetica,sans-Serif" font-size="11.00">DigitalOut</text>
<polyline fill="none" stroke="black" points="1037,-52.5 1151,-52.5 "/>
<text text-anchor="start" x="1045" y="-39.7" font-family="Helvetica,sans-Serif" font-size="11.00">+led: PinName</text>
<polyline fill="none" stroke="black" points="1037,-32.5 1151,-32.5 "/>
<text text-anchor="start" x="1045" y="-19.7" font-family="Helvetica,sans-Serif" font-size="11.00">+write(value: int)</text>
<text text-anchor="start" x="1045" y="-7.7" font-family="Helvetica,sans-Serif" font-size="11.00">+read(): int</text>
</g>
<!-- DigitalIn -->
<g id="node2" class="node">
<title>DigitalIn</title>
<polygon fill="none" stroke="black" points="0,-110.5 0,-182.5 110,-182.5 110,-110.5 0,-110.5"/>
<text text-anchor="middle" x="55" y="-169.7" font-family="Helvetica,sans-Serif" font-size="11.00">DigitalIn</text>
<polyline fill="none" stroke="black" points="0,-162.5 110,-162.5 "/>
<text text-anchor="start" x="8" y="-149.7" font-family="Helvetica,sans-Serif" font-size="11.00">+pin: PinName</text>
<text text-anchor="start" x="8" y="-137.7" font-family="Helvetica,sans-Serif" font-size="11.00">+mode: PinMode</text>
<polyline fill="none" stroke="black" points="0,-130.5 110,-130.5 "/>
<text text-anchor="start" x="8" y="-117.7" font-family="Helvetica,sans-Serif" font-size="11.00">+read(): int</text>
</g>
<!-- ThisThread -->
<g id="node3" class="node">
<title>ThisThread</title>
<polygon fill="none" stroke="black" points="525.5,-116.5 525.5,-176.5 716.5,-176.5 716.5,-116.5 525.5,-116.5"/>
<text text-anchor="middle" x="621" y="-163.7" font-family="Helvetica,sans-Serif" font-size="11.00">ThisThread</text>
<polyline fill="none" stroke="black" points="525.5,-156.5 716.5,-156.5 "/>
<text text-anchor="middle" x="621" y="-143.7" font-family="Helvetica,sans-Serif" font-size="11.00"> </text>
<polyline fill="none" stroke="black" points="525.5,-136.5 716.5,-136.5 "/>
<text text-anchor="start" x="533.5" y="-123.7" font-family="Helvetica,sans-Serif" font-size="11.00">+sleep_for(duration: TimePoint)</text>
</g>
<!-- set_led1_state -->
<g id="node4" class="node">
<title>set_led1_state</title>
<path fill="none" stroke="black" d="M1093.5,-164.5C1093.5,-164.5 872.5,-164.5 872.5,-164.5 866.5,-164.5 860.5,-158.5 860.5,-152.5 860.5,-152.5 860.5,-140.5 860.5,-140.5 860.5,-134.5 866.5,-128.5 872.5,-128.5 872.5,-128.5 1093.5,-128.5 1093.5,-128.5 1099.5,-128.5 1105.5,-134.5 1105.5,-140.5 1105.5,-140.5 1105.5,-152.5 1105.5,-152.5 1105.5,-158.5 1099.5,-164.5 1093.5,-164.5"/>
<text text-anchor="middle" x="983" y="-143.7" font-family="Helvetica,sans-Serif" font-size="11.00">set_led1_state(led: DigitalOut&amp;, on: bool)</text>
</g>
<!-- set_led1_state&#45;&gt;DigitalOut -->
<g id="edge4" class="edge">
<title>set_led1_state&#45;&gt;DigitalOut</title>
<path fill="none" stroke="black" d="M1071.25,-128.34C1071.25,-128.34 1071.25,-82.95 1071.25,-82.95"/>
<polygon fill="black" stroke="black" points="1074.75,-82.95 1071.25,-72.95 1067.75,-82.95 1074.75,-82.95"/>
</g>
<!-- blink_led1 -->
<g id="node5" class="node">
<title>blink_led1</title>
<path fill="none" stroke="black" d="M1352.5,-164.5C1352.5,-164.5 1209.5,-164.5 1209.5,-164.5 1203.5,-164.5 1197.5,-158.5 1197.5,-152.5 1197.5,-152.5 1197.5,-140.5 1197.5,-140.5 1197.5,-134.5 1203.5,-128.5 1209.5,-128.5 1209.5,-128.5 1352.5,-128.5 1352.5,-128.5 1358.5,-128.5 1364.5,-134.5 1364.5,-140.5 1364.5,-140.5 1364.5,-152.5 1364.5,-152.5 1364.5,-158.5 1358.5,-164.5 1352.5,-164.5"/>
<text text-anchor="middle" x="1281" y="-143.7" font-family="Helvetica,sans-Serif" font-size="11.00">blink_led1(led: DigitalOut&amp;)</text>
</g>
<!-- blink_led1&#45;&gt;DigitalOut -->
<g id="edge5" class="edge">
<title>blink_led1&#45;&gt;DigitalOut</title>
<path fill="none" stroke="black" d="M1197.47,-146C1161.81,-146 1128.25,-146 1128.25,-146 1128.25,-146 1128.25,-82.66 1128.25,-82.66"/>
<polygon fill="black" stroke="black" points="1131.75,-82.66 1128.25,-72.66 1124.75,-82.66 1131.75,-82.66"/>
</g>
<!-- main_func -->
<g id="node6" class="node">
<title>main_func</title>
<path fill="none" stroke="black" d="M742,-270C742,-270 712,-270 712,-270 706,-270 700,-264 700,-258 700,-258 700,-246 700,-246 700,-240 706,-234 712,-234 712,-234 742,-234 742,-234 748,-234 754,-240 754,-246 754,-246 754,-258 754,-258 754,-264 748,-270 742,-270"/>
<text text-anchor="middle" x="727" y="-249.2" font-family="Helvetica,sans-Serif" font-size="11.00">main()</text>
</g>
<!-- main_func&#45;&gt;DigitalIn -->
<g id="edge3" class="edge">
<title>main_func&#45;&gt;DigitalIn</title>
<path fill="none" stroke="black" stroke-dasharray="5,2" d="M699.82,-252C574.1,-252 55,-252 55,-252 55,-252 55,-192.51 55,-192.51"/>
<polygon fill="black" stroke="black" points="58.5,-192.51 55,-182.51 51.5,-192.51 58.5,-192.51"/>
<text text-anchor="middle" x="140.5" y="-204.8" font-family="Times,serif" font-size="14.00">&lt;&lt;#ifdef BUTTON1&gt;&gt;</text>
</g>
<!-- main_func&#45;&gt;ThisThread -->
<g id="edge6" class="edge">
<title>main_func&#45;&gt;ThisThread</title>
<path fill="none" stroke="black" stroke-dasharray="5,2" d="M704.12,-233.62C704.12,-233.62 704.12,-186.63 704.12,-186.63"/>
<polygon fill="black" stroke="black" points="707.63,-186.63 704.12,-176.63 700.63,-186.64 707.63,-186.63"/>
<text text-anchor="middle" x="423.5" y="-204.8" font-family="Times,serif" font-size="14.00">&lt;&lt;#if defined(LED1) &amp;&amp; defined(BUTTON1)&gt;&gt;</text>
</g>
<!-- main_func&#45;&gt;ThisThread -->
<g id="edge7" class="edge">
<title>main_func&#45;&gt;ThisThread</title>
<path fill="none" stroke="black" stroke-dasharray="5,2" d="M708.25,-233.62C708.25,-233.62 708.25,-186.63 708.25,-186.63"/>
<polygon fill="black" stroke="black" points="711.75,-186.63 708.25,-176.63 704.75,-186.64 711.75,-186.63"/>
<text text-anchor="middle" x="716" y="-204.8" font-family="Times,serif" font-size="14.00">&lt;&lt;#elif defined(LED1)&gt;&gt;</text>
</g>
<!-- main_func&#45;&gt;ThisThread -->
<g id="edge8" class="edge">
<title>main_func&#45;&gt;ThisThread</title>
<path fill="none" stroke="black" stroke-dasharray="5,2" d="M712.38,-233.62C712.38,-233.62 712.38,-186.63 712.38,-186.63"/>
<polygon fill="black" stroke="black" points="715.88,-186.63 712.38,-176.63 708.88,-186.64 715.88,-186.63"/>
<text text-anchor="middle" x="878.5" y="-204.8" font-family="Times,serif" font-size="14.00">&lt;&lt;#else&gt;&gt;</text>
</g>
<!-- main_func&#45;&gt;set_led1_state -->
<g id="edge1" class="edge">
<title>main_func&#45;&gt;set_led1_state</title>
<path fill="none" stroke="black" stroke-dasharray="5,2" d="M735.25,-233.54C735.25,-203.17 735.25,-146 735.25,-146 735.25,-146 850.21,-146 850.21,-146"/>
<polygon fill="black" stroke="black" points="850.21,-149.5 860.21,-146 850.21,-142.5 850.21,-149.5"/>
<text text-anchor="middle" x="1120.5" y="-204.8" font-family="Times,serif" font-size="14.00">&lt;&lt;#if defined(LED1) &amp;&amp; defined(BUTTON1)&gt;&gt;</text>
</g>
<!-- main_func&#45;&gt;blink_led1 -->
<g id="edge2" class="edge">
<title>main_func&#45;&gt;blink_led1</title>
<path fill="none" stroke="black" stroke-dasharray="5,2" d="M754.1,-252C865.32,-252 1281,-252 1281,-252 1281,-252 1281,-174.88 1281,-174.88"/>
<polygon fill="black" stroke="black" points="1284.5,-174.88 1281,-164.88 1277.5,-174.88 1284.5,-174.88"/>
<text text-anchor="middle" x="1413" y="-204.8" font-family="Times,serif" font-size="14.00">&lt;&lt;#elif defined(LED1)&gt;&gt;</text>
</g>
</g>
</svg>
