<?xml version="1.0" encoding="UTF-8" standalone="no"?>
<!DOCTYPE svg PUBLIC "-//W3C//DTD SVG 1.1//EN"
 "http://www.w3.org/Graphics/SVG/1.1/DTD/svg11.dtd">
<!-- Generated by graphviz version 2.43.0 (0)
 -->
<!-- Title: SequenceDiagram Pages: 1 -->
<svg width="667pt" height="1123pt"
 viewBox="0.00 0.00 667.00 1122.78" xmlns="http://www.w3.org/2000/svg" xmlns:xlink="http://www.w3.org/1999/xlink">
<g id="graph0" class="graph" transform="scale(1 1) rotate(0) translate(4 1118.78)">
<title>SequenceDiagram</title>
<polygon fill="#ffffff" stroke="transparent" points="-4,4 -4,-1118.78 663,-1118.78 663,4 -4,4"/>
<!-- Main -->
<g id="node1" class="node">
<title>Main</title>
<polygon fill="#f8f9fa" stroke="black" points="155,-321.78 66,-321.78 66,-285.78 155,-285.78 155,-321.78"/>
<text text-anchor="middle" x="110.5" y="-306.98" font-family="Helvetica,sans-Serif" font-size="11.00">Main</text>
<text text-anchor="middle" x="110.5" y="-294.98" font-family="Helvetica,sans-Serif" font-size="11.00">(Component)</text>
</g>
<!-- Main&#45;&gt;Main -->
<g id="edge1" class="edge">
<title>Main&#45;&gt;Main</title>
<path fill="none" stroke="black" d="M104.89,-321.89C98,-353.02 99.87,-393.78 110.5,-393.78 120.01,-393.78 122.51,-361.16 118,-332"/>
<polygon fill="black" stroke="black" points="121.38,-331.08 116.11,-321.89 114.5,-332.37 121.38,-331.08"/>
<text text-anchor="middle" x="110.5" y="-396.78" font-family="Helvetica,sans-Serif" font-size="10.00">1: Program started</text>
</g>
<!-- Main&#45;&gt;Main -->
<g id="edge3" class="edge">
<title>Main&#45;&gt;Main</title>
<path fill="none" stroke="black" d="M103.32,-322.11C84.98,-378.98 87.37,-465.78 110.5,-465.78 132.32,-465.78 135.69,-388.54 120.6,-332.04"/>
<polygon fill="black" stroke="black" points="123.86,-330.71 117.68,-322.11 117.14,-332.69 123.86,-330.71"/>
<text text-anchor="middle" x="110.5" y="-468.78" font-family="Helvetica,sans-Serif" font-size="10.00">3: printf(&quot;LED1 starts as ON/OFF&quot;)</text>
</g>
<!-- Main&#45;&gt;Main -->
<g id="edge5" class="edge">
<title>Main&#45;&gt;Main</title>
<path fill="none" stroke="black" d="M102.72,-321.82C72,-403.51 74.6,-537.78 110.5,-537.78 145,-537.78 148.74,-413.8 121.73,-331.63"/>
<polygon fill="black" stroke="black" points="124.9,-330.1 118.28,-321.82 118.3,-332.42 124.9,-330.1"/>
<text text-anchor="middle" x="110.5" y="-540.78" font-family="Helvetica,sans-Serif" font-size="10.00">5: printf(&quot;Main loop started&quot;)</text>
</g>
<!-- Main&#45;&gt;Main -->
<g id="edge8" class="edge">
<title>Main&#45;&gt;Main</title>
<path fill="none" stroke="black" d="M102.23,-322.04C59.07,-428.24 61.82,-609.78 110.5,-609.78 157.75,-609.78 161.73,-438.72 122.45,-331.56"/>
<polygon fill="black" stroke="black" points="125.64,-330.11 118.77,-322.04 119.11,-332.63 125.64,-330.11"/>
<text text-anchor="middle" x="110.5" y="-612.78" font-family="Helvetica,sans-Serif" font-size="10.00">8: printf(&quot;BUTTON1 pressed %lu time(s)&quot;)</text>
</g>
<!-- Main&#45;&gt;Main -->
<g id="edge13" class="edge">
<title>Main&#45;&gt;Main</title>
<path fill="none" stroke="black" d="M102.03,-321.89C46.14,-452.38 48.96,-681.78 110.5,-681.78 170.6,-681.78 174.7,-463.01 122.81,-331.22"/>
<polygon fill="black" stroke="black" points="126.01,-329.81 118.97,-321.89 119.53,-332.47 126.01,-329.81"/>
<text text-anchor="middle" x="110.5" y="-684.78" font-family="Helvetica,sans-Serif" font-size="10.00">13: printf(&quot;LED1 is ON/OFF&quot;)</text>
</g>
<!-- LED1 -->
<g id="node2" class="node">
<title>LED1</title>
<polygon fill="#f8f9fa" stroke="black" points="629.5,-497.78 548.5,-497.78 548.5,-461.78 629.5,-461.78 629.5,-497.78"/>
<text text-anchor="middle" x="589" y="-482.98" font-family="Helvetica,sans-Serif" font-size="11.00">LED1</text>
<text text-anchor="middle" x="589" y="-470.98" font-family="Helvetica,sans-Serif" font-size="11.00">(DigitalOut)</text>
</g>
<!-- Main&#45;&gt;LED1 -->
<g id="edge2" class="edge">
<title>Main&#45;&gt;LED1</title>
<path fill="none" stroke="black" stroke-dasharray="5,2" d="M120.02,-321.94C144.06,-372.32 213.53,-511.73 257,-535.78 344.89,-584.41 385.55,-560.14 483,-535.78 508.38,-529.44 534.33,-515.67 554.09,-503.38"/>
<polygon fill="black" stroke="black" points="556.17,-506.2 562.71,-497.86 552.4,-500.3 556.17,-506.2"/>
<text text-anchor="middle" x="370" y="-566.78" font-family="Helvetica,sans-Serif" font-size="10.00">2: DigitalOut led(LED1)</text>
</g>
<!-- Main&#45;&gt;LED1 -->
<g id="edge7" class="edge">
<title>Main&#45;&gt;LED1</title>
<path fill="none" stroke="black" d="M123.33,-321.84C145.33,-353.68 195.86,-419.12 257,-447.78 348.92,-490.87 470.73,-489.86 538,-485.01"/>
<polygon fill="black" stroke="black" points="538.62,-488.47 548.32,-484.2 538.08,-481.49 538.62,-488.47"/>
<text text-anchor="middle" x="370" y="-489.78" font-family="Helvetica,sans-Serif" font-size="10.00">7: set_led1_state(led, pressed)</text>
</g>
<!-- Main&#45;&gt;LED1 -->
<g id="edge10" class="edge">
<title>Main&#45;&gt;LED1</title>
<path fill="none" stroke="black" stroke-dasharray="5,2" d="M155.23,-321.23C184.02,-332.56 222.6,-347.46 257,-359.78 356.63,-395.46 384.05,-397.24 483,-434.78 501.46,-441.79 521.45,-450.15 538.97,-457.75"/>
<polygon fill="black" stroke="black" points="537.87,-461.09 548.43,-461.89 540.67,-454.68 537.87,-461.09"/>
<text text-anchor="middle" x="370" y="-437.78" font-family="Helvetica,sans-Serif" font-size="10.00">10: blink_led1(led)</text>
</g>
<!-- Main&#45;&gt;LED1 -->
<g id="edge12" class="edge">
<title>Main&#45;&gt;LED1</title>
<path fill="none" stroke="black" stroke-dasharray="5,2" d="M155.1,-298.55C228.02,-291.94 377.11,-287.71 483,-346.78 526.31,-370.94 558.11,-420.95 574.78,-452.29"/>
<polygon fill="black" stroke="black" points="571.76,-454.08 579.46,-461.37 577.99,-450.87 571.76,-454.08"/>
<text text-anchor="middle" x="370" y="-349.78" font-family="Helvetica,sans-Serif" font-size="10.00">12: led.read() != 0</text>
</g>
<!-- BUTTON1 -->
<g id="node3" class="node">
<title>BUTTON1</title>
<polygon fill="#f8f9fa" stroke="black" points="624.5,-233.78 553.5,-233.78 553.5,-197.78 624.5,-197.78 624.5,-233.78"/>
<text text-anchor="middle" x="589" y="-218.98" font-family="Helvetica,sans-Serif" font-size="11.00">BUTTON1</text>
<text text-anchor="middle" x="589" y="-206.98" font-family="Helvetica,sans-Serif" font-size="11.00">(DigitalIn)</text>
</g>
<!-- Main&#45;&gt;BUTTON1 -->
<g id="edge4" class="edge">
<title>Main&#45;&gt;BUTTON1</title>
<path fill="none" stroke="black" stroke-dasharray="5,2" d="M155.23,-288.11C183.85,-278.39 222.25,-266.35 257,-258.78 358.1,-236.75 479.2,-224.53 543.21,-219.16"/>
<polygon fill="black" stroke="black" points="543.68,-222.63 553.36,-218.32 543.11,-215.65 543.68,-222.63"/>
<text text-anchor="middle" x="370" y="-261.78" font-family="Helvetica,sans-Serif" font-size="10.00">4: DigitalIn button(BUTTON1, PullUp)</text>
</g>
<!-- Main&#45;&gt;BUTTON1 -->
<g id="edge6" class="edge">
<title>Main&#45;&gt;BUTTON1</title>
<path fill="none" stroke="black" stroke-dasharray="5,2" d="M128.14,-285.58C153.14,-259.73 203.24,-213.55 257,-195.78 355.06,-163.36 478.24,-186.2 543.17,-202.77"/>
<polygon fill="black" stroke="black" points="542.52,-206.22 553.08,-205.37 544.29,-199.45 542.52,-206.22"/>
<text text-anchor="middle" x="370" y="-198.78" font-family="Helvetica,sans-Serif" font-size="10.00">6: button.read() == 0</text>
</g>
<!-- ThisThread -->
<g id="node4" class="node">
<title>ThisThread</title>
<polygon fill="#f8f9fa" stroke="black" points="659,-57.78 519,-57.78 519,-21.78 659,-21.78 659,-57.78"/>
<text text-anchor="middle" x="589" y="-42.98" font-family="Helvetica,sans-Serif" font-size="11.00">ThisThread</text>
<text text-anchor="middle" x="589" y="-30.98" font-family="Helvetica,sans-Serif" font-size="11.00">(Thread Management)</text>
</g>
<!-- Main&#45;&gt;ThisThread -->
<g id="edge9" class="edge">
<title>Main&#45;&gt;ThisThread</title>
<path fill="none" stroke="black" d="M123.95,-285.59C146.73,-253.62 198.22,-187.24 257,-149.78 335.25,-99.92 438.4,-70.34 508.61,-54.63"/>
<polygon fill="black" stroke="black" points="509.71,-57.97 518.73,-52.41 508.21,-51.13 509.71,-57.97"/>
<text text-anchor="middle" x="370" y="-152.78" font-family="Helvetica,sans-Serif" font-size="10.00">9: ThisThread::sleep_for(BUTTON_POLL_RATE)</text>
</g>
<!-- Main&#45;&gt;ThisThread -->
<g id="edge11" class="edge">
<title>Main&#45;&gt;ThisThread</title>
<path fill="none" stroke="black" d="M114.7,-285.46C124.77,-234.2 160.99,-89.31 257,-31.78 338.59,17.1 452.99,-0.55 523.7,-19.15"/>
<polygon fill="black" stroke="black" points="522.81,-22.53 533.38,-21.77 524.65,-15.77 522.81,-22.53"/>
<text text-anchor="middle" x="370" y="-34.78" font-family="Helvetica,sans-Serif" font-size="10.00">11: ThisThread::sleep_for(BLINKING_RATE)</text>
</g>
<!-- note -->
<g id="node5" class="node">
<title>note</title>
<polygon fill="#ffffe0" stroke="black" points="131.5,-574.78 83.5,-574.78 83.5,-538.78 137.5,-538.78 137.5,-568.78 131.5,-574.78"/>
<polyline fill="none" stroke="black" points="131.5,-574.78 131.5,-568.78 "/>
<polyline fill="none" stroke="black" points="137.5,-568.78 131.5,-568.78 "/>
<text text-anchor="middle" x="110.5" y="-554.28" font-family="Helvetica,sans-Serif" font-size="10.00">note</text>
</g>
<!-- note1 -->
<g id="node6" class="node">
<title>note1</title>
<polygon fill="#f8f9fa" stroke="black" points="143,-682.78 78,-682.78 78,-646.78 143,-646.78 143,-682.78"/>
<text text-anchor="middle" x="110.5" y="-661.98" font-family="Helvetica,sans-Serif" font-size="11.00">def LED1</text>
</g>
<!-- note2 -->
<g id="node7" class="node">
<title>note2</title>
<polygon fill="#f8f9fa" stroke="black" points="156,-790.78 65,-790.78 65,-754.78 156,-754.78 156,-790.78"/>
<text text-anchor="middle" x="110.5" y="-769.98" font-family="Helvetica,sans-Serif" font-size="11.00">def BUTTON1</text>
</g>
<!-- note3 -->
<g id="node8" class="node">
<title>note3</title>
<polygon fill="#f8f9fa" stroke="black" points="221,-898.78 0,-898.78 0,-862.78 221,-862.78 221,-898.78"/>
<text text-anchor="middle" x="110.5" y="-877.98" font-family="Helvetica,sans-Serif" font-size="11.00">defined(LED1) &amp;&amp; defined(BUTTON1)</text>
</g>
<!-- note4 -->
<g id="node9" class="node">
<title>note4</title>
<polygon fill="#f8f9fa" stroke="black" points="157.5,-1006.78 63.5,-1006.78 63.5,-970.78 157.5,-970.78 157.5,-1006.78"/>
<text text-anchor="middle" x="110.5" y="-985.98" font-family="Helvetica,sans-Serif" font-size="11.00">defined(LED1)</text>
</g>
<!-- note5 -->
<g id="node10" class="node">
<title>note5</title>
<polygon fill="#f8f9fa" stroke="black" points="157.5,-1114.78 63.5,-1114.78 63.5,-1078.78 157.5,-1078.78 157.5,-1114.78"/>
<text text-anchor="middle" x="110.5" y="-1093.98" font-family="Helvetica,sans-Serif" font-size="11.00">defined(LED1)</text>
</g>
</g>
</svg>
