<?xml version="1.0" encoding="UTF-8" standalone="no"?>
<!DOCTYPE svg PUBLIC "-//W3C//DTD SVG 1.1//EN"
 "http://www.w3.org/Graphics/SVG/1.1/DTD/svg11.dtd">
<!-- Generated by graphviz version 2.43.0 (0)
 -->
<!-- Title: ClassDiagram Pages: 1 -->
<svg width="284pt" height="81pt"
 viewBox="0.00 0.00 284.00 81.00" xmlns="http://www.w3.org/2000/svg" xmlns:xlink="http://www.w3.org/1999/xlink">
<g id="graph0" class="graph" transform="scale(1 1) rotate(0) translate(4 77)">
<title>ClassDiagram</title>
<polygon fill="#ffffff" stroke="transparent" points="-4,4 -4,-77 280,-77 280,4 -4,4"/>
<!-- DigitalIn -->
<g id="node1" class="node">
<title>DigitalIn</title>
<polygon fill="none" stroke="black" points="0,-0.5 0,-72.5 100,-72.5 100,-0.5 0,-0.5"/>
<text text-anchor="middle" x="50" y="-59.7" font-family="Helvetica,sans-Serif" font-size="11.00">DigitalIn</text>
<polyline fill="none" stroke="black" points="0,-52.5 100,-52.5 "/>
<text text-anchor="middle" x="50" y="-39.7" font-family="Helvetica,sans-Serif" font-size="11.00"> </text>
<polyline fill="none" stroke="black" points="0,-32.5 100,-32.5 "/>
<text text-anchor="start" x="8" y="-19.7" font-family="Helvetica,sans-Serif" font-size="11.00">+read(): int</text>
<text text-anchor="start" x="8" y="-7.7" font-family="Helvetica,sans-Serif" font-size="11.00">+mode(PullUp)</text>
</g>
<!-- ThisThread -->
<g id="node2" class="node">
<title>ThisThread</title>
<polygon fill="none" stroke="black" points="118,-6.5 118,-66.5 276,-66.5 276,-6.5 118,-6.5"/>
<text text-anchor="middle" x="197" y="-53.7" font-family="Helvetica,sans-Serif" font-size="11.00">ThisThread</text>
<polyline fill="none" stroke="black" points="118,-46.5 276,-46.5 "/>
<text text-anchor="middle" x="197" y="-33.7" font-family="Helvetica,sans-Serif" font-size="11.00"> </text>
<polyline fill="none" stroke="black" points="118,-26.5 276,-26.5 "/>
<text text-anchor="start" x="126" y="-13.7" font-family="Helvetica,sans-Serif" font-size="11.00">+sleep_for(duration time)</text>
</g>
</g>
</svg>
