<?xml version="1.0" encoding="UTF-8" standalone="no"?>
<!DOCTYPE svg PUBLIC "-//W3C//DTD SVG 1.1//EN"
 "http://www.w3.org/Graphics/SVG/1.1/DTD/svg11.dtd">
<!-- Generated by graphviz version 2.43.0 (0)
 -->
<!-- Title: EmbeddedDesign Pages: 1 -->
<svg width="7509pt" height="261pt"
 viewBox="0.00 0.00 7509.00 261.00" xmlns="http://www.w3.org/2000/svg" xmlns:xlink="http://www.w3.org/1999/xlink">
<g id="graph0" class="graph" transform="scale(1 1) rotate(0) translate(4 257)">
<title>EmbeddedDesign</title>
<polygon fill="#ffffff" stroke="transparent" points="-4,4 -4,-257 7505,-257 7505,4 -4,4"/>
<!-- DigitalOut -->
<g id="node1" class="node">
<title>DigitalOut</title>
<polygon fill="none" stroke="black" points="0,-6.5 0,-58.5 110,-58.5 110,-6.5 0,-6.5"/>
<text text-anchor="middle" x="55" y="-45.7" font-family="Helvetica,sans-Serif" font-size="11.00">DigitalOut</text>
<polyline fill="none" stroke="black" points="0,-38.5 110,-38.5 "/>
<text text-anchor="start" x="8" y="-25.7" font-family="Helvetica,sans-Serif" font-size="11.00">+read()</text>
<text text-anchor="start" x="8" y="-13.7" font-family="Helvetica,sans-Serif" font-size="11.00">+write(val: bool)</text>
</g>
<!-- DigitalIn -->
<g id="node2" class="node">
<title>DigitalIn</title>
<polygon fill="none" stroke="black" points="196,-12.5 196,-52.5 258,-52.5 258,-12.5 196,-12.5"/>
<text text-anchor="middle" x="227" y="-39.7" font-family="Helvetica,sans-Serif" font-size="11.00">DigitalIn</text>
<polyline fill="none" stroke="black" points="196,-32.5 258,-32.5 "/>
<text text-anchor="start" x="204" y="-19.7" font-family="Helvetica,sans-Serif" font-size="11.00">+read()</text>
</g>
<!-- main -->
<g id="node3" class="node">
<title>main</title>
<path fill="none" stroke="black" d="M2890.5,-188.5C2890.5,-188.5 3049.5,-188.5 3049.5,-188.5 3055.5,-188.5 3061.5,-194.5 3061.5,-200.5 3061.5,-200.5 3061.5,-240.5 3061.5,-240.5 3061.5,-246.5 3055.5,-252.5 3049.5,-252.5 3049.5,-252.5 2890.5,-252.5 2890.5,-252.5 2884.5,-252.5 2878.5,-246.5 2878.5,-240.5 2878.5,-240.5 2878.5,-200.5 2878.5,-200.5 2878.5,-194.5 2884.5,-188.5 2890.5,-188.5"/>
<text text-anchor="middle" x="2970" y="-239.7" font-family="Helvetica,sans-Serif" font-size="11.00">main()</text>
<polyline fill="none" stroke="black" points="2878.5,-232.5 3061.5,-232.5 "/>
<text text-anchor="start" x="2886.5" y="-219.7" font-family="Helvetica,sans-Serif" font-size="11.00">&#45; loop_started: bool</text>
<text text-anchor="start" x="2886.5" y="-207.7" font-family="Helvetica,sans-Serif" font-size="11.00">&#45; previous_led_state: bool</text>
<text text-anchor="start" x="2886.5" y="-195.7" font-family="Helvetica,sans-Serif" font-size="11.00">&#45; button_press_count: uint32_t</text>
</g>
<!-- main&#45;&gt;DigitalOut -->
<g id="edge1" class="edge">
<title>main&#45;&gt;DigitalOut</title>
<path fill="none" stroke="black" d="M2878.35,-245C2383.72,-245 55,-245 55,-245 55,-245 55,-68.56 55,-68.56"/>
<polygon fill="black" stroke="black" points="58.5,-68.56 55,-58.56 51.5,-68.56 58.5,-68.56"/>
<text text-anchor="middle" x="105" y="-122.8" font-family="Times,serif" font-size="14.00">[#ifdef LED1]</text>
</g>
<!-- main&#45;&gt;DigitalIn -->
<g id="edge2" class="edge">
<title>main&#45;&gt;DigitalIn</title>
<path fill="none" stroke="black" d="M2878.34,-238C2401.59,-238 227,-238 227,-238 227,-238 227,-62.58 227,-62.58"/>
<polygon fill="black" stroke="black" points="230.5,-62.58 227,-52.58 223.5,-62.58 230.5,-62.58"/>
<text text-anchor="middle" x="298.5" y="-122.8" font-family="Times,serif" font-size="14.00">[#ifdef BUTTON1]</text>
</g>
<!-- set_led1_state -->
<g id="node4" class="node">
<title>set_led1_state</title>
<path fill="none" stroke="black" d="M342,-14.5C342,-14.5 566,-14.5 566,-14.5 572,-14.5 578,-20.5 578,-26.5 578,-26.5 578,-38.5 578,-38.5 578,-44.5 572,-50.5 566,-50.5 566,-50.5 342,-50.5 342,-50.5 336,-50.5 330,-44.5 330,-38.5 330,-38.5 330,-26.5 330,-26.5 330,-20.5 336,-14.5 342,-14.5"/>
<text text-anchor="start" x="338" y="-29.7" font-family="Helvetica,sans-Serif" font-size="11.00">set_led1_state(led: DigitalOut &amp;, on: bool)</text>
</g>
<!-- main&#45;&gt;set_led1_state -->
<g id="edge3" class="edge">
<title>main&#45;&gt;set_led1_state</title>
<path fill="none" stroke="black" d="M2878.22,-231C2425.72,-231 454,-231 454,-231 454,-231 454,-60.82 454,-60.82"/>
<polygon fill="black" stroke="black" points="457.5,-60.82 454,-50.82 450.5,-60.82 457.5,-60.82"/>
<text text-anchor="middle" x="605.5" y="-122.8" font-family="Times,serif" font-size="14.00">[#if defined(LED1) &amp;&amp; defined(BUTTON1)]</text>
</g>
<!-- blink_led1 -->
<g id="node5" class="node">
<title>blink_led1</title>
<path fill="none" stroke="black" d="M764.5,-14.5C764.5,-14.5 911.5,-14.5 911.5,-14.5 917.5,-14.5 923.5,-20.5 923.5,-26.5 923.5,-26.5 923.5,-38.5 923.5,-38.5 923.5,-44.5 917.5,-50.5 911.5,-50.5 911.5,-50.5 764.5,-50.5 764.5,-50.5 758.5,-50.5 752.5,-44.5 752.5,-38.5 752.5,-38.5 752.5,-26.5 752.5,-26.5 752.5,-20.5 758.5,-14.5 764.5,-14.5"/>
<text text-anchor="start" x="760.5" y="-29.7" font-family="Helvetica,sans-Serif" font-size="11.00">blink_led1(led: DigitalOut &amp;)</text>
</g>
<!-- main&#45;&gt;blink_led1 -->
<g id="edge4" class="edge">
<title>main&#45;&gt;blink_led1</title>
<path fill="none" stroke="black" d="M2878.39,-224C2470.31,-224 838,-224 838,-224 838,-224 838,-60.52 838,-60.52"/>
<polygon fill="black" stroke="black" points="841.5,-60.52 838,-50.52 834.5,-60.52 841.5,-60.52"/>
<text text-anchor="middle" x="914.5" y="-122.8" font-family="Times,serif" font-size="14.00">[#elif defined(LED1)]</text>
</g>
<!-- LWIPStack -->
<g id="node6" class="node">
<title>LWIPStack</title>
<path fill="none" stroke="black" d="M1033,-6.5C1033,-6.5 1103,-6.5 1103,-6.5 1109,-6.5 1115,-12.5 1115,-18.5 1115,-18.5 1115,-46.5 1115,-46.5 1115,-52.5 1109,-58.5 1103,-58.5 1103,-58.5 1033,-58.5 1033,-58.5 1027,-58.5 1021,-52.5 1021,-46.5 1021,-46.5 1021,-18.5 1021,-18.5 1021,-12.5 1027,-6.5 1033,-6.5"/>
<text text-anchor="middle" x="1068" y="-45.7" font-family="Helvetica,sans-Serif" font-size="11.00">LWIPStack</text>
<polyline fill="none" stroke="black" points="1021,-38.5 1115,-38.5 "/>
<text text-anchor="start" x="1029" y="-25.7" font-family="Helvetica,sans-Serif" font-size="11.00">+initialize()</text>
<text text-anchor="start" x="1029" y="-13.7" font-family="Helvetica,sans-Serif" font-size="11.00">+deinitialize()</text>
</g>
<!-- main&#45;&gt;LWIPStack -->
<g id="edge5" class="edge">
<title>main&#45;&gt;LWIPStack</title>
<path fill="none" stroke="black" d="M2878.26,-216C2498.33,-216 1068,-216 1068,-216 1068,-216 1068,-68.79 1068,-68.79"/>
<polygon fill="black" stroke="black" points="1071.5,-68.79 1068,-58.79 1064.5,-68.79 1071.5,-68.79"/>
<text text-anchor="middle" x="1274" y="-122.8" font-family="Times,serif" font-size="14.00">[#ifdef MBED_CONF_NSAPI_DEFAULT_STACK == LWIP]</text>
</g>
<!-- Nanostack -->
<g id="node7" class="node">
<title>Nanostack</title>
<path fill="none" stroke="black" d="M1526,-6.5C1526,-6.5 1588,-6.5 1588,-6.5 1594,-6.5 1600,-12.5 1600,-18.5 1600,-18.5 1600,-46.5 1600,-46.5 1600,-52.5 1594,-58.5 1588,-58.5 1588,-58.5 1526,-58.5 1526,-58.5 1520,-58.5 1514,-52.5 1514,-46.5 1514,-46.5 1514,-18.5 1514,-18.5 1514,-12.5 1520,-6.5 1526,-6.5"/>
<text text-anchor="middle" x="1557" y="-45.7" font-family="Helvetica,sans-Serif" font-size="11.00">Nanostack</text>
<polyline fill="none" stroke="black" points="1514,-38.5 1600,-38.5 "/>
<text text-anchor="start" x="1522" y="-25.7" font-family="Helvetica,sans-Serif" font-size="11.00">+configure()</text>
<text text-anchor="start" x="1522" y="-13.7" font-family="Helvetica,sans-Serif" font-size="11.00">+connect()</text>
</g>
<!-- main&#45;&gt;Nanostack -->
<g id="edge6" class="edge">
<title>main&#45;&gt;Nanostack</title>
<path fill="none" stroke="black" d="M2878.38,-209C2565.26,-209 1557,-209 1557,-209 1557,-209 1557,-68.54 1557,-68.54"/>
<polygon fill="black" stroke="black" points="1560.5,-68.54 1557,-58.54 1553.5,-68.54 1560.5,-68.54"/>
<text text-anchor="middle" x="1821" y="-122.8" font-family="Times,serif" font-size="14.00">[#ifdef MBED_CONF_NANOSTACK_CONFIGURATION == nanostack_full]</text>
</g>
<!-- SerialCommunication -->
<g id="node8" class="node">
<title>SerialCommunication</title>
<path fill="none" stroke="black" d="M2099.5,-0.5C2099.5,-0.5 2224.5,-0.5 2224.5,-0.5 2230.5,-0.5 2236.5,-6.5 2236.5,-12.5 2236.5,-12.5 2236.5,-52.5 2236.5,-52.5 2236.5,-58.5 2230.5,-64.5 2224.5,-64.5 2224.5,-64.5 2099.5,-64.5 2099.5,-64.5 2093.5,-64.5 2087.5,-58.5 2087.5,-52.5 2087.5,-52.5 2087.5,-12.5 2087.5,-12.5 2087.5,-6.5 2093.5,-0.5 2099.5,-0.5"/>
<text text-anchor="middle" x="2162" y="-51.7" font-family="Helvetica,sans-Serif" font-size="11.00">SerialCommunication</text>
<polyline fill="none" stroke="black" points="2087.5,-44.5 2236.5,-44.5 "/>
<text text-anchor="start" x="2095.5" y="-31.7" font-family="Helvetica,sans-Serif" font-size="11.00">+setBaudRate(rate: int)</text>
<text text-anchor="start" x="2095.5" y="-19.7" font-family="Helvetica,sans-Serif" font-size="11.00">+read()</text>
<text text-anchor="start" x="2095.5" y="-7.7" font-family="Helvetica,sans-Serif" font-size="11.00">+write(data: string)</text>
</g>
<!-- main&#45;&gt;SerialCommunication -->
<g id="edge7" class="edge">
<title>main&#45;&gt;SerialCommunication</title>
<path fill="none" stroke="black" d="M2878.49,-202C2666.95,-202 2162,-202 2162,-202 2162,-202 2162,-74.78 2162,-74.78"/>
<polygon fill="black" stroke="black" points="2165.5,-74.78 2162,-64.78 2158.5,-74.78 2165.5,-74.78"/>
<text text-anchor="middle" x="2436" y="-122.8" font-family="Times,serif" font-size="14.00">[#ifdef MBED_CONF_PLATFORM_DEFAULT_SERIAL_BAUD_RATE == 9600]</text>
</g>
<!-- LWIPMemory -->
<g id="node9" class="node">
<title>LWIPMemory</title>
<path fill="none" stroke="black" d="M2738,-6.5C2738,-6.5 2836,-6.5 2836,-6.5 2842,-6.5 2848,-12.5 2848,-18.5 2848,-18.5 2848,-46.5 2848,-46.5 2848,-52.5 2842,-58.5 2836,-58.5 2836,-58.5 2738,-58.5 2738,-58.5 2732,-58.5 2726,-52.5 2726,-46.5 2726,-46.5 2726,-18.5 2726,-18.5 2726,-12.5 2732,-6.5 2738,-6.5"/>
<text text-anchor="middle" x="2787" y="-45.7" font-family="Helvetica,sans-Serif" font-size="11.00">LWIPMemory</text>
<polyline fill="none" stroke="black" points="2726,-38.5 2848,-38.5 "/>
<text text-anchor="start" x="2734" y="-25.7" font-family="Helvetica,sans-Serif" font-size="11.00">+allocate(size: int)</text>
<text text-anchor="start" x="2734" y="-13.7" font-family="Helvetica,sans-Serif" font-size="11.00">+deallocate()</text>
</g>
<!-- main&#45;&gt;LWIPMemory -->
<g id="edge8" class="edge">
<title>main&#45;&gt;LWIPMemory</title>
<path fill="none" stroke="black" d="M2878.23,-195C2832.57,-195 2787,-195 2787,-195 2787,-195 2787,-68.61 2787,-68.61"/>
<polygon fill="black" stroke="black" points="2790.5,-68.61 2787,-58.61 2783.5,-68.61 2790.5,-68.61"/>
<text text-anchor="middle" x="2931.5" y="-122.8" font-family="Times,serif" font-size="14.00">[#ifdef MBED_CONF_LWIP_MEM_SIZE]</text>
</g>
<!-- MinimalPrintf -->
<g id="node10" class="node">
<title>MinimalPrintf</title>
<path fill="none" stroke="black" d="M3103,-12.5C3103,-12.5 3203,-12.5 3203,-12.5 3209,-12.5 3215,-18.5 3215,-24.5 3215,-24.5 3215,-40.5 3215,-40.5 3215,-46.5 3209,-52.5 3203,-52.5 3203,-52.5 3103,-52.5 3103,-52.5 3097,-52.5 3091,-46.5 3091,-40.5 3091,-40.5 3091,-24.5 3091,-24.5 3091,-18.5 3097,-12.5 3103,-12.5"/>
<text text-anchor="middle" x="3153" y="-39.7" font-family="Helvetica,sans-Serif" font-size="11.00">MinimalPrintf</text>
<polyline fill="none" stroke="black" points="3091,-32.5 3215,-32.5 "/>
<text text-anchor="start" x="3099" y="-19.7" font-family="Helvetica,sans-Serif" font-size="11.00">+print(data: string)</text>
</g>
<!-- main&#45;&gt;MinimalPrintf -->
<g id="edge9" class="edge">
<title>main&#45;&gt;MinimalPrintf</title>
<path fill="none" stroke="black" d="M3061.77,-195C3107.43,-195 3153,-195 3153,-195 3153,-195 3153,-62.75 3153,-62.75"/>
<polygon fill="black" stroke="black" points="3156.5,-62.75 3153,-52.75 3149.5,-62.75 3156.5,-62.75"/>
<text text-anchor="middle" x="3408.5" y="-122.8" font-family="Times,serif" font-size="14.00">[#ifdef MBED_CONF_PLATFORM_MINIMAL_PRINTF_ENABLE_64_BIT]</text>
</g>
<!-- WiFiSecurity -->
<g id="node11" class="node">
<title>WiFiSecurity</title>
<path fill="none" stroke="black" d="M3677,-12.5C3677,-12.5 3805,-12.5 3805,-12.5 3811,-12.5 3817,-18.5 3817,-24.5 3817,-24.5 3817,-40.5 3817,-40.5 3817,-46.5 3811,-52.5 3805,-52.5 3805,-52.5 3677,-52.5 3677,-52.5 3671,-52.5 3665,-46.5 3665,-40.5 3665,-40.5 3665,-24.5 3665,-24.5 3665,-18.5 3671,-12.5 3677,-12.5"/>
<text text-anchor="middle" x="3741" y="-39.7" font-family="Helvetica,sans-Serif" font-size="11.00">WiFiSecurity</text>
<polyline fill="none" stroke="black" points="3665,-32.5 3817,-32.5 "/>
<text text-anchor="start" x="3673" y="-19.7" font-family="Helvetica,sans-Serif" font-size="11.00">+setMode(mode: string)</text>
</g>
<!-- main&#45;&gt;WiFiSecurity -->
<g id="edge10" class="edge">
<title>main&#45;&gt;WiFiSecurity</title>
<path fill="none" stroke="black" d="M3061.85,-202C3266.29,-202 3741,-202 3741,-202 3741,-202 3741,-62.61 3741,-62.61"/>
<polygon fill="black" stroke="black" points="3744.5,-62.61 3741,-52.61 3737.5,-62.61 3744.5,-62.61"/>
<text text-anchor="middle" x="3985.5" y="-122.8" font-family="Times,serif" font-size="14.00">[#ifdef MBED_CONF_NSAPI_DEFAULT_WIFI_SECURITY == NONE]</text>
</g>
<!-- ErrorLogger -->
<g id="node12" class="node">
<title>ErrorLogger</title>
<path fill="none" stroke="black" d="M4256.5,-12.5C4256.5,-12.5 4357.5,-12.5 4357.5,-12.5 4363.5,-12.5 4369.5,-18.5 4369.5,-24.5 4369.5,-24.5 4369.5,-40.5 4369.5,-40.5 4369.5,-46.5 4363.5,-52.5 4357.5,-52.5 4357.5,-52.5 4256.5,-52.5 4256.5,-52.5 4250.5,-52.5 4244.5,-46.5 4244.5,-40.5 4244.5,-40.5 4244.5,-24.5 4244.5,-24.5 4244.5,-18.5 4250.5,-12.5 4256.5,-12.5"/>
<text text-anchor="middle" x="4307" y="-39.7" font-family="Helvetica,sans-Serif" font-size="11.00">ErrorLogger</text>
<polyline fill="none" stroke="black" points="4244.5,-32.5 4369.5,-32.5 "/>
<text text-anchor="start" x="4252.5" y="-19.7" font-family="Helvetica,sans-Serif" font-size="11.00">+captureFilename()</text>
</g>
<!-- main&#45;&gt;ErrorLogger -->
<g id="edge11" class="edge">
<title>main&#45;&gt;ErrorLogger</title>
<path fill="none" stroke="black" d="M3061.63,-209C3363.42,-209 4307,-209 4307,-209 4307,-209 4307,-62.75 4307,-62.75"/>
<polygon fill="black" stroke="black" points="4310.5,-62.75 4307,-52.75 4303.5,-62.75 4310.5,-62.75"/>
<text text-anchor="middle" x="4583.5" y="-122.8" font-family="Times,serif" font-size="14.00">[#ifdef MBED_CONF_PLATFORM_ERROR_FILENAME_CAPTURE_ENABLED]</text>
</g>
<!-- PPPTracer -->
<g id="node13" class="node">
<title>PPPTracer</title>
<path fill="none" stroke="black" d="M4898.5,-12.5C4898.5,-12.5 4975.5,-12.5 4975.5,-12.5 4981.5,-12.5 4987.5,-18.5 4987.5,-24.5 4987.5,-24.5 4987.5,-40.5 4987.5,-40.5 4987.5,-46.5 4981.5,-52.5 4975.5,-52.5 4975.5,-52.5 4898.5,-52.5 4898.5,-52.5 4892.5,-52.5 4886.5,-46.5 4886.5,-40.5 4886.5,-40.5 4886.5,-24.5 4886.5,-24.5 4886.5,-18.5 4892.5,-12.5 4898.5,-12.5"/>
<text text-anchor="middle" x="4937" y="-39.7" font-family="Helvetica,sans-Serif" font-size="11.00">PPPTracer</text>
<polyline fill="none" stroke="black" points="4886.5,-32.5 4987.5,-32.5 "/>
<text text-anchor="start" x="4894.5" y="-19.7" font-family="Helvetica,sans-Serif" font-size="11.00">+enableTrace()</text>
</g>
<!-- main&#45;&gt;PPPTracer -->
<g id="edge12" class="edge">
<title>main&#45;&gt;PPPTracer</title>
<path fill="none" stroke="black" d="M3061.58,-216C3449.45,-216 4937,-216 4937,-216 4937,-216 4937,-62.84 4937,-62.84"/>
<polygon fill="black" stroke="black" points="4940.5,-62.84 4937,-52.84 4933.5,-62.84 4940.5,-62.84"/>
<text text-anchor="middle" x="5096.5" y="-122.8" font-family="Times,serif" font-size="14.00">[#ifdef MBED_CONF_PPP_ENABLE_TRACE]</text>
</g>
<!-- QSPIF -->
<g id="node14" class="node">
<title>QSPIF</title>
<path fill="none" stroke="black" d="M5282,-0.5C5282,-0.5 5384,-0.5 5384,-0.5 5390,-0.5 5396,-6.5 5396,-12.5 5396,-12.5 5396,-52.5 5396,-52.5 5396,-58.5 5390,-64.5 5384,-64.5 5384,-64.5 5282,-64.5 5282,-64.5 5276,-64.5 5270,-58.5 5270,-52.5 5270,-52.5 5270,-12.5 5270,-12.5 5270,-6.5 5276,-0.5 5282,-0.5"/>
<text text-anchor="middle" x="5333" y="-51.7" font-family="Helvetica,sans-Serif" font-size="11.00">QSPIF</text>
<polyline fill="none" stroke="black" points="5270,-44.5 5396,-44.5 "/>
<text text-anchor="start" x="5278" y="-31.7" font-family="Helvetica,sans-Serif" font-size="11.00">+initialize()</text>
<text text-anchor="start" x="5278" y="-19.7" font-family="Helvetica,sans-Serif" font-size="11.00">+read()</text>
<text text-anchor="start" x="5278" y="-7.7" font-family="Helvetica,sans-Serif" font-size="11.00">+write(data: string)</text>
</g>
<!-- main&#45;&gt;QSPIF -->
<g id="edge13" class="edge">
<title>main&#45;&gt;QSPIF</title>
<path fill="none" stroke="black" d="M3061.55,-224C3496.47,-224 5333,-224 5333,-224 5333,-224 5333,-74.55 5333,-74.55"/>
<polygon fill="black" stroke="black" points="5336.5,-74.55 5333,-64.55 5329.5,-74.55 5336.5,-74.55"/>
<text text-anchor="middle" x="5477.5" y="-122.8" font-family="Times,serif" font-size="14.00">[#ifdef MBED_CONF_QSPIF_ENABLED]</text>
</g>
<!-- CellularModule -->
<g id="node15" class="node">
<title>CellularModule</title>
<path fill="none" stroke="black" d="M5636.5,-6.5C5636.5,-6.5 5761.5,-6.5 5761.5,-6.5 5767.5,-6.5 5773.5,-12.5 5773.5,-18.5 5773.5,-18.5 5773.5,-46.5 5773.5,-46.5 5773.5,-52.5 5767.5,-58.5 5761.5,-58.5 5761.5,-58.5 5636.5,-58.5 5636.5,-58.5 5630.5,-58.5 5624.5,-52.5 5624.5,-46.5 5624.5,-46.5 5624.5,-18.5 5624.5,-18.5 5624.5,-12.5 5630.5,-6.5 5636.5,-6.5"/>
<text text-anchor="middle" x="5699" y="-45.7" font-family="Helvetica,sans-Serif" font-size="11.00">CellularModule</text>
<polyline fill="none" stroke="black" points="5624.5,-38.5 5773.5,-38.5 "/>
<text text-anchor="start" x="5632.5" y="-25.7" font-family="Helvetica,sans-Serif" font-size="11.00">+setBaudRate(rate: int)</text>
<text text-anchor="start" x="5632.5" y="-13.7" font-family="Helvetica,sans-Serif" font-size="11.00">+connect()</text>
</g>
<!-- main&#45;&gt;CellularModule -->
<g id="edge14" class="edge">
<title>main&#45;&gt;CellularModule</title>
<path fill="none" stroke="black" d="M3061.58,-231C3536.69,-231 5699,-231 5699,-231 5699,-231 5699,-68.86 5699,-68.86"/>
<polygon fill="black" stroke="black" points="5702.5,-68.86 5699,-58.86 5695.5,-68.86 5702.5,-68.86"/>
<text text-anchor="middle" x="6121.5" y="-122.8" font-family="Times,serif" font-size="14.00">[#ifdef MBED_CONF_CELLULAR_MODULE_QUECTEL_BC95 || MBED_CONF_CELLULAR_MODULE_QUECTEL_BG96]</text>
</g>
<!-- MPU -->
<g id="node16" class="node">
<title>MPU</title>
<path fill="none" stroke="black" d="M6597.5,-12.5C6597.5,-12.5 6644.5,-12.5 6644.5,-12.5 6650.5,-12.5 6656.5,-18.5 6656.5,-24.5 6656.5,-24.5 6656.5,-40.5 6656.5,-40.5 6656.5,-46.5 6650.5,-52.5 6644.5,-52.5 6644.5,-52.5 6597.5,-52.5 6597.5,-52.5 6591.5,-52.5 6585.5,-46.5 6585.5,-40.5 6585.5,-40.5 6585.5,-24.5 6585.5,-24.5 6585.5,-18.5 6591.5,-12.5 6597.5,-12.5"/>
<text text-anchor="middle" x="6621" y="-39.7" font-family="Helvetica,sans-Serif" font-size="11.00">MPU</text>
<polyline fill="none" stroke="black" points="6585.5,-32.5 6656.5,-32.5 "/>
<text text-anchor="start" x="6593.5" y="-19.7" font-family="Helvetica,sans-Serif" font-size="11.00">+enable()</text>
</g>
<!-- main&#45;&gt;MPU -->
<g id="edge15" class="edge">
<title>main&#45;&gt;MPU</title>
<path fill="none" stroke="black" d="M3061.62,-238C3627.32,-238 6621,-238 6621,-238 6621,-238 6621,-62.58 6621,-62.58"/>
<polygon fill="black" stroke="black" points="6624.5,-62.58 6621,-52.58 6617.5,-62.58 6624.5,-62.58"/>
<text text-anchor="middle" x="6784.5" y="-122.8" font-family="Times,serif" font-size="14.00">[#ifdef MBED_CONF_PLATFORM_USE_MPU]</text>
</g>
<!-- DeepSleepStats -->
<g id="node17" class="node">
<title>DeepSleepStats</title>
<path fill="none" stroke="black" d="M6979,-12.5C6979,-12.5 7071,-12.5 7071,-12.5 7077,-12.5 7083,-18.5 7083,-24.5 7083,-24.5 7083,-40.5 7083,-40.5 7083,-46.5 7077,-52.5 7071,-52.5 7071,-52.5 6979,-52.5 6979,-52.5 6973,-52.5 6967,-46.5 6967,-40.5 6967,-40.5 6967,-24.5 6967,-24.5 6967,-18.5 6973,-12.5 6979,-12.5"/>
<text text-anchor="middle" x="7025" y="-39.7" font-family="Helvetica,sans-Serif" font-size="11.00">DeepSleepStats</text>
<polyline fill="none" stroke="black" points="6967,-32.5 7083,-32.5 "/>
<text text-anchor="start" x="6975" y="-19.7" font-family="Helvetica,sans-Serif" font-size="11.00">+enableVerbose()</text>
</g>
<!-- main&#45;&gt;DeepSleepStats -->
<g id="edge16" class="edge">
<title>main&#45;&gt;DeepSleepStats</title>
<path fill="none" stroke="black" d="M3061.83,-245C3664.1,-245 7025,-245 7025,-245 7025,-245 7025,-62.88 7025,-62.88"/>
<polygon fill="black" stroke="black" points="7028.5,-62.88 7025,-52.88 7021.5,-62.88 7028.5,-62.88"/>
<text text-anchor="middle" x="7263" y="-122.8" font-family="Times,serif" font-size="14.00">[#ifdef MBED_CONF_PLATFORM_DEEPSLEEP_STATS_VERBOSE]</text>
</g>
</g>
</svg>
