<?xml version="1.0" encoding="UTF-8" standalone="no"?>
<!DOCTYPE svg PUBLIC "-//W3C//DTD SVG 1.1//EN"
 "http://www.w3.org/Graphics/SVG/1.1/DTD/svg11.dtd">
<!-- Generated by graphviz version 2.43.0 (0)
 -->
<!-- Title: ClassDiagram Pages: 1 -->
<svg width="1832pt" height="303pt"
 viewBox="0.00 0.00 1832.00 303.00" xmlns="http://www.w3.org/2000/svg" xmlns:xlink="http://www.w3.org/1999/xlink">
<g id="graph0" class="graph" transform="scale(1 1) rotate(0) translate(4 299)">
<title>ClassDiagram</title>
<polygon fill="#ffffff" stroke="transparent" points="-4,4 -4,-299 1828,-299 1828,4 -4,4"/>
<!-- DigitalOut -->
<g id="node1" class="node">
<title>DigitalOut</title>
<polygon fill="none" stroke="black" points="202,-0.5 202,-72.5 316,-72.5 316,-0.5 202,-0.5"/>
<text text-anchor="middle" x="259" y="-59.7" font-family="Helvetica,sans-Serif" font-size="11.00">DigitalOut</text>
<polyline fill="none" stroke="black" points="202,-52.5 316,-52.5 "/>
<text text-anchor="start" x="210" y="-39.7" font-family="Helvetica,sans-Serif" font-size="11.00">+led: PinName</text>
<polyline fill="none" stroke="black" points="202,-32.5 316,-32.5 "/>
<text text-anchor="start" x="210" y="-19.7" font-family="Helvetica,sans-Serif" font-size="11.00">+write(value: int)</text>
<text text-anchor="start" x="210" y="-7.7" font-family="Helvetica,sans-Serif" font-size="11.00">+read(): int</text>
</g>
<!-- DigitalIn -->
<g id="node2" class="node">
<title>DigitalIn</title>
<polygon fill="none" stroke="black" points="0,-109.5 0,-169.5 118,-169.5 118,-109.5 0,-109.5"/>
<text text-anchor="middle" x="59" y="-156.7" font-family="Helvetica,sans-Serif" font-size="11.00">DigitalIn</text>
<polyline fill="none" stroke="black" points="0,-149.5 118,-149.5 "/>
<text text-anchor="start" x="8" y="-136.7" font-family="Helvetica,sans-Serif" font-size="11.00">+button: PinName</text>
<polyline fill="none" stroke="black" points="0,-129.5 118,-129.5 "/>
<text text-anchor="start" x="8" y="-116.7" font-family="Helvetica,sans-Serif" font-size="11.00">+read(): int</text>
</g>
<!-- set_led1_state -->
<g id="node3" class="node">
<title>set_led1_state</title>
<polygon fill="none" stroke="black" points="136.5,-121.5 136.5,-157.5 381.5,-157.5 381.5,-121.5 136.5,-121.5"/>
<text text-anchor="middle" x="259" y="-136.7" font-family="Helvetica,sans-Serif" font-size="11.00">set_led1_state(led: DigitalOut&amp;, on: bool)</text>
</g>
<!-- set_led1_state&#45;&gt;DigitalOut -->
<g id="edge3" class="edge">
<title>set_led1_state&#45;&gt;DigitalOut</title>
<path fill="none" stroke="black" d="M259,-121.09C259,-121.09 259,-80.68 259,-80.68"/>
<polygon fill="black" stroke="black" points="261.8,-80.68 259,-72.68 256.2,-80.68 261.8,-80.68"/>
</g>
<!-- blink_led1 -->
<g id="node4" class="node">
<title>blink_led1</title>
<polygon fill="none" stroke="black" points="399.5,-121.5 399.5,-157.5 566.5,-157.5 566.5,-121.5 399.5,-121.5"/>
<text text-anchor="middle" x="483" y="-136.7" font-family="Helvetica,sans-Serif" font-size="11.00">blink_led1(led: DigitalOut&amp;)</text>
</g>
<!-- blink_led1&#45;&gt;DigitalOut -->
<g id="edge4" class="edge">
<title>blink_led1&#45;&gt;DigitalOut</title>
<path fill="none" stroke="black" d="M483,-121.42C483,-94.76 483,-48 483,-48 483,-48 324.1,-48 324.1,-48"/>
<polygon fill="black" stroke="black" points="324.1,-45.2 316.1,-48 324.1,-50.8 324.1,-45.2"/>
</g>
<!-- main_func -->
<g id="node5" class="node">
<title>main_func</title>
<polygon fill="none" stroke="black" points="620.5,-206.5 620.5,-294.5 803.5,-294.5 803.5,-206.5 620.5,-206.5"/>
<text text-anchor="middle" x="712" y="-281.7" font-family="Helvetica,sans-Serif" font-size="11.00">main()</text>
<polyline fill="none" stroke="black" points="620.5,-274.5 803.5,-274.5 "/>
<text text-anchor="start" x="628.5" y="-261.7" font-family="Helvetica,sans-Serif" font-size="11.00">&#45; loop_started: bool</text>
<text text-anchor="start" x="628.5" y="-249.7" font-family="Helvetica,sans-Serif" font-size="11.00">&#45; previous_led_state: bool</text>
<text text-anchor="start" x="628.5" y="-237.7" font-family="Helvetica,sans-Serif" font-size="11.00">&#45; button_press_count: uint32_t</text>
<text text-anchor="start" x="628.5" y="-225.7" font-family="Helvetica,sans-Serif" font-size="11.00">&#45; led: DigitalOut</text>
<text text-anchor="start" x="628.5" y="-213.7" font-family="Helvetica,sans-Serif" font-size="11.00">&#45; button: DigitalIn</text>
</g>
<!-- main_func&#45;&gt;DigitalOut -->
<g id="edge5" class="edge">
<title>main_func&#45;&gt;DigitalOut</title>
<path fill="none" stroke="black" d="M620.2,-228C595.5,-228 575.5,-228 575.5,-228 575.5,-228 575.5,-24 575.5,-24 575.5,-24 324.32,-24 324.32,-24"/>
<polygon fill="black" stroke="black" points="324.32,-21.2 316.32,-24 324.32,-26.8 324.32,-21.2"/>
</g>
<!-- main_func&#45;&gt;DigitalIn -->
<g id="edge6" class="edge">
<title>main_func&#45;&gt;DigitalIn</title>
<path fill="none" stroke="black" d="M681.5,-206.5C681.5,-185.55 681.5,-165 681.5,-165 681.5,-165 126.12,-165 126.12,-165"/>
<polygon fill="black" stroke="black" points="126.12,-162.2 118.12,-165 126.12,-167.8 126.12,-162.2"/>
</g>
<!-- main_func&#45;&gt;set_led1_state -->
<g id="edge1" class="edge">
<title>main_func&#45;&gt;set_led1_state</title>
<path fill="none" stroke="black" d="M620.33,-272C487.96,-272 259,-272 259,-272 259,-272 259,-165.65 259,-165.65"/>
<polygon fill="black" stroke="black" points="261.8,-165.65 259,-157.65 256.2,-165.65 261.8,-165.65"/>
</g>
<!-- main_func&#45;&gt;blink_led1 -->
<g id="edge2" class="edge">
<title>main_func&#45;&gt;blink_led1</title>
<path fill="none" stroke="black" d="M620.18,-250C556.47,-250 483,-250 483,-250 483,-250 483,-165.75 483,-165.75"/>
<polygon fill="black" stroke="black" points="485.8,-165.75 483,-157.75 480.2,-165.75 485.8,-165.75"/>
</g>
<!-- MBED_CONF_NANOSTACK_CONFIGURATION -->
<g id="node6" class="node">
<title>MBED_CONF_NANOSTACK_CONFIGURATION</title>
<polygon fill="none" stroke="black" points="584.5,-119.5 584.5,-159.5 839.5,-159.5 839.5,-119.5 584.5,-119.5"/>
<text text-anchor="middle" x="712" y="-146.7" font-family="Helvetica,sans-Serif" font-size="11.00">MBED_CONF_NANOSTACK_CONFIGURATION</text>
<polyline fill="none" stroke="black" points="584.5,-139.5 839.5,-139.5 "/>
<text text-anchor="middle" x="712" y="-126.7" font-family="Helvetica,sans-Serif" font-size="11.00">value: nanostack_full</text>
</g>
<!-- main_func&#45;&gt;MBED_CONF_NANOSTACK_CONFIGURATION -->
<g id="edge7" class="edge">
<title>main_func&#45;&gt;MBED_CONF_NANOSTACK_CONFIGURATION</title>
<path fill="none" stroke="black" d="M742.5,-206.31C742.5,-206.31 742.5,-167.52 742.5,-167.52"/>
<polygon fill="black" stroke="black" points="745.3,-167.52 742.5,-159.52 739.7,-167.52 745.3,-167.52"/>
</g>
<!-- MBED_CONF_NSAPI_DEFAULT_STACK -->
<g id="node7" class="node">
<title>MBED_CONF_NSAPI_DEFAULT_STACK</title>
<polygon fill="none" stroke="black" points="858,-119.5 858,-159.5 1074,-159.5 1074,-119.5 858,-119.5"/>
<text text-anchor="middle" x="966" y="-146.7" font-family="Helvetica,sans-Serif" font-size="11.00">MBED_CONF_NSAPI_DEFAULT_STACK</text>
<polyline fill="none" stroke="black" points="858,-139.5 1074,-139.5 "/>
<text text-anchor="middle" x="966" y="-126.7" font-family="Helvetica,sans-Serif" font-size="11.00">value: LWIP</text>
</g>
<!-- main_func&#45;&gt;MBED_CONF_NSAPI_DEFAULT_STACK -->
<g id="edge8" class="edge">
<title>main_func&#45;&gt;MBED_CONF_NSAPI_DEFAULT_STACK</title>
<path fill="none" stroke="black" d="M803.7,-223C876.46,-223 966,-223 966,-223 966,-223 966,-167.71 966,-167.71"/>
<polygon fill="black" stroke="black" points="968.8,-167.71 966,-159.71 963.2,-167.71 968.8,-167.71"/>
</g>
<!-- MBED_CONF_PLATFORM_USE_MPU -->
<g id="node8" class="node">
<title>MBED_CONF_PLATFORM_USE_MPU</title>
<polygon fill="none" stroke="black" points="1092,-119.5 1092,-159.5 1298,-159.5 1298,-119.5 1092,-119.5"/>
<text text-anchor="middle" x="1195" y="-146.7" font-family="Helvetica,sans-Serif" font-size="11.00">MBED_CONF_PLATFORM_USE_MPU</text>
<polyline fill="none" stroke="black" points="1092,-139.5 1298,-139.5 "/>
<text text-anchor="middle" x="1195" y="-126.7" font-family="Helvetica,sans-Serif" font-size="11.00">value: true</text>
</g>
<!-- main_func&#45;&gt;MBED_CONF_PLATFORM_USE_MPU -->
<g id="edge9" class="edge">
<title>main_func&#45;&gt;MBED_CONF_PLATFORM_USE_MPU</title>
<path fill="none" stroke="black" d="M803.7,-241C943.78,-241 1195,-241 1195,-241 1195,-241 1195,-167.55 1195,-167.55"/>
<polygon fill="black" stroke="black" points="1197.8,-167.55 1195,-159.55 1192.2,-167.55 1197.8,-167.55"/>
</g>
<!-- MBED_CONF_LWIP_TCP_SND_BUF_DEFAULT -->
<g id="node9" class="node">
<title>MBED_CONF_LWIP_TCP_SND_BUF_DEFAULT</title>
<polygon fill="none" stroke="black" points="1316,-119.5 1316,-159.5 1566,-159.5 1566,-119.5 1316,-119.5"/>
<text text-anchor="middle" x="1441" y="-146.7" font-family="Helvetica,sans-Serif" font-size="11.00">MBED_CONF_LWIP_TCP_SND_BUF_DEFAULT</text>
<polyline fill="none" stroke="black" points="1316,-139.5 1566,-139.5 "/>
<text text-anchor="middle" x="1441" y="-126.7" font-family="Helvetica,sans-Serif" font-size="11.00">value: 16384</text>
</g>
<!-- main_func&#45;&gt;MBED_CONF_LWIP_TCP_SND_BUF_DEFAULT -->
<g id="edge10" class="edge">
<title>main_func&#45;&gt;MBED_CONF_LWIP_TCP_SND_BUF_DEFAULT</title>
<path fill="none" stroke="black" d="M803.59,-259C999.38,-259 1441,-259 1441,-259 1441,-259 1441,-167.5 1441,-167.5"/>
<polygon fill="black" stroke="black" points="1443.8,-167.5 1441,-159.5 1438.2,-167.5 1443.8,-167.5"/>
</g>
<!-- MBED_CONF_QUECTEL_BG96_BAUDRATE -->
<g id="node10" class="node">
<title>MBED_CONF_QUECTEL_BG96_BAUDRATE</title>
<polygon fill="none" stroke="black" points="1584,-119.5 1584,-159.5 1824,-159.5 1824,-119.5 1584,-119.5"/>
<text text-anchor="middle" x="1704" y="-146.7" font-family="Helvetica,sans-Serif" font-size="11.00">MBED_CONF_QUECTEL_BG96_BAUDRATE</text>
<polyline fill="none" stroke="black" points="1584,-139.5 1824,-139.5 "/>
<text text-anchor="middle" x="1704" y="-126.7" font-family="Helvetica,sans-Serif" font-size="11.00">value: 115200</text>
</g>
<!-- main_func&#45;&gt;MBED_CONF_QUECTEL_BG96_BAUDRATE -->
<g id="edge11" class="edge">
<title>main_func&#45;&gt;MBED_CONF_QUECTEL_BG96_BAUDRATE</title>
<path fill="none" stroke="black" d="M803.55,-277C1049.12,-277 1704,-277 1704,-277 1704,-277 1704,-167.79 1704,-167.79"/>
<polygon fill="black" stroke="black" points="1706.8,-167.79 1704,-159.79 1701.2,-167.79 1706.8,-167.79"/>
</g>
</g>
</svg>
