<?xml version="1.0" encoding="UTF-8" standalone="no"?>
<!DOCTYPE svg PUBLIC "-//W3C//DTD SVG 1.1//EN"
 "http://www.w3.org/Graphics/SVG/1.1/DTD/svg11.dtd">
<!-- Generated by graphviz version 2.43.0 (0)
 -->
<!-- Title: StructuralDiagram Pages: 1 -->
<svg width="3272pt" height="397pt"
 viewBox="0.00 0.00 3272.00 397.00" xmlns="http://www.w3.org/2000/svg" xmlns:xlink="http://www.w3.org/1999/xlink">
<g id="graph0" class="graph" transform="scale(1 1) rotate(0) translate(4 393)">
<title>StructuralDiagram</title>
<polygon fill="#ffffff" stroke="transparent" points="-4,4 -4,-393 3268,-393 3268,4 -4,4"/>
<!-- DigitalOut -->
<g id="node1" class="node">
<title>DigitalOut</title>
<polygon fill="none" stroke="black" points="35.5,-176.5 35.5,-228.5 142.5,-228.5 142.5,-176.5 35.5,-176.5"/>
<text text-anchor="middle" x="89" y="-215.7" font-family="Helvetica,sans-Serif" font-size="11.00">DigitalOut</text>
<polyline fill="none" stroke="black" points="35.5,-208.5 142.5,-208.5 "/>
<text text-anchor="start" x="43.5" y="-195.7" font-family="Helvetica,sans-Serif" font-size="11.00">+read(): int</text>
<text text-anchor="start" x="43.5" y="-183.7" font-family="Helvetica,sans-Serif" font-size="11.00">+write(int): void</text>
</g>
<!-- DigitalIn -->
<g id="node2" class="node">
<title>DigitalIn</title>
<polygon fill="none" stroke="black" points="340.5,-176.5 340.5,-228.5 447.5,-228.5 447.5,-176.5 340.5,-176.5"/>
<text text-anchor="middle" x="394" y="-215.7" font-family="Helvetica,sans-Serif" font-size="11.00">DigitalIn</text>
<polyline fill="none" stroke="black" points="340.5,-208.5 447.5,-208.5 "/>
<text text-anchor="start" x="348.5" y="-195.7" font-family="Helvetica,sans-Serif" font-size="11.00">+read(): int</text>
<text text-anchor="start" x="348.5" y="-183.7" font-family="Helvetica,sans-Serif" font-size="11.00">+write(int): void</text>
</g>
<!-- Nanostack -->
<g id="node3" class="node">
<title>Nanostack</title>
<polygon fill="none" stroke="black" points="1164,-6.5 1164,-46.5 1280,-46.5 1280,-6.5 1164,-6.5"/>
<text text-anchor="middle" x="1222" y="-33.7" font-family="Helvetica,sans-Serif" font-size="11.00">Nanostack</text>
<polyline fill="none" stroke="black" points="1164,-26.5 1280,-26.5 "/>
<text text-anchor="start" x="1172" y="-13.7" font-family="Helvetica,sans-Serif" font-size="11.00">+configure(): void</text>
</g>
<!-- LWIP -->
<g id="node4" class="node">
<title>LWIP</title>
<polygon fill="none" stroke="black" points="1634,-0.5 1634,-52.5 1750,-52.5 1750,-0.5 1634,-0.5"/>
<text text-anchor="middle" x="1692" y="-39.7" font-family="Helvetica,sans-Serif" font-size="11.00">LWIP</text>
<polyline fill="none" stroke="black" points="1634,-32.5 1750,-32.5 "/>
<text text-anchor="start" x="1642" y="-19.7" font-family="Helvetica,sans-Serif" font-size="11.00">+init(): void</text>
<text text-anchor="start" x="1642" y="-7.7" font-family="Helvetica,sans-Serif" font-size="11.00">+send(data): void</text>
</g>
<!-- MPU -->
<g id="node5" class="node">
<title>MPU</title>
<polygon fill="none" stroke="black" points="2058,-0.5 2058,-52.5 2162,-52.5 2162,-0.5 2058,-0.5"/>
<text text-anchor="middle" x="2110" y="-39.7" font-family="Helvetica,sans-Serif" font-size="11.00">MPU</text>
<polyline fill="none" stroke="black" points="2058,-32.5 2162,-32.5 "/>
<text text-anchor="start" x="2066" y="-19.7" font-family="Helvetica,sans-Serif" font-size="11.00">+enable(): void</text>
<text text-anchor="start" x="2066" y="-7.7" font-family="Helvetica,sans-Serif" font-size="11.00">+disable(): void</text>
</g>
<!-- QuectelEC2X -->
<g id="node6" class="node">
<title>QuectelEC2X</title>
<polygon fill="none" stroke="black" points="2439,-6.5 2439,-46.5 2589,-46.5 2589,-6.5 2439,-6.5"/>
<text text-anchor="middle" x="2514" y="-33.7" font-family="Helvetica,sans-Serif" font-size="11.00">QuectelEC2X</text>
<polyline fill="none" stroke="black" points="2439,-26.5 2589,-26.5 "/>
<text text-anchor="start" x="2447" y="-13.7" font-family="Helvetica,sans-Serif" font-size="11.00">+setBaudRate(int): void</text>
</g>
<!-- QSPIF -->
<g id="node7" class="node">
<title>QSPIF</title>
<polygon fill="none" stroke="black" points="2886.5,-6.5 2886.5,-46.5 3039.5,-46.5 3039.5,-6.5 2886.5,-6.5"/>
<text text-anchor="middle" x="2963" y="-33.7" font-family="Helvetica,sans-Serif" font-size="11.00">QSPIF</text>
<polyline fill="none" stroke="black" points="2886.5,-26.5 3039.5,-26.5 "/>
<text text-anchor="start" x="2894.5" y="-13.7" font-family="Helvetica,sans-Serif" font-size="11.00">+setFrequency(int): void</text>
</g>
<!-- set_led1_state -->
<g id="node8" class="node">
<title>set_led1_state</title>
<path fill="none" stroke="black" d="M563.5,-176.5C563.5,-176.5 644.5,-176.5 644.5,-176.5 650.5,-176.5 656.5,-182.5 656.5,-188.5 656.5,-188.5 656.5,-216.5 656.5,-216.5 656.5,-222.5 650.5,-228.5 644.5,-228.5 644.5,-228.5 563.5,-228.5 563.5,-228.5 557.5,-228.5 551.5,-222.5 551.5,-216.5 551.5,-216.5 551.5,-188.5 551.5,-188.5 551.5,-182.5 557.5,-176.5 563.5,-176.5"/>
<text text-anchor="middle" x="604" y="-215.7" font-family="Helvetica,sans-Serif" font-size="11.00">set_led1_state()</text>
<polyline fill="none" stroke="black" points="551.5,-208.5 656.5,-208.5 "/>
<text text-anchor="start" x="559.5" y="-195.7" font-family="Helvetica,sans-Serif" font-size="11.00">&#45; led: DigitalOut</text>
<text text-anchor="start" x="559.5" y="-183.7" font-family="Helvetica,sans-Serif" font-size="11.00">&#45; on: bool</text>
</g>
<!-- blink_led1 -->
<g id="node9" class="node">
<title>blink_led1</title>
<path fill="none" stroke="black" d="M952,-182.5C952,-182.5 1032,-182.5 1032,-182.5 1038,-182.5 1044,-188.5 1044,-194.5 1044,-194.5 1044,-210.5 1044,-210.5 1044,-216.5 1038,-222.5 1032,-222.5 1032,-222.5 952,-222.5 952,-222.5 946,-222.5 940,-216.5 940,-210.5 940,-210.5 940,-194.5 940,-194.5 940,-188.5 946,-182.5 952,-182.5"/>
<text text-anchor="middle" x="992" y="-209.7" font-family="Helvetica,sans-Serif" font-size="11.00">blink_led1()</text>
<polyline fill="none" stroke="black" points="940,-202.5 1044,-202.5 "/>
<text text-anchor="start" x="948" y="-189.7" font-family="Helvetica,sans-Serif" font-size="11.00">&#45; led: DigitalOut</text>
</g>
<!-- configure_nanostack -->
<g id="node10" class="node">
<title>configure_nanostack</title>
<path fill="none" stroke="black" d="M1165,-182.5C1165,-182.5 1279,-182.5 1279,-182.5 1285,-182.5 1291,-188.5 1291,-194.5 1291,-194.5 1291,-210.5 1291,-210.5 1291,-216.5 1285,-222.5 1279,-222.5 1279,-222.5 1165,-222.5 1165,-222.5 1159,-222.5 1153,-216.5 1153,-210.5 1153,-210.5 1153,-194.5 1153,-194.5 1153,-188.5 1159,-182.5 1165,-182.5"/>
<text text-anchor="middle" x="1222" y="-209.7" font-family="Helvetica,sans-Serif" font-size="11.00">configure_nanostack()</text>
<polyline fill="none" stroke="black" points="1153,-202.5 1291,-202.5 "/>
<text text-anchor="start" x="1161" y="-189.7" font-family="Helvetica,sans-Serif" font-size="11.00">&#45; config: string</text>
</g>
<!-- configure_nanostack&#45;&gt;Nanostack -->
<g id="edge7" class="edge">
<title>configure_nanostack&#45;&gt;Nanostack</title>
<path fill="none" stroke="black" d="M1222,-182.31C1222,-182.31 1222,-56.72 1222,-56.72"/>
<polygon fill="black" stroke="black" points="1225.5,-56.72 1222,-46.72 1218.5,-56.72 1225.5,-56.72"/>
<text text-anchor="middle" x="1261" y="-110.8" font-family="Times,serif" font-size="14.00">configure()</text>
</g>
<!-- init_nsapi_stack -->
<g id="node11" class="node">
<title>init_nsapi_stack</title>
<path fill="none" stroke="black" d="M1648,-182.5C1648,-182.5 1736,-182.5 1736,-182.5 1742,-182.5 1748,-188.5 1748,-194.5 1748,-194.5 1748,-210.5 1748,-210.5 1748,-216.5 1742,-222.5 1736,-222.5 1736,-222.5 1648,-222.5 1648,-222.5 1642,-222.5 1636,-216.5 1636,-210.5 1636,-210.5 1636,-194.5 1636,-194.5 1636,-188.5 1642,-182.5 1648,-182.5"/>
<text text-anchor="middle" x="1692" y="-209.7" font-family="Helvetica,sans-Serif" font-size="11.00">init_nsapi_stack()</text>
<polyline fill="none" stroke="black" points="1636,-202.5 1748,-202.5 "/>
<text text-anchor="start" x="1644" y="-189.7" font-family="Helvetica,sans-Serif" font-size="11.00">&#45; stack: string</text>
</g>
<!-- init_nsapi_stack&#45;&gt;LWIP -->
<g id="edge9" class="edge">
<title>init_nsapi_stack&#45;&gt;LWIP</title>
<path fill="none" stroke="black" d="M1692,-182.31C1692,-182.31 1692,-62.72 1692,-62.72"/>
<polygon fill="black" stroke="black" points="1695.5,-62.72 1692,-52.72 1688.5,-62.72 1695.5,-62.72"/>
<text text-anchor="middle" x="1709.5" y="-110.8" font-family="Times,serif" font-size="14.00">init()</text>
</g>
<!-- enable_mpu -->
<g id="node12" class="node">
<title>enable_mpu</title>
<path fill="none" stroke="black" d="M2076,-182.5C2076,-182.5 2144,-182.5 2144,-182.5 2150,-182.5 2156,-188.5 2156,-194.5 2156,-194.5 2156,-210.5 2156,-210.5 2156,-216.5 2150,-222.5 2144,-222.5 2144,-222.5 2076,-222.5 2076,-222.5 2070,-222.5 2064,-216.5 2064,-210.5 2064,-210.5 2064,-194.5 2064,-194.5 2064,-188.5 2070,-182.5 2076,-182.5"/>
<text text-anchor="middle" x="2110" y="-209.7" font-family="Helvetica,sans-Serif" font-size="11.00">enable_mpu()</text>
<polyline fill="none" stroke="black" points="2064,-202.5 2156,-202.5 "/>
<text text-anchor="middle" x="2110" y="-189.7" font-family="Helvetica,sans-Serif" font-size="11.00"> </text>
</g>
<!-- enable_mpu&#45;&gt;MPU -->
<g id="edge11" class="edge">
<title>enable_mpu&#45;&gt;MPU</title>
<path fill="none" stroke="black" d="M2110,-182.31C2110,-182.31 2110,-62.72 2110,-62.72"/>
<polygon fill="black" stroke="black" points="2113.5,-62.72 2110,-52.72 2106.5,-62.72 2113.5,-62.72"/>
<text text-anchor="middle" x="2139" y="-110.8" font-family="Times,serif" font-size="14.00">enable()</text>
</g>
<!-- set_quectel_baudrate -->
<g id="node13" class="node">
<title>set_quectel_baudrate</title>
<path fill="none" stroke="black" d="M2454.5,-182.5C2454.5,-182.5 2573.5,-182.5 2573.5,-182.5 2579.5,-182.5 2585.5,-188.5 2585.5,-194.5 2585.5,-194.5 2585.5,-210.5 2585.5,-210.5 2585.5,-216.5 2579.5,-222.5 2573.5,-222.5 2573.5,-222.5 2454.5,-222.5 2454.5,-222.5 2448.5,-222.5 2442.5,-216.5 2442.5,-210.5 2442.5,-210.5 2442.5,-194.5 2442.5,-194.5 2442.5,-188.5 2448.5,-182.5 2454.5,-182.5"/>
<text text-anchor="middle" x="2514" y="-209.7" font-family="Helvetica,sans-Serif" font-size="11.00">set_quectel_baudrate()</text>
<polyline fill="none" stroke="black" points="2442.5,-202.5 2585.5,-202.5 "/>
<text text-anchor="start" x="2450.5" y="-189.7" font-family="Helvetica,sans-Serif" font-size="11.00">&#45; baudrate: int</text>
</g>
<!-- set_quectel_baudrate&#45;&gt;QuectelEC2X -->
<g id="edge13" class="edge">
<title>set_quectel_baudrate&#45;&gt;QuectelEC2X</title>
<path fill="none" stroke="black" d="M2514,-182.31C2514,-182.31 2514,-56.72 2514,-56.72"/>
<polygon fill="black" stroke="black" points="2517.5,-56.72 2514,-46.72 2510.5,-56.72 2517.5,-56.72"/>
<text text-anchor="middle" x="2565.5" y="-110.8" font-family="Times,serif" font-size="14.00">setBaudRate()</text>
</g>
<!-- set_qspif_frequency -->
<g id="node14" class="node">
<title>set_qspif_frequency</title>
<path fill="none" stroke="black" d="M2908,-182.5C2908,-182.5 3018,-182.5 3018,-182.5 3024,-182.5 3030,-188.5 3030,-194.5 3030,-194.5 3030,-210.5 3030,-210.5 3030,-216.5 3024,-222.5 3018,-222.5 3018,-222.5 2908,-222.5 2908,-222.5 2902,-222.5 2896,-216.5 2896,-210.5 2896,-210.5 2896,-194.5 2896,-194.5 2896,-188.5 2902,-182.5 2908,-182.5"/>
<text text-anchor="middle" x="2963" y="-209.7" font-family="Helvetica,sans-Serif" font-size="11.00">set_qspif_frequency()</text>
<polyline fill="none" stroke="black" points="2896,-202.5 3030,-202.5 "/>
<text text-anchor="start" x="2904" y="-189.7" font-family="Helvetica,sans-Serif" font-size="11.00">&#45; frequency: int</text>
</g>
<!-- set_qspif_frequency&#45;&gt;QSPIF -->
<g id="edge15" class="edge">
<title>set_qspif_frequency&#45;&gt;QSPIF</title>
<path fill="none" stroke="black" d="M2963,-182.31C2963,-182.31 2963,-56.72 2963,-56.72"/>
<polygon fill="black" stroke="black" points="2966.5,-56.72 2963,-46.72 2959.5,-56.72 2966.5,-56.72"/>
<text text-anchor="middle" x="3017.5" y="-110.8" font-family="Times,serif" font-size="14.00">setFrequency()</text>
</g>
<!-- main -->
<g id="node15" class="node">
<title>main</title>
<path fill="none" stroke="black" d="M1092,-352.5C1092,-352.5 1122,-352.5 1122,-352.5 1128,-352.5 1134,-358.5 1134,-364.5 1134,-364.5 1134,-376.5 1134,-376.5 1134,-382.5 1128,-388.5 1122,-388.5 1122,-388.5 1092,-388.5 1092,-388.5 1086,-388.5 1080,-382.5 1080,-376.5 1080,-376.5 1080,-364.5 1080,-364.5 1080,-358.5 1086,-352.5 1092,-352.5"/>
<text text-anchor="middle" x="1107" y="-367.7" font-family="Helvetica,sans-Serif" font-size="11.00">main</text>
</g>
<!-- main&#45;&gt;DigitalOut -->
<g id="edge1" class="edge">
<title>main&#45;&gt;DigitalOut</title>
<path fill="none" stroke="black" d="M1079.83,-381C916.39,-381 71.17,-381 71.17,-381 71.17,-381 71.17,-238.84 71.17,-238.84"/>
<polygon fill="black" stroke="black" points="74.67,-238.84 71.17,-228.84 67.67,-238.84 74.67,-238.84"/>
<text text-anchor="middle" x="50" y="-286.8" font-family="Times,serif" font-size="14.00">[#ifdef LED1]</text>
</g>
<!-- main&#45;&gt;DigitalOut -->
<g id="edge5" class="edge">
<title>main&#45;&gt;DigitalOut</title>
<path fill="none" stroke="black" d="M1079.99,-374C920.31,-374 106.83,-374 106.83,-374 106.83,-374 106.83,-238.55 106.83,-238.55"/>
<polygon fill="black" stroke="black" points="110.33,-238.55 106.83,-228.55 103.33,-238.55 110.33,-238.55"/>
<text text-anchor="middle" x="247" y="-286.8" font-family="Times,serif" font-size="14.00">[#if defined(LED1)]</text>
</g>
<!-- main&#45;&gt;DigitalIn -->
<g id="edge2" class="edge">
<title>main&#45;&gt;DigitalIn</title>
<path fill="none" stroke="black" d="M1079.92,-366C949.68,-366 394,-366 394,-366 394,-366 394,-238.77 394,-238.77"/>
<polygon fill="black" stroke="black" points="397.5,-238.77 394,-228.77 390.5,-238.77 397.5,-238.77"/>
<text text-anchor="middle" x="460.5" y="-286.8" font-family="Times,serif" font-size="14.00">[#ifdef BUTTON1]</text>
</g>
<!-- main&#45;&gt;set_led1_state -->
<g id="edge3" class="edge">
<title>main&#45;&gt;set_led1_state</title>
<path fill="none" stroke="black" d="M1079.96,-359C975.48,-359 604,-359 604,-359 604,-359 604,-238.69 604,-238.69"/>
<polygon fill="black" stroke="black" points="607.5,-238.69 604,-228.69 600.5,-238.69 607.5,-238.69"/>
<text text-anchor="middle" x="759.5" y="-286.8" font-family="Times,serif" font-size="14.00">[#if defined(LED1) &amp;&amp; defined(BUTTON1)]</text>
</g>
<!-- main&#45;&gt;blink_led1 -->
<g id="edge4" class="edge">
<title>main&#45;&gt;blink_led1</title>
<path fill="none" stroke="black" d="M1098,-352.38C1098,-307.54 1098,-195 1098,-195 1098,-195 1054.07,-195 1054.07,-195"/>
<polygon fill="black" stroke="black" points="1054.07,-191.5 1044.07,-195 1054.07,-198.5 1054.07,-191.5"/>
<text text-anchor="middle" x="1068.5" y="-286.8" font-family="Times,serif" font-size="14.00">[#elif defined(LED1)]</text>
</g>
<!-- main&#45;&gt;configure_nanostack -->
<g id="edge6" class="edge">
<title>main&#45;&gt;configure_nanostack</title>
<path fill="none" stroke="black" d="M1116,-352.29C1116,-310.05 1116,-209 1116,-209 1116,-209 1142.78,-209 1142.78,-209"/>
<polygon fill="black" stroke="black" points="1142.78,-212.5 1152.78,-209 1142.78,-205.5 1142.78,-212.5"/>
<text text-anchor="middle" x="1418.5" y="-286.8" font-family="Times,serif" font-size="14.00">[#ifdef MBED_CONF_NANOSTACK_CONFIGURATION]</text>
</g>
<!-- main&#45;&gt;init_nsapi_stack -->
<g id="edge8" class="edge">
<title>main&#45;&gt;init_nsapi_stack</title>
<path fill="none" stroke="black" d="M1134.04,-359C1249.09,-359 1692,-359 1692,-359 1692,-359 1692,-232.64 1692,-232.64"/>
<polygon fill="black" stroke="black" points="1695.5,-232.64 1692,-222.64 1688.5,-232.64 1695.5,-232.64"/>
<text text-anchor="middle" x="1862.5" y="-286.8" font-family="Times,serif" font-size="14.00">[#ifdef MBED_CONF_NSAPI_DEFAULT_STACK]</text>
</g>
<!-- main&#45;&gt;enable_mpu -->
<g id="edge10" class="edge">
<title>main&#45;&gt;enable_mpu</title>
<path fill="none" stroke="black" d="M1134.09,-366C1294.22,-366 2110,-366 2110,-366 2110,-366 2110,-232.55 2110,-232.55"/>
<polygon fill="black" stroke="black" points="2113.5,-232.55 2110,-222.55 2106.5,-232.55 2113.5,-232.55"/>
<text text-anchor="middle" x="2273.5" y="-286.8" font-family="Times,serif" font-size="14.00">[#ifdef MBED_CONF_PLATFORM_USE_MPU]</text>
</g>
<!-- main&#45;&gt;set_quectel_baudrate -->
<g id="edge12" class="edge">
<title>main&#45;&gt;set_quectel_baudrate</title>
<path fill="none" stroke="black" d="M1134.16,-374C1329.63,-374 2514,-374 2514,-374 2514,-374 2514,-232.51 2514,-232.51"/>
<polygon fill="black" stroke="black" points="2517.5,-232.51 2514,-222.51 2510.5,-232.51 2517.5,-232.51"/>
<text text-anchor="middle" x="2700" y="-286.8" font-family="Times,serif" font-size="14.00">[#ifdef MBED_CONF_QUECTEL_EC2X_BAUDRATE]</text>
</g>
<!-- main&#45;&gt;set_qspif_frequency -->
<g id="edge14" class="edge">
<title>main&#45;&gt;set_qspif_frequency</title>
<path fill="none" stroke="black" d="M1134.31,-381C1363.88,-381 2963,-381 2963,-381 2963,-381 2963,-232.63 2963,-232.63"/>
<polygon fill="black" stroke="black" points="2966.5,-232.63 2963,-222.63 2959.5,-232.63 2966.5,-232.63"/>
<text text-anchor="middle" x="3113.5" y="-286.8" font-family="Times,serif" font-size="14.00">[#ifdef MBED_CONF_QSPIF_QSPI_FREQ]</text>
</g>
</g>
</svg>
