<?xml version="1.0" encoding="UTF-8" standalone="no"?>
<!DOCTYPE svg PUBLIC "-//W3C//DTD SVG 1.1//EN"
 "http://www.w3.org/Graphics/SVG/1.1/DTD/svg11.dtd">
<!-- Generated by graphviz version 2.43.0 (0)
 -->
<!-- Title: ClassDiagram Pages: 1 -->
<svg width="1267pt" height="303pt"
 viewBox="0.00 0.00 1267.00 303.00" xmlns="http://www.w3.org/2000/svg" xmlns:xlink="http://www.w3.org/1999/xlink">
<g id="graph0" class="graph" transform="scale(1 1) rotate(0) translate(4 299)">
<title>ClassDiagram</title>
<polygon fill="#ffffff" stroke="transparent" points="-4,4 -4,-299 1263,-299 1263,4 -4,4"/>
<!-- DigitalOut -->
<g id="node1" class="node">
<title>DigitalOut</title>
<polygon fill="none" stroke="black" points="788,-0.5 788,-72.5 902,-72.5 902,-0.5 788,-0.5"/>
<text text-anchor="middle" x="845" y="-59.7" font-family="Helvetica,sans-Serif" font-size="11.00">DigitalOut</text>
<polyline fill="none" stroke="black" points="788,-52.5 902,-52.5 "/>
<text text-anchor="start" x="796" y="-39.7" font-family="Helvetica,sans-Serif" font-size="11.00">+led: PinName</text>
<polyline fill="none" stroke="black" points="788,-32.5 902,-32.5 "/>
<text text-anchor="start" x="796" y="-19.7" font-family="Helvetica,sans-Serif" font-size="11.00">+write(value: int)</text>
<text text-anchor="start" x="796" y="-7.7" font-family="Helvetica,sans-Serif" font-size="11.00">+read(): int</text>
</g>
<!-- DigitalIn -->
<g id="node2" class="node">
<title>DigitalIn</title>
<polygon fill="none" stroke="black" points="630,-222.5 630,-294.5 728,-294.5 728,-222.5 630,-222.5"/>
<text text-anchor="middle" x="679" y="-281.7" font-family="Helvetica,sans-Serif" font-size="11.00">DigitalIn</text>
<polyline fill="none" stroke="black" points="630,-274.5 728,-274.5 "/>
<text text-anchor="start" x="638" y="-261.7" font-family="Helvetica,sans-Serif" font-size="11.00">+pin: PinName</text>
<text text-anchor="start" x="638" y="-249.7" font-family="Helvetica,sans-Serif" font-size="11.00">+mode: PullUp</text>
<polyline fill="none" stroke="black" points="630,-242.5 728,-242.5 "/>
<text text-anchor="start" x="638" y="-229.7" font-family="Helvetica,sans-Serif" font-size="11.00">+read(): int</text>
</g>
<!-- ThisThread -->
<g id="node3" class="node">
<title>ThisThread</title>
<polygon fill="none" stroke="black" points="276.5,-110.5 276.5,-170.5 467.5,-170.5 467.5,-110.5 276.5,-110.5"/>
<text text-anchor="middle" x="372" y="-157.7" font-family="Helvetica,sans-Serif" font-size="11.00">ThisThread</text>
<polyline fill="none" stroke="black" points="276.5,-150.5 467.5,-150.5 "/>
<text text-anchor="middle" x="372" y="-137.7" font-family="Helvetica,sans-Serif" font-size="11.00"> </text>
<polyline fill="none" stroke="black" points="276.5,-130.5 467.5,-130.5 "/>
<text text-anchor="start" x="284.5" y="-117.7" font-family="Helvetica,sans-Serif" font-size="11.00">+sleep_for(duration: TimePoint)</text>
</g>
<!-- set_led1_state -->
<g id="node4" class="node">
<title>set_led1_state</title>
<path fill="none" stroke="black" d="M844.5,-158.5C844.5,-158.5 623.5,-158.5 623.5,-158.5 617.5,-158.5 611.5,-152.5 611.5,-146.5 611.5,-146.5 611.5,-134.5 611.5,-134.5 611.5,-128.5 617.5,-122.5 623.5,-122.5 623.5,-122.5 844.5,-122.5 844.5,-122.5 850.5,-122.5 856.5,-128.5 856.5,-134.5 856.5,-134.5 856.5,-146.5 856.5,-146.5 856.5,-152.5 850.5,-158.5 844.5,-158.5"/>
<text text-anchor="middle" x="734" y="-137.7" font-family="Helvetica,sans-Serif" font-size="11.00">set_led1_state(led: DigitalOut&amp;, on: bool)</text>
</g>
<!-- set_led1_state&#45;&gt;DigitalOut -->
<g id="edge3" class="edge">
<title>set_led1_state&#45;&gt;DigitalOut</title>
<path fill="none" stroke="black" d="M822.25,-122.38C822.25,-122.38 822.25,-82.92 822.25,-82.92"/>
<polygon fill="black" stroke="black" points="825.75,-82.92 822.25,-72.92 818.75,-82.92 825.75,-82.92"/>
</g>
<!-- blink_led1 -->
<g id="node5" class="node">
<title>blink_led1</title>
<path fill="none" stroke="black" d="M1103.5,-158.5C1103.5,-158.5 960.5,-158.5 960.5,-158.5 954.5,-158.5 948.5,-152.5 948.5,-146.5 948.5,-146.5 948.5,-134.5 948.5,-134.5 948.5,-128.5 954.5,-122.5 960.5,-122.5 960.5,-122.5 1103.5,-122.5 1103.5,-122.5 1109.5,-122.5 1115.5,-128.5 1115.5,-134.5 1115.5,-134.5 1115.5,-146.5 1115.5,-146.5 1115.5,-152.5 1109.5,-158.5 1103.5,-158.5"/>
<text text-anchor="middle" x="1032" y="-137.7" font-family="Helvetica,sans-Serif" font-size="11.00">blink_led1(led: DigitalOut&amp;)</text>
</g>
<!-- blink_led1&#45;&gt;DigitalOut -->
<g id="edge4" class="edge">
<title>blink_led1&#45;&gt;DigitalOut</title>
<path fill="none" stroke="black" d="M948.47,-140C912.81,-140 879.25,-140 879.25,-140 879.25,-140 879.25,-82.7 879.25,-82.7"/>
<polygon fill="black" stroke="black" points="882.75,-82.7 879.25,-72.7 875.75,-82.7 882.75,-82.7"/>
</g>
<!-- main_func -->
<g id="node6" class="node">
<title>main_func</title>
<path fill="none" stroke="black" d="M600,-276.5C600,-276.5 570,-276.5 570,-276.5 564,-276.5 558,-270.5 558,-264.5 558,-264.5 558,-252.5 558,-252.5 558,-246.5 564,-240.5 570,-240.5 570,-240.5 600,-240.5 600,-240.5 606,-240.5 612,-246.5 612,-252.5 612,-252.5 612,-264.5 612,-264.5 612,-270.5 606,-276.5 600,-276.5"/>
<text text-anchor="middle" x="585" y="-255.7" font-family="Helvetica,sans-Serif" font-size="11.00">main()</text>
</g>
<!-- main_func&#45;&gt;ThisThread -->
<g id="edge5" class="edge">
<title>main_func&#45;&gt;ThisThread</title>
<path fill="none" stroke="black" stroke-dasharray="5,2" d="M568.7,-240.42C568.7,-213.76 568.7,-167 568.7,-167 568.7,-167 477.76,-167 477.76,-167"/>
<polygon fill="black" stroke="black" points="477.76,-163.5 467.76,-167 477.76,-170.5 477.76,-163.5"/>
<text text-anchor="middle" x="174.5" y="-192.8" font-family="Times,serif" font-size="14.00">&lt;&lt;#if defined(LED1) &amp;&amp; defined(BUTTON1)&gt;&gt;</text>
</g>
<!-- main_func&#45;&gt;ThisThread -->
<g id="edge6" class="edge">
<title>main_func&#45;&gt;ThisThread</title>
<path fill="none" stroke="black" stroke-dasharray="5,2" d="M579.4,-240.28C579.4,-212.82 579.4,-164 579.4,-164 579.4,-164 477.5,-164 477.5,-164"/>
<polygon fill="black" stroke="black" points="477.5,-160.5 467.5,-164 477.5,-167.5 477.5,-160.5"/>
<text text-anchor="middle" x="467" y="-192.8" font-family="Times,serif" font-size="14.00">&lt;&lt;#elif defined(LED1)&gt;&gt;</text>
</g>
<!-- main_func&#45;&gt;ThisThread -->
<g id="edge7" class="edge">
<title>main_func&#45;&gt;ThisThread</title>
<path fill="none" stroke="black" d="M590.1,-240.16C590.1,-211.92 590.1,-161 590.1,-161 590.1,-161 477.66,-161 477.66,-161"/>
<polygon fill="black" stroke="black" points="477.66,-157.5 467.66,-161 477.66,-164.5 477.66,-157.5"/>
<text text-anchor="middle" x="629.5" y="-192.8" font-family="Times,serif" font-size="14.00">&lt;&lt;#else&gt;&gt;</text>
</g>
<!-- main_func&#45;&gt;set_led1_state -->
<g id="edge1" class="edge">
<title>main_func&#45;&gt;set_led1_state</title>
<path fill="none" stroke="black" stroke-dasharray="5,2" d="M612.29,-258C617.31,-258 621,-258 621,-258 621,-258 621,-168.6 621,-168.6"/>
<polygon fill="black" stroke="black" points="624.5,-168.6 621,-158.6 617.5,-168.6 624.5,-168.6"/>
<text text-anchor="middle" x="871.5" y="-192.8" font-family="Times,serif" font-size="14.00">&lt;&lt;#if defined(LED1) &amp;&amp; defined(BUTTON1)&gt;&gt;</text>
</g>
<!-- main_func&#45;&gt;blink_led1 -->
<g id="edge2" class="edge">
<title>main_func&#45;&gt;blink_led1</title>
<path fill="none" stroke="black" stroke-dasharray="5,2" d="M600.8,-240.42C600.8,-221.96 600.8,-196 600.8,-196 600.8,-196 1032,-196 1032,-196 1032,-196 1032,-168.67 1032,-168.67"/>
<polygon fill="black" stroke="black" points="1035.5,-168.67 1032,-158.67 1028.5,-168.67 1035.5,-168.67"/>
<text text-anchor="middle" x="1164" y="-192.8" font-family="Times,serif" font-size="14.00">&lt;&lt;#elif defined(LED1)&gt;&gt;</text>
</g>
</g>
</svg>
