<?xml version="1.0" encoding="UTF-8" standalone="no"?>
<!DOCTYPE svg PUBLIC "-//W3C//DTD SVG 1.1//EN"
 "http://www.w3.org/Graphics/SVG/1.1/DTD/svg11.dtd">
<!-- Generated by graphviz version 2.43.0 (0)
 -->
<!-- Title: ClassDiagram Pages: 1 -->
<svg width="1344pt" height="292pt"
 viewBox="0.00 0.00 1344.00 292.00" xmlns="http://www.w3.org/2000/svg" xmlns:xlink="http://www.w3.org/1999/xlink">
<g id="graph0" class="graph" transform="scale(1 1) rotate(0) translate(4 288)">
<title>ClassDiagram</title>
<polygon fill="#ffffff" stroke="transparent" points="-4,4 -4,-288 1340,-288 1340,4 -4,4"/>
<!-- DigitalOut -->
<g id="node1" class="node">
<title>DigitalOut</title>
<polygon fill="#f8f9fa" stroke="black" points="0,-11 0,-63 81,-63 81,-11 0,-11"/>
<text text-anchor="middle" x="40.5" y="-50.2" font-family="Helvetica,sans-Serif" font-size="11.00">DigitalOut</text>
<polyline fill="none" stroke="black" points="0,-43 81,-43 "/>
<text text-anchor="start" x="8" y="-30.2" font-family="Helvetica,sans-Serif" font-size="11.00">+read(): int</text>
<text text-anchor="start" x="8" y="-18.2" font-family="Helvetica,sans-Serif" font-size="11.00">+write(int)</text>
</g>
<!-- DigitalIn -->
<g id="node2" class="node">
<title>DigitalIn</title>
<polygon fill="#f8f9fa" stroke="black" points="190,-11 190,-63 271,-63 271,-11 190,-11"/>
<text text-anchor="middle" x="230.5" y="-50.2" font-family="Helvetica,sans-Serif" font-size="11.00">DigitalIn</text>
<polyline fill="none" stroke="black" points="190,-43 271,-43 "/>
<text text-anchor="start" x="198" y="-30.2" font-family="Helvetica,sans-Serif" font-size="11.00">+read(): int</text>
<text text-anchor="start" x="198" y="-18.2" font-family="Helvetica,sans-Serif" font-size="11.00">+write(int)</text>
</g>
<!-- main_loop -->
<g id="node3" class="node">
<title>main_loop</title>
<path fill="#e9ecef" stroke="black" d="M378,-219.5C378,-219.5 537,-219.5 537,-219.5 543,-219.5 549,-225.5 549,-231.5 549,-231.5 549,-271.5 549,-271.5 549,-277.5 543,-283.5 537,-283.5 537,-283.5 378,-283.5 378,-283.5 372,-283.5 366,-277.5 366,-271.5 366,-271.5 366,-231.5 366,-231.5 366,-225.5 372,-219.5 378,-219.5"/>
<text text-anchor="middle" x="457.5" y="-270.7" font-family="Helvetica,sans-Serif" font-size="11.00">main()</text>
<polyline fill="none" stroke="black" points="366,-263.5 549,-263.5 "/>
<text text-anchor="start" x="374" y="-250.7" font-family="Helvetica,sans-Serif" font-size="11.00">&#45; loop_started: bool</text>
<text text-anchor="start" x="374" y="-238.7" font-family="Helvetica,sans-Serif" font-size="11.00">&#45; previous_led_state: bool</text>
<text text-anchor="start" x="374" y="-226.7" font-family="Helvetica,sans-Serif" font-size="11.00">&#45; button_press_count: uint32_t</text>
</g>
<!-- main_loop&#45;&gt;DigitalOut -->
<g id="edge1" class="edge">
<title>main_loop&#45;&gt;DigitalOut</title>
<path fill="none" stroke="black" d="M365.99,-262C243.24,-262 40.5,-262 40.5,-262 40.5,-262 40.5,-73.25 40.5,-73.25"/>
<polygon fill="black" stroke="black" points="44,-73.25 40.5,-63.25 37,-73.25 44,-73.25"/>
<text text-anchor="middle" x="90.5" y="-142.8" font-family="Times,serif" font-size="14.00">[#ifdef LED1]</text>
</g>
<!-- main_loop&#45;&gt;DigitalIn -->
<g id="edge2" class="edge">
<title>main_loop&#45;&gt;DigitalIn</title>
<path fill="none" stroke="black" d="M365.82,-240C302.82,-240 230.5,-240 230.5,-240 230.5,-240 230.5,-73.12 230.5,-73.12"/>
<polygon fill="black" stroke="black" points="234,-73.12 230.5,-63.12 227,-73.12 234,-73.12"/>
<text text-anchor="middle" x="298" y="-142.8" font-family="Times,serif" font-size="14.00">[#ifdef BUTTON1]</text>
</g>
<!-- set_led1_state -->
<g id="node4" class="node">
<title>set_led1_state</title>
<path fill="#e9ecef" stroke="black" d="M369,-19C369,-19 548,-19 548,-19 554,-19 560,-25 560,-31 560,-31 560,-43 560,-43 560,-49 554,-55 548,-55 548,-55 369,-55 369,-55 363,-55 357,-49 357,-43 357,-43 357,-31 357,-31 357,-25 363,-19 369,-19"/>
<text text-anchor="start" x="365" y="-34.2" font-family="Helvetica,sans-Serif" font-size="11.00">set_led1_state(DigitalOut &amp;, bool)</text>
</g>
<!-- main_loop&#45;&gt;set_led1_state -->
<g id="edge3" class="edge">
<title>main_loop&#45;&gt;set_led1_state</title>
<path fill="none" stroke="black" d="M427,-219.39C427,-219.39 427,-65.09 427,-65.09"/>
<polygon fill="black" stroke="black" points="430.5,-65.09 427,-55.09 423.5,-65.09 430.5,-65.09"/>
<text text-anchor="middle" x="613" y="-142.8" font-family="Times,serif" font-size="14.00">[#if defined(LED1) &amp;&amp; defined(BUTTON1)]</text>
</g>
<!-- blink_led1 -->
<g id="node5" class="node">
<title>blink_led1</title>
<path fill="#e9ecef" stroke="black" d="M798,-19C798,-19 921,-19 921,-19 927,-19 933,-25 933,-31 933,-31 933,-43 933,-43 933,-49 927,-55 921,-55 921,-55 798,-55 798,-55 792,-55 786,-49 786,-43 786,-43 786,-31 786,-31 786,-25 792,-19 798,-19"/>
<text text-anchor="start" x="794" y="-34.2" font-family="Helvetica,sans-Serif" font-size="11.00">blink_led1(DigitalOut &amp;)</text>
</g>
<!-- main_loop&#45;&gt;blink_led1 -->
<g id="edge4" class="edge">
<title>main_loop&#45;&gt;blink_led1</title>
<path fill="none" stroke="black" d="M549.22,-251C667.87,-251 859.5,-251 859.5,-251 859.5,-251 859.5,-65.25 859.5,-65.25"/>
<polygon fill="black" stroke="black" points="863,-65.25 859.5,-55.25 856,-65.25 863,-65.25"/>
<text text-anchor="middle" x="936" y="-142.8" font-family="Times,serif" font-size="14.00">[#elif defined(LED1)]</text>
</g>
<!-- config_note -->
<g id="node6" class="node">
<title>config_note</title>
<path fill="#e9ecef" stroke="transparent" d="M1324,-74C1324,-74 1031,-74 1031,-74 1025,-74 1019,-68 1019,-62 1019,-62 1019,-12 1019,-12 1019,-6 1025,0 1031,0 1031,0 1324,0 1324,0 1330,0 1336,-6 1336,-12 1336,-12 1336,-62 1336,-62 1336,-68 1330,-74 1324,-74"/>
<text text-anchor="start" x="1027" y="-62" font-family="Helvetica,sans-Serif" font-size="10.00">Configuration Settings:</text>
<text text-anchor="start" x="1027" y="-51" font-family="Helvetica,sans-Serif" font-size="10.00">&#45; MBED_CONF_NANOSTACK_CONFIGURATION: nanostack_full</text>
<text text-anchor="start" x="1027" y="-40" font-family="Helvetica,sans-Serif" font-size="10.00">&#45; MBED_CONF_NSAPI_DEFAULT_STACK: LWIP</text>
<text text-anchor="start" x="1027" y="-29" font-family="Helvetica,sans-Serif" font-size="10.00">&#45; MBED_CONF_PLATFORM_STDIO_BAUD_RATE: 9600</text>
<text text-anchor="start" x="1027" y="-18" font-family="Helvetica,sans-Serif" font-size="10.00">&#45; MBED_CONF_LWIP_TCP_MSS: 1460</text>
<text text-anchor="middle" x="1177.5" y="-7" font-family="Helvetica,sans-Serif" font-size="10.00">&#45; MBED_CONF_QUECTEL_BG96_BAUDRATE: 115200</text>
</g>
<!-- main_loop&#45;&gt;config_note -->
<g id="edge5" class="edge">
<title>main_loop&#45;&gt;config_note</title>
<path fill="none" stroke="black" stroke-dasharray="1,5" d="M488,-219.12C488,-166.44 488,-68 488,-68 488,-68 815.29,-68 1018.88,-68"/>
</g>
</g>
</svg>
