<?xml version="1.0" encoding="UTF-8" standalone="no"?>
<!DOCTYPE svg PUBLIC "-//W3C//DTD SVG 1.1//EN"
 "http://www.w3.org/Graphics/SVG/1.1/DTD/svg11.dtd">
<!-- Generated by graphviz version 2.43.0 (0)
 -->
<!-- Title: EmbeddedDesign Pages: 1 -->
<svg width="2899pt" height="457pt"
 viewBox="0.00 0.00 2899.00 457.00" xmlns="http://www.w3.org/2000/svg" xmlns:xlink="http://www.w3.org/1999/xlink">
<g id="graph0" class="graph" transform="scale(1 1) rotate(0) translate(4 453)">
<title>EmbeddedDesign</title>
<polygon fill="#ffffff" stroke="transparent" points="-4,4 -4,-453 2895,-453 2895,4 -4,4"/>
<!-- DigitalOut -->
<g id="node1" class="node">
<title>DigitalOut</title>
<polygon fill="none" stroke="black" points="35,-186.5 35,-238.5 145,-238.5 145,-186.5 35,-186.5"/>
<text text-anchor="middle" x="90" y="-225.7" font-family="Helvetica,sans-Serif" font-size="11.00">DigitalOut</text>
<polyline fill="none" stroke="black" points="35,-218.5 145,-218.5 "/>
<text text-anchor="start" x="43" y="-205.7" font-family="Helvetica,sans-Serif" font-size="11.00">+read()</text>
<text text-anchor="start" x="43" y="-193.7" font-family="Helvetica,sans-Serif" font-size="11.00">+write(val: bool)</text>
</g>
<!-- DigitalIn -->
<g id="node2" class="node">
<title>DigitalIn</title>
<polygon fill="none" stroke="black" points="356,-192.5 356,-232.5 418,-232.5 418,-192.5 356,-192.5"/>
<text text-anchor="middle" x="387" y="-219.7" font-family="Helvetica,sans-Serif" font-size="11.00">DigitalIn</text>
<polyline fill="none" stroke="black" points="356,-212.5 418,-212.5 "/>
<text text-anchor="start" x="364" y="-199.7" font-family="Helvetica,sans-Serif" font-size="11.00">+read()</text>
</g>
<!-- main_loop -->
<g id="node3" class="node">
<title>main_loop</title>
<path fill="none" stroke="black" d="M927.5,-384.5C927.5,-384.5 1086.5,-384.5 1086.5,-384.5 1092.5,-384.5 1098.5,-390.5 1098.5,-396.5 1098.5,-396.5 1098.5,-436.5 1098.5,-436.5 1098.5,-442.5 1092.5,-448.5 1086.5,-448.5 1086.5,-448.5 927.5,-448.5 927.5,-448.5 921.5,-448.5 915.5,-442.5 915.5,-436.5 915.5,-436.5 915.5,-396.5 915.5,-396.5 915.5,-390.5 921.5,-384.5 927.5,-384.5"/>
<text text-anchor="middle" x="1007" y="-435.7" font-family="Helvetica,sans-Serif" font-size="11.00">main()</text>
<polyline fill="none" stroke="black" points="915.5,-428.5 1098.5,-428.5 "/>
<text text-anchor="start" x="923.5" y="-415.7" font-family="Helvetica,sans-Serif" font-size="11.00">&#45; loop_started: bool</text>
<text text-anchor="start" x="923.5" y="-403.7" font-family="Helvetica,sans-Serif" font-size="11.00">&#45; previous_led_state: bool</text>
<text text-anchor="start" x="923.5" y="-391.7" font-family="Helvetica,sans-Serif" font-size="11.00">&#45; button_press_count: uint32_t</text>
</g>
<!-- main_loop&#45;&gt;DigitalOut -->
<g id="edge1" class="edge">
<title>main_loop&#45;&gt;DigitalOut</title>
<path fill="none" stroke="black" d="M915.19,-436C679.52,-436 71.67,-436 71.67,-436 71.67,-436 71.67,-248.58 71.67,-248.58"/>
<polygon fill="black" stroke="black" points="75.17,-248.58 71.67,-238.58 68.17,-248.58 75.17,-248.58"/>
<text text-anchor="middle" x="44.5" y="-307.8" font-family="Times,serif" font-size="14.00">#ifdef LED1</text>
</g>
<!-- main_loop&#45;&gt;DigitalOut -->
<g id="edge5" class="edge">
<title>main_loop&#45;&gt;DigitalOut</title>
<path fill="none" stroke="black" d="M915.47,-423C686.71,-423 108.33,-423 108.33,-423 108.33,-423 108.33,-248.73 108.33,-248.73"/>
<polygon fill="black" stroke="black" points="111.83,-248.73 108.33,-238.73 104.83,-248.73 111.83,-248.73"/>
<text text-anchor="middle" x="245" y="-307.8" font-family="Times,serif" font-size="14.00">#if defined(LED1)</text>
</g>
<!-- main_loop&#45;&gt;DigitalIn -->
<g id="edge2" class="edge">
<title>main_loop&#45;&gt;DigitalIn</title>
<path fill="none" stroke="black" d="M915.18,-410C742.59,-410 387,-410 387,-410 387,-410 387,-242.52 387,-242.52"/>
<polygon fill="black" stroke="black" points="390.5,-242.52 387,-232.52 383.5,-242.52 390.5,-242.52"/>
<text text-anchor="middle" x="462.5" y="-307.8" font-family="Times,serif" font-size="14.00">#ifdef BUTTON1</text>
</g>
<!-- set_led1_state -->
<g id="node4" class="node">
<title>set_led1_state</title>
<path fill="none" stroke="black" d="M516,-194.5C516,-194.5 740,-194.5 740,-194.5 746,-194.5 752,-200.5 752,-206.5 752,-206.5 752,-218.5 752,-218.5 752,-224.5 746,-230.5 740,-230.5 740,-230.5 516,-230.5 516,-230.5 510,-230.5 504,-224.5 504,-218.5 504,-218.5 504,-206.5 504,-206.5 504,-200.5 510,-194.5 516,-194.5"/>
<text text-anchor="start" x="512" y="-209.7" font-family="Helvetica,sans-Serif" font-size="11.00">set_led1_state(led: DigitalOut &amp;, on: bool)</text>
</g>
<!-- main_loop&#45;&gt;set_led1_state -->
<g id="edge3" class="edge">
<title>main_loop&#45;&gt;set_led1_state</title>
<path fill="none" stroke="black" d="M915.25,-397C803.09,-397 628,-397 628,-397 628,-397 628,-240.53 628,-240.53"/>
<polygon fill="black" stroke="black" points="631.5,-240.53 628,-230.53 624.5,-240.53 631.5,-240.53"/>
<text text-anchor="middle" x="765.5" y="-307.8" font-family="Times,serif" font-size="14.00">#if defined(LED1) &amp;&amp; defined(BUTTON1)</text>
</g>
<!-- blink_led1 -->
<g id="node5" class="node">
<title>blink_led1</title>
<path fill="none" stroke="black" d="M906.5,-194.5C906.5,-194.5 1053.5,-194.5 1053.5,-194.5 1059.5,-194.5 1065.5,-200.5 1065.5,-206.5 1065.5,-206.5 1065.5,-218.5 1065.5,-218.5 1065.5,-224.5 1059.5,-230.5 1053.5,-230.5 1053.5,-230.5 906.5,-230.5 906.5,-230.5 900.5,-230.5 894.5,-224.5 894.5,-218.5 894.5,-218.5 894.5,-206.5 894.5,-206.5 894.5,-200.5 900.5,-194.5 906.5,-194.5"/>
<text text-anchor="start" x="902.5" y="-209.7" font-family="Helvetica,sans-Serif" font-size="11.00">blink_led1(led: DigitalOut &amp;)</text>
</g>
<!-- main_loop&#45;&gt;blink_led1 -->
<g id="edge4" class="edge">
<title>main_loop&#45;&gt;blink_led1</title>
<path fill="none" stroke="black" d="M990.5,-384.18C990.5,-384.18 990.5,-240.69 990.5,-240.69"/>
<polygon fill="black" stroke="black" points="994,-240.69 990.5,-230.69 987,-240.69 994,-240.69"/>
<text text-anchor="middle" x="1078" y="-307.8" font-family="Times,serif" font-size="14.00">#elif defined(LED1)</text>
</g>
<!-- configure_network_stack -->
<g id="node6" class="node">
<title>configure_network_stack</title>
<path fill="none" stroke="black" d="M1163.5,-194.5C1163.5,-194.5 1368.5,-194.5 1368.5,-194.5 1374.5,-194.5 1380.5,-200.5 1380.5,-206.5 1380.5,-206.5 1380.5,-218.5 1380.5,-218.5 1380.5,-224.5 1374.5,-230.5 1368.5,-230.5 1368.5,-230.5 1163.5,-230.5 1163.5,-230.5 1157.5,-230.5 1151.5,-224.5 1151.5,-218.5 1151.5,-218.5 1151.5,-206.5 1151.5,-206.5 1151.5,-200.5 1157.5,-194.5 1163.5,-194.5"/>
<text text-anchor="start" x="1159.5" y="-209.7" font-family="Helvetica,sans-Serif" font-size="11.00">configure_network_stack(stack: string)</text>
</g>
<!-- main_loop&#45;&gt;configure_network_stack -->
<g id="edge6" class="edge">
<title>main_loop&#45;&gt;configure_network_stack</title>
<path fill="none" stroke="black" d="M1098.93,-386C1135.14,-386 1168.25,-386 1168.25,-386 1168.25,-386 1168.25,-240.74 1168.25,-240.74"/>
<polygon fill="black" stroke="black" points="1171.75,-240.74 1168.25,-230.74 1164.75,-240.74 1171.75,-240.74"/>
<text text-anchor="middle" x="1431" y="-307.8" font-family="Times,serif" font-size="14.00">#ifdef MBED_CONF_NANOSTACK_CONFIGURATION</text>
</g>
<!-- set_default_mesh_type -->
<g id="node7" class="node">
<title>set_default_mesh_type</title>
<path fill="none" stroke="black" d="M1599.5,-194.5C1599.5,-194.5 1826.5,-194.5 1826.5,-194.5 1832.5,-194.5 1838.5,-200.5 1838.5,-206.5 1838.5,-206.5 1838.5,-218.5 1838.5,-218.5 1838.5,-224.5 1832.5,-230.5 1826.5,-230.5 1826.5,-230.5 1599.5,-230.5 1599.5,-230.5 1593.5,-230.5 1587.5,-224.5 1587.5,-218.5 1587.5,-218.5 1587.5,-206.5 1587.5,-206.5 1587.5,-200.5 1593.5,-194.5 1599.5,-194.5"/>
<text text-anchor="start" x="1595.5" y="-209.7" font-family="Helvetica,sans-Serif" font-size="11.00">set_default_mesh_type(mesh_type: string)</text>
</g>
<!-- main_loop&#45;&gt;set_default_mesh_type -->
<g id="edge7" class="edge">
<title>main_loop&#45;&gt;set_default_mesh_type</title>
<path fill="none" stroke="black" d="M1098.57,-388C1289.6,-388 1713,-388 1713,-388 1713,-388 1713,-240.62 1713,-240.62"/>
<polygon fill="black" stroke="black" points="1716.5,-240.62 1713,-230.62 1709.5,-240.62 1716.5,-240.62"/>
<text text-anchor="middle" x="1899.5" y="-307.8" font-family="Times,serif" font-size="14.00">#ifdef MBED_CONF_NSAPI_DEFAULT_MESH_TYPE</text>
</g>
<!-- enable_ppp -->
<g id="node8" class="node">
<title>enable_ppp</title>
<path fill="none" stroke="black" d="M2111.5,-194.5C2111.5,-194.5 2242.5,-194.5 2242.5,-194.5 2248.5,-194.5 2254.5,-200.5 2254.5,-206.5 2254.5,-206.5 2254.5,-218.5 2254.5,-218.5 2254.5,-224.5 2248.5,-230.5 2242.5,-230.5 2242.5,-230.5 2111.5,-230.5 2111.5,-230.5 2105.5,-230.5 2099.5,-224.5 2099.5,-218.5 2099.5,-218.5 2099.5,-206.5 2099.5,-206.5 2099.5,-200.5 2105.5,-194.5 2111.5,-194.5"/>
<text text-anchor="start" x="2107.5" y="-209.7" font-family="Helvetica,sans-Serif" font-size="11.00">enable_ppp(enable: bool)</text>
</g>
<!-- main_loop&#45;&gt;enable_ppp -->
<g id="edge8" class="edge">
<title>main_loop&#45;&gt;enable_ppp</title>
<path fill="none" stroke="black" d="M1098.81,-391C1374.62,-391 2177,-391 2177,-391 2177,-391 2177,-240.6 2177,-240.6"/>
<polygon fill="black" stroke="black" points="2180.5,-240.6 2177,-230.6 2173.5,-240.6 2180.5,-240.6"/>
<text text-anchor="middle" x="2308" y="-307.8" font-family="Times,serif" font-size="14.00">#ifdef MBED_CONF_PPP_ENABLED</text>
</g>
<!-- set_bg96_baudrate -->
<g id="node9" class="node">
<title>set_bg96_baudrate</title>
<path fill="none" stroke="black" d="M2441.5,-194.5C2441.5,-194.5 2618.5,-194.5 2618.5,-194.5 2624.5,-194.5 2630.5,-200.5 2630.5,-206.5 2630.5,-206.5 2630.5,-218.5 2630.5,-218.5 2630.5,-224.5 2624.5,-230.5 2618.5,-230.5 2618.5,-230.5 2441.5,-230.5 2441.5,-230.5 2435.5,-230.5 2429.5,-224.5 2429.5,-218.5 2429.5,-218.5 2429.5,-206.5 2429.5,-206.5 2429.5,-200.5 2435.5,-194.5 2441.5,-194.5"/>
<text text-anchor="start" x="2437.5" y="-209.7" font-family="Helvetica,sans-Serif" font-size="11.00">set_bg96_baudrate(baudrate: int)</text>
</g>
<!-- main_loop&#45;&gt;set_bg96_baudrate -->
<g id="edge9" class="edge">
<title>main_loop&#45;&gt;set_bg96_baudrate</title>
<path fill="none" stroke="black" d="M1098.56,-393C1427.48,-393 2530,-393 2530,-393 2530,-393 2530,-240.8 2530,-240.8"/>
<polygon fill="black" stroke="black" points="2533.5,-240.8 2530,-230.8 2526.5,-240.8 2533.5,-240.8"/>
<text text-anchor="middle" x="2710.5" y="-307.8" font-family="Times,serif" font-size="14.00">#ifdef MBED_CONF_QUECTEL_BG96_BAUDRATE</text>
</g>
<!-- nanostack_configuration -->
<g id="node10" class="node">
<title>nanostack_configuration</title>
<path fill="none" stroke="black" d="M1177,-0.5C1177,-0.5 1303,-0.5 1303,-0.5 1309,-0.5 1315,-6.5 1315,-12.5 1315,-12.5 1315,-28.5 1315,-28.5 1315,-34.5 1309,-40.5 1303,-40.5 1303,-40.5 1177,-40.5 1177,-40.5 1171,-40.5 1165,-34.5 1165,-28.5 1165,-28.5 1165,-12.5 1165,-12.5 1165,-6.5 1171,-0.5 1177,-0.5"/>
<text text-anchor="middle" x="1240" y="-27.7" font-family="Helvetica,sans-Serif" font-size="11.00">nanostack_configuration</text>
<polyline fill="none" stroke="black" points="1165,-20.5 1315,-20.5 "/>
<text text-anchor="start" x="1173" y="-7.7" font-family="Helvetica,sans-Serif" font-size="11.00">+type: string</text>
</g>
<!-- configure_network_stack&#45;&gt;nanostack_configuration -->
<g id="edge10" class="edge">
<title>configure_network_stack&#45;&gt;nanostack_configuration</title>
<path fill="none" stroke="black" d="M1240,-194.44C1240,-194.44 1240,-50.66 1240,-50.66"/>
<polygon fill="black" stroke="black" points="1243.5,-50.66 1240,-40.66 1236.5,-50.66 1243.5,-50.66"/>
<text text-anchor="middle" x="1431" y="-109.8" font-family="Times,serif" font-size="14.00">#ifdef MBED_CONF_NANOSTACK_CONFIGURATION</text>
</g>
<!-- default_mesh_type -->
<g id="node13" class="node">
<title>default_mesh_type</title>
<path fill="none" stroke="black" d="M1662.5,-0.5C1662.5,-0.5 1763.5,-0.5 1763.5,-0.5 1769.5,-0.5 1775.5,-6.5 1775.5,-12.5 1775.5,-12.5 1775.5,-28.5 1775.5,-28.5 1775.5,-34.5 1769.5,-40.5 1763.5,-40.5 1763.5,-40.5 1662.5,-40.5 1662.5,-40.5 1656.5,-40.5 1650.5,-34.5 1650.5,-28.5 1650.5,-28.5 1650.5,-12.5 1650.5,-12.5 1650.5,-6.5 1656.5,-0.5 1662.5,-0.5"/>
<text text-anchor="middle" x="1713" y="-27.7" font-family="Helvetica,sans-Serif" font-size="11.00">default_mesh_type</text>
<polyline fill="none" stroke="black" points="1650.5,-20.5 1775.5,-20.5 "/>
<text text-anchor="start" x="1658.5" y="-7.7" font-family="Helvetica,sans-Serif" font-size="11.00">+mesh_type: string</text>
</g>
<!-- set_default_mesh_type&#45;&gt;default_mesh_type -->
<g id="edge11" class="edge">
<title>set_default_mesh_type&#45;&gt;default_mesh_type</title>
<path fill="none" stroke="black" d="M1713,-194.44C1713,-194.44 1713,-50.66 1713,-50.66"/>
<polygon fill="black" stroke="black" points="1716.5,-50.66 1713,-40.66 1709.5,-50.66 1716.5,-50.66"/>
<text text-anchor="middle" x="1899.5" y="-109.8" font-family="Times,serif" font-size="14.00">#ifdef MBED_CONF_NSAPI_DEFAULT_MESH_TYPE</text>
</g>
<!-- ppp_enabled -->
<g id="node14" class="node">
<title>ppp_enabled</title>
<path fill="none" stroke="black" d="M2139,-0.5C2139,-0.5 2215,-0.5 2215,-0.5 2221,-0.5 2227,-6.5 2227,-12.5 2227,-12.5 2227,-28.5 2227,-28.5 2227,-34.5 2221,-40.5 2215,-40.5 2215,-40.5 2139,-40.5 2139,-40.5 2133,-40.5 2127,-34.5 2127,-28.5 2127,-28.5 2127,-12.5 2127,-12.5 2127,-6.5 2133,-0.5 2139,-0.5"/>
<text text-anchor="middle" x="2177" y="-27.7" font-family="Helvetica,sans-Serif" font-size="11.00">ppp_enabled</text>
<polyline fill="none" stroke="black" points="2127,-20.5 2227,-20.5 "/>
<text text-anchor="start" x="2135" y="-7.7" font-family="Helvetica,sans-Serif" font-size="11.00">+enabled: bool</text>
</g>
<!-- enable_ppp&#45;&gt;ppp_enabled -->
<g id="edge12" class="edge">
<title>enable_ppp&#45;&gt;ppp_enabled</title>
<path fill="none" stroke="black" d="M2177,-194.44C2177,-194.44 2177,-50.66 2177,-50.66"/>
<polygon fill="black" stroke="black" points="2180.5,-50.66 2177,-40.66 2173.5,-50.66 2180.5,-50.66"/>
<text text-anchor="middle" x="2308" y="-109.8" font-family="Times,serif" font-size="14.00">#ifdef MBED_CONF_PPP_ENABLED</text>
</g>
<!-- bg96_baudrate -->
<g id="node15" class="node">
<title>bg96_baudrate</title>
<path fill="none" stroke="black" d="M2493,-0.5C2493,-0.5 2567,-0.5 2567,-0.5 2573,-0.5 2579,-6.5 2579,-12.5 2579,-12.5 2579,-28.5 2579,-28.5 2579,-34.5 2573,-40.5 2567,-40.5 2567,-40.5 2493,-40.5 2493,-40.5 2487,-40.5 2481,-34.5 2481,-28.5 2481,-28.5 2481,-12.5 2481,-12.5 2481,-6.5 2487,-0.5 2493,-0.5"/>
<text text-anchor="middle" x="2530" y="-27.7" font-family="Helvetica,sans-Serif" font-size="11.00">bg96_baudrate</text>
<polyline fill="none" stroke="black" points="2481,-20.5 2579,-20.5 "/>
<text text-anchor="start" x="2489" y="-7.7" font-family="Helvetica,sans-Serif" font-size="11.00">+baudrate: int</text>
</g>
<!-- set_bg96_baudrate&#45;&gt;bg96_baudrate -->
<g id="edge13" class="edge">
<title>set_bg96_baudrate&#45;&gt;bg96_baudrate</title>
<path fill="none" stroke="black" d="M2530,-194.44C2530,-194.44 2530,-50.66 2530,-50.66"/>
<polygon fill="black" stroke="black" points="2533.5,-50.66 2530,-40.66 2526.5,-50.66 2533.5,-50.66"/>
<text text-anchor="middle" x="2710.5" y="-109.8" font-family="Times,serif" font-size="14.00">#ifdef MBED_CONF_QUECTEL_BG96_BAUDRATE</text>
</g>
<!-- nsapi_default_stack -->
<g id="node11" class="node">
<title>nsapi_default_stack</title>
<path fill="none" stroke="black" d="M1197,-396.5C1197,-396.5 1297,-396.5 1297,-396.5 1303,-396.5 1309,-402.5 1309,-408.5 1309,-408.5 1309,-424.5 1309,-424.5 1309,-430.5 1303,-436.5 1297,-436.5 1297,-436.5 1197,-436.5 1197,-436.5 1191,-436.5 1185,-430.5 1185,-424.5 1185,-424.5 1185,-408.5 1185,-408.5 1185,-402.5 1191,-396.5 1197,-396.5"/>
<text text-anchor="middle" x="1247" y="-423.7" font-family="Helvetica,sans-Serif" font-size="11.00">nsapi_default_stack</text>
<polyline fill="none" stroke="black" points="1185,-416.5 1309,-416.5 "/>
<text text-anchor="start" x="1193" y="-403.7" font-family="Helvetica,sans-Serif" font-size="11.00">+stack: string</text>
</g>
<!-- stdio_baud_rate -->
<g id="node12" class="node">
<title>stdio_baud_rate</title>
<path fill="none" stroke="black" d="M1407,-396.5C1407,-396.5 1487,-396.5 1487,-396.5 1493,-396.5 1499,-402.5 1499,-408.5 1499,-408.5 1499,-424.5 1499,-424.5 1499,-430.5 1493,-436.5 1487,-436.5 1487,-436.5 1407,-436.5 1407,-436.5 1401,-436.5 1395,-430.5 1395,-424.5 1395,-424.5 1395,-408.5 1395,-408.5 1395,-402.5 1401,-396.5 1407,-396.5"/>
<text text-anchor="middle" x="1447" y="-423.7" font-family="Helvetica,sans-Serif" font-size="11.00">stdio_baud_rate</text>
<polyline fill="none" stroke="black" points="1395,-416.5 1499,-416.5 "/>
<text text-anchor="start" x="1403" y="-403.7" font-family="Helvetica,sans-Serif" font-size="11.00">+baud_rate: int</text>
</g>
</g>
</svg>
