<?xml version="1.0" encoding="UTF-8" standalone="no"?>
<!DOCTYPE svg PUBLIC "-//W3C//DTD SVG 1.1//EN"
 "http://www.w3.org/Graphics/SVG/1.1/DTD/svg11.dtd">
<!-- Generated by graphviz version 2.43.0 (0)
 -->
<!-- Title: ClassDiagram Pages: 1 -->
<svg width="1180pt" height="463pt"
 viewBox="0.00 0.00 1180.00 463.00" xmlns="http://www.w3.org/2000/svg" xmlns:xlink="http://www.w3.org/1999/xlink">
<g id="graph0" class="graph" transform="scale(1 1) rotate(0) translate(4 459)">
<title>ClassDiagram</title>
<polygon fill="#ffffff" stroke="transparent" points="-4,4 -4,-459 1176,-459 1176,4 -4,4"/>
<!-- DigitalOut -->
<g id="node1" class="node">
<title>DigitalOut</title>
<polygon fill="none" stroke="black" points="704,-0.5 704,-72.5 818,-72.5 818,-0.5 704,-0.5"/>
<text text-anchor="middle" x="761" y="-59.7" font-family="Helvetica,sans-Serif" font-size="11.00">DigitalOut</text>
<polyline fill="none" stroke="black" points="704,-52.5 818,-52.5 "/>
<text text-anchor="start" x="712" y="-39.7" font-family="Helvetica,sans-Serif" font-size="11.00">+led: PinName</text>
<polyline fill="none" stroke="black" points="704,-32.5 818,-32.5 "/>
<text text-anchor="start" x="712" y="-19.7" font-family="Helvetica,sans-Serif" font-size="11.00">+write(value: int)</text>
<text text-anchor="start" x="712" y="-7.7" font-family="Helvetica,sans-Serif" font-size="11.00">+read(): int</text>
</g>
<!-- DigitalIn -->
<g id="node2" class="node">
<title>DigitalIn</title>
<polygon fill="none" stroke="black" points="172,-182.5 172,-254.5 282,-254.5 282,-182.5 172,-182.5"/>
<text text-anchor="middle" x="227" y="-241.7" font-family="Helvetica,sans-Serif" font-size="11.00">DigitalIn</text>
<polyline fill="none" stroke="black" points="172,-234.5 282,-234.5 "/>
<text text-anchor="start" x="180" y="-221.7" font-family="Helvetica,sans-Serif" font-size="11.00">+pin: PinName</text>
<text text-anchor="start" x="180" y="-209.7" font-family="Helvetica,sans-Serif" font-size="11.00">+mode: PinMode</text>
<polyline fill="none" stroke="black" points="172,-202.5 282,-202.5 "/>
<text text-anchor="start" x="180" y="-189.7" font-family="Helvetica,sans-Serif" font-size="11.00">+read(): int</text>
</g>
<!-- ThisThread -->
<g id="node3" class="node">
<title>ThisThread</title>
<polygon fill="none" stroke="black" points="354,-188.5 354,-248.5 566,-248.5 566,-188.5 354,-188.5"/>
<text text-anchor="middle" x="460" y="-235.7" font-family="Helvetica,sans-Serif" font-size="11.00">ThisThread</text>
<polyline fill="none" stroke="black" points="354,-228.5 566,-228.5 "/>
<text text-anchor="middle" x="460" y="-215.7" font-family="Helvetica,sans-Serif" font-size="11.00"> </text>
<polyline fill="none" stroke="black" points="354,-208.5 566,-208.5 "/>
<text text-anchor="start" x="362" y="-195.7" font-family="Helvetica,sans-Serif" font-size="11.00">+sleep_for(duration: TimeDuration)</text>
</g>
<!-- set_led1_state -->
<g id="node4" class="node">
<title>set_led1_state</title>
<path fill="none" stroke="black" d="M650.5,-200.5C650.5,-200.5 871.5,-200.5 871.5,-200.5 877.5,-200.5 883.5,-206.5 883.5,-212.5 883.5,-212.5 883.5,-224.5 883.5,-224.5 883.5,-230.5 877.5,-236.5 871.5,-236.5 871.5,-236.5 650.5,-236.5 650.5,-236.5 644.5,-236.5 638.5,-230.5 638.5,-224.5 638.5,-224.5 638.5,-212.5 638.5,-212.5 638.5,-206.5 644.5,-200.5 650.5,-200.5"/>
<text text-anchor="middle" x="761" y="-215.7" font-family="Helvetica,sans-Serif" font-size="11.00">set_led1_state(led: DigitalOut&amp;, on: bool)</text>
</g>
<!-- set_led1_state&#45;&gt;DigitalOut -->
<g id="edge6" class="edge">
<title>set_led1_state&#45;&gt;DigitalOut</title>
<path fill="none" stroke="black" d="M761,-200.38C761,-200.38 761,-82.65 761,-82.65"/>
<polygon fill="black" stroke="black" points="764.5,-82.65 761,-72.65 757.5,-82.65 764.5,-82.65"/>
</g>
<!-- blink_led1 -->
<g id="node5" class="node">
<title>blink_led1</title>
<path fill="none" stroke="black" d="M967.5,-200.5C967.5,-200.5 1110.5,-200.5 1110.5,-200.5 1116.5,-200.5 1122.5,-206.5 1122.5,-212.5 1122.5,-212.5 1122.5,-224.5 1122.5,-224.5 1122.5,-230.5 1116.5,-236.5 1110.5,-236.5 1110.5,-236.5 967.5,-236.5 967.5,-236.5 961.5,-236.5 955.5,-230.5 955.5,-224.5 955.5,-224.5 955.5,-212.5 955.5,-212.5 955.5,-206.5 961.5,-200.5 967.5,-200.5"/>
<text text-anchor="middle" x="1039" y="-215.7" font-family="Helvetica,sans-Serif" font-size="11.00">blink_led1(led: DigitalOut&amp;)</text>
</g>
<!-- blink_led1&#45;&gt;DigitalOut -->
<g id="edge7" class="edge">
<title>blink_led1&#45;&gt;DigitalOut</title>
<path fill="none" stroke="black" d="M1039,-200.33C1039,-154.17 1039,-36 1039,-36 1039,-36 828.26,-36 828.26,-36"/>
<polygon fill="black" stroke="black" points="828.26,-32.5 818.26,-36 828.26,-39.5 828.26,-32.5"/>
</g>
<!-- main_func -->
<g id="node6" class="node">
<title>main_func</title>
<path fill="none" stroke="black" d="M380.5,-378.5C380.5,-378.5 539.5,-378.5 539.5,-378.5 545.5,-378.5 551.5,-384.5 551.5,-390.5 551.5,-390.5 551.5,-442.5 551.5,-442.5 551.5,-448.5 545.5,-454.5 539.5,-454.5 539.5,-454.5 380.5,-454.5 380.5,-454.5 374.5,-454.5 368.5,-448.5 368.5,-442.5 368.5,-442.5 368.5,-390.5 368.5,-390.5 368.5,-384.5 374.5,-378.5 380.5,-378.5"/>
<text text-anchor="middle" x="460" y="-441.7" font-family="Helvetica,sans-Serif" font-size="11.00">main()</text>
<polyline fill="none" stroke="black" points="368.5,-434.5 551.5,-434.5 "/>
<text text-anchor="start" x="376.5" y="-421.7" font-family="Helvetica,sans-Serif" font-size="11.00">&#45; loop_started: bool</text>
<text text-anchor="start" x="376.5" y="-409.7" font-family="Helvetica,sans-Serif" font-size="11.00">&#45; previous_led_state: bool</text>
<text text-anchor="start" x="376.5" y="-397.7" font-family="Helvetica,sans-Serif" font-size="11.00">&#45; previous_pressed: bool</text>
<text text-anchor="start" x="376.5" y="-385.7" font-family="Helvetica,sans-Serif" font-size="11.00">&#45; button_press_count: uint32_t</text>
</g>
<!-- main_func&#45;&gt;DigitalOut -->
<g id="edge5" class="edge">
<title>main_func&#45;&gt;DigitalOut</title>
<path fill="none" stroke="black" d="M551.7,-397C579.22,-397 602.25,-397 602.25,-397 602.25,-397 602.25,-36 602.25,-36 602.25,-36 693.69,-36 693.69,-36"/>
<polygon fill="black" stroke="black" points="693.69,-39.5 703.69,-36 693.69,-32.5 693.69,-39.5"/>
<text text-anchor="middle" x="50" y="-214.8" font-family="Times,serif" font-size="14.00">[#ifdef LED1]</text>
</g>
<!-- main_func&#45;&gt;DigitalIn -->
<g id="edge4" class="edge">
<title>main_func&#45;&gt;DigitalIn</title>
<path fill="none" stroke="black" stroke-dasharray="5,2" d="M368.25,-416C303.04,-416 227,-416 227,-416 227,-416 227,-264.72 227,-264.72"/>
<polygon fill="black" stroke="black" points="230.5,-264.72 227,-254.72 223.5,-264.72 230.5,-264.72"/>
<text text-anchor="middle" x="293.5" y="-312.8" font-family="Times,serif" font-size="14.00">[#ifdef BUTTON1]</text>
</g>
<!-- main_func&#45;&gt;ThisThread -->
<g id="edge3" class="edge">
<title>main_func&#45;&gt;ThisThread</title>
<path fill="none" stroke="black" d="M460,-378.32C460,-378.32 460,-258.79 460,-258.79"/>
<polygon fill="black" stroke="black" points="463.5,-258.79 460,-248.79 456.5,-258.79 463.5,-258.79"/>
</g>
<!-- main_func&#45;&gt;set_led1_state -->
<g id="edge1" class="edge">
<title>main_func&#45;&gt;set_led1_state</title>
<path fill="none" stroke="black" d="M551.54,-416C640.09,-416 761,-416 761,-416 761,-416 761,-246.73 761,-246.73"/>
<polygon fill="black" stroke="black" points="764.5,-246.73 761,-236.73 757.5,-246.73 764.5,-246.73"/>
<text text-anchor="middle" x="767.5" y="-312.8" font-family="Times,serif" font-size="14.00">[#if defined(LED1) &amp;&amp; defined(BUTTON1)]</text>
</g>
<!-- main_func&#45;&gt;blink_led1 -->
<g id="edge2" class="edge">
<title>main_func&#45;&gt;blink_led1</title>
<path fill="none" stroke="black" stroke-dasharray="5,2" d="M551.74,-435C715.01,-435 1039,-435 1039,-435 1039,-435 1039,-246.59 1039,-246.59"/>
<polygon fill="black" stroke="black" points="1042.5,-246.59 1039,-236.59 1035.5,-246.59 1042.5,-246.59"/>
<text text-anchor="middle" x="1095.5" y="-312.8" font-family="Times,serif" font-size="14.00">[#elif defined(LED1)]</text>
</g>
</g>
</svg>
