<?xml version="1.0" encoding="UTF-8" standalone="no"?>
<!DOCTYPE svg PUBLIC "-//W3C//DTD SVG 1.1//EN"
 "http://www.w3.org/Graphics/SVG/1.1/DTD/svg11.dtd">
<!-- Generated by graphviz version 2.43.0 (0)
 -->
<!-- Title: ClassDiagram Pages: 1 -->
<svg width="744pt" height="137pt"
 viewBox="0.00 0.00 743.50 137.00" xmlns="http://www.w3.org/2000/svg" xmlns:xlink="http://www.w3.org/1999/xlink">
<g id="graph0" class="graph" transform="scale(1 1) rotate(0) translate(4 133)">
<title>ClassDiagram</title>
<polygon fill="#ffffff" stroke="transparent" points="-4,4 -4,-133 739.5,-133 739.5,4 -4,4"/>
<!-- DigitalOut -->
<g id="node1" class="node">
<title>DigitalOut</title>
<polygon fill="none" stroke="black" points="0,-28.5 0,-100.5 114,-100.5 114,-28.5 0,-28.5"/>
<text text-anchor="middle" x="57" y="-87.7" font-family="Helvetica,sans-Serif" font-size="11.00">DigitalOut</text>
<polyline fill="none" stroke="black" points="0,-80.5 114,-80.5 "/>
<text text-anchor="start" x="8" y="-67.7" font-family="Helvetica,sans-Serif" font-size="11.00">+led: PinName</text>
<polyline fill="none" stroke="black" points="0,-60.5 114,-60.5 "/>
<text text-anchor="start" x="8" y="-47.7" font-family="Helvetica,sans-Serif" font-size="11.00">+write(value: int)</text>
<text text-anchor="start" x="8" y="-35.7" font-family="Helvetica,sans-Serif" font-size="11.00">+read(): int</text>
</g>
<!-- DigitalIn -->
<g id="node2" class="node">
<title>DigitalIn</title>
<polygon fill="none" stroke="black" points="132,-28.5 132,-100.5 242,-100.5 242,-28.5 132,-28.5"/>
<text text-anchor="middle" x="187" y="-87.7" font-family="Helvetica,sans-Serif" font-size="11.00">DigitalIn</text>
<polyline fill="none" stroke="black" points="132,-80.5 242,-80.5 "/>
<text text-anchor="start" x="140" y="-67.7" font-family="Helvetica,sans-Serif" font-size="11.00">+pin: PinName</text>
<text text-anchor="start" x="140" y="-55.7" font-family="Helvetica,sans-Serif" font-size="11.00">+mode: PinMode</text>
<polyline fill="none" stroke="black" points="132,-48.5 242,-48.5 "/>
<text text-anchor="start" x="140" y="-35.7" font-family="Helvetica,sans-Serif" font-size="11.00">+read(): int</text>
</g>
<!-- ThisThread -->
<g id="node3" class="node">
<title>ThisThread</title>
<polygon fill="none" stroke="black" points="260,-34.5 260,-94.5 472,-94.5 472,-34.5 260,-34.5"/>
<text text-anchor="middle" x="366" y="-81.7" font-family="Helvetica,sans-Serif" font-size="11.00">ThisThread</text>
<polyline fill="none" stroke="black" points="260,-74.5 472,-74.5 "/>
<text text-anchor="middle" x="366" y="-61.7" font-family="Helvetica,sans-Serif" font-size="11.00"> </text>
<polyline fill="none" stroke="black" points="260,-54.5 472,-54.5 "/>
<text text-anchor="start" x="268" y="-41.7" font-family="Helvetica,sans-Serif" font-size="11.00">+sleep_for(duration: TimeDuration)</text>
</g>
<!-- main -->
<g id="node4" class="node">
<title>main</title>
<polygon fill="none" stroke="black" points="490.5,-0.5 490.5,-128.5 735.5,-128.5 735.5,-0.5 490.5,-0.5"/>
<text text-anchor="middle" x="613" y="-115.7" font-family="Helvetica,sans-Serif" font-size="11.00">main</text>
<polyline fill="none" stroke="black" points="490.5,-108.5 735.5,-108.5 "/>
<text text-anchor="middle" x="613" y="-95.7" font-family="Helvetica,sans-Serif" font-size="11.00"> </text>
<polyline fill="none" stroke="black" points="490.5,-88.5 735.5,-88.5 "/>
<text text-anchor="start" x="498.5" y="-75.7" font-family="Helvetica,sans-Serif" font-size="11.00">+loop_started: bool</text>
<text text-anchor="start" x="498.5" y="-63.7" font-family="Helvetica,sans-Serif" font-size="11.00">+previous_led_state: bool</text>
<text text-anchor="start" x="498.5" y="-51.7" font-family="Helvetica,sans-Serif" font-size="11.00">+button_press_count: uint32_t</text>
<text text-anchor="start" x="498.5" y="-39.7" font-family="Helvetica,sans-Serif" font-size="11.00">+pressed: bool</text>
<polyline fill="none" stroke="black" points="490.5,-32.5 735.5,-32.5 "/>
<text text-anchor="start" x="498.5" y="-19.7" font-family="Helvetica,sans-Serif" font-size="11.00">+set_led1_state(led: DigitalOut, on: bool)</text>
<text text-anchor="start" x="498.5" y="-7.7" font-family="Helvetica,sans-Serif" font-size="11.00">+blink_led1(led: DigitalOut)</text>
</g>
</g>
</svg>
