<?xml version="1.0" encoding="UTF-8" standalone="no"?>
<!DOCTYPE svg PUBLIC "-//W3C//DTD SVG 1.1//EN"
 "http://www.w3.org/Graphics/SVG/1.1/DTD/svg11.dtd">
<!-- Generated by graphviz version 2.43.0 (0)
 -->
<!-- Title: ClassDiagram Pages: 1 -->
<svg width="240pt" height="81pt"
 viewBox="0.00 0.00 240.00 81.00" xmlns="http://www.w3.org/2000/svg" xmlns:xlink="http://www.w3.org/1999/xlink">
<g id="graph0" class="graph" transform="scale(1 1) rotate(0) translate(4 77)">
<title>ClassDiagram</title>
<polygon fill="#ffffff" stroke="transparent" points="-4,4 -4,-77 236,-77 236,4 -4,4"/>
<!-- DigitalOut -->
<g id="node1" class="node">
<title>DigitalOut</title>
<polygon fill="none" stroke="black" points="0,-0.5 0,-72.5 107,-72.5 107,-0.5 0,-0.5"/>
<text text-anchor="middle" x="53.5" y="-59.7" font-family="Helvetica,sans-Serif" font-size="11.00">DigitalOut</text>
<polyline fill="none" stroke="black" points="0,-52.5 107,-52.5 "/>
<text text-anchor="start" x="8" y="-39.7" font-family="Helvetica,sans-Serif" font-size="11.00">+read(): int</text>
<text text-anchor="start" x="8" y="-27.7" font-family="Helvetica,sans-Serif" font-size="11.00">+write(int): void</text>
<polyline fill="none" stroke="black" points="0,-20.5 107,-20.5 "/>
<text text-anchor="middle" x="53.5" y="-7.7" font-family="Helvetica,sans-Serif" font-size="11.00"> </text>
</g>
<!-- DigitalIn -->
<g id="node2" class="node">
<title>DigitalIn</title>
<polygon fill="none" stroke="black" points="125,-0.5 125,-72.5 232,-72.5 232,-0.5 125,-0.5"/>
<text text-anchor="middle" x="178.5" y="-59.7" font-family="Helvetica,sans-Serif" font-size="11.00">DigitalIn</text>
<polyline fill="none" stroke="black" points="125,-52.5 232,-52.5 "/>
<text text-anchor="start" x="133" y="-39.7" font-family="Helvetica,sans-Serif" font-size="11.00">+read(): int</text>
<text text-anchor="start" x="133" y="-27.7" font-family="Helvetica,sans-Serif" font-size="11.00">+write(int): void</text>
<polyline fill="none" stroke="black" points="125,-20.5 232,-20.5 "/>
<text text-anchor="middle" x="178.5" y="-7.7" font-family="Helvetica,sans-Serif" font-size="11.00"> </text>
</g>
</g>
</svg>
