<?xml version="1.0" encoding="UTF-8" standalone="no"?>
<!DOCTYPE svg PUBLIC "-//W3C//DTD SVG 1.1//EN"
 "http://www.w3.org/Graphics/SVG/1.1/DTD/svg11.dtd">
<!-- Generated by graphviz version 2.43.0 (0)
 -->
<!-- Title: ClassDiagram Pages: 1 -->
<svg width="1054pt" height="435pt"
 viewBox="0.00 0.00 1053.50 435.00" xmlns="http://www.w3.org/2000/svg" xmlns:xlink="http://www.w3.org/1999/xlink">
<g id="graph0" class="graph" transform="scale(1 1) rotate(0) translate(4 431)">
<title>ClassDiagram</title>
<polygon fill="#ffffff" stroke="transparent" points="-4,4 -4,-431 1049.5,-431 1049.5,4 -4,4"/>
<!-- DigitalOut -->
<g id="node1" class="node">
<title>DigitalOut</title>
<polygon fill="none" stroke="black" points="634,-0.5 634,-72.5 748,-72.5 748,-0.5 634,-0.5"/>
<text text-anchor="middle" x="691" y="-59.7" font-family="Helvetica,sans-Serif" font-size="11.00">DigitalOut</text>
<polyline fill="none" stroke="black" points="634,-52.5 748,-52.5 "/>
<text text-anchor="start" x="642" y="-39.7" font-family="Helvetica,sans-Serif" font-size="11.00">+led: PinName</text>
<polyline fill="none" stroke="black" points="634,-32.5 748,-32.5 "/>
<text text-anchor="start" x="642" y="-19.7" font-family="Helvetica,sans-Serif" font-size="11.00">+write(value: int)</text>
<text text-anchor="start" x="642" y="-7.7" font-family="Helvetica,sans-Serif" font-size="11.00">+read(): int</text>
</g>
<!-- DigitalIn -->
<g id="node2" class="node">
<title>DigitalIn</title>
<polygon fill="none" stroke="black" points="116,-168.5 116,-240.5 226,-240.5 226,-168.5 116,-168.5"/>
<text text-anchor="middle" x="171" y="-227.7" font-family="Helvetica,sans-Serif" font-size="11.00">DigitalIn</text>
<polyline fill="none" stroke="black" points="116,-220.5 226,-220.5 "/>
<text text-anchor="start" x="124" y="-207.7" font-family="Helvetica,sans-Serif" font-size="11.00">+pin: PinName</text>
<text text-anchor="start" x="124" y="-195.7" font-family="Helvetica,sans-Serif" font-size="11.00">+mode: PinMode</text>
<polyline fill="none" stroke="black" points="116,-188.5 226,-188.5 "/>
<text text-anchor="start" x="124" y="-175.7" font-family="Helvetica,sans-Serif" font-size="11.00">+read(): int</text>
</g>
<!-- ThisThread -->
<g id="node3" class="node">
<title>ThisThread</title>
<polygon fill="none" stroke="black" points="291,-174.5 291,-234.5 503,-234.5 503,-174.5 291,-174.5"/>
<text text-anchor="middle" x="397" y="-221.7" font-family="Helvetica,sans-Serif" font-size="11.00">ThisThread</text>
<polyline fill="none" stroke="black" points="291,-214.5 503,-214.5 "/>
<text text-anchor="middle" x="397" y="-201.7" font-family="Helvetica,sans-Serif" font-size="11.00"> </text>
<polyline fill="none" stroke="black" points="291,-194.5 503,-194.5 "/>
<text text-anchor="start" x="299" y="-181.7" font-family="Helvetica,sans-Serif" font-size="11.00">+sleep_for(duration: TimeDuration)</text>
</g>
<!-- set_led1_state -->
<g id="node4" class="node">
<title>set_led1_state</title>
<path fill="none" stroke="black" d="M580.5,-186.5C580.5,-186.5 801.5,-186.5 801.5,-186.5 807.5,-186.5 813.5,-192.5 813.5,-198.5 813.5,-198.5 813.5,-210.5 813.5,-210.5 813.5,-216.5 807.5,-222.5 801.5,-222.5 801.5,-222.5 580.5,-222.5 580.5,-222.5 574.5,-222.5 568.5,-216.5 568.5,-210.5 568.5,-210.5 568.5,-198.5 568.5,-198.5 568.5,-192.5 574.5,-186.5 580.5,-186.5"/>
<text text-anchor="middle" x="691" y="-201.7" font-family="Helvetica,sans-Serif" font-size="11.00">set_led1_state(led: DigitalOut&amp;, on: bool)</text>
</g>
<!-- set_led1_state&#45;&gt;DigitalOut -->
<g id="edge6" class="edge">
<title>set_led1_state&#45;&gt;DigitalOut</title>
<path fill="none" stroke="black" d="M691,-186.2C691,-186.2 691,-82.71 691,-82.71"/>
<polygon fill="black" stroke="black" points="694.5,-82.71 691,-72.71 687.5,-82.71 694.5,-82.71"/>
</g>
<!-- blink_led1 -->
<g id="node5" class="node">
<title>blink_led1</title>
<path fill="none" stroke="black" d="M890.5,-186.5C890.5,-186.5 1033.5,-186.5 1033.5,-186.5 1039.5,-186.5 1045.5,-192.5 1045.5,-198.5 1045.5,-198.5 1045.5,-210.5 1045.5,-210.5 1045.5,-216.5 1039.5,-222.5 1033.5,-222.5 1033.5,-222.5 890.5,-222.5 890.5,-222.5 884.5,-222.5 878.5,-216.5 878.5,-210.5 878.5,-210.5 878.5,-198.5 878.5,-198.5 878.5,-192.5 884.5,-186.5 890.5,-186.5"/>
<text text-anchor="middle" x="962" y="-201.7" font-family="Helvetica,sans-Serif" font-size="11.00">blink_led1(led: DigitalOut&amp;)</text>
</g>
<!-- blink_led1&#45;&gt;DigitalOut -->
<g id="edge7" class="edge">
<title>blink_led1&#45;&gt;DigitalOut</title>
<path fill="none" stroke="black" d="M962,-186.47C962,-143 962,-36 962,-36 962,-36 758.14,-36 758.14,-36"/>
<polygon fill="black" stroke="black" points="758.14,-32.5 748.14,-36 758.14,-39.5 758.14,-32.5"/>
</g>
<!-- main_func -->
<g id="node6" class="node">
<title>main_func</title>
<path fill="none" stroke="black" d="M317.5,-350.5C317.5,-350.5 476.5,-350.5 476.5,-350.5 482.5,-350.5 488.5,-356.5 488.5,-362.5 488.5,-362.5 488.5,-414.5 488.5,-414.5 488.5,-420.5 482.5,-426.5 476.5,-426.5 476.5,-426.5 317.5,-426.5 317.5,-426.5 311.5,-426.5 305.5,-420.5 305.5,-414.5 305.5,-414.5 305.5,-362.5 305.5,-362.5 305.5,-356.5 311.5,-350.5 317.5,-350.5"/>
<text text-anchor="middle" x="397" y="-413.7" font-family="Helvetica,sans-Serif" font-size="11.00">main()</text>
<polyline fill="none" stroke="black" points="305.5,-406.5 488.5,-406.5 "/>
<text text-anchor="start" x="313.5" y="-393.7" font-family="Helvetica,sans-Serif" font-size="11.00">&#45; loop_started: bool</text>
<text text-anchor="start" x="313.5" y="-381.7" font-family="Helvetica,sans-Serif" font-size="11.00">&#45; previous_led_state: bool</text>
<text text-anchor="start" x="313.5" y="-369.7" font-family="Helvetica,sans-Serif" font-size="11.00">&#45; previous_pressed: bool</text>
<text text-anchor="start" x="313.5" y="-357.7" font-family="Helvetica,sans-Serif" font-size="11.00">&#45; button_press_count: uint32_t</text>
</g>
<!-- main_func&#45;&gt;DigitalOut -->
<g id="edge5" class="edge">
<title>main_func&#45;&gt;DigitalOut</title>
<path fill="none" stroke="black" d="M488.78,-369C514.58,-369 535.75,-369 535.75,-369 535.75,-369 535.75,-36 535.75,-36 535.75,-36 623.63,-36 623.63,-36"/>
<polygon fill="black" stroke="black" points="623.63,-39.5 633.63,-36 623.63,-32.5 623.63,-39.5"/>
<text text-anchor="middle" x="25.5" y="-200.8" font-family="Times,serif" font-size="14.00">[LED1]</text>
</g>
<!-- main_func&#45;&gt;DigitalIn -->
<g id="edge4" class="edge">
<title>main_func&#45;&gt;DigitalIn</title>
<path fill="none" stroke="black" stroke-dasharray="5,2" d="M305.4,-388C242.76,-388 171,-388 171,-388 171,-388 171,-250.75 171,-250.75"/>
<polygon fill="black" stroke="black" points="174.5,-250.75 171,-240.75 167.5,-250.75 174.5,-250.75"/>
<text text-anchor="middle" x="213.5" y="-291.8" font-family="Times,serif" font-size="14.00">[BUTTON1]</text>
</g>
<!-- main_func&#45;&gt;ThisThread -->
<g id="edge3" class="edge">
<title>main_func&#45;&gt;ThisThread</title>
<path fill="none" stroke="black" d="M397,-350.38C397,-350.38 397,-244.68 397,-244.68"/>
<polygon fill="black" stroke="black" points="400.5,-244.68 397,-234.68 393.5,-244.68 400.5,-244.68"/>
<text text-anchor="middle" x="468" y="-291.8" font-family="Times,serif" font-size="14.00">[LED1 || BUTTON1]</text>
</g>
<!-- main_func&#45;&gt;set_led1_state -->
<g id="edge1" class="edge">
<title>main_func&#45;&gt;set_led1_state</title>
<path fill="none" stroke="black" d="M488.81,-388C575.08,-388 691,-388 691,-388 691,-388 691,-232.77 691,-232.77"/>
<polygon fill="black" stroke="black" points="694.5,-232.77 691,-222.77 687.5,-232.77 694.5,-232.77"/>
</g>
<!-- main_func&#45;&gt;blink_led1 -->
<g id="edge2" class="edge">
<title>main_func&#45;&gt;blink_led1</title>
<path fill="none" stroke="black" stroke-dasharray="5,2" d="M488.72,-407C648.72,-407 962,-407 962,-407 962,-407 962,-232.83 962,-232.83"/>
<polygon fill="black" stroke="black" points="965.5,-232.83 962,-222.83 958.5,-232.83 965.5,-232.83"/>
<text text-anchor="middle" x="928.5" y="-291.8" font-family="Times,serif" font-size="14.00">[LED1 &amp;&amp; BUTTON1]</text>
</g>
</g>
</svg>
