<?xml version="1.0" encoding="UTF-8" standalone="no"?>
<!DOCTYPE svg PUBLIC "-//W3C//DTD SVG 1.1//EN"
 "http://www.w3.org/Graphics/SVG/1.1/DTD/svg11.dtd">
<!-- Generated by graphviz version 2.43.0 (0)
 -->
<!-- Title: ClassDiagram Pages: 1 -->
<svg width="188pt" height="81pt"
 viewBox="0.00 0.00 188.00 81.00" xmlns="http://www.w3.org/2000/svg" xmlns:xlink="http://www.w3.org/1999/xlink">
<g id="graph0" class="graph" transform="scale(1 1) rotate(0) translate(4 77)">
<title>ClassDiagram</title>
<polygon fill="#ffffff" stroke="transparent" points="-4,4 -4,-77 184,-77 184,4 -4,4"/>
<!-- DigitalOut -->
<g id="node1" class="node">
<title>DigitalOut</title>
<polygon fill="none" stroke="black" points="0,-0.5 0,-72.5 81,-72.5 81,-0.5 0,-0.5"/>
<text text-anchor="middle" x="40.5" y="-59.7" font-family="Helvetica,sans-Serif" font-size="11.00">DigitalOut</text>
<polyline fill="none" stroke="black" points="0,-52.5 81,-52.5 "/>
<text text-anchor="middle" x="40.5" y="-39.7" font-family="Helvetica,sans-Serif" font-size="11.00"> </text>
<polyline fill="none" stroke="black" points="0,-32.5 81,-32.5 "/>
<text text-anchor="start" x="8" y="-19.7" font-family="Helvetica,sans-Serif" font-size="11.00">+read(): int</text>
<text text-anchor="start" x="8" y="-7.7" font-family="Helvetica,sans-Serif" font-size="11.00">+write(int)</text>
</g>
<!-- DigitalIn -->
<g id="node2" class="node">
<title>DigitalIn</title>
<polygon fill="none" stroke="black" points="99,-0.5 99,-72.5 180,-72.5 180,-0.5 99,-0.5"/>
<text text-anchor="middle" x="139.5" y="-59.7" font-family="Helvetica,sans-Serif" font-size="11.00">DigitalIn</text>
<polyline fill="none" stroke="black" points="99,-52.5 180,-52.5 "/>
<text text-anchor="middle" x="139.5" y="-39.7" font-family="Helvetica,sans-Serif" font-size="11.00"> </text>
<polyline fill="none" stroke="black" points="99,-32.5 180,-32.5 "/>
<text text-anchor="start" x="107" y="-19.7" font-family="Helvetica,sans-Serif" font-size="11.00">+read(): int</text>
<text text-anchor="start" x="107" y="-7.7" font-family="Helvetica,sans-Serif" font-size="11.00">+write(int)</text>
</g>
</g>
</svg>
