<?xml version="1.0" encoding="UTF-8" standalone="no"?>
<!DOCTYPE svg PUBLIC "-//W3C//DTD SVG 1.1//EN"
 "http://www.w3.org/Graphics/SVG/1.1/DTD/svg11.dtd">
<!-- Generated by graphviz version 2.43.0 (0)
 -->
<!-- Title: ClassDiagram Pages: 1 -->
<svg width="1485pt" height="283pt"
 viewBox="0.00 0.00 1485.00 283.00" xmlns="http://www.w3.org/2000/svg" xmlns:xlink="http://www.w3.org/1999/xlink">
<g id="graph0" class="graph" transform="scale(1 1) rotate(0) translate(4 279)">
<title>ClassDiagram</title>
<polygon fill="#ffffff" stroke="transparent" points="-4,4 -4,-279 1481,-279 1481,4 -4,4"/>
<!-- DigitalOut -->
<g id="node1" class="node">
<title>DigitalOut</title>
<polygon fill="none" stroke="black" points="177.5,-0.5 177.5,-72.5 291.5,-72.5 291.5,-0.5 177.5,-0.5"/>
<text text-anchor="middle" x="234.5" y="-59.7" font-family="Helvetica,sans-Serif" font-size="11.00">DigitalOut</text>
<polyline fill="none" stroke="black" points="177.5,-52.5 291.5,-52.5 "/>
<text text-anchor="start" x="185.5" y="-39.7" font-family="Helvetica,sans-Serif" font-size="11.00">+led: PinName</text>
<polyline fill="none" stroke="black" points="177.5,-32.5 291.5,-32.5 "/>
<text text-anchor="start" x="185.5" y="-19.7" font-family="Helvetica,sans-Serif" font-size="11.00">+write(value: int)</text>
<text text-anchor="start" x="185.5" y="-7.7" font-family="Helvetica,sans-Serif" font-size="11.00">+read(): int</text>
</g>
<!-- DigitalIn -->
<g id="node2" class="node">
<title>DigitalIn</title>
<polygon fill="none" stroke="black" points="812.5,-200.5 812.5,-260.5 930.5,-260.5 930.5,-200.5 812.5,-200.5"/>
<text text-anchor="middle" x="871.5" y="-247.7" font-family="Helvetica,sans-Serif" font-size="11.00">DigitalIn</text>
<polyline fill="none" stroke="black" points="812.5,-240.5 930.5,-240.5 "/>
<text text-anchor="start" x="820.5" y="-227.7" font-family="Helvetica,sans-Serif" font-size="11.00">+button: PinName</text>
<polyline fill="none" stroke="black" points="812.5,-220.5 930.5,-220.5 "/>
<text text-anchor="start" x="820.5" y="-207.7" font-family="Helvetica,sans-Serif" font-size="11.00">+read(): int</text>
</g>
<!-- set_led1_state -->
<g id="node3" class="node">
<title>set_led1_state</title>
<polygon fill="none" stroke="black" points="0,-111.5 0,-147.5 245,-147.5 245,-111.5 0,-111.5"/>
<text text-anchor="middle" x="122.5" y="-126.7" font-family="Helvetica,sans-Serif" font-size="11.00">set_led1_state(led: DigitalOut&amp;, on: bool)</text>
</g>
<!-- set_led1_state&#45;&gt;DigitalOut -->
<g id="edge3" class="edge">
<title>set_led1_state&#45;&gt;DigitalOut</title>
<path fill="none" stroke="black" d="M211.25,-111.13C211.25,-111.13 211.25,-80.54 211.25,-80.54"/>
<polygon fill="black" stroke="black" points="214.05,-80.54 211.25,-72.54 208.45,-80.54 214.05,-80.54"/>
</g>
<!-- blink_led1 -->
<g id="node4" class="node">
<title>blink_led1</title>
<polygon fill="none" stroke="black" points="263,-111.5 263,-147.5 430,-147.5 430,-111.5 263,-111.5"/>
<text text-anchor="middle" x="346.5" y="-126.7" font-family="Helvetica,sans-Serif" font-size="11.00">blink_led1(led: DigitalOut&amp;)</text>
</g>
<!-- blink_led1&#45;&gt;DigitalOut -->
<g id="edge4" class="edge">
<title>blink_led1&#45;&gt;DigitalOut</title>
<path fill="none" stroke="black" d="M277.25,-111.13C277.25,-111.13 277.25,-80.54 277.25,-80.54"/>
<polygon fill="black" stroke="black" points="280.05,-80.54 277.25,-72.54 274.45,-80.54 280.05,-80.54"/>
</g>
<!-- main_func -->
<g id="node5" class="node">
<title>main_func</title>
<polygon fill="none" stroke="black" points="611,-186.5 611,-274.5 794,-274.5 794,-186.5 611,-186.5"/>
<text text-anchor="middle" x="702.5" y="-261.7" font-family="Helvetica,sans-Serif" font-size="11.00">main()</text>
<polyline fill="none" stroke="black" points="611,-254.5 794,-254.5 "/>
<text text-anchor="start" x="619" y="-241.7" font-family="Helvetica,sans-Serif" font-size="11.00">&#45; loop_started: bool</text>
<text text-anchor="start" x="619" y="-229.7" font-family="Helvetica,sans-Serif" font-size="11.00">&#45; previous_led_state: bool</text>
<text text-anchor="start" x="619" y="-217.7" font-family="Helvetica,sans-Serif" font-size="11.00">&#45; button_press_count: uint32_t</text>
<text text-anchor="start" x="619" y="-205.7" font-family="Helvetica,sans-Serif" font-size="11.00">&#45; led: DigitalOut</text>
<text text-anchor="start" x="619" y="-193.7" font-family="Helvetica,sans-Serif" font-size="11.00">&#45; button: DigitalIn</text>
</g>
<!-- main_func&#45;&gt;set_led1_state -->
<g id="edge1" class="edge">
<title>main_func&#45;&gt;set_led1_state</title>
<path fill="none" stroke="black" d="M610.92,-245C447.48,-245 122.5,-245 122.5,-245 122.5,-245 122.5,-155.55 122.5,-155.55"/>
<polygon fill="black" stroke="black" points="125.3,-155.55 122.5,-147.55 119.7,-155.55 125.3,-155.55"/>
</g>
<!-- main_func&#45;&gt;blink_led1 -->
<g id="edge2" class="edge">
<title>main_func&#45;&gt;blink_led1</title>
<path fill="none" stroke="black" d="M610.82,-215C505.34,-215 346.5,-215 346.5,-215 346.5,-215 346.5,-155.63 346.5,-155.63"/>
<polygon fill="black" stroke="black" points="349.3,-155.63 346.5,-147.63 343.7,-155.63 349.3,-155.63"/>
</g>
<!-- MBED_CONF_NANOSTACK_CONFIGURATION -->
<g id="node6" class="node">
<title>MBED_CONF_NANOSTACK_CONFIGURATION</title>
<polygon fill="none" stroke="black" points="448,-109.5 448,-149.5 703,-149.5 703,-109.5 448,-109.5"/>
<text text-anchor="middle" x="575.5" y="-136.7" font-family="Helvetica,sans-Serif" font-size="11.00">MBED_CONF_NANOSTACK_CONFIGURATION</text>
<polyline fill="none" stroke="black" points="448,-129.5 703,-129.5 "/>
<text text-anchor="middle" x="575.5" y="-116.7" font-family="Helvetica,sans-Serif" font-size="11.00">value: nanostack_full</text>
</g>
<!-- main_func&#45;&gt;MBED_CONF_NANOSTACK_CONFIGURATION -->
<g id="edge5" class="edge">
<title>main_func&#45;&gt;MBED_CONF_NANOSTACK_CONFIGURATION</title>
<path fill="none" stroke="black" d="M657,-186.49C657,-186.49 657,-157.6 657,-157.6"/>
<polygon fill="black" stroke="black" points="659.8,-157.6 657,-149.6 654.2,-157.6 659.8,-157.6"/>
</g>
<!-- MBED_CONF_NSAPI_DEFAULT_STACK -->
<g id="node7" class="node">
<title>MBED_CONF_NSAPI_DEFAULT_STACK</title>
<polygon fill="none" stroke="black" points="721.5,-109.5 721.5,-149.5 937.5,-149.5 937.5,-109.5 721.5,-109.5"/>
<text text-anchor="middle" x="829.5" y="-136.7" font-family="Helvetica,sans-Serif" font-size="11.00">MBED_CONF_NSAPI_DEFAULT_STACK</text>
<polyline fill="none" stroke="black" points="721.5,-129.5 937.5,-129.5 "/>
<text text-anchor="middle" x="829.5" y="-116.7" font-family="Helvetica,sans-Serif" font-size="11.00">value: LWIP</text>
</g>
<!-- main_func&#45;&gt;MBED_CONF_NSAPI_DEFAULT_STACK -->
<g id="edge6" class="edge">
<title>main_func&#45;&gt;MBED_CONF_NSAPI_DEFAULT_STACK</title>
<path fill="none" stroke="black" d="M757.75,-186.49C757.75,-186.49 757.75,-157.6 757.75,-157.6"/>
<polygon fill="black" stroke="black" points="760.55,-157.6 757.75,-149.6 754.95,-157.6 760.55,-157.6"/>
</g>
<!-- MBED_CONF_PLATFORM_STDIO_BAUD_RATE -->
<g id="node8" class="node">
<title>MBED_CONF_PLATFORM_STDIO_BAUD_RATE</title>
<polygon fill="none" stroke="black" points="955.5,-109.5 955.5,-149.5 1213.5,-149.5 1213.5,-109.5 955.5,-109.5"/>
<text text-anchor="middle" x="1084.5" y="-136.7" font-family="Helvetica,sans-Serif" font-size="11.00">MBED_CONF_PLATFORM_STDIO_BAUD_RATE</text>
<polyline fill="none" stroke="black" points="955.5,-129.5 1213.5,-129.5 "/>
<text text-anchor="middle" x="1084.5" y="-116.7" font-family="Helvetica,sans-Serif" font-size="11.00">value: 9600</text>
</g>
<!-- main_func&#45;&gt;MBED_CONF_PLATFORM_STDIO_BAUD_RATE -->
<g id="edge7" class="edge">
<title>main_func&#45;&gt;MBED_CONF_PLATFORM_STDIO_BAUD_RATE</title>
<path fill="none" stroke="black" d="M794.48,-190C907.52,-190 1084.5,-190 1084.5,-190 1084.5,-190 1084.5,-157.65 1084.5,-157.65"/>
<polygon fill="black" stroke="black" points="1087.3,-157.65 1084.5,-149.65 1081.7,-157.65 1087.3,-157.65"/>
</g>
<!-- MBED_CONF_NSAPI_DEFAULT_MESH_TYPE -->
<g id="node9" class="node">
<title>MBED_CONF_NSAPI_DEFAULT_MESH_TYPE</title>
<polygon fill="none" stroke="black" points="1232,-109.5 1232,-149.5 1477,-149.5 1477,-109.5 1232,-109.5"/>
<text text-anchor="middle" x="1354.5" y="-136.7" font-family="Helvetica,sans-Serif" font-size="11.00">MBED_CONF_NSAPI_DEFAULT_MESH_TYPE</text>
<polyline fill="none" stroke="black" points="1232,-129.5 1477,-129.5 "/>
<text text-anchor="middle" x="1354.5" y="-116.7" font-family="Helvetica,sans-Serif" font-size="11.00">value: THREAD</text>
</g>
<!-- main_func&#45;&gt;MBED_CONF_NSAPI_DEFAULT_MESH_TYPE -->
<g id="edge8" class="edge">
<title>main_func&#45;&gt;MBED_CONF_NSAPI_DEFAULT_MESH_TYPE</title>
<path fill="none" stroke="black" d="M794.19,-195C973.77,-195 1354.5,-195 1354.5,-195 1354.5,-195 1354.5,-157.51 1354.5,-157.51"/>
<polygon fill="black" stroke="black" points="1357.3,-157.51 1354.5,-149.51 1351.7,-157.51 1357.3,-157.51"/>
</g>
</g>
</svg>
