<?plantuml 1.2026.1?><svg xmlns="http://www.w3.org/2000/svg" xmlns:xlink="http://www.w3.org/1999/xlink" contentStyleType="text/css" data-diagram-type="SEQUENCE" height="1527px" preserveAspectRatio="none" style="width:639px;height:1527px;background:#FFFFFF;" version="1.1" viewBox="0 0 639 1527" width="639px" zoomAndPan="magnify"><defs/><g><g><title>LED1</title><rect fill="#FFFFFF" height="29.1328" style="stroke:#181818;stroke-width:1;" width="10" x="418.8623" y="148.8281"/></g><g><title>LED1</title><rect fill="#FFFFFF" height="30" style="stroke:#181818;stroke-width:1;" width="10" x="418.8623" y="874.5547"/></g><g><title>LED1</title><rect fill="#FFFFFF" height="30" style="stroke:#181818;stroke-width:1;" width="10" x="418.8623" y="1150.2891"/></g><g><title>LED1</title><rect fill="#FFFFFF" height="29.1328" style="stroke:#181818;stroke-width:1;" width="10" x="418.8623" y="1300.8203"/></g><g><title>BUTTON1</title><rect fill="#FFFFFF" height="30" style="stroke:#181818;stroke-width:1;" width="10" x="494.7061" y="398.6953"/></g><g><title>BUTTON1</title><rect fill="#FFFFFF" height="29.1328" style="stroke:#181818;stroke-width:1;" width="10" x="494.7061" y="816.2891"/></g><rect fill="none" height="235.8672" style="stroke:#000000;stroke-width:1.5;" width="439.0288" x="20" y="110.5625"/><rect fill="none" height="146.4688" style="stroke:#000000;stroke-width:1.5;" width="228.2373" x="30" y="192.9609"/><rect fill="none" height="160.5313" style="stroke:#000000;stroke-width:1.5;" width="520.3833" x="30" y="360.4297"/><rect fill="none" height="940.5234" style="stroke:#000000;stroke-width:1.5;" width="623.6431" x="10" y="534.9609"/><rect fill="none" height="116.5313" style="stroke:#000000;stroke-width:1.5;" width="218.7222" x="30" y="559.0938"/><rect fill="none" height="74.3984" style="stroke:#000000;stroke-width:1.5;" width="398.8623" x="30" y="689.625"/><rect fill="none" height="470.5313" style="stroke:#000000;stroke-width:1.5;" width="603.6431" x="20" y="778.0234"/><rect fill="none" height="116.5313" style="stroke:#000000;stroke-width:1.5;" width="398.8623" x="30" y="919.5547"/><rect fill="none" height="205.9297" style="stroke:#000000;stroke-width:1.5;" width="439.0288" x="20" y="1262.5547"/><rect fill="none" height="116.5313" style="stroke:#000000;stroke-width:1.5;" width="312.9722" x="30" y="1344.9531"/><g class="participant-lifeline" data-entity-uid="part1" data-qualified-name="Main" id="part1-lifeline"><g><title>main..</title><rect fill="#000000" fill-opacity="0.00000" height="1456.1875" width="8" x="65.9517" y="36.2969"/><line style="stroke:#181818;stroke-width:0.5;stroke-dasharray:5,5;" x1="69" x2="69" y1="36.2969" y2="1492.4844"/></g></g><g class="participant-lifeline" data-entity-uid="part2" data-qualified-name="LED1" id="part2-lifeline"><g><title>LED1</title><rect fill="#000000" fill-opacity="0.00000" height="1456.1875" width="8" x="419.8623" y="36.2969"/><line style="stroke:#181818;stroke-width:0.5;stroke-dasharray:5,5;" x1="423.6958" x2="423.6958" y1="36.2969" y2="1492.4844"/></g></g><g class="participant-lifeline" data-entity-uid="part3" data-qualified-name="BUTTON1" id="part3-lifeline"><g><title>BUTTON1</title><rect fill="#000000" fill-opacity="0.00000" height="1456.1875" width="8" x="495.7061" y="36.2969"/><line style="stroke:#181818;stroke-width:0.5;stroke-dasharray:5,5;" x1="499.0288" x2="499.0288" y1="36.2969" y2="1492.4844"/></g></g><g class="participant-lifeline" data-entity-uid="part4" data-qualified-name="Thread" id="part4-lifeline"><g><title>Thread</title><rect fill="#000000" fill-opacity="0.00000" height="1456.1875" width="8" x="578.0132" y="36.2969"/><line style="stroke:#181818;stroke-width:0.5;stroke-dasharray:5,5;" x1="581.3833" x2="581.3833" y1="36.2969" y2="1492.4844"/></g></g><g class="participant participant-head" data-entity-uid="part1" data-qualified-name="Main" id="part1-head"><rect fill="#E3E3E3" height="30.2969" rx="2.5" ry="2.5" style="stroke:#181818;stroke-width:0.5;" width="59.9033" x="40" y="5"/><text fill="#000000" font-family="sans-serif" font-size="14" lengthAdjust="spacing" textLength="45.9033" x="47" y="24.9951">main()</text></g><g class="participant participant-tail" data-entity-uid="part1" data-qualified-name="Main" id="part1-tail"><rect fill="#E3E3E3" height="30.2969" rx="2.5" ry="2.5" style="stroke:#181818;stroke-width:0.5;" width="59.9033" x="40" y="1491.4844"/><text fill="#000000" font-family="sans-serif" font-size="14" lengthAdjust="spacing" textLength="45.9033" x="47" y="1511.4795">main()</text></g><g class="participant participant-head" data-entity-uid="part2" data-qualified-name="LED1" id="part2-head"><rect fill="#E3E3E3" height="30.2969" rx="2.5" ry="2.5" style="stroke:#181818;stroke-width:0.5;" width="50.333" x="398.6958" y="5"/><text fill="#000000" font-family="sans-serif" font-size="14" lengthAdjust="spacing" textLength="36.333" x="405.6958" y="24.9951">LED1</text></g><g class="participant participant-tail" data-entity-uid="part2" data-qualified-name="LED1" id="part2-tail"><rect fill="#E3E3E3" height="30.2969" rx="2.5" ry="2.5" style="stroke:#181818;stroke-width:0.5;" width="50.333" x="398.6958" y="1491.4844"/><text fill="#000000" font-family="sans-serif" font-size="14" lengthAdjust="spacing" textLength="36.333" x="405.6958" y="1511.4795">LED1</text></g><g class="participant participant-head" data-entity-uid="part3" data-qualified-name="BUTTON1" id="part3-head"><rect fill="#E3E3E3" height="30.2969" rx="2.5" ry="2.5" style="stroke:#181818;stroke-width:0.5;" width="81.3545" x="459.0288" y="5"/><text fill="#000000" font-family="sans-serif" font-size="14" lengthAdjust="spacing" textLength="67.3545" x="466.0288" y="24.9951">BUTTON1</text></g><g class="participant participant-tail" data-entity-uid="part3" data-qualified-name="BUTTON1" id="part3-tail"><rect fill="#E3E3E3" height="30.2969" rx="2.5" ry="2.5" style="stroke:#181818;stroke-width:0.5;" width="81.3545" x="459.0288" y="1491.4844"/><text fill="#000000" font-family="sans-serif" font-size="14" lengthAdjust="spacing" textLength="67.3545" x="466.0288" y="1511.4795">BUTTON1</text></g><g class="participant participant-head" data-entity-uid="part4" data-qualified-name="Thread" id="part4-head"><rect fill="#E3E3E3" height="30.2969" rx="2.5" ry="2.5" style="stroke:#181818;stroke-width:0.5;" width="63.2598" x="550.3833" y="5"/><text fill="#000000" font-family="sans-serif" font-size="14" lengthAdjust="spacing" textLength="49.2598" x="557.3833" y="24.9951">Thread</text></g><g class="participant participant-tail" data-entity-uid="part4" data-qualified-name="Thread" id="part4-tail"><rect fill="#E3E3E3" height="30.2969" rx="2.5" ry="2.5" style="stroke:#181818;stroke-width:0.5;" width="63.2598" x="550.3833" y="1491.4844"/><text fill="#000000" font-family="sans-serif" font-size="14" lengthAdjust="spacing" textLength="49.2598" x="557.3833" y="1511.4795">Thread</text></g><g><title>LED1</title><rect fill="#FFFFFF" height="29.1328" style="stroke:#181818;stroke-width:1;" width="10" x="418.8623" y="148.8281"/></g><g><title>LED1</title><rect fill="#FFFFFF" height="30" style="stroke:#181818;stroke-width:1;" width="10" x="418.8623" y="874.5547"/></g><g><title>LED1</title><rect fill="#FFFFFF" height="30" style="stroke:#181818;stroke-width:1;" width="10" x="418.8623" y="1150.2891"/></g><g><title>LED1</title><rect fill="#FFFFFF" height="29.1328" style="stroke:#181818;stroke-width:1;" width="10" x="418.8623" y="1300.8203"/></g><g><title>BUTTON1</title><rect fill="#FFFFFF" height="30" style="stroke:#181818;stroke-width:1;" width="10" x="494.7061" y="398.6953"/></g><g><title>BUTTON1</title><rect fill="#FFFFFF" height="29.1328" style="stroke:#181818;stroke-width:1;" width="10" x="494.7061" y="816.2891"/></g><g class="message" data-entity-1="part1" data-entity-2="part1" id="msg1"><line style="stroke:#181818;stroke-width:1;" x1="69.9517" x2="111.9517" y1="82.5625" y2="82.5625"/><line style="stroke:#181818;stroke-width:1;" x1="111.9517" x2="111.9517" y1="82.5625" y2="95.5625"/><line style="stroke:#181818;stroke-width:1;" x1="70.9517" x2="111.9517" y1="95.5625" y2="95.5625"/><polygon fill="#181818" points="80.9517,91.5625,70.9517,95.5625,80.9517,99.5625,76.9517,95.5625" style="stroke:#181818;stroke-width:1;"/><text fill="#000000" font-family="sans-serif" font-size="13" lengthAdjust="spacing" textLength="152.1978" x="76.9517" y="62.3638">printf("Program started</text><text fill="#000000" font-family="sans-serif" font-size="13" lengthAdjust="spacing" textLength="11.0513" x="76.9517" y="77.4966">")</text></g><path d="M20,110.5625 L84.4429,110.5625 L84.4429,117.6953 L74.4429,127.6953 L20,127.6953 L20,110.5625" fill="#EEEEEE" style="stroke:#000000;stroke-width:1.5;"/><rect fill="none" height="235.8672" style="stroke:#000000;stroke-width:1.5;" width="439.0288" x="20" y="110.5625"/><text fill="#000000" font-family="sans-serif" font-size="13" font-weight="bold" lengthAdjust="spacing" textLength="19.4429" x="35" y="123.6294">alt</text><a href="defined(LED1)" target="_top" title="defined(LED1)" xlink:actuate="onRequest" xlink:href="defined(LED1)" xlink:show="new" xlink:title="defined(LED1)" xlink:type="simple"><text fill="#1D1D1D" font-family="sans-serif" font-size="11" font-weight="bold" lengthAdjust="spacing" text-decoration="underline" textLength="88.4189" x="99.4429" y="122.7729">defined(LED1)</text></a><g class="message" data-entity-1="part1" data-entity-2="part2" id="msg2"><polygon fill="#181818" points="406.8623,144.8281,416.8623,148.8281,406.8623,152.8281,410.8623,148.8281" style="stroke:#181818;stroke-width:1;"/><line style="stroke:#181818;stroke-width:1;" x1="69.9517" x2="412.8623" y1="148.8281" y2="148.8281"/><text fill="#000000" font-family="sans-serif" font-size="13" lengthAdjust="spacing" textLength="39.7046" x="76.9517" y="143.7622">read()</text></g><g class="message" data-entity-1="part2" data-entity-2="part1" id="msg3"><polygon fill="#181818" points="80.9517,173.9609,70.9517,177.9609,80.9517,181.9609,76.9517,177.9609" style="stroke:#181818;stroke-width:1;"/><line style="stroke:#181818;stroke-width:1;stroke-dasharray:2,2;" x1="74.9517" x2="422.8623" y1="177.9609" y2="177.9609"/><text fill="#000000" font-family="sans-serif" font-size="13" lengthAdjust="spacing" textLength="121.6592" x="86.9517" y="172.895">previous_led_state</text></g><path d="M30,192.9609 L94.4429,192.9609 L94.4429,200.0938 L84.4429,210.0938 L30,210.0938 L30,192.9609" fill="#EEEEEE" style="stroke:#000000;stroke-width:1.5;"/><rect fill="none" height="146.4688" style="stroke:#000000;stroke-width:1.5;" width="228.2373" x="30" y="192.9609"/><text fill="#000000" font-family="sans-serif" font-size="13" font-weight="bold" lengthAdjust="spacing" textLength="19.4429" x="45" y="206.0278">alt</text><a href="previous_led_state" target="_top" title="previous_led_state" xlink:actuate="onRequest" xlink:href="previous_led_state" xlink:show="new" xlink:title="previous_led_state" xlink:type="simple"><text fill="#1D1D1D" font-family="sans-serif" font-size="11" font-weight="bold" lengthAdjust="spacing" text-decoration="underline" textLength="29.917" x="109.4429" y="205.1714">== 1</text></a><g class="message" data-entity-1="part1" data-entity-2="part1" id="msg4"><line style="stroke:#181818;stroke-width:1;" x1="69.9517" x2="111.9517" y1="246.3594" y2="246.3594"/><line style="stroke:#181818;stroke-width:1;" x1="111.9517" x2="111.9517" y1="246.3594" y2="259.3594"/><line style="stroke:#181818;stroke-width:1;" x1="70.9517" x2="111.9517" y1="259.3594" y2="259.3594"/><polygon fill="#181818" points="80.9517,255.3594,70.9517,259.3594,80.9517,263.3594,76.9517,259.3594" style="stroke:#181818;stroke-width:1;"/><text fill="#000000" font-family="sans-serif" font-size="13" lengthAdjust="spacing" textLength="164.0552" x="76.9517" y="226.1606">printf("LED1 starts as ON</text><text fill="#000000" font-family="sans-serif" font-size="13" lengthAdjust="spacing" textLength="11.0513" x="76.9517" y="241.2935">")</text></g><line style="stroke:#000000;stroke-width:1;stroke-dasharray:2,2;" x1="30" x2="258.2373" y1="268.3594" y2="268.3594"/><text fill="#000000" font-family="sans-serif" font-size="11" font-weight="bold" lengthAdjust="spacing" textLength="169.5439" x="35" y="278.5698">[(previous_led_state == 0)]</text><g class="message" data-entity-1="part1" data-entity-2="part1" id="msg5"><line style="stroke:#181818;stroke-width:1;" x1="69.9517" x2="111.9517" y1="318.4297" y2="318.4297"/><line style="stroke:#181818;stroke-width:1;" x1="111.9517" x2="111.9517" y1="318.4297" y2="331.4297"/><line style="stroke:#181818;stroke-width:1;" x1="70.9517" x2="111.9517" y1="331.4297" y2="331.4297"/><polygon fill="#181818" points="80.9517,327.4297,70.9517,331.4297,80.9517,335.4297,76.9517,331.4297" style="stroke:#181818;stroke-width:1;"/><text fill="#000000" font-family="sans-serif" font-size="13" lengthAdjust="spacing" textLength="169.2856" x="76.9517" y="298.231">printf("LED1 starts as OFF</text><text fill="#000000" font-family="sans-serif" font-size="13" lengthAdjust="spacing" textLength="11.0513" x="76.9517" y="313.3638">")</text></g><path d="M30,360.4297 L94.4429,360.4297 L94.4429,367.5625 L84.4429,377.5625 L30,377.5625 L30,360.4297" fill="#EEEEEE" style="stroke:#000000;stroke-width:1.5;"/><rect fill="none" height="160.5313" style="stroke:#000000;stroke-width:1.5;" width="520.3833" x="30" y="360.4297"/><text fill="#000000" font-family="sans-serif" font-size="13" font-weight="bold" lengthAdjust="spacing" textLength="19.4429" x="45" y="373.4966">alt</text><a href="defined(BUTTON1)" target="_top" title="defined(BUTTON1)" xlink:actuate="onRequest" xlink:href="defined(BUTTON1)" xlink:show="new" xlink:title="defined(BUTTON1)" xlink:type="simple"><text fill="#1D1D1D" font-family="sans-serif" font-size="11" font-weight="bold" lengthAdjust="spacing" text-decoration="underline" textLength="115.645" x="109.4429" y="372.6401">defined(BUTTON1)</text></a><g class="message" data-entity-1="part1" data-entity-2="part3" id="msg6"><polygon fill="#181818" points="482.7061,394.6953,492.7061,398.6953,482.7061,402.6953,486.7061,398.6953" style="stroke:#181818;stroke-width:1;"/><line style="stroke:#181818;stroke-width:1;" x1="69.9517" x2="488.7061" y1="398.6953" y2="398.6953"/><text fill="#000000" font-family="sans-serif" font-size="13" lengthAdjust="spacing" textLength="176.2554" x="76.9517" y="393.6294">DigitalIn(BUTTON1, PullUp)</text></g><g class="message" data-entity-1="part1" data-entity-2="part1" id="msg7"><line style="stroke:#181818;stroke-width:1;" x1="69.9517" x2="111.9517" y1="457.8281" y2="457.8281"/><line style="stroke:#181818;stroke-width:1;" x1="111.9517" x2="111.9517" y1="457.8281" y2="470.8281"/><line style="stroke:#181818;stroke-width:1;" x1="70.9517" x2="111.9517" y1="470.8281" y2="470.8281"/><polygon fill="#181818" points="80.9517,466.8281,70.9517,470.8281,80.9517,474.8281,76.9517,470.8281" style="stroke:#181818;stroke-width:1;"/><text fill="#000000" font-family="sans-serif" font-size="13" lengthAdjust="spacing" textLength="163.8394" x="76.9517" y="452.7622">previous_pressed = false</text></g><g class="message" data-entity-1="part1" data-entity-2="part1" id="msg8"><line style="stroke:#181818;stroke-width:1;" x1="69.9517" x2="111.9517" y1="499.9609" y2="499.9609"/><line style="stroke:#181818;stroke-width:1;" x1="111.9517" x2="111.9517" y1="499.9609" y2="512.9609"/><line style="stroke:#181818;stroke-width:1;" x1="70.9517" x2="111.9517" y1="512.9609" y2="512.9609"/><polygon fill="#181818" points="80.9517,508.9609,70.9517,512.9609,80.9517,516.9609,76.9517,512.9609" style="stroke:#181818;stroke-width:1;"/><text fill="#000000" font-family="sans-serif" font-size="13" lengthAdjust="spacing" textLength="155.124" x="76.9517" y="494.895">button_press_count = 0</text></g><path d="M10,534.9609 L86.624,534.9609 L86.624,542.0938 L76.624,552.0938 L10,552.0938 L10,534.9609" fill="#EEEEEE" style="stroke:#000000;stroke-width:1.5;"/><rect fill="none" height="940.5234" style="stroke:#000000;stroke-width:1.5;" width="623.6431" x="10" y="534.9609"/><text fill="#000000" font-family="sans-serif" font-size="13" font-weight="bold" lengthAdjust="spacing" textLength="31.624" x="25" y="548.0278">loop</text><a href="true" target="_top" title="true" xlink:actuate="onRequest" xlink:href="true" xlink:show="new" xlink:title="true" xlink:type="simple"><text fill="#1D1D1D" font-family="sans-serif" font-size="11" font-weight="bold" lengthAdjust="spacing" text-decoration="underline" textLength="25.9746" x="101.624" y="547.1714">true</text></a><path d="M30,559.0938 L94.4429,559.0938 L94.4429,566.2266 L84.4429,576.2266 L30,576.2266 L30,559.0938" fill="#EEEEEE" style="stroke:#000000;stroke-width:1.5;"/><rect fill="none" height="116.5313" style="stroke:#000000;stroke-width:1.5;" width="218.7222" x="30" y="559.0938"/><text fill="#000000" font-family="sans-serif" font-size="13" font-weight="bold" lengthAdjust="spacing" textLength="19.4429" x="45" y="572.1606">alt</text><a href="!loop_started" target="_top" title="!loop_started" xlink:actuate="onRequest" xlink:href="!loop_started" xlink:show="new" xlink:title="!loop_started" xlink:type="simple"><text fill="#1D1D1D" font-family="sans-serif" font-size="11" font-weight="bold" lengthAdjust="spacing" text-decoration="underline" textLength="82.5215" x="109.4429" y="571.3042">!loop_started</text></a><g class="message" data-entity-1="part1" data-entity-2="part1" id="msg9"><line style="stroke:#181818;stroke-width:1;" x1="69.9517" x2="111.9517" y1="612.4922" y2="612.4922"/><line style="stroke:#181818;stroke-width:1;" x1="111.9517" x2="111.9517" y1="612.4922" y2="625.4922"/><line style="stroke:#181818;stroke-width:1;" x1="70.9517" x2="111.9517" y1="625.4922" y2="625.4922"/><polygon fill="#181818" points="80.9517,621.4922,70.9517,625.4922,80.9517,629.4922,76.9517,625.4922" style="stroke:#181818;stroke-width:1;"/><text fill="#000000" font-family="sans-serif" font-size="13" lengthAdjust="spacing" textLength="159.7705" x="76.9517" y="592.2935">printf("Main loop started</text><text fill="#000000" font-family="sans-serif" font-size="13" lengthAdjust="spacing" textLength="11.0513" x="76.9517" y="607.4263">")</text></g><g class="message" data-entity-1="part1" data-entity-2="part1" id="msg10"><line style="stroke:#181818;stroke-width:1;" x1="69.9517" x2="111.9517" y1="654.625" y2="654.625"/><line style="stroke:#181818;stroke-width:1;" x1="111.9517" x2="111.9517" y1="654.625" y2="667.625"/><line style="stroke:#181818;stroke-width:1;" x1="70.9517" x2="111.9517" y1="667.625" y2="667.625"/><polygon fill="#181818" points="80.9517,663.625,70.9517,667.625,80.9517,671.625,76.9517,667.625" style="stroke:#181818;stroke-width:1;"/><text fill="#000000" font-family="sans-serif" font-size="13" lengthAdjust="spacing" textLength="126.6357" x="76.9517" y="649.5591">loop_started = true</text></g><path d="M30,689.625 L94.4429,689.625 L94.4429,696.7578 L84.4429,706.7578 L30,706.7578 L30,689.625" fill="#EEEEEE" style="stroke:#000000;stroke-width:1.5;"/><rect fill="none" height="74.3984" style="stroke:#000000;stroke-width:1.5;" width="398.8623" x="30" y="689.625"/><text fill="#000000" font-family="sans-serif" font-size="13" font-weight="bold" lengthAdjust="spacing" textLength="19.4429" x="45" y="702.6919">alt</text><a href="button_press_count" target="_top" title="button_press_count" xlink:actuate="onRequest" xlink:href="button_press_count" xlink:show="new" xlink:title="button_press_count" xlink:type="simple"><text fill="#1D1D1D" font-family="sans-serif" font-size="11" font-weight="bold" lengthAdjust="spacing" text-decoration="underline" textLength="20.7002" x="109.4429" y="701.8354">&gt; 0</text></a><g class="message" data-entity-1="part1" data-entity-2="part1" id="msg11"><line style="stroke:#181818;stroke-width:1;" x1="69.9517" x2="111.9517" y1="743.0234" y2="743.0234"/><line style="stroke:#181818;stroke-width:1;" x1="111.9517" x2="111.9517" y1="743.0234" y2="756.0234"/><line style="stroke:#181818;stroke-width:1;" x1="70.9517" x2="111.9517" y1="756.0234" y2="756.0234"/><polygon fill="#181818" points="80.9517,752.0234,70.9517,756.0234,80.9517,760.0234,76.9517,756.0234" style="stroke:#181818;stroke-width:1;"/><text fill="#000000" font-family="sans-serif" font-size="13" lengthAdjust="spacing" textLength="232.1782" x="76.9517" y="722.8247">printf("Total BUTTON1 presses: %lu</text><text fill="#000000" font-family="sans-serif" font-size="13" lengthAdjust="spacing" textLength="339.9106" x="76.9517" y="737.9575">", static_cast&lt;unsigned long&gt;(button_press_count))</text></g><path d="M20,778.0234 L84.4429,778.0234 L84.4429,785.1563 L74.4429,795.1563 L20,795.1563 L20,778.0234" fill="#EEEEEE" style="stroke:#000000;stroke-width:1.5;"/><rect fill="none" height="470.5313" style="stroke:#000000;stroke-width:1.5;" width="603.6431" x="20" y="778.0234"/><text fill="#000000" font-family="sans-serif" font-size="13" font-weight="bold" lengthAdjust="spacing" textLength="19.4429" x="35" y="791.0903">alt</text><a href="defined(LED1)" target="_top" title="defined(LED1)" xlink:actuate="onRequest" xlink:href="defined(LED1)" xlink:show="new" xlink:title="defined(LED1)" xlink:type="simple"><text fill="#1D1D1D" font-family="sans-serif" font-size="11" font-weight="bold" lengthAdjust="spacing" text-decoration="underline" textLength="138.6602" x="99.4429" y="790.2339">&amp;&amp; defined(BUTTON1)</text></a><g class="message" data-entity-1="part1" data-entity-2="part3" id="msg12"><polygon fill="#181818" points="482.7061,812.2891,492.7061,816.2891,482.7061,820.2891,486.7061,816.2891" style="stroke:#181818;stroke-width:1;"/><line style="stroke:#181818;stroke-width:1;" x1="69.9517" x2="488.7061" y1="816.2891" y2="816.2891"/><text fill="#000000" font-family="sans-serif" font-size="13" lengthAdjust="spacing" textLength="39.7046" x="76.9517" y="811.2231">read()</text></g><g class="message" data-entity-1="part3" data-entity-2="part1" id="msg13"><polygon fill="#181818" points="80.9517,841.4219,70.9517,845.4219,80.9517,849.4219,76.9517,845.4219" style="stroke:#181818;stroke-width:1;"/><line style="stroke:#181818;stroke-width:1;stroke-dasharray:2,2;" x1="74.9517" x2="498.7061" y1="845.4219" y2="845.4219"/><text fill="#000000" font-family="sans-serif" font-size="13" lengthAdjust="spacing" textLength="51.3906" x="86.9517" y="840.356">pressed</text></g><g class="message" data-entity-1="part1" data-entity-2="part2" id="msg14"><polygon fill="#181818" points="406.8623,870.5547,416.8623,874.5547,406.8623,878.5547,410.8623,874.5547" style="stroke:#181818;stroke-width:1;"/><line style="stroke:#181818;stroke-width:1;" x1="69.9517" x2="412.8623" y1="874.5547" y2="874.5547"/><text fill="#000000" font-family="sans-serif" font-size="13" lengthAdjust="spacing" textLength="183.5933" x="76.9517" y="869.4888">set_led1_state(led, pressed)</text></g><path d="M30,919.5547 L94.4429,919.5547 L94.4429,926.6875 L84.4429,936.6875 L30,936.6875 L30,919.5547" fill="#EEEEEE" style="stroke:#000000;stroke-width:1.5;"/><rect fill="none" height="116.5313" style="stroke:#000000;stroke-width:1.5;" width="398.8623" x="30" y="919.5547"/><text fill="#000000" font-family="sans-serif" font-size="13" font-weight="bold" lengthAdjust="spacing" textLength="19.4429" x="45" y="932.6216">alt</text><a href="pressed" target="_top" title="pressed" xlink:actuate="onRequest" xlink:href="pressed" xlink:show="new" xlink:title="pressed" xlink:type="simple"><text fill="#1D1D1D" font-family="sans-serif" font-size="11" font-weight="bold" lengthAdjust="spacing" text-decoration="underline" textLength="136.356" x="109.4429" y="931.7651">&amp;&amp; !previous_pressed</text></a><g class="message" data-entity-1="part1" data-entity-2="part1" id="msg15"><line style="stroke:#181818;stroke-width:1;" x1="69.9517" x2="111.9517" y1="957.8203" y2="957.8203"/><line style="stroke:#181818;stroke-width:1;" x1="111.9517" x2="111.9517" y1="957.8203" y2="970.8203"/><line style="stroke:#181818;stroke-width:1;" x1="70.9517" x2="111.9517" y1="970.8203" y2="970.8203"/><polygon fill="#181818" points="80.9517,966.8203,70.9517,970.8203,80.9517,974.8203,76.9517,970.8203" style="stroke:#181818;stroke-width:1;"/><text fill="#000000" font-family="sans-serif" font-size="13" lengthAdjust="spacing" textLength="149.481" x="76.9517" y="952.7544">button_press_count++</text></g><g class="message" data-entity-1="part1" data-entity-2="part1" id="msg16"><line style="stroke:#181818;stroke-width:1;" x1="69.9517" x2="111.9517" y1="1015.0859" y2="1015.0859"/><line style="stroke:#181818;stroke-width:1;" x1="111.9517" x2="111.9517" y1="1015.0859" y2="1028.0859"/><line style="stroke:#181818;stroke-width:1;" x1="70.9517" x2="111.9517" y1="1028.0859" y2="1028.0859"/><polygon fill="#181818" points="80.9517,1024.0859,70.9517,1028.0859,80.9517,1032.0859,76.9517,1028.0859" style="stroke:#181818;stroke-width:1;"/><text fill="#000000" font-family="sans-serif" font-size="13" lengthAdjust="spacing" textLength="242.9946" x="76.9517" y="994.8872">printf("BUTTON1 pressed %lu time(s)</text><text fill="#000000" font-family="sans-serif" font-size="13" lengthAdjust="spacing" textLength="339.9106" x="76.9517" y="1010.02">", static_cast&lt;unsigned long&gt;(button_press_count))</text></g><g class="message" data-entity-1="part1" data-entity-2="part1" id="msg17"><line style="stroke:#181818;stroke-width:1;" x1="69.9517" x2="111.9517" y1="1064.2188" y2="1064.2188"/><line style="stroke:#181818;stroke-width:1;" x1="111.9517" x2="111.9517" y1="1064.2188" y2="1077.2188"/><line style="stroke:#181818;stroke-width:1;" x1="70.9517" x2="111.9517" y1="1077.2188" y2="1077.2188"/><polygon fill="#181818" points="80.9517,1073.2188,70.9517,1077.2188,80.9517,1081.2188,76.9517,1077.2188" style="stroke:#181818;stroke-width:1;"/><text fill="#000000" font-family="sans-serif" font-size="13" lengthAdjust="spacing" textLength="184.3042" x="76.9517" y="1059.1528">previous_pressed = pressed</text></g><g class="message" data-entity-1="part1" data-entity-2="part4" id="msg18"><polygon fill="#181818" points="570.0132,1102.3516,580.0132,1106.3516,570.0132,1110.3516,574.0132,1106.3516" style="stroke:#181818;stroke-width:1;"/><line style="stroke:#181818;stroke-width:1;" x1="69.9517" x2="576.0132" y1="1106.3516" y2="1106.3516"/><text fill="#000000" font-family="sans-serif" font-size="13" lengthAdjust="spacing" textLength="203.0615" x="76.9517" y="1101.2856">sleep_for(BUTTON_POLL_RATE)</text></g><line style="stroke:#000000;stroke-width:1;stroke-dasharray:2,2;" x1="20" x2="623.6431" y1="1115.3516" y2="1115.3516"/><text fill="#000000" font-family="sans-serif" font-size="11" font-weight="bold" lengthAdjust="spacing" textLength="98.4736" x="25" y="1125.562">[defined(LED1)]</text><g class="message" data-entity-1="part1" data-entity-2="part2" id="msg19"><polygon fill="#181818" points="406.8623,1146.2891,416.8623,1150.2891,406.8623,1154.2891,410.8623,1150.2891" style="stroke:#181818;stroke-width:1;"/><line style="stroke:#181818;stroke-width:1;" x1="69.9517" x2="412.8623" y1="1150.2891" y2="1150.2891"/><text fill="#000000" font-family="sans-serif" font-size="13" lengthAdjust="spacing" textLength="95.8813" x="76.9517" y="1145.2231">blink_led1(led)</text></g><g class="message" data-entity-1="part1" data-entity-2="part4" id="msg20"><polygon fill="#181818" points="570.0132,1205.4219,580.0132,1209.4219,570.0132,1213.4219,574.0132,1209.4219" style="stroke:#181818;stroke-width:1;"/><line style="stroke:#181818;stroke-width:1;" x1="69.9517" x2="576.0132" y1="1209.4219" y2="1209.4219"/><text fill="#000000" font-family="sans-serif" font-size="13" lengthAdjust="spacing" textLength="171.6089" x="76.9517" y="1204.356">sleep_for(BLINKING_RATE)</text></g><line style="stroke:#000000;stroke-width:1;stroke-dasharray:2,2;" x1="20" x2="623.6431" y1="1218.4219" y2="1218.4219"/><g class="message" data-entity-1="part1" data-entity-2="part4" id="msg21"><polygon fill="#181818" points="570.0132,1236.5547,580.0132,1240.5547,570.0132,1244.5547,574.0132,1240.5547" style="stroke:#181818;stroke-width:1;"/><line style="stroke:#181818;stroke-width:1;" x1="69.9517" x2="576.0132" y1="1240.5547" y2="1240.5547"/><text fill="#000000" font-family="sans-serif" font-size="13" lengthAdjust="spacing" textLength="203.0615" x="76.9517" y="1235.4888">sleep_for(BUTTON_POLL_RATE)</text></g><path d="M20,1262.5547 L84.4429,1262.5547 L84.4429,1269.6875 L74.4429,1279.6875 L20,1279.6875 L20,1262.5547" fill="#EEEEEE" style="stroke:#000000;stroke-width:1.5;"/><rect fill="none" height="205.9297" style="stroke:#000000;stroke-width:1.5;" width="439.0288" x="20" y="1262.5547"/><text fill="#000000" font-family="sans-serif" font-size="13" font-weight="bold" lengthAdjust="spacing" textLength="19.4429" x="35" y="1275.6216">alt</text><a href="defined(LED1)" target="_top" title="defined(LED1)" xlink:actuate="onRequest" xlink:href="defined(LED1)" xlink:show="new" xlink:title="defined(LED1)" xlink:type="simple"><text fill="#1D1D1D" font-family="sans-serif" font-size="11" font-weight="bold" lengthAdjust="spacing" text-decoration="underline" textLength="88.4189" x="99.4429" y="1274.7651">defined(LED1)</text></a><g class="message" data-entity-1="part1" data-entity-2="part2" id="msg22"><polygon fill="#181818" points="406.8623,1296.8203,416.8623,1300.8203,406.8623,1304.8203,410.8623,1300.8203" style="stroke:#181818;stroke-width:1;"/><line style="stroke:#181818;stroke-width:1;" x1="69.9517" x2="412.8623" y1="1300.8203" y2="1300.8203"/><text fill="#000000" font-family="sans-serif" font-size="13" lengthAdjust="spacing" textLength="39.7046" x="76.9517" y="1295.7544">read()</text></g><g class="message" data-entity-1="part2" data-entity-2="part1" id="msg23"><polygon fill="#181818" points="80.9517,1325.9531,70.9517,1329.9531,80.9517,1333.9531,76.9517,1329.9531" style="stroke:#181818;stroke-width:1;"/><line style="stroke:#181818;stroke-width:1;stroke-dasharray:2,2;" x1="74.9517" x2="422.8623" y1="1329.9531" y2="1329.9531"/><text fill="#000000" font-family="sans-serif" font-size="13" lengthAdjust="spacing" textLength="113.2041" x="86.9517" y="1324.8872">current_led_state</text></g><path d="M30,1344.9531 L94.4429,1344.9531 L94.4429,1352.0859 L84.4429,1362.0859 L30,1362.0859 L30,1344.9531" fill="#EEEEEE" style="stroke:#000000;stroke-width:1.5;"/><rect fill="none" height="116.5313" style="stroke:#000000;stroke-width:1.5;" width="312.9722" x="30" y="1344.9531"/><text fill="#000000" font-family="sans-serif" font-size="13" font-weight="bold" lengthAdjust="spacing" textLength="19.4429" x="45" y="1358.02">alt</text><a href="current_led_state" target="_top" title="current_led_state" xlink:actuate="onRequest" xlink:href="current_led_state" xlink:show="new" xlink:title="current_led_state" xlink:type="simple"><text fill="#1D1D1D" font-family="sans-serif" font-size="11" font-weight="bold" lengthAdjust="spacing" text-decoration="underline" textLength="133.751" x="109.4429" y="1357.1636">!= previous_led_state</text></a><g class="message" data-entity-1="part1" data-entity-2="part1" id="msg24"><line style="stroke:#181818;stroke-width:1;" x1="69.9517" x2="111.9517" y1="1398.3516" y2="1398.3516"/><line style="stroke:#181818;stroke-width:1;" x1="111.9517" x2="111.9517" y1="1398.3516" y2="1411.3516"/><line style="stroke:#181818;stroke-width:1;" x1="70.9517" x2="111.9517" y1="1411.3516" y2="1411.3516"/><polygon fill="#181818" points="80.9517,1407.3516,70.9517,1411.3516,80.9517,1415.3516,76.9517,1411.3516" style="stroke:#181818;stroke-width:1;"/><text fill="#000000" font-family="sans-serif" font-size="13" lengthAdjust="spacing" textLength="117.6855" x="76.9517" y="1378.1528">printf("LED1 is %s</text><text fill="#000000" font-family="sans-serif" font-size="13" lengthAdjust="spacing" textLength="229.3916" x="76.9517" y="1393.2856">", current_led_state ? "ON" : "OFF")</text></g><g class="message" data-entity-1="part1" data-entity-2="part1" id="msg25"><line style="stroke:#181818;stroke-width:1;" x1="69.9517" x2="111.9517" y1="1440.4844" y2="1440.4844"/><line style="stroke:#181818;stroke-width:1;" x1="111.9517" x2="111.9517" y1="1440.4844" y2="1453.4844"/><line style="stroke:#181818;stroke-width:1;" x1="70.9517" x2="111.9517" y1="1453.4844" y2="1453.4844"/><polygon fill="#181818" points="80.9517,1449.4844,70.9517,1453.4844,80.9517,1457.4844,76.9517,1453.4844" style="stroke:#181818;stroke-width:1;"/><text fill="#000000" font-family="sans-serif" font-size="13" lengthAdjust="spacing" textLength="254.0205" x="76.9517" y="1435.4185">previous_led_state = current_led_state</text></g><?plantuml-src dLLHRvim47xdLroGMe6QIiqhMZ9jQZD5ov9eeazTX5nmKgjW8spw--Spa821H2rIY3dElllk--wGxupdf20PP8AB-AqG6GLLbDHnj5cncEM4At0pmhZdkq0a_D5Bny7x_GBlGLumhWwUkol44K-IIk-a2VpZhk-GLC5BGW-CqyHRFptE_Bq3-ghseo4eA4aytrX9hDW7KHJmXR7WuluKY7umKSeefKcaeoXgN1BQtMP2zdrXFeTP5VoSG0S0xgwobmXqkp48q9ccae8tVEQ3_vapbylpeJnnyDSfqS_dCDnkkbMgRS4ZEp95qXLllAQmAzFqERUALx-rYzEOdLwgDIoza58JDuS3qO1jlzTIAS4hhoWMfTQ5HcyWf4Bay8AwsLTm9cY9QYLSB3e-WDbVUv_gOsredwW36v4sPJGn1_9RmCF5uA7GzMmA0nL-6S1DMkeiffYHRe4e9b9zAxbaHysGpfKV5ru_cEztq-c87cvlOPZYFisjVXYb5Q_wkTKToDxfzHZpLlT9gb3FiqhGdbvEwq8a0pcS-l9IunaHQS0JMrbdn5UbTNStvjjmrsKjGT90iOnwqlyoUGs1mvhfjObTyiexV4C60vbIcaS7KTI4HxljUXtz_H4-jMPAHoH3zBocZByRWf2Qpp9oBR7rQlDxjVbbPVL5F8F2tm-16bDu9-Vsv8_Beg1SMOD_L8CzTvWOigpflRycCJEycOGRQHJLF_OxkDkD2u7-MovROsjCEgqF1unZmagsFn3_0G00?></g></svg>