<?plantuml 1.2026.1?><svg xmlns="http://www.w3.org/2000/svg" xmlns:xlink="http://www.w3.org/1999/xlink" contentStyleType="text/css" data-diagram-type="SEQUENCE" height="642px" preserveAspectRatio="none" style="width:594px;height:642px;background:#FFFFFF;" version="1.1" viewBox="0 0 594 642" width="594px" zoomAndPan="magnify"><defs/><g><g><title>led. DigitalOut</title><rect fill="#FFFFFF" height="30" style="stroke:#181818;stroke-width:1;" width="10" x="266.1758" y="67.4297"/></g><g><title>led. DigitalOut</title><rect fill="#FFFFFF" height="279.4063" style="stroke:#181818;stroke-width:1;" width="10" x="266.1758" y="319.0313"/></g><g><title>led. DigitalOut</title><rect fill="#FFFFFF" height="193.3359" style="stroke:#181818;stroke-width:1;" width="10" x="271.1758" y="405.1016"/></g><g><title>led. DigitalOut</title><rect fill="#FFFFFF" height="30" style="stroke:#181818;stroke-width:1;" width="10" x="276.1758" y="507.3047"/></g><g><title>button. DigitalIn</title><rect fill="#FFFFFF" height="30" style="stroke:#181818;stroke-width:1;" width="10" x="397.7222" y="220.7656"/></g><rect fill="none" height="478.0078" style="stroke:#000000;stroke-width:1.5;" width="578.4653" x="10" y="112.4297"/><rect fill="none" height="31.9375" style="stroke:#000000;stroke-width:1.5;" width="166.7173" x="50" y="136.5625"/><rect fill="none" height="400.9375" style="stroke:#000000;stroke-width:1.5;" width="558.4653" x="20" y="182.5"/><rect fill="none" height="17.1328" style="stroke:#000000;stroke-width:1.5;" width="197.542" x="50" y="265.7656"/><rect fill="none" height="107.3984" style="stroke:#000000;stroke-width:1.5;" width="389.9907" x="30" y="469.0391"/><rect fill="none" height="17.1328" style="stroke:#000000;stroke-width:1.5;" width="359.9907" x="50" y="552.3047"/><g class="participant-lifeline" data-entity-uid="part1" data-qualified-name="Main" id="part1-lifeline"><g><title>main..</title><rect fill="#000000" fill-opacity="0.00000" height="571.1406" width="8" x="65.9517" y="36.2969"/><line style="stroke:#181818;stroke-width:0.5;stroke-dasharray:5,5;" x1="69" x2="69" y1="36.2969" y2="607.4375"/></g></g><g class="participant-lifeline" data-entity-uid="part2" data-qualified-name="Led" id="part2-lifeline"><g><title>led. DigitalOut</title><rect fill="#000000" fill-opacity="0.00000" height="571.1406" width="8" x="267.1758" y="36.2969"/><line style="stroke:#181818;stroke-width:0.5;stroke-dasharray:5,5;" x1="270.5044" x2="270.5044" y1="36.2969" y2="607.4375"/></g></g><g class="participant-lifeline" data-entity-uid="part3" data-qualified-name="Button" id="part3-lifeline"><g><title>button. DigitalIn</title><rect fill="#000000" fill-opacity="0.00000" height="571.1406" width="8" x="398.7222" y="36.2969"/><line style="stroke:#181818;stroke-width:0.5;stroke-dasharray:5,5;" x1="401.8472" x2="401.8472" y1="36.2969" y2="607.4375"/></g></g><g class="participant-lifeline" data-entity-uid="part4" data-qualified-name="Thread" id="part4-lifeline"><g><title>ThisThread</title><rect fill="#000000" fill-opacity="0.00000" height="571.1406" width="8" x="518.5313" y="36.2969"/><line style="stroke:#181818;stroke-width:0.5;stroke-dasharray:5,5;" x1="521.5972" x2="521.5972" y1="36.2969" y2="607.4375"/></g></g><g class="participant participant-head" data-entity-uid="part1" data-qualified-name="Main" id="part1-head"><rect fill="#E3E3E3" height="30.2969" rx="2.5" ry="2.5" style="stroke:#181818;stroke-width:0.5;" width="59.9033" x="40" y="5"/><text fill="#000000" font-family="sans-serif" font-size="14" lengthAdjust="spacing" textLength="45.9033" x="47" y="24.9951">main()</text></g><g class="participant participant-tail" data-entity-uid="part1" data-qualified-name="Main" id="part1-tail"><rect fill="#E3E3E3" height="30.2969" rx="2.5" ry="2.5" style="stroke:#181818;stroke-width:0.5;" width="59.9033" x="40" y="606.4375"/><text fill="#000000" font-family="sans-serif" font-size="14" lengthAdjust="spacing" textLength="45.9033" x="47" y="626.4326">main()</text></g><g class="participant participant-head" data-entity-uid="part2" data-qualified-name="Led" id="part2-head"><rect fill="#E3E3E3" height="30.2969" rx="2.5" ry="2.5" style="stroke:#181818;stroke-width:0.5;" width="115.3428" x="213.5044" y="5"/><text fill="#000000" font-family="sans-serif" font-size="14" lengthAdjust="spacing" textLength="101.3428" x="220.5044" y="24.9951">led: DigitalOut</text></g><g class="participant participant-tail" data-entity-uid="part2" data-qualified-name="Led" id="part2-tail"><rect fill="#E3E3E3" height="30.2969" rx="2.5" ry="2.5" style="stroke:#181818;stroke-width:0.5;" width="115.3428" x="213.5044" y="606.4375"/><text fill="#000000" font-family="sans-serif" font-size="14" lengthAdjust="spacing" textLength="101.3428" x="220.5044" y="626.4326">led: DigitalOut</text></g><g class="participant participant-head" data-entity-uid="part3" data-qualified-name="Button" id="part3-head"><rect fill="#E3E3E3" height="30.2969" rx="2.5" ry="2.5" style="stroke:#181818;stroke-width:0.5;" width="127.75" x="338.8472" y="5"/><text fill="#000000" font-family="sans-serif" font-size="14" lengthAdjust="spacing" textLength="113.75" x="345.8472" y="24.9951">button: DigitalIn</text></g><g class="participant participant-tail" data-entity-uid="part3" data-qualified-name="Button" id="part3-tail"><rect fill="#E3E3E3" height="30.2969" rx="2.5" ry="2.5" style="stroke:#181818;stroke-width:0.5;" width="127.75" x="338.8472" y="606.4375"/><text fill="#000000" font-family="sans-serif" font-size="14" lengthAdjust="spacing" textLength="113.75" x="345.8472" y="626.4326">button: DigitalIn</text></g><g class="participant participant-head" data-entity-uid="part4" data-qualified-name="Thread" id="part4-head"><rect fill="#E3E3E3" height="30.2969" rx="2.5" ry="2.5" style="stroke:#181818;stroke-width:0.5;" width="91.8682" x="476.5972" y="5"/><text fill="#000000" font-family="sans-serif" font-size="14" lengthAdjust="spacing" textLength="77.8682" x="483.5972" y="24.9951">ThisThread</text></g><g class="participant participant-tail" data-entity-uid="part4" data-qualified-name="Thread" id="part4-tail"><rect fill="#E3E3E3" height="30.2969" rx="2.5" ry="2.5" style="stroke:#181818;stroke-width:0.5;" width="91.8682" x="476.5972" y="606.4375"/><text fill="#000000" font-family="sans-serif" font-size="14" lengthAdjust="spacing" textLength="77.8682" x="483.5972" y="626.4326">ThisThread</text></g><g><title>led. DigitalOut</title><rect fill="#FFFFFF" height="30" style="stroke:#181818;stroke-width:1;" width="10" x="266.1758" y="67.4297"/></g><g><title>led. DigitalOut</title><rect fill="#FFFFFF" height="279.4063" style="stroke:#181818;stroke-width:1;" width="10" x="266.1758" y="319.0313"/></g><g><title>led. DigitalOut</title><rect fill="#FFFFFF" height="193.3359" style="stroke:#181818;stroke-width:1;" width="10" x="271.1758" y="405.1016"/></g><g><title>led. DigitalOut</title><rect fill="#FFFFFF" height="30" style="stroke:#181818;stroke-width:1;" width="10" x="276.1758" y="507.3047"/></g><g><title>button. DigitalIn</title><rect fill="#FFFFFF" height="30" style="stroke:#181818;stroke-width:1;" width="10" x="397.7222" y="220.7656"/></g><g class="message" data-entity-1="part1" data-entity-2="part2" id="msg1"><polygon fill="#181818" points="254.1758,63.4297,264.1758,67.4297,254.1758,71.4297,258.1758,67.4297" style="stroke:#181818;stroke-width:1;"/><line style="stroke:#181818;stroke-width:1;" x1="69.9517" x2="260.1758" y1="67.4297" y2="67.4297"/><text fill="#000000" font-family="sans-serif" font-size="13" lengthAdjust="spacing" textLength="39.7046" x="76.9517" y="62.3638">read()</text></g><path d="M10,112.4297 L86.624,112.4297 L86.624,119.5625 L76.624,129.5625 L10,129.5625 L10,112.4297" fill="#EEEEEE" style="stroke:#000000;stroke-width:1.5;"/><rect fill="none" height="478.0078" style="stroke:#000000;stroke-width:1.5;" width="578.4653" x="10" y="112.4297"/><text fill="#000000" font-family="sans-serif" font-size="13" font-weight="bold" lengthAdjust="spacing" textLength="31.624" x="25" y="125.4966">loop</text><a href="true" target="_top" title="true" xlink:actuate="onRequest" xlink:href="true" xlink:show="new" xlink:title="true" xlink:type="simple"><text fill="#1D1D1D" font-family="sans-serif" font-size="11" font-weight="bold" lengthAdjust="spacing" text-decoration="underline" textLength="25.9746" x="101.624" y="124.6401">true</text></a><path d="M50,136.5625 L114.4429,136.5625 L114.4429,143.6953 L104.4429,153.6953 L50,153.6953 L50,136.5625" fill="#EEEEEE" style="stroke:#000000;stroke-width:1.5;"/><rect fill="none" height="31.9375" style="stroke:#000000;stroke-width:1.5;" width="166.7173" x="50" y="136.5625"/><text fill="#000000" font-family="sans-serif" font-size="13" font-weight="bold" lengthAdjust="spacing" textLength="19.4429" x="65" y="149.6294">alt</text><text fill="#000000" font-family="sans-serif" font-size="11" font-weight="bold" lengthAdjust="spacing" textLength="82.2744" x="129.4429" y="148.7729">[[[v]al == 1]]</text><line style="stroke:#000000;stroke-width:1;stroke-dasharray:2,2;" x1="50" x2="216.7173" y1="154.6953" y2="154.6953"/><a href="(val" target="_top" title="(val" xlink:actuate="onRequest" xlink:href="(val" xlink:show="new" xlink:title="(val" xlink:type="simple"><text fill="#1D1D1D" font-family="sans-serif" font-size="11" font-weight="bold" lengthAdjust="spacing" text-decoration="underline" textLength="34.9443" x="55" y="164.9058">== 0)</text></a><path d="M20,182.5 L84.4429,182.5 L84.4429,189.6328 L74.4429,199.6328 L20,199.6328 L20,182.5" fill="#EEEEEE" style="stroke:#000000;stroke-width:1.5;"/><rect fill="none" height="400.9375" style="stroke:#000000;stroke-width:1.5;" width="558.4653" x="20" y="182.5"/><text fill="#000000" font-family="sans-serif" font-size="13" font-weight="bold" lengthAdjust="spacing" textLength="19.4429" x="35" y="195.5669">alt</text><text fill="#000000" font-family="sans-serif" font-size="11" font-weight="bold" lengthAdjust="spacing" textLength="145.8091" x="99.4429" y="194.7104">[[[d]efined(BUTTON1)]]</text><g class="message" data-entity-1="part1" data-entity-2="part3" id="msg2"><polygon fill="#181818" points="385.7222,216.7656,395.7222,220.7656,385.7222,224.7656,389.7222,220.7656" style="stroke:#181818;stroke-width:1;"/><line style="stroke:#181818;stroke-width:1;" x1="69.9517" x2="391.7222" y1="220.7656" y2="220.7656"/><text fill="#000000" font-family="sans-serif" font-size="13" lengthAdjust="spacing" textLength="39.7046" x="76.9517" y="215.6997">read()</text></g><path d="M50,265.7656 L114.4429,265.7656 L114.4429,272.8984 L104.4429,282.8984 L50,282.8984 L50,265.7656" fill="#EEEEEE" style="stroke:#000000;stroke-width:1.5;"/><rect fill="none" height="17.1328" style="stroke:#000000;stroke-width:1.5;" width="197.542" x="50" y="265.7656"/><text fill="#000000" font-family="sans-serif" font-size="13" font-weight="bold" lengthAdjust="spacing" textLength="19.4429" x="65" y="278.8325">alt</text><text fill="#000000" font-family="sans-serif" font-size="11" font-weight="bold" lengthAdjust="spacing" textLength="113.0991" x="129.4429" y="277.9761">[[[p]ressed == 0]]</text><g class="message" data-entity-1="part1" data-entity-2="part1" id="msg3"><line style="stroke:#181818;stroke-width:1;" x1="69.9517" x2="111.9517" y1="311.0313" y2="311.0313"/><line style="stroke:#181818;stroke-width:1;" x1="111.9517" x2="111.9517" y1="311.0313" y2="324.0313"/><line style="stroke:#181818;stroke-width:1;" x1="70.9517" x2="111.9517" y1="324.0313" y2="324.0313"/><polygon fill="#181818" points="80.9517,320.0313,70.9517,324.0313,80.9517,328.0313,76.9517,324.0313" style="stroke:#181818;stroke-width:1;"/><text fill="#000000" font-family="sans-serif" font-size="13" lengthAdjust="spacing" textLength="187.2241" x="76.9517" y="305.9653">set_led1_state(Led, pressed)</text></g><g class="message" data-entity-1="part1" data-entity-2="part4" id="msg4"><polygon fill="#181818" points="510.5313,349.1641,520.5313,353.1641,510.5313,357.1641,514.5313,353.1641" style="stroke:#181818;stroke-width:1;"/><line style="stroke:#181818;stroke-width:1;" x1="69.9517" x2="516.5313" y1="353.1641" y2="353.1641"/><text fill="#000000" font-family="sans-serif" font-size="13" lengthAdjust="spacing" textLength="203.0615" x="76.9517" y="348.0981">sleep_for(BUTTON_POLL_RATE)</text></g><line style="stroke:#000000;stroke-width:1;stroke-dasharray:2,2;" x1="20" x2="578.4653" y1="362.1641" y2="362.1641"/><a href="(defined(LED1)" target="_top" title="(defined(LED1)" xlink:actuate="onRequest" xlink:href="(defined(LED1)" xlink:show="new" xlink:title="(defined(LED1)" xlink:type="simple"><text fill="#1D1D1D" font-family="sans-serif" font-size="11" font-weight="bold" lengthAdjust="spacing" text-decoration="underline" textLength="143.6875" x="25" y="372.3745">&amp;&amp; defined(BUTTON1))</text></a><g class="message" data-entity-1="part1" data-entity-2="part1" id="msg5"><line style="stroke:#181818;stroke-width:1;" x1="69.9517" x2="111.9517" y1="397.1016" y2="397.1016"/><line style="stroke:#181818;stroke-width:1;" x1="111.9517" x2="111.9517" y1="397.1016" y2="410.1016"/><line style="stroke:#181818;stroke-width:1;" x1="70.9517" x2="111.9517" y1="410.1016" y2="410.1016"/><polygon fill="#181818" points="80.9517,406.1016,70.9517,410.1016,80.9517,414.1016,76.9517,410.1016" style="stroke:#181818;stroke-width:1;"/><text fill="#000000" font-family="sans-serif" font-size="13" lengthAdjust="spacing" textLength="99.5122" x="76.9517" y="392.0356">blink_led1(Led)</text></g><g class="message" data-entity-1="part1" data-entity-2="part4" id="msg6"><polygon fill="#181818" points="510.5313,435.2344,520.5313,439.2344,510.5313,443.2344,514.5313,439.2344" style="stroke:#181818;stroke-width:1;"/><line style="stroke:#181818;stroke-width:1;" x1="69.9517" x2="516.5313" y1="439.2344" y2="439.2344"/><text fill="#000000" font-family="sans-serif" font-size="13" lengthAdjust="spacing" textLength="171.6089" x="76.9517" y="434.1685">sleep_for(BLINKING_RATE)</text></g><line style="stroke:#000000;stroke-width:1;stroke-dasharray:2,2;" x1="20" x2="578.4653" y1="448.2344" y2="448.2344"/><a href="end" target="_top" title="end" xlink:actuate="onRequest" xlink:href="end" xlink:show="new" xlink:title="end" xlink:type="simple"><text fill="#1D1D1D" font-family="sans-serif" font-size="11" font-weight="bold" lengthAdjust="spacing" text-decoration="underline" textLength="23.1655" x="25" y="458.4448">end</text></a><path d="M30,469.0391 L94.4429,469.0391 L94.4429,476.1719 L84.4429,486.1719 L30,486.1719 L30,469.0391" fill="#EEEEEE" style="stroke:#000000;stroke-width:1.5;"/><rect fill="none" height="107.3984" style="stroke:#000000;stroke-width:1.5;" width="389.9907" x="30" y="469.0391"/><text fill="#000000" font-family="sans-serif" font-size="13" font-weight="bold" lengthAdjust="spacing" textLength="19.4429" x="45" y="482.106">alt</text><text fill="#000000" font-family="sans-serif" font-size="11" font-weight="bold" lengthAdjust="spacing" textLength="118.583" x="109.4429" y="481.2495">[[[d]efined(LED1)]]</text><g class="message" data-entity-1="part1" data-entity-2="part2" id="msg7"><polygon fill="#181818" points="264.1758,503.3047,274.1758,507.3047,264.1758,511.3047,268.1758,507.3047" style="stroke:#181818;stroke-width:1;"/><line style="stroke:#181818;stroke-width:1;" x1="69.9517" x2="270.1758" y1="507.3047" y2="507.3047"/><text fill="#000000" font-family="sans-serif" font-size="13" lengthAdjust="spacing" textLength="39.7046" x="76.9517" y="502.2388">read()</text></g><path d="M50,552.3047 L114.4429,552.3047 L114.4429,559.4375 L104.4429,569.4375 L50,569.4375 L50,552.3047" fill="#EEEEEE" style="stroke:#000000;stroke-width:1.5;"/><rect fill="none" height="17.1328" style="stroke:#000000;stroke-width:1.5;" width="359.9907" x="50" y="552.3047"/><text fill="#000000" font-family="sans-serif" font-size="13" font-weight="bold" lengthAdjust="spacing" textLength="19.4429" x="65" y="565.3716">alt</text><text fill="#000000" font-family="sans-serif" font-size="11" font-weight="bold" lengthAdjust="spacing" textLength="275.5479" x="129.4429" y="564.5151">[[[c]urrent_led_state != previous_led_state]]</text><?plantuml-src jL9HQuCm47xFhxZreIXiC5yB7QoqZ3BNZk6UIf3KNDTGZMAYltycqRPnMzyMa2HtdtVVzrtKISYArQo0efHbTgpB0a7N3HBIXRN8HCMaXad1X0p22J05RztHJ-R8Px0KNqApVDjeYugH-w1zetKfpxYrjB25ZVh8v2XKSgoHSGjnHq9CNtXuCfLX1YOMX8HbMhHCe-t7qRlcPLd1peYXXEKQThkMiXpcSuWemLmXx8BM1Hv3Ig1RA7aFvHGFGY8F5fz9ijr4FS2iWOZZVk4ovCyaUd53_8fUdt6jAbgZKfqgG-JIPk1pVHzQstq62dNQcH-bIdTLWqxqFLIkMEZzv_bodHXPzbilvx_fbYDMwQ6iUq_IzsqSfn_FoIeSxEIzQV5g6OKmdG8VkHZIMthskP0dgyXe-Ly9yNhpkjwyUFmxk-bu_bRAp-5xh_0cnn4_LpwZJLsZjEDpquExkPbTAyf6NQ9_FuVXR7RpVGC0?></g></svg>