<?plantuml 1.2026.1?><svg xmlns="http://www.w3.org/2000/svg" xmlns:xlink="http://www.w3.org/1999/xlink" contentStyleType="text/css" data-diagram-type="SEQUENCE" height="803px" preserveAspectRatio="none" style="width:314px;height:803px;background:#FFFFFF;" version="1.1" viewBox="0 0 314 803" width="314px" zoomAndPan="magnify"><defs/><g><g><title>Led</title><rect fill="#FFFFFF" height="29.1328" style="stroke:#181818;stroke-width:1;" width="10" x="120.0503" y="67.4297"/></g><g><title>Led</title><rect fill="#FFFFFF" height="30" style="stroke:#181818;stroke-width:1;" width="10" x="120.0503" y="149.8281"/></g><g><title>Led</title><rect fill="#FFFFFF" height="30" style="stroke:#181818;stroke-width:1;" width="10" x="120.0503" y="298.3594"/></g><g><title>Led</title><rect fill="#FFFFFF" height="30" style="stroke:#181818;stroke-width:1;" width="10" x="120.0503" y="372.2969"/></g><g><title>Led</title><rect fill="#FFFFFF" height="30" style="stroke:#181818;stroke-width:1;" width="10" x="120.0503" y="579.9609"/></g><g><title>Led</title><rect fill="#FFFFFF" height="30" style="stroke:#181818;stroke-width:1;" width="10" x="120.0503" y="653.8984"/></g><g><title>Button</title><rect fill="#FFFFFF" height="29.1328" style="stroke:#181818;stroke-width:1;" width="10" x="180.1475" y="215.9609"/></g><g><title>Button</title><rect fill="#FFFFFF" height="29.1328" style="stroke:#181818;stroke-width:1;" width="10" x="180.1475" y="497.5625"/></g><g><title>Thread</title><rect fill="#FFFFFF" height="30" style="stroke:#181818;stroke-width:1;" width="10" x="272.0132" y="438.4297"/></g><g><title>Thread</title><rect fill="#FFFFFF" height="30" style="stroke:#181818;stroke-width:1;" width="10" x="272.0132" y="720.0313"/></g><rect fill="none" height="76.2656" style="stroke:#000000;stroke-width:1.5;" width="144.7002" x="10" y="111.5625"/><rect fill="none" height="150.2031" style="stroke:#000000;stroke-width:1.5;" width="144.7002" x="10" y="260.0938"/><rect fill="none" height="150.2031" style="stroke:#000000;stroke-width:1.5;" width="144.7002" x="10" y="541.6953"/><g class="participant-lifeline" data-entity-uid="part1" data-qualified-name="Main" id="part1-lifeline"><g><title>main..</title><rect fill="#000000" fill-opacity="0.00000" height="731.7344" width="8" x="45.9517" y="36.2969"/><line style="stroke:#181818;stroke-width:0.5;stroke-dasharray:5,5;" x1="49" x2="49" y1="36.2969" y2="768.0313"/></g></g><g class="participant-lifeline" data-entity-uid="part2" data-qualified-name="Led" id="part2-lifeline"><g><title>Led</title><rect fill="#000000" fill-opacity="0.00000" height="731.7344" width="8" x="121.0503" y="36.2969"/><line style="stroke:#181818;stroke-width:0.5;stroke-dasharray:5,5;" x1="124.4004" x2="124.4004" y1="36.2969" y2="768.0313"/></g></g><g class="participant-lifeline" data-entity-uid="part3" data-qualified-name="Button" id="part3-lifeline"><g><title>Button</title><rect fill="#000000" fill-opacity="0.00000" height="731.7344" width="8" x="181.1475" y="36.2969"/><line style="stroke:#181818;stroke-width:0.5;stroke-dasharray:5,5;" x1="184.7002" x2="184.7002" y1="36.2969" y2="768.0313"/></g></g><g class="participant-lifeline" data-entity-uid="part4" data-qualified-name="Thread" id="part4-lifeline"><g><title>Thread</title><rect fill="#000000" fill-opacity="0.00000" height="731.7344" width="8" x="273.0132" y="36.2969"/><line style="stroke:#181818;stroke-width:0.5;stroke-dasharray:5,5;" x1="276.3833" x2="276.3833" y1="36.2969" y2="768.0313"/></g></g><g class="participant participant-head" data-entity-uid="part1" data-qualified-name="Main" id="part1-head"><rect fill="#E3E3E3" height="30.2969" rx="2.5" ry="2.5" style="stroke:#181818;stroke-width:0.5;" width="59.9033" x="20" y="5"/><text fill="#000000" font-family="sans-serif" font-size="14" lengthAdjust="spacing" textLength="45.9033" x="27" y="24.9951">main()</text></g><g class="participant participant-tail" data-entity-uid="part1" data-qualified-name="Main" id="part1-tail"><rect fill="#E3E3E3" height="30.2969" rx="2.5" ry="2.5" style="stroke:#181818;stroke-width:0.5;" width="59.9033" x="20" y="767.0313"/><text fill="#000000" font-family="sans-serif" font-size="14" lengthAdjust="spacing" textLength="45.9033" x="27" y="787.0264">main()</text></g><g class="participant participant-head" data-entity-uid="part2" data-qualified-name="Led" id="part2-head"><rect fill="#E3E3E3" height="30.2969" rx="2.5" ry="2.5" style="stroke:#181818;stroke-width:0.5;" width="39.2998" x="105.4004" y="5"/><text fill="#000000" font-family="sans-serif" font-size="14" lengthAdjust="spacing" textLength="25.2998" x="112.4004" y="24.9951">Led</text></g><g class="participant participant-tail" data-entity-uid="part2" data-qualified-name="Led" id="part2-tail"><rect fill="#E3E3E3" height="30.2969" rx="2.5" ry="2.5" style="stroke:#181818;stroke-width:0.5;" width="39.2998" x="105.4004" y="767.0313"/><text fill="#000000" font-family="sans-serif" font-size="14" lengthAdjust="spacing" textLength="25.2998" x="112.4004" y="787.0264">Led</text></g><g class="participant participant-head" data-entity-uid="part3" data-qualified-name="Button" id="part3-head"><rect fill="#E3E3E3" height="30.2969" rx="2.5" ry="2.5" style="stroke:#181818;stroke-width:0.5;" width="60.8945" x="154.7002" y="5"/><text fill="#000000" font-family="sans-serif" font-size="14" lengthAdjust="spacing" textLength="46.8945" x="161.7002" y="24.9951">Button</text></g><g class="participant participant-tail" data-entity-uid="part3" data-qualified-name="Button" id="part3-tail"><rect fill="#E3E3E3" height="30.2969" rx="2.5" ry="2.5" style="stroke:#181818;stroke-width:0.5;" width="60.8945" x="154.7002" y="767.0313"/><text fill="#000000" font-family="sans-serif" font-size="14" lengthAdjust="spacing" textLength="46.8945" x="161.7002" y="787.0264">Button</text></g><g class="participant participant-head" data-entity-uid="part4" data-qualified-name="Thread" id="part4-head"><rect fill="#E3E3E3" height="30.2969" rx="2.5" ry="2.5" style="stroke:#181818;stroke-width:0.5;" width="63.2598" x="245.3833" y="5"/><text fill="#000000" font-family="sans-serif" font-size="14" lengthAdjust="spacing" textLength="49.2598" x="252.3833" y="24.9951">Thread</text></g><g class="participant participant-tail" data-entity-uid="part4" data-qualified-name="Thread" id="part4-tail"><rect fill="#E3E3E3" height="30.2969" rx="2.5" ry="2.5" style="stroke:#181818;stroke-width:0.5;" width="63.2598" x="245.3833" y="767.0313"/><text fill="#000000" font-family="sans-serif" font-size="14" lengthAdjust="spacing" textLength="49.2598" x="252.3833" y="787.0264">Thread</text></g><g><title>Led</title><rect fill="#FFFFFF" height="29.1328" style="stroke:#181818;stroke-width:1;" width="10" x="120.0503" y="67.4297"/></g><g><title>Led</title><rect fill="#FFFFFF" height="30" style="stroke:#181818;stroke-width:1;" width="10" x="120.0503" y="149.8281"/></g><g><title>Led</title><rect fill="#FFFFFF" height="30" style="stroke:#181818;stroke-width:1;" width="10" x="120.0503" y="298.3594"/></g><g><title>Led</title><rect fill="#FFFFFF" height="30" style="stroke:#181818;stroke-width:1;" width="10" x="120.0503" y="372.2969"/></g><g><title>Led</title><rect fill="#FFFFFF" height="30" style="stroke:#181818;stroke-width:1;" width="10" x="120.0503" y="579.9609"/></g><g><title>Led</title><rect fill="#FFFFFF" height="30" style="stroke:#181818;stroke-width:1;" width="10" x="120.0503" y="653.8984"/></g><g><title>Button</title><rect fill="#FFFFFF" height="29.1328" style="stroke:#181818;stroke-width:1;" width="10" x="180.1475" y="215.9609"/></g><g><title>Button</title><rect fill="#FFFFFF" height="29.1328" style="stroke:#181818;stroke-width:1;" width="10" x="180.1475" y="497.5625"/></g><g><title>Thread</title><rect fill="#FFFFFF" height="30" style="stroke:#181818;stroke-width:1;" width="10" x="272.0132" y="438.4297"/></g><g><title>Thread</title><rect fill="#FFFFFF" height="30" style="stroke:#181818;stroke-width:1;" width="10" x="272.0132" y="720.0313"/></g><g class="message" data-entity-1="part1" data-entity-2="part2" id="msg1"><polygon fill="#181818" points="108.0503,63.4297,118.0503,67.4297,108.0503,71.4297,112.0503,67.4297" style="stroke:#181818;stroke-width:1;"/><line style="stroke:#181818;stroke-width:1;" x1="49.9517" x2="114.0503" y1="67.4297" y2="67.4297"/><text fill="#000000" font-family="sans-serif" font-size="13" lengthAdjust="spacing" textLength="39.7046" x="56.9517" y="62.3638">read()</text></g><g class="message" data-entity-1="part2" data-entity-2="part1" id="msg2"><polygon fill="#181818" points="60.9517,92.5625,50.9517,96.5625,60.9517,100.5625,56.9517,96.5625" style="stroke:#181818;stroke-width:1;"/><line style="stroke:#181818;stroke-width:1;stroke-dasharray:2,2;" x1="54.9517" x2="124.0503" y1="96.5625" y2="96.5625"/><text fill="#000000" font-family="sans-serif" font-size="13" lengthAdjust="spacing" textLength="19.2715" x="66.9517" y="91.4966">val</text></g><path d="M10,111.5625 L74.4429,111.5625 L74.4429,118.6953 L64.4429,128.6953 L10,128.6953 L10,111.5625" fill="#EEEEEE" style="stroke:#000000;stroke-width:1.5;"/><rect fill="none" height="76.2656" style="stroke:#000000;stroke-width:1.5;" width="144.7002" x="10" y="111.5625"/><text fill="#000000" font-family="sans-serif" font-size="13" font-weight="bold" lengthAdjust="spacing" textLength="19.4429" x="25" y="124.6294">alt</text><a href="val" target="_top" title="val" xlink:actuate="onRequest" xlink:href="val" xlink:show="new" xlink:title="val" xlink:type="simple"><text fill="#1D1D1D" font-family="sans-serif" font-size="11" font-weight="bold" lengthAdjust="spacing" text-decoration="underline" textLength="29.917" x="89.4429" y="123.7729">== 1</text></a><g class="message" data-entity-1="part1" data-entity-2="part2" id="msg3"><polygon fill="#181818" points="108.0503,145.8281,118.0503,149.8281,108.0503,153.8281,112.0503,149.8281" style="stroke:#181818;stroke-width:1;"/><line style="stroke:#181818;stroke-width:1;" x1="49.9517" x2="114.0503" y1="149.8281" y2="149.8281"/><text fill="#000000" font-family="sans-serif" font-size="13" lengthAdjust="spacing" textLength="51.0986" x="56.9517" y="144.7622">write(1)</text></g><g class="message" data-entity-1="part1" data-entity-2="part3" id="msg4"><polygon fill="#181818" points="168.1475,211.9609,178.1475,215.9609,168.1475,219.9609,172.1475,215.9609" style="stroke:#181818;stroke-width:1;"/><line style="stroke:#181818;stroke-width:1;" x1="49.9517" x2="174.1475" y1="215.9609" y2="215.9609"/><text fill="#000000" font-family="sans-serif" font-size="13" lengthAdjust="spacing" textLength="39.7046" x="56.9517" y="210.895">read()</text></g><g class="message" data-entity-1="part3" data-entity-2="part1" id="msg5"><polygon fill="#181818" points="60.9517,241.0938,50.9517,245.0938,60.9517,249.0938,56.9517,245.0938" style="stroke:#181818;stroke-width:1;"/><line style="stroke:#181818;stroke-width:1;stroke-dasharray:2,2;" x1="54.9517" x2="184.1475" y1="245.0938" y2="245.0938"/><text fill="#000000" font-family="sans-serif" font-size="13" lengthAdjust="spacing" textLength="51.3906" x="66.9517" y="240.0278">pressed</text></g><path d="M10,260.0938 L74.4429,260.0938 L74.4429,267.2266 L64.4429,277.2266 L10,277.2266 L10,260.0938" fill="#EEEEEE" style="stroke:#000000;stroke-width:1.5;"/><rect fill="none" height="150.2031" style="stroke:#000000;stroke-width:1.5;" width="144.7002" x="10" y="260.0938"/><text fill="#000000" font-family="sans-serif" font-size="13" font-weight="bold" lengthAdjust="spacing" textLength="19.4429" x="25" y="273.1606">alt</text><a href="pressed" target="_top" title="pressed" xlink:actuate="onRequest" xlink:href="pressed" xlink:show="new" xlink:title="pressed" xlink:type="simple"><text fill="#1D1D1D" font-family="sans-serif" font-size="11" font-weight="bold" lengthAdjust="spacing" text-decoration="underline" textLength="29.917" x="89.4429" y="272.3042">== 0</text></a><g class="message" data-entity-1="part1" data-entity-2="part2" id="msg6"><polygon fill="#181818" points="108.0503,294.3594,118.0503,298.3594,108.0503,302.3594,112.0503,298.3594" style="stroke:#181818;stroke-width:1;"/><line style="stroke:#181818;stroke-width:1;" x1="49.9517" x2="114.0503" y1="298.3594" y2="298.3594"/><text fill="#000000" font-family="sans-serif" font-size="13" lengthAdjust="spacing" textLength="51.0986" x="56.9517" y="293.2935">write(1)</text></g><line style="stroke:#000000;stroke-width:1;stroke-dasharray:2,2;" x1="10" x2="154.7002" y1="337.3594" y2="337.3594"/><text fill="#000000" font-family="sans-serif" font-size="11" font-weight="bold" lengthAdjust="spacing" textLength="103.0444" x="15" y="347.5698">[(pressed == 1)]</text><g class="message" data-entity-1="part1" data-entity-2="part2" id="msg7"><polygon fill="#181818" points="108.0503,368.2969,118.0503,372.2969,108.0503,376.2969,112.0503,372.2969" style="stroke:#181818;stroke-width:1;"/><line style="stroke:#181818;stroke-width:1;" x1="49.9517" x2="114.0503" y1="372.2969" y2="372.2969"/><text fill="#000000" font-family="sans-serif" font-size="13" lengthAdjust="spacing" textLength="51.0986" x="56.9517" y="367.231">write(0)</text></g><g class="message" data-entity-1="part1" data-entity-2="part4" id="msg8"><polygon fill="#181818" points="260.0132,434.4297,270.0132,438.4297,260.0132,442.4297,264.0132,438.4297" style="stroke:#181818;stroke-width:1;"/><line style="stroke:#181818;stroke-width:1;" x1="49.9517" x2="266.0132" y1="438.4297" y2="438.4297"/><text fill="#000000" font-family="sans-serif" font-size="13" lengthAdjust="spacing" textLength="203.0615" x="56.9517" y="433.3638">sleep_for(BUTTON_POLL_RATE)</text></g><g class="message" data-entity-1="part1" data-entity-2="part3" id="msg9"><polygon fill="#181818" points="168.1475,493.5625,178.1475,497.5625,168.1475,501.5625,172.1475,497.5625" style="stroke:#181818;stroke-width:1;"/><line style="stroke:#181818;stroke-width:1;" x1="49.9517" x2="174.1475" y1="497.5625" y2="497.5625"/><text fill="#000000" font-family="sans-serif" font-size="13" lengthAdjust="spacing" textLength="39.7046" x="56.9517" y="492.4966">read()</text></g><g class="message" data-entity-1="part3" data-entity-2="part1" id="msg10"><polygon fill="#181818" points="60.9517,522.6953,50.9517,526.6953,60.9517,530.6953,56.9517,526.6953" style="stroke:#181818;stroke-width:1;"/><line style="stroke:#181818;stroke-width:1;stroke-dasharray:2,2;" x1="54.9517" x2="184.1475" y1="526.6953" y2="526.6953"/><text fill="#000000" font-family="sans-serif" font-size="13" lengthAdjust="spacing" textLength="51.3906" x="66.9517" y="521.6294">pressed</text></g><path d="M10,541.6953 L74.4429,541.6953 L74.4429,548.8281 L64.4429,558.8281 L10,558.8281 L10,541.6953" fill="#EEEEEE" style="stroke:#000000;stroke-width:1.5;"/><rect fill="none" height="150.2031" style="stroke:#000000;stroke-width:1.5;" width="144.7002" x="10" y="541.6953"/><text fill="#000000" font-family="sans-serif" font-size="13" font-weight="bold" lengthAdjust="spacing" textLength="19.4429" x="25" y="554.7622">alt</text><a href="pressed" target="_top" title="pressed" xlink:actuate="onRequest" xlink:href="pressed" xlink:show="new" xlink:title="pressed" xlink:type="simple"><text fill="#1D1D1D" font-family="sans-serif" font-size="11" font-weight="bold" lengthAdjust="spacing" text-decoration="underline" textLength="29.917" x="89.4429" y="553.9058">== 0</text></a><g class="message" data-entity-1="part1" data-entity-2="part2" id="msg11"><polygon fill="#181818" points="108.0503,575.9609,118.0503,579.9609,108.0503,583.9609,112.0503,579.9609" style="stroke:#181818;stroke-width:1;"/><line style="stroke:#181818;stroke-width:1;" x1="49.9517" x2="114.0503" y1="579.9609" y2="579.9609"/><text fill="#000000" font-family="sans-serif" font-size="13" lengthAdjust="spacing" textLength="51.0986" x="56.9517" y="574.895">write(1)</text></g><line style="stroke:#000000;stroke-width:1;stroke-dasharray:2,2;" x1="10" x2="154.7002" y1="618.9609" y2="618.9609"/><text fill="#000000" font-family="sans-serif" font-size="11" font-weight="bold" lengthAdjust="spacing" textLength="103.0444" x="15" y="629.1714">[(pressed == 1)]</text><g class="message" data-entity-1="part1" data-entity-2="part2" id="msg12"><polygon fill="#181818" points="108.0503,649.8984,118.0503,653.8984,108.0503,657.8984,112.0503,653.8984" style="stroke:#181818;stroke-width:1;"/><line style="stroke:#181818;stroke-width:1;" x1="49.9517" x2="114.0503" y1="653.8984" y2="653.8984"/><text fill="#000000" font-family="sans-serif" font-size="13" lengthAdjust="spacing" textLength="51.0986" x="56.9517" y="648.8325">write(0)</text></g><g class="message" data-entity-1="part1" data-entity-2="part4" id="msg13"><polygon fill="#181818" points="260.0132,716.0313,270.0132,720.0313,260.0132,724.0313,264.0132,720.0313" style="stroke:#181818;stroke-width:1;"/><line style="stroke:#181818;stroke-width:1;" x1="49.9517" x2="266.0132" y1="720.0313" y2="720.0313"/><text fill="#000000" font-family="sans-serif" font-size="13" lengthAdjust="spacing" textLength="203.0615" x="56.9517" y="714.9653">sleep_for(BUTTON_POLL_RATE)</text></g><?plantuml-src xP31QiCm38RlUWhHatC8jDT00olibgrZPASnWaXKQfhOmLQxrv-Tf3HjJzkkDTWodwIVN_87RNfor65dZQttpdQCueuC4B3eMlTa11STQQEI1PB7b_05Y6-Q5znaZgbH2L0j-aJ261Y4cwPvhCbEr4B3Lrbg1Jy3n_KQLr-0uLpalfqMLgjam5Tj4TmeiMdELZP74Mlkt8mOnd3sr3lsFhJFrAQwmTgKZlQM_xFNUaOravlwRkMMlvwstCT1CzyozzNEEhNvACljQ_MsBOhg_QbydgrWh9qFEv77vlwwkHy0?></g></svg>