<?plantuml 1.2026.1?><svg xmlns="http://www.w3.org/2000/svg" xmlns:xlink="http://www.w3.org/1999/xlink" contentStyleType="text/css" data-diagram-type="SEQUENCE" height="943px" preserveAspectRatio="none" style="width:796px;height:943px;background:#FFFFFF;" version="1.1" viewBox="0 0 796 943" width="796px" zoomAndPan="magnify"><defs/><g><g><title>led. DigitalOut</title><rect fill="#FFFFFF" height="30" style="stroke:#181818;stroke-width:1;" width="10" x="282.5449" y="120.6953"/></g><g><title>led. DigitalOut</title><rect fill="#FFFFFF" height="30" style="stroke:#181818;stroke-width:1;" width="10" x="282.5449" y="814.6953"/></g><g><title>button. DigitalIn</title><rect fill="#FFFFFF" height="30" style="stroke:#181818;stroke-width:1;" width="10" x="414.0913" y="240.0938"/></g><g><title>button. DigitalIn</title><rect fill="#FFFFFF" height="30" style="stroke:#181818;stroke-width:1;" width="10" x="414.0913" y="440.8906"/></g><rect fill="none" height="105.3984" style="stroke:#000000;stroke-width:1.5;" width="315.2163" x="40" y="53.2969"/><rect fill="none" height="105.3984" style="stroke:#000000;stroke-width:1.5;" width="452.9663" x="40" y="172.6953"/><rect fill="none" height="598.7344" style="stroke:#000000;stroke-width:1.5;" width="780.9619" x="10" y="292.0938"/><rect fill="none" height="17.1328" style="stroke:#000000;stroke-width:1.5;" width="171.9727" x="60" y="316.2266"/><rect fill="none" height="17.1328" style="stroke:#000000;stroke-width:1.5;" width="260.5986" x="60" y="347.3594"/><rect fill="none" height="383.9375" style="stroke:#000000;stroke-width:1.5;" width="760.9619" x="20" y="378.4922"/><rect fill="none" height="352.8047" style="stroke:#000000;stroke-width:1.5;" width="740.9619" x="30" y="402.625"/><rect fill="none" height="17.1328" style="stroke:#000000;stroke-width:1.5;" width="303.981" x="60" y="515.0234"/><rect fill="none" height="145.3359" style="stroke:#000000;stroke-width:1.5;" width="720.9619" x="40" y="603.0938"/><rect fill="none" height="107.3984" style="stroke:#000000;stroke-width:1.5;" width="389.9907" x="40" y="776.4297"/><rect fill="none" height="17.1328" style="stroke:#000000;stroke-width:1.5;" width="359.9907" x="60" y="859.6953"/><g class="participant-lifeline" data-entity-uid="part1" data-qualified-name="Main" id="part1-lifeline"><g><title>main..</title><rect fill="#000000" fill-opacity="0.00000" height="871.5313" width="8" x="75.9517" y="36.2969"/><line style="stroke:#181818;stroke-width:0.5;stroke-dasharray:5,5;" x1="79" x2="79" y1="36.2969" y2="907.8281"/></g></g><g class="participant-lifeline" data-entity-uid="part2" data-qualified-name="Led" id="part2-lifeline"><g><title>led. DigitalOut</title><rect fill="#000000" fill-opacity="0.00000" height="871.5313" width="8" x="283.5449" y="36.2969"/><line style="stroke:#181818;stroke-width:0.5;stroke-dasharray:5,5;" x1="286.8735" x2="286.8735" y1="36.2969" y2="907.8281"/></g></g><g class="participant-lifeline" data-entity-uid="part3" data-qualified-name="Button" id="part3-lifeline"><g><title>button. DigitalIn</title><rect fill="#000000" fill-opacity="0.00000" height="871.5313" width="8" x="415.0913" y="36.2969"/><line style="stroke:#181818;stroke-width:0.5;stroke-dasharray:5,5;" x1="418.2163" x2="418.2163" y1="36.2969" y2="907.8281"/></g></g><g class="participant-lifeline" data-entity-uid="part4" data-qualified-name="Thread" id="part4-lifeline"><g><title>ThisThread</title><rect fill="#000000" fill-opacity="0.00000" height="871.5313" width="8" x="534.9004" y="36.2969"/><line style="stroke:#181818;stroke-width:0.5;stroke-dasharray:5,5;" x1="537.9663" x2="537.9663" y1="36.2969" y2="907.8281"/></g></g><g class="participant participant-head" data-entity-uid="part1" data-qualified-name="Main" id="part1-head"><rect fill="#E3E3E3" height="30.2969" rx="2.5" ry="2.5" style="stroke:#181818;stroke-width:0.5;" width="59.9033" x="50" y="5"/><text fill="#000000" font-family="sans-serif" font-size="14" lengthAdjust="spacing" textLength="45.9033" x="57" y="24.9951">main()</text></g><g class="participant participant-tail" data-entity-uid="part1" data-qualified-name="Main" id="part1-tail"><rect fill="#E3E3E3" height="30.2969" rx="2.5" ry="2.5" style="stroke:#181818;stroke-width:0.5;" width="59.9033" x="50" y="906.8281"/><text fill="#000000" font-family="sans-serif" font-size="14" lengthAdjust="spacing" textLength="45.9033" x="57" y="926.8232">main()</text></g><g class="participant participant-head" data-entity-uid="part2" data-qualified-name="Led" id="part2-head"><rect fill="#E3E3E3" height="30.2969" rx="2.5" ry="2.5" style="stroke:#181818;stroke-width:0.5;" width="115.3428" x="229.8735" y="5"/><text fill="#000000" font-family="sans-serif" font-size="14" lengthAdjust="spacing" textLength="101.3428" x="236.8735" y="24.9951">led: DigitalOut</text></g><g class="participant participant-tail" data-entity-uid="part2" data-qualified-name="Led" id="part2-tail"><rect fill="#E3E3E3" height="30.2969" rx="2.5" ry="2.5" style="stroke:#181818;stroke-width:0.5;" width="115.3428" x="229.8735" y="906.8281"/><text fill="#000000" font-family="sans-serif" font-size="14" lengthAdjust="spacing" textLength="101.3428" x="236.8735" y="926.8232">led: DigitalOut</text></g><g class="participant participant-head" data-entity-uid="part3" data-qualified-name="Button" id="part3-head"><rect fill="#E3E3E3" height="30.2969" rx="2.5" ry="2.5" style="stroke:#181818;stroke-width:0.5;" width="127.75" x="355.2163" y="5"/><text fill="#000000" font-family="sans-serif" font-size="14" lengthAdjust="spacing" textLength="113.75" x="362.2163" y="24.9951">button: DigitalIn</text></g><g class="participant participant-tail" data-entity-uid="part3" data-qualified-name="Button" id="part3-tail"><rect fill="#E3E3E3" height="30.2969" rx="2.5" ry="2.5" style="stroke:#181818;stroke-width:0.5;" width="127.75" x="355.2163" y="906.8281"/><text fill="#000000" font-family="sans-serif" font-size="14" lengthAdjust="spacing" textLength="113.75" x="362.2163" y="926.8232">button: DigitalIn</text></g><g class="participant participant-head" data-entity-uid="part4" data-qualified-name="Thread" id="part4-head"><rect fill="#E3E3E3" height="30.2969" rx="2.5" ry="2.5" style="stroke:#181818;stroke-width:0.5;" width="91.8682" x="492.9663" y="5"/><text fill="#000000" font-family="sans-serif" font-size="14" lengthAdjust="spacing" textLength="77.8682" x="499.9663" y="24.9951">ThisThread</text></g><g class="participant participant-tail" data-entity-uid="part4" data-qualified-name="Thread" id="part4-tail"><rect fill="#E3E3E3" height="30.2969" rx="2.5" ry="2.5" style="stroke:#181818;stroke-width:0.5;" width="91.8682" x="492.9663" y="906.8281"/><text fill="#000000" font-family="sans-serif" font-size="14" lengthAdjust="spacing" textLength="77.8682" x="499.9663" y="926.8232">ThisThread</text></g><g><title>led. DigitalOut</title><rect fill="#FFFFFF" height="30" style="stroke:#181818;stroke-width:1;" width="10" x="282.5449" y="120.6953"/></g><g><title>led. DigitalOut</title><rect fill="#FFFFFF" height="30" style="stroke:#181818;stroke-width:1;" width="10" x="282.5449" y="814.6953"/></g><g><title>button. DigitalIn</title><rect fill="#FFFFFF" height="30" style="stroke:#181818;stroke-width:1;" width="10" x="414.0913" y="240.0938"/></g><g><title>button. DigitalIn</title><rect fill="#FFFFFF" height="30" style="stroke:#181818;stroke-width:1;" width="10" x="414.0913" y="440.8906"/></g><path d="M40,53.2969 L104.4429,53.2969 L104.4429,60.4297 L94.4429,70.4297 L40,70.4297 L40,53.2969" fill="#EEEEEE" style="stroke:#000000;stroke-width:1.5;"/><rect fill="none" height="105.3984" style="stroke:#000000;stroke-width:1.5;" width="315.2163" x="40" y="53.2969"/><text fill="#000000" font-family="sans-serif" font-size="13" font-weight="bold" lengthAdjust="spacing" textLength="19.4429" x="55" y="66.3638">alt</text><text fill="#000000" font-family="sans-serif" font-size="11" font-weight="bold" lengthAdjust="spacing" textLength="118.583" x="119.4429" y="65.5073">[[[d]efined(LED1)]]</text><g class="message" data-entity-1="part1" data-entity-2="part2" id="msg1"><polygon fill="#181818" points="275.5449,87.5625,285.5449,91.5625,275.5449,95.5625,279.5449,91.5625" style="stroke:#181818;stroke-width:1;"/><line style="stroke:#181818;stroke-width:1;" x1="79.9517" x2="281.5449" y1="91.5625" y2="91.5625"/><text fill="#000000" font-family="sans-serif" font-size="13" lengthAdjust="spacing" textLength="137.7378" x="86.9517" y="86.4966">DigitalOut(led, LED1)</text></g><g class="message" data-entity-1="part1" data-entity-2="part2" id="msg2"><polygon fill="#181818" points="270.5449,116.6953,280.5449,120.6953,270.5449,124.6953,274.5449,120.6953" style="stroke:#181818;stroke-width:1;"/><line style="stroke:#181818;stroke-width:1;" x1="79.9517" x2="276.5449" y1="120.6953" y2="120.6953"/><text fill="#000000" font-family="sans-serif" font-size="13" lengthAdjust="spacing" textLength="39.7046" x="86.9517" y="115.6294">read()</text></g><path d="M40,172.6953 L104.4429,172.6953 L104.4429,179.8281 L94.4429,189.8281 L40,189.8281 L40,172.6953" fill="#EEEEEE" style="stroke:#000000;stroke-width:1.5;"/><rect fill="none" height="105.3984" style="stroke:#000000;stroke-width:1.5;" width="452.9663" x="40" y="172.6953"/><text fill="#000000" font-family="sans-serif" font-size="13" font-weight="bold" lengthAdjust="spacing" textLength="19.4429" x="55" y="185.7622">alt</text><text fill="#000000" font-family="sans-serif" font-size="11" font-weight="bold" lengthAdjust="spacing" textLength="145.8091" x="119.4429" y="184.9058">[[[d]efined(BUTTON1)]]</text><g class="message" data-entity-1="part1" data-entity-2="part3" id="msg3"><polygon fill="#181818" points="407.0913,206.9609,417.0913,210.9609,407.0913,214.9609,411.0913,210.9609" style="stroke:#181818;stroke-width:1;"/><line style="stroke:#181818;stroke-width:1;" x1="79.9517" x2="413.0913" y1="210.9609" y2="210.9609"/><text fill="#000000" font-family="sans-serif" font-size="13" lengthAdjust="spacing" textLength="227.3984" x="86.9517" y="205.895">DigitalIn(button, BUTTON1, PullUp)</text></g><g class="message" data-entity-1="part1" data-entity-2="part3" id="msg4"><polygon fill="#181818" points="402.0913,236.0938,412.0913,240.0938,402.0913,244.0938,406.0913,240.0938" style="stroke:#181818;stroke-width:1;"/><line style="stroke:#181818;stroke-width:1;" x1="79.9517" x2="408.0913" y1="240.0938" y2="240.0938"/><text fill="#000000" font-family="sans-serif" font-size="13" lengthAdjust="spacing" textLength="39.7046" x="86.9517" y="235.0278">read()</text></g><path d="M10,292.0938 L86.624,292.0938 L86.624,299.2266 L76.624,309.2266 L10,309.2266 L10,292.0938" fill="#EEEEEE" style="stroke:#000000;stroke-width:1.5;"/><rect fill="none" height="598.7344" style="stroke:#000000;stroke-width:1.5;" width="780.9619" x="10" y="292.0938"/><text fill="#000000" font-family="sans-serif" font-size="13" font-weight="bold" lengthAdjust="spacing" textLength="31.624" x="25" y="305.1606">loop</text><text fill="#000000" font-family="sans-serif" font-size="11" font-weight="bold" lengthAdjust="spacing" textLength="56.1387" x="101.624" y="304.3042">[[[t]rue]]</text><path d="M60,316.2266 L129.4512,316.2266 L129.4512,323.3594 L119.4512,333.3594 L60,333.3594 L60,316.2266" fill="#EEEEEE" style="stroke:#000000;stroke-width:1.5;"/><rect fill="none" height="17.1328" style="stroke:#000000;stroke-width:1.5;" width="171.9727" x="60" y="316.2266"/><text fill="#000000" font-family="sans-serif" font-size="13" font-weight="bold" lengthAdjust="spacing" textLength="24.4512" x="75" y="329.2935">opt</text><a href="!loop_started" target="_top" title="!loop_started" xlink:actuate="onRequest" xlink:href="!loop_started" xlink:show="new" xlink:title="!loop_started" xlink:type="simple"><text fill="#1D1D1D" font-family="sans-serif" font-size="11" font-weight="bold" lengthAdjust="spacing" text-decoration="underline" textLength="82.5215" x="144.4512" y="328.437">!loop_started</text></a><path d="M60,347.3594 L124.4429,347.3594 L124.4429,354.4922 L114.4429,364.4922 L60,364.4922 L60,347.3594" fill="#EEEEEE" style="stroke:#000000;stroke-width:1.5;"/><rect fill="none" height="17.1328" style="stroke:#000000;stroke-width:1.5;" width="260.5986" x="60" y="347.3594"/><text fill="#000000" font-family="sans-serif" font-size="13" font-weight="bold" lengthAdjust="spacing" textLength="19.4429" x="75" y="360.4263">alt</text><text fill="#000000" font-family="sans-serif" font-size="11" font-weight="bold" lengthAdjust="spacing" textLength="176.1558" x="139.4429" y="359.5698">[[[b]utton_press_count &gt; 0]]</text><path d="M20,378.4922 L84.4429,378.4922 L84.4429,385.625 L74.4429,395.625 L20,395.625 L20,378.4922" fill="#EEEEEE" style="stroke:#000000;stroke-width:1.5;"/><rect fill="none" height="383.9375" style="stroke:#000000;stroke-width:1.5;" width="760.9619" x="20" y="378.4922"/><text fill="#000000" font-family="sans-serif" font-size="13" font-weight="bold" lengthAdjust="spacing" textLength="19.4429" x="35" y="391.5591">alt</text><path d="M30,402.625 L94.4429,402.625 L94.4429,409.7578 L84.4429,419.7578 L30,419.7578 L30,402.625" fill="#EEEEEE" style="stroke:#000000;stroke-width:1.5;"/><rect fill="none" height="352.8047" style="stroke:#000000;stroke-width:1.5;" width="740.9619" x="30" y="402.625"/><text fill="#000000" font-family="sans-serif" font-size="13" font-weight="bold" lengthAdjust="spacing" textLength="19.4429" x="45" y="415.6919">alt</text><text fill="#000000" font-family="sans-serif" font-size="11" font-weight="bold" lengthAdjust="spacing" textLength="261.0728" x="109.4429" y="414.8354">[[[d]efined(LED1) &amp;&amp; defined(BUTTON1)]]</text><g class="message" data-entity-1="part1" data-entity-2="part3" id="msg5"><polygon fill="#181818" points="402.0913,436.8906,412.0913,440.8906,402.0913,444.8906,406.0913,440.8906" style="stroke:#181818;stroke-width:1;"/><line style="stroke:#181818;stroke-width:1;" x1="79.9517" x2="408.0913" y1="440.8906" y2="440.8906"/><text fill="#000000" font-family="sans-serif" font-size="13" lengthAdjust="spacing" textLength="39.7046" x="86.9517" y="435.8247">read()</text></g><g class="message" data-entity-1="part1" data-entity-2="part2" id="msg6"><polygon fill="#181818" points="275.5449,496.0234,285.5449,500.0234,275.5449,504.0234,279.5449,500.0234" style="stroke:#181818;stroke-width:1;"/><line style="stroke:#181818;stroke-width:1;" x1="79.9517" x2="281.5449" y1="500.0234" y2="500.0234"/><text fill="#000000" font-family="sans-serif" font-size="13" lengthAdjust="spacing" textLength="183.5933" x="86.9517" y="494.9575">set_led1_state(led, pressed)</text></g><path d="M60,515.0234 L124.4429,515.0234 L124.4429,522.1563 L114.4429,532.1563 L60,532.1563 L60,515.0234" fill="#EEEEEE" style="stroke:#000000;stroke-width:1.5;"/><rect fill="none" height="17.1328" style="stroke:#000000;stroke-width:1.5;" width="303.981" x="60" y="515.0234"/><text fill="#000000" font-family="sans-serif" font-size="13" font-weight="bold" lengthAdjust="spacing" textLength="19.4429" x="75" y="528.0903">alt</text><text fill="#000000" font-family="sans-serif" font-size="11" font-weight="bold" lengthAdjust="spacing" textLength="219.5381" x="139.4429" y="527.2339">[[[p]ressed &amp;&amp; !previous_pressed]]</text><g class="message" data-entity-1="part4" data-entity-2="part4" id="msg7"><line style="stroke:#181818;stroke-width:1;" x1="538.9004" x2="580.9004" y1="560.2891" y2="560.2891"/><line style="stroke:#181818;stroke-width:1;" x1="580.9004" x2="580.9004" y1="560.2891" y2="573.2891"/><line style="stroke:#181818;stroke-width:1;" x1="539.9004" x2="580.9004" y1="573.2891" y2="573.2891"/><polygon fill="#181818" points="549.9004,569.2891,539.9004,573.2891,549.9004,577.2891,545.9004,573.2891" style="stroke:#181818;stroke-width:1;"/><text fill="#000000" font-family="sans-serif" font-size="13" lengthAdjust="spacing" textLength="203.0615" x="545.9004" y="555.2231">sleep_for(BUTTON_POLL_RATE)</text></g><line style="stroke:#000000;stroke-width:1;stroke-dasharray:2,2;" x1="30" x2="770.9619" y1="582.2891" y2="582.2891"/><a href="(true)" target="_top" title="(true)" xlink:actuate="onRequest" xlink:href="(true)" xlink:show="new" xlink:title="(true)" xlink:type="simple"><text fill="#1D1D1D" font-family="sans-serif" font-size="11" font-weight="bold" lengthAdjust="spacing" text-decoration="underline" textLength="36.0293" x="35" y="592.4995">(true)</text></a><path d="M40,603.0938 L104.4429,603.0938 L104.4429,610.2266 L94.4429,620.2266 L40,620.2266 L40,603.0938" fill="#EEEEEE" style="stroke:#000000;stroke-width:1.5;"/><rect fill="none" height="145.3359" style="stroke:#000000;stroke-width:1.5;" width="720.9619" x="40" y="603.0938"/><text fill="#000000" font-family="sans-serif" font-size="13" font-weight="bold" lengthAdjust="spacing" textLength="19.4429" x="55" y="616.1606">alt</text><text fill="#000000" font-family="sans-serif" font-size="11" font-weight="bold" lengthAdjust="spacing" textLength="118.583" x="119.4429" y="615.3042">[[[d]efined(LED1)]]</text><g class="message" data-entity-1="part1" data-entity-2="part2" id="msg8"><polygon fill="#181818" points="275.5449,637.3594,285.5449,641.3594,275.5449,645.3594,279.5449,641.3594" style="stroke:#181818;stroke-width:1;"/><line style="stroke:#181818;stroke-width:1;" x1="79.9517" x2="281.5449" y1="641.3594" y2="641.3594"/><text fill="#000000" font-family="sans-serif" font-size="13" lengthAdjust="spacing" textLength="95.8813" x="86.9517" y="636.2935">blink_led1(led)</text></g><g class="message" data-entity-1="part4" data-entity-2="part4" id="msg9"><line style="stroke:#181818;stroke-width:1;" x1="538.9004" x2="580.9004" y1="670.4922" y2="670.4922"/><line style="stroke:#181818;stroke-width:1;" x1="580.9004" x2="580.9004" y1="670.4922" y2="683.4922"/><line style="stroke:#181818;stroke-width:1;" x1="539.9004" x2="580.9004" y1="683.4922" y2="683.4922"/><polygon fill="#181818" points="549.9004,679.4922,539.9004,683.4922,549.9004,687.4922,545.9004,683.4922" style="stroke:#181818;stroke-width:1;"/><text fill="#000000" font-family="sans-serif" font-size="13" lengthAdjust="spacing" textLength="171.6089" x="545.9004" y="665.4263">sleep_for(BLINKING_RATE)</text></g><line style="stroke:#000000;stroke-width:1;stroke-dasharray:2,2;" x1="40" x2="760.9619" y1="692.4922" y2="692.4922"/><a href="(true)" target="_top" title="(true)" xlink:actuate="onRequest" xlink:href="(true)" xlink:show="new" xlink:title="(true)" xlink:type="simple"><text fill="#1D1D1D" font-family="sans-serif" font-size="11" font-weight="bold" lengthAdjust="spacing" text-decoration="underline" textLength="36.0293" x="45" y="702.7026">(true)</text></a><g class="message" data-entity-1="part4" data-entity-2="part4" id="msg10"><line style="stroke:#181818;stroke-width:1;" x1="538.9004" x2="580.9004" y1="727.4297" y2="727.4297"/><line style="stroke:#181818;stroke-width:1;" x1="580.9004" x2="580.9004" y1="727.4297" y2="740.4297"/><line style="stroke:#181818;stroke-width:1;" x1="539.9004" x2="580.9004" y1="740.4297" y2="740.4297"/><polygon fill="#181818" points="549.9004,736.4297,539.9004,740.4297,549.9004,744.4297,545.9004,740.4297" style="stroke:#181818;stroke-width:1;"/><text fill="#000000" font-family="sans-serif" font-size="13" lengthAdjust="spacing" textLength="203.0615" x="545.9004" y="722.3638">sleep_for(BUTTON_POLL_RATE)</text></g><path d="M40,776.4297 L104.4429,776.4297 L104.4429,783.5625 L94.4429,793.5625 L40,793.5625 L40,776.4297" fill="#EEEEEE" style="stroke:#000000;stroke-width:1.5;"/><rect fill="none" height="107.3984" style="stroke:#000000;stroke-width:1.5;" width="389.9907" x="40" y="776.4297"/><text fill="#000000" font-family="sans-serif" font-size="13" font-weight="bold" lengthAdjust="spacing" textLength="19.4429" x="55" y="789.4966">alt</text><text fill="#000000" font-family="sans-serif" font-size="11" font-weight="bold" lengthAdjust="spacing" textLength="118.583" x="119.4429" y="788.6401">[[[d]efined(LED1)]]</text><g class="message" data-entity-1="part1" data-entity-2="part2" id="msg11"><polygon fill="#181818" points="270.5449,810.6953,280.5449,814.6953,270.5449,818.6953,274.5449,814.6953" style="stroke:#181818;stroke-width:1;"/><line style="stroke:#181818;stroke-width:1;" x1="79.9517" x2="276.5449" y1="814.6953" y2="814.6953"/><text fill="#000000" font-family="sans-serif" font-size="13" lengthAdjust="spacing" textLength="39.7046" x="86.9517" y="809.6294">read()</text></g><path d="M60,859.6953 L124.4429,859.6953 L124.4429,866.8281 L114.4429,876.8281 L60,876.8281 L60,859.6953" fill="#EEEEEE" style="stroke:#000000;stroke-width:1.5;"/><rect fill="none" height="17.1328" style="stroke:#000000;stroke-width:1.5;" width="359.9907" x="60" y="859.6953"/><text fill="#000000" font-family="sans-serif" font-size="13" font-weight="bold" lengthAdjust="spacing" textLength="19.4429" x="75" y="872.7622">alt</text><text fill="#000000" font-family="sans-serif" font-size="11" font-weight="bold" lengthAdjust="spacing" textLength="275.5479" x="139.4429" y="871.9058">[[[c]urrent_led_state != previous_led_state]]</text><?plantuml-src bLDDQyCm3BtdLwWzb0GwMA-33JPMHbdMZf6TYWbkegwcZXrYPxz__aXAqpg52K9a-Lb-JxBKaOcQDhI2IWfP71fP8UYcnSX4DIjOJOM6QKMPY9CfK0KVnXrkSYmVu9NzC4tvfjKEbM8v1ErQhQKuuLR2mLvST8ZC3anbXmPfwI3UZIBADMot9S4z4rZ6wV9raP08Z5b6SFTaxuHp8h4XDWS73E1irjXlq4ApNwhHiRQ14WSX5DVtltndsMPzIS7hWJEPiHS-X-x073vRph_h97mknAehqWMnBkguSIbhGquJqpWIoTemdTXOhhIfB9R4mRo27N47yxf1fV92jgRcJt3lTLZheC62msncE8GgqDijHRs5bFLshJ2KtRTGeSvDZnTMfaRVRYSBowIZNnE_jiGdPk-NoLRb7MZ8lDT-llQFpzxOUUPIZbZdUzbq1SW_DscQVprdooH2hX2siPqVKvRn5pikQSUPE3fHLavoXRvDA5sjtrVhjo2R_sMwaZPMfTuFpSY5uj7v2yvWO0vz-eAqJOF2jTvt7YQFSEhjAKg2dEtVV7y0?></g></svg>