<?plantuml 1.2026.1?><svg xmlns="http://www.w3.org/2000/svg" xmlns:xlink="http://www.w3.org/1999/xlink" contentStyleType="text/css" data-diagram-type="SEQUENCE" height="959px" preserveAspectRatio="none" style="width:756px;height:959px;background:#FFFFFF;" version="1.1" viewBox="0 0 756 959" width="756px" zoomAndPan="magnify"><defs/><g><g><title>led. DigitalOut</title><rect fill="#FFFFFF" height="30" style="stroke:#181818;stroke-width:1;" width="10" x="262.5449" y="120.6953"/></g><g><title>led. DigitalOut</title><rect fill="#FFFFFF" height="30" style="stroke:#181818;stroke-width:1;" width="10" x="262.5449" y="831.5"/></g><g><title>button. DigitalIn</title><rect fill="#FFFFFF" height="30" style="stroke:#181818;stroke-width:1;" width="10" x="394.0913" y="286.0313"/></g><g><title>button. DigitalIn</title><rect fill="#FFFFFF" height="30" style="stroke:#181818;stroke-width:1;" width="10" x="394.0913" y="508.6328"/></g><rect fill="none" height="151.3359" style="stroke:#000000;stroke-width:1.5;" width="315.2163" x="20" y="53.2969"/><rect fill="none" height="31.9375" style="stroke:#000000;stroke-width:1.5;" width="166.7173" x="40" y="165.6953"/><rect fill="none" height="151.3359" style="stroke:#000000;stroke-width:1.5;" width="452.9663" x="20" y="218.6328"/><rect fill="none" height="31.9375" style="stroke:#000000;stroke-width:1.5;" width="166.7173" x="40" y="331.0313"/><rect fill="none" height="523.6641" style="stroke:#000000;stroke-width:1.5;" width="740.9619" x="10" y="383.9688"/><rect fill="none" height="17.1328" style="stroke:#000000;stroke-width:1.5;" width="171.9727" x="40" y="408.1016"/><rect fill="none" height="17.1328" style="stroke:#000000;stroke-width:1.5;" width="260.5986" x="40" y="439.2344"/><rect fill="none" height="308.8672" style="stroke:#000000;stroke-width:1.5;" width="720.9619" x="20" y="470.3672"/><rect fill="none" height="17.1328" style="stroke:#000000;stroke-width:1.5;" width="303.981" x="40" y="582.7656"/><rect fill="none" height="107.3984" style="stroke:#000000;stroke-width:1.5;" width="389.9907" x="20" y="793.2344"/><rect fill="none" height="17.1328" style="stroke:#000000;stroke-width:1.5;" width="359.9907" x="40" y="876.5"/><g class="participant-lifeline" data-entity-uid="part1" data-qualified-name="Main" id="part1-lifeline"><g><title>main..</title><rect fill="#000000" fill-opacity="0.00000" height="888.3359" width="8" x="55.9517" y="36.2969"/><line style="stroke:#181818;stroke-width:0.5;stroke-dasharray:5,5;" x1="59" x2="59" y1="36.2969" y2="924.6328"/></g></g><g class="participant-lifeline" data-entity-uid="part2" data-qualified-name="Led" id="part2-lifeline"><g><title>led. DigitalOut</title><rect fill="#000000" fill-opacity="0.00000" height="888.3359" width="8" x="263.5449" y="36.2969"/><line style="stroke:#181818;stroke-width:0.5;stroke-dasharray:5,5;" x1="266.8735" x2="266.8735" y1="36.2969" y2="924.6328"/></g></g><g class="participant-lifeline" data-entity-uid="part3" data-qualified-name="Button" id="part3-lifeline"><g><title>button. DigitalIn</title><rect fill="#000000" fill-opacity="0.00000" height="888.3359" width="8" x="395.0913" y="36.2969"/><line style="stroke:#181818;stroke-width:0.5;stroke-dasharray:5,5;" x1="398.2163" x2="398.2163" y1="36.2969" y2="924.6328"/></g></g><g class="participant-lifeline" data-entity-uid="part4" data-qualified-name="Thread" id="part4-lifeline"><g><title>ThisThread</title><rect fill="#000000" fill-opacity="0.00000" height="888.3359" width="8" x="514.9004" y="36.2969"/><line style="stroke:#181818;stroke-width:0.5;stroke-dasharray:5,5;" x1="517.9663" x2="517.9663" y1="36.2969" y2="924.6328"/></g></g><g class="participant participant-head" data-entity-uid="part1" data-qualified-name="Main" id="part1-head"><rect fill="#E3E3E3" height="30.2969" rx="2.5" ry="2.5" style="stroke:#181818;stroke-width:0.5;" width="59.9033" x="30" y="5"/><text fill="#000000" font-family="sans-serif" font-size="14" lengthAdjust="spacing" textLength="45.9033" x="37" y="24.9951">main()</text></g><g class="participant participant-tail" data-entity-uid="part1" data-qualified-name="Main" id="part1-tail"><rect fill="#E3E3E3" height="30.2969" rx="2.5" ry="2.5" style="stroke:#181818;stroke-width:0.5;" width="59.9033" x="30" y="923.6328"/><text fill="#000000" font-family="sans-serif" font-size="14" lengthAdjust="spacing" textLength="45.9033" x="37" y="943.6279">main()</text></g><g class="participant participant-head" data-entity-uid="part2" data-qualified-name="Led" id="part2-head"><rect fill="#E3E3E3" height="30.2969" rx="2.5" ry="2.5" style="stroke:#181818;stroke-width:0.5;" width="115.3428" x="209.8735" y="5"/><text fill="#000000" font-family="sans-serif" font-size="14" lengthAdjust="spacing" textLength="101.3428" x="216.8735" y="24.9951">led: DigitalOut</text></g><g class="participant participant-tail" data-entity-uid="part2" data-qualified-name="Led" id="part2-tail"><rect fill="#E3E3E3" height="30.2969" rx="2.5" ry="2.5" style="stroke:#181818;stroke-width:0.5;" width="115.3428" x="209.8735" y="923.6328"/><text fill="#000000" font-family="sans-serif" font-size="14" lengthAdjust="spacing" textLength="101.3428" x="216.8735" y="943.6279">led: DigitalOut</text></g><g class="participant participant-head" data-entity-uid="part3" data-qualified-name="Button" id="part3-head"><rect fill="#E3E3E3" height="30.2969" rx="2.5" ry="2.5" style="stroke:#181818;stroke-width:0.5;" width="127.75" x="335.2163" y="5"/><text fill="#000000" font-family="sans-serif" font-size="14" lengthAdjust="spacing" textLength="113.75" x="342.2163" y="24.9951">button: DigitalIn</text></g><g class="participant participant-tail" data-entity-uid="part3" data-qualified-name="Button" id="part3-tail"><rect fill="#E3E3E3" height="30.2969" rx="2.5" ry="2.5" style="stroke:#181818;stroke-width:0.5;" width="127.75" x="335.2163" y="923.6328"/><text fill="#000000" font-family="sans-serif" font-size="14" lengthAdjust="spacing" textLength="113.75" x="342.2163" y="943.6279">button: DigitalIn</text></g><g class="participant participant-head" data-entity-uid="part4" data-qualified-name="Thread" id="part4-head"><rect fill="#E3E3E3" height="30.2969" rx="2.5" ry="2.5" style="stroke:#181818;stroke-width:0.5;" width="91.8682" x="472.9663" y="5"/><text fill="#000000" font-family="sans-serif" font-size="14" lengthAdjust="spacing" textLength="77.8682" x="479.9663" y="24.9951">ThisThread</text></g><g class="participant participant-tail" data-entity-uid="part4" data-qualified-name="Thread" id="part4-tail"><rect fill="#E3E3E3" height="30.2969" rx="2.5" ry="2.5" style="stroke:#181818;stroke-width:0.5;" width="91.8682" x="472.9663" y="923.6328"/><text fill="#000000" font-family="sans-serif" font-size="14" lengthAdjust="spacing" textLength="77.8682" x="479.9663" y="943.6279">ThisThread</text></g><g><title>led. DigitalOut</title><rect fill="#FFFFFF" height="30" style="stroke:#181818;stroke-width:1;" width="10" x="262.5449" y="120.6953"/></g><g><title>led. DigitalOut</title><rect fill="#FFFFFF" height="30" style="stroke:#181818;stroke-width:1;" width="10" x="262.5449" y="831.5"/></g><g><title>button. DigitalIn</title><rect fill="#FFFFFF" height="30" style="stroke:#181818;stroke-width:1;" width="10" x="394.0913" y="286.0313"/></g><g><title>button. DigitalIn</title><rect fill="#FFFFFF" height="30" style="stroke:#181818;stroke-width:1;" width="10" x="394.0913" y="508.6328"/></g><path d="M20,53.2969 L84.4429,53.2969 L84.4429,60.4297 L74.4429,70.4297 L20,70.4297 L20,53.2969" fill="#EEEEEE" style="stroke:#000000;stroke-width:1.5;"/><rect fill="none" height="151.3359" style="stroke:#000000;stroke-width:1.5;" width="315.2163" x="20" y="53.2969"/><text fill="#000000" font-family="sans-serif" font-size="13" font-weight="bold" lengthAdjust="spacing" textLength="19.4429" x="35" y="66.3638">alt</text><text fill="#000000" font-family="sans-serif" font-size="11" font-weight="bold" lengthAdjust="spacing" textLength="118.583" x="99.4429" y="65.5073">[[[d]efined(LED1)]]</text><g class="message" data-entity-1="part1" data-entity-2="part2" id="msg1"><polygon fill="#181818" points="255.5449,87.5625,265.5449,91.5625,255.5449,95.5625,259.5449,91.5625" style="stroke:#181818;stroke-width:1;"/><line style="stroke:#181818;stroke-width:1;" x1="59.9517" x2="261.5449" y1="91.5625" y2="91.5625"/><text fill="#000000" font-family="sans-serif" font-size="13" lengthAdjust="spacing" textLength="133.6055" x="66.9517" y="86.4966">DigitalOut led(LED1)</text></g><g class="message" data-entity-1="part1" data-entity-2="part2" id="msg2"><polygon fill="#181818" points="250.5449,116.6953,260.5449,120.6953,250.5449,124.6953,254.5449,120.6953" style="stroke:#181818;stroke-width:1;"/><line style="stroke:#181818;stroke-width:1;" x1="59.9517" x2="256.5449" y1="120.6953" y2="120.6953"/><text fill="#000000" font-family="sans-serif" font-size="13" lengthAdjust="spacing" textLength="39.7046" x="66.9517" y="115.6294">read()</text></g><path d="M40,165.6953 L104.4429,165.6953 L104.4429,172.8281 L94.4429,182.8281 L40,182.8281 L40,165.6953" fill="#EEEEEE" style="stroke:#000000;stroke-width:1.5;"/><rect fill="none" height="31.9375" style="stroke:#000000;stroke-width:1.5;" width="166.7173" x="40" y="165.6953"/><text fill="#000000" font-family="sans-serif" font-size="13" font-weight="bold" lengthAdjust="spacing" textLength="19.4429" x="55" y="178.7622">alt</text><text fill="#000000" font-family="sans-serif" font-size="11" font-weight="bold" lengthAdjust="spacing" textLength="82.2744" x="119.4429" y="177.9058">[[[v]al == 1]]</text><line style="stroke:#000000;stroke-width:1;stroke-dasharray:2,2;" x1="40" x2="206.7173" y1="183.8281" y2="183.8281"/><a href="(val" target="_top" title="(val" xlink:actuate="onRequest" xlink:href="(val" xlink:show="new" xlink:title="(val" xlink:type="simple"><text fill="#1D1D1D" font-family="sans-serif" font-size="11" font-weight="bold" lengthAdjust="spacing" text-decoration="underline" textLength="34.9443" x="45" y="194.0386">== 0)</text></a><path d="M20,218.6328 L84.4429,218.6328 L84.4429,225.7656 L74.4429,235.7656 L20,235.7656 L20,218.6328" fill="#EEEEEE" style="stroke:#000000;stroke-width:1.5;"/><rect fill="none" height="151.3359" style="stroke:#000000;stroke-width:1.5;" width="452.9663" x="20" y="218.6328"/><text fill="#000000" font-family="sans-serif" font-size="13" font-weight="bold" lengthAdjust="spacing" textLength="19.4429" x="35" y="231.6997">alt</text><text fill="#000000" font-family="sans-serif" font-size="11" font-weight="bold" lengthAdjust="spacing" textLength="145.8091" x="99.4429" y="230.8433">[[[d]efined(BUTTON1)]]</text><g class="message" data-entity-1="part1" data-entity-2="part3" id="msg3"><polygon fill="#181818" points="387.0913,252.8984,397.0913,256.8984,387.0913,260.8984,391.0913,256.8984" style="stroke:#181818;stroke-width:1;"/><line style="stroke:#181818;stroke-width:1;" x1="59.9517" x2="393.0913" y1="256.8984" y2="256.8984"/><text fill="#000000" font-family="sans-serif" font-size="13" lengthAdjust="spacing" textLength="223.2661" x="66.9517" y="251.8325">DigitalIn button(BUTTON1, PullUp)</text></g><g class="message" data-entity-1="part1" data-entity-2="part3" id="msg4"><polygon fill="#181818" points="382.0913,282.0313,392.0913,286.0313,382.0913,290.0313,386.0913,286.0313" style="stroke:#181818;stroke-width:1;"/><line style="stroke:#181818;stroke-width:1;" x1="59.9517" x2="388.0913" y1="286.0313" y2="286.0313"/><text fill="#000000" font-family="sans-serif" font-size="13" lengthAdjust="spacing" textLength="39.7046" x="66.9517" y="280.9653">read()</text></g><path d="M40,331.0313 L104.4429,331.0313 L104.4429,338.1641 L94.4429,348.1641 L40,348.1641 L40,331.0313" fill="#EEEEEE" style="stroke:#000000;stroke-width:1.5;"/><rect fill="none" height="31.9375" style="stroke:#000000;stroke-width:1.5;" width="166.7173" x="40" y="331.0313"/><text fill="#000000" font-family="sans-serif" font-size="13" font-weight="bold" lengthAdjust="spacing" textLength="19.4429" x="55" y="344.0981">alt</text><text fill="#000000" font-family="sans-serif" font-size="11" font-weight="bold" lengthAdjust="spacing" textLength="82.2744" x="119.4429" y="343.2417">[[[v]al == 0]]</text><line style="stroke:#000000;stroke-width:1;stroke-dasharray:2,2;" x1="40" x2="206.7173" y1="349.1641" y2="349.1641"/><a href="(val" target="_top" title="(val" xlink:actuate="onRequest" xlink:href="(val" xlink:show="new" xlink:title="(val" xlink:type="simple"><text fill="#1D1D1D" font-family="sans-serif" font-size="11" font-weight="bold" lengthAdjust="spacing" text-decoration="underline" textLength="34.9443" x="45" y="359.3745">== 1)</text></a><path d="M10,383.9688 L86.624,383.9688 L86.624,391.1016 L76.624,401.1016 L10,401.1016 L10,383.9688" fill="#EEEEEE" style="stroke:#000000;stroke-width:1.5;"/><rect fill="none" height="523.6641" style="stroke:#000000;stroke-width:1.5;" width="740.9619" x="10" y="383.9688"/><text fill="#000000" font-family="sans-serif" font-size="13" font-weight="bold" lengthAdjust="spacing" textLength="31.624" x="25" y="397.0356">loop</text><text fill="#000000" font-family="sans-serif" font-size="11" font-weight="bold" lengthAdjust="spacing" textLength="56.1387" x="101.624" y="396.1792">[[[t]rue]]</text><path d="M40,408.1016 L109.4512,408.1016 L109.4512,415.2344 L99.4512,425.2344 L40,425.2344 L40,408.1016" fill="#EEEEEE" style="stroke:#000000;stroke-width:1.5;"/><rect fill="none" height="17.1328" style="stroke:#000000;stroke-width:1.5;" width="171.9727" x="40" y="408.1016"/><text fill="#000000" font-family="sans-serif" font-size="13" font-weight="bold" lengthAdjust="spacing" textLength="24.4512" x="55" y="421.1685">opt</text><a href="!loop_started" target="_top" title="!loop_started" xlink:actuate="onRequest" xlink:href="!loop_started" xlink:show="new" xlink:title="!loop_started" xlink:type="simple"><text fill="#1D1D1D" font-family="sans-serif" font-size="11" font-weight="bold" lengthAdjust="spacing" text-decoration="underline" textLength="82.5215" x="124.4512" y="420.312">!loop_started</text></a><path d="M40,439.2344 L104.4429,439.2344 L104.4429,446.3672 L94.4429,456.3672 L40,456.3672 L40,439.2344" fill="#EEEEEE" style="stroke:#000000;stroke-width:1.5;"/><rect fill="none" height="17.1328" style="stroke:#000000;stroke-width:1.5;" width="260.5986" x="40" y="439.2344"/><text fill="#000000" font-family="sans-serif" font-size="13" font-weight="bold" lengthAdjust="spacing" textLength="19.4429" x="55" y="452.3013">alt</text><text fill="#000000" font-family="sans-serif" font-size="11" font-weight="bold" lengthAdjust="spacing" textLength="176.1558" x="119.4429" y="451.4448">[[[b]utton_press_count &gt; 0]]</text><path d="M20,470.3672 L84.4429,470.3672 L84.4429,477.5 L74.4429,487.5 L20,487.5 L20,470.3672" fill="#EEEEEE" style="stroke:#000000;stroke-width:1.5;"/><rect fill="none" height="308.8672" style="stroke:#000000;stroke-width:1.5;" width="720.9619" x="20" y="470.3672"/><text fill="#000000" font-family="sans-serif" font-size="13" font-weight="bold" lengthAdjust="spacing" textLength="19.4429" x="35" y="483.4341">alt</text><text fill="#000000" font-family="sans-serif" font-size="11" font-weight="bold" lengthAdjust="spacing" textLength="261.0728" x="99.4429" y="482.5776">[[[d]efined(LED1) &amp;&amp; defined(BUTTON1)]]</text><g class="message" data-entity-1="part1" data-entity-2="part3" id="msg5"><polygon fill="#181818" points="382.0913,504.6328,392.0913,508.6328,382.0913,512.6328,386.0913,508.6328" style="stroke:#181818;stroke-width:1;"/><line style="stroke:#181818;stroke-width:1;" x1="59.9517" x2="388.0913" y1="508.6328" y2="508.6328"/><text fill="#000000" font-family="sans-serif" font-size="13" lengthAdjust="spacing" textLength="39.7046" x="66.9517" y="503.5669">read()</text></g><g class="message" data-entity-1="part1" data-entity-2="part2" id="msg6"><polygon fill="#181818" points="255.5449,563.7656,265.5449,567.7656,255.5449,571.7656,259.5449,567.7656" style="stroke:#181818;stroke-width:1;"/><line style="stroke:#181818;stroke-width:1;" x1="59.9517" x2="261.5449" y1="567.7656" y2="567.7656"/><text fill="#000000" font-family="sans-serif" font-size="13" lengthAdjust="spacing" textLength="183.5933" x="66.9517" y="562.6997">set_led1_state(led, pressed)</text></g><path d="M40,582.7656 L104.4429,582.7656 L104.4429,589.8984 L94.4429,599.8984 L40,599.8984 L40,582.7656" fill="#EEEEEE" style="stroke:#000000;stroke-width:1.5;"/><rect fill="none" height="17.1328" style="stroke:#000000;stroke-width:1.5;" width="303.981" x="40" y="582.7656"/><text fill="#000000" font-family="sans-serif" font-size="13" font-weight="bold" lengthAdjust="spacing" textLength="19.4429" x="55" y="595.8325">alt</text><text fill="#000000" font-family="sans-serif" font-size="11" font-weight="bold" lengthAdjust="spacing" textLength="219.5381" x="119.4429" y="594.9761">[[[p]ressed &amp;&amp; !previous_pressed]]</text><g class="message" data-entity-1="part4" data-entity-2="part4" id="msg7"><line style="stroke:#181818;stroke-width:1;" x1="518.9004" x2="560.9004" y1="628.0313" y2="628.0313"/><line style="stroke:#181818;stroke-width:1;" x1="560.9004" x2="560.9004" y1="628.0313" y2="641.0313"/><line style="stroke:#181818;stroke-width:1;" x1="519.9004" x2="560.9004" y1="641.0313" y2="641.0313"/><polygon fill="#181818" points="529.9004,637.0313,519.9004,641.0313,529.9004,645.0313,525.9004,641.0313" style="stroke:#181818;stroke-width:1;"/><text fill="#000000" font-family="sans-serif" font-size="13" lengthAdjust="spacing" textLength="203.0615" x="525.9004" y="622.9653">sleep_for(BUTTON_POLL_RATE)</text></g><line style="stroke:#000000;stroke-width:1;stroke-dasharray:2,2;" x1="20" x2="740.9619" y1="650.0313" y2="650.0313"/><a href="(defined(LED1))" target="_top" title="(defined(LED1))" xlink:actuate="onRequest" xlink:href="(defined(LED1))" xlink:show="new" xlink:title="(defined(LED1))" xlink:type="simple"><text fill="#1D1D1D" font-family="sans-serif" font-size="11" font-weight="bold" lengthAdjust="spacing" text-decoration="underline" textLength="98.4736" x="25" y="660.2417">(defined(LED1))</text></a><g class="message" data-entity-1="part1" data-entity-2="part2" id="msg8"><polygon fill="#181818" points="255.5449,680.9688,265.5449,684.9688,255.5449,688.9688,259.5449,684.9688" style="stroke:#181818;stroke-width:1;"/><line style="stroke:#181818;stroke-width:1;" x1="59.9517" x2="261.5449" y1="684.9688" y2="684.9688"/><text fill="#000000" font-family="sans-serif" font-size="13" lengthAdjust="spacing" textLength="95.8813" x="66.9517" y="679.9028">blink_led1(led)</text></g><g class="message" data-entity-1="part4" data-entity-2="part4" id="msg9"><line style="stroke:#181818;stroke-width:1;" x1="518.9004" x2="560.9004" y1="714.1016" y2="714.1016"/><line style="stroke:#181818;stroke-width:1;" x1="560.9004" x2="560.9004" y1="714.1016" y2="727.1016"/><line style="stroke:#181818;stroke-width:1;" x1="519.9004" x2="560.9004" y1="727.1016" y2="727.1016"/><polygon fill="#181818" points="529.9004,723.1016,519.9004,727.1016,529.9004,731.1016,525.9004,727.1016" style="stroke:#181818;stroke-width:1;"/><text fill="#000000" font-family="sans-serif" font-size="13" lengthAdjust="spacing" textLength="171.6089" x="525.9004" y="709.0356">sleep_for(BLINKING_RATE)</text></g><line style="stroke:#000000;stroke-width:1;stroke-dasharray:2,2;" x1="20" x2="740.9619" y1="736.1016" y2="736.1016"/><g class="message" data-entity-1="part4" data-entity-2="part4" id="msg10"><line style="stroke:#181818;stroke-width:1;" x1="518.9004" x2="560.9004" y1="758.2344" y2="758.2344"/><line style="stroke:#181818;stroke-width:1;" x1="560.9004" x2="560.9004" y1="758.2344" y2="771.2344"/><line style="stroke:#181818;stroke-width:1;" x1="519.9004" x2="560.9004" y1="771.2344" y2="771.2344"/><polygon fill="#181818" points="529.9004,767.2344,519.9004,771.2344,529.9004,775.2344,525.9004,771.2344" style="stroke:#181818;stroke-width:1;"/><text fill="#000000" font-family="sans-serif" font-size="13" lengthAdjust="spacing" textLength="203.0615" x="525.9004" y="753.1685">sleep_for(BUTTON_POLL_RATE)</text></g><path d="M20,793.2344 L84.4429,793.2344 L84.4429,800.3672 L74.4429,810.3672 L20,810.3672 L20,793.2344" fill="#EEEEEE" style="stroke:#000000;stroke-width:1.5;"/><rect fill="none" height="107.3984" style="stroke:#000000;stroke-width:1.5;" width="389.9907" x="20" y="793.2344"/><text fill="#000000" font-family="sans-serif" font-size="13" font-weight="bold" lengthAdjust="spacing" textLength="19.4429" x="35" y="806.3013">alt</text><text fill="#000000" font-family="sans-serif" font-size="11" font-weight="bold" lengthAdjust="spacing" textLength="118.583" x="99.4429" y="805.4448">[[[d]efined(LED1)]]</text><g class="message" data-entity-1="part1" data-entity-2="part2" id="msg11"><polygon fill="#181818" points="250.5449,827.5,260.5449,831.5,250.5449,835.5,254.5449,831.5" style="stroke:#181818;stroke-width:1;"/><line style="stroke:#181818;stroke-width:1;" x1="59.9517" x2="256.5449" y1="831.5" y2="831.5"/><text fill="#000000" font-family="sans-serif" font-size="13" lengthAdjust="spacing" textLength="39.7046" x="66.9517" y="826.4341">read()</text></g><path d="M40,876.5 L104.4429,876.5 L104.4429,883.6328 L94.4429,893.6328 L40,893.6328 L40,876.5" fill="#EEEEEE" style="stroke:#000000;stroke-width:1.5;"/><rect fill="none" height="17.1328" style="stroke:#000000;stroke-width:1.5;" width="359.9907" x="40" y="876.5"/><text fill="#000000" font-family="sans-serif" font-size="13" font-weight="bold" lengthAdjust="spacing" textLength="19.4429" x="55" y="889.5669">alt</text><text fill="#000000" font-family="sans-serif" font-size="11" font-weight="bold" lengthAdjust="spacing" textLength="275.5479" x="119.4429" y="888.7104">[[[c]urrent_led_state != previous_led_state]]</text><?plantuml-src dLFVIyCm47xlNt7pGLgOu5w52Gw73EicKfz6A5bpkc2Mb2RTtsz-j7EjhOg5mlNovUxxxhlg3ovBMj4379HKnRvI1mHJrHZPhE45BwaqS76WNCR91L0DJpRi7WfaDt3FtxcXObCRZqgHTK6xsXWbJxYLzB25ptQHsPxhR5yXPHuImYYYmi1somY-SOaiJfVtiuH4O1_72AvkNKyu9mAYnGt0ND4u7D32y2Crw4cx1CDEAdG-4YfWFeSPYL1eX6ry38dhXWPA5hctptJnccMRTPziK0vd0u4meXO_XUTQYDSo6RusnB-PPaz2a-sgkEwhcFLL2ALAUy4GkmmaKgMzFN6vN1lh5ZBYOQ7gZlWUULcXrdcXQklZhUlHLXnq3oulBS-X8VscU4priF9-nR006ark5sJcz1YCRJW5pnzPqj0jIVXsH2VsxCXLhVC6zCNK2MpZiAskInFPHWAnpDzKrOZCdpTfch_SPSkazO2TZsLW1e7nJd3vuJaxjiaVUwQhzUDg_N3MyBzaVpHpZFIOQ-s_Dlg_5QIkAfJUfE0HJEPmSk6K_Uv3kyAV?></g></svg>