<?plantuml 1.2026.1?><svg xmlns="http://www.w3.org/2000/svg" xmlns:xlink="http://www.w3.org/1999/xlink" contentStyleType="text/css" data-diagram-type="SEQUENCE" height="1411px" preserveAspectRatio="none" style="width:681px;height:1411px;background:#FFFFFF;" version="1.1" viewBox="0 0 681 1411" width="681px" zoomAndPan="magnify"><defs/><g><g><title>main</title><rect fill="#F8F8F8" height="1303.8516" style="stroke:#181818;stroke-width:1;" width="10" x="59.4897" y="90.5625"/></g><g><title>DigitalOut LED1</title><rect fill="#F8F8F8" height="1246.5859" style="stroke:#181818;stroke-width:1;" width="10" x="433.4004" y="148.8281"/></g><g><title>DigitalOut LED1</title><rect fill="#F8F8F8" height="30" style="stroke:#181818;stroke-width:1;" width="10" x="438.4004" y="776.6172"/></g><g><title>DigitalOut LED1</title><rect fill="#F8F8F8" height="30" style="stroke:#181818;stroke-width:1;" width="10" x="438.4004" y="1065.3516"/></g><g><title>DigitalIn BUTTON1</title><rect fill="#F8F8F8" height="1009.5234" style="stroke:#181818;stroke-width:1;" width="10" x="578.2905" y="385.8906"/></g><rect fill="none" height="223.0625" style="stroke:#000000;stroke-width:1.5;" width="491.1851" x="20" y="110.5625"/><rect fill="none" height="133.6641" style="stroke:#000000;stroke-width:1.5;" width="262.2529" x="30" y="192.9609"/><rect fill="none" height="104.5313" style="stroke:#000000;stroke-width:1.5;" width="635.396" x="30" y="347.625"/><rect fill="none" height="921.2578" style="stroke:#000000;stroke-width:1.5;" width="665.396" x="10" y="466.1563"/><rect fill="none" height="116.5313" style="stroke:#000000;stroke-width:1.5;" width="228.2603" x="30" y="490.2891"/><rect fill="none" height="74.3984" style="stroke:#000000;stroke-width:1.5;" width="408.4004" x="30" y="620.8203"/><rect fill="none" height="480.3984" style="stroke:#000000;stroke-width:1.5;" width="645.396" x="20" y="709.2188"/><rect fill="none" height="116.5313" style="stroke:#000000;stroke-width:1.5;" width="408.4004" x="30" y="821.6172"/><rect fill="none" height="176.7969" style="stroke:#000000;stroke-width:1.5;" width="491.1851" x="20" y="1203.6172"/><rect fill="none" height="116.5313" style="stroke:#000000;stroke-width:1.5;" width="339.8813" x="30" y="1256.8828"/><g class="participant-lifeline" data-entity-uid="part1" data-qualified-name="Main" id="part1-lifeline"><g><title>main</title><rect fill="#000000" fill-opacity="0.00000" height="1368.1172" width="8" x="60.4897" y="36.2969"/><line style="stroke:#000000;stroke-width:0.5;stroke-dasharray:5,5;" x1="64" x2="64" y1="36.2969" y2="1404.4141"/></g></g><g class="participant-lifeline" data-entity-uid="part2" data-qualified-name="LED1" id="part2-lifeline"><g><title>DigitalOut LED1</title><rect fill="#000000" fill-opacity="0.00000" height="1368.1172" width="8" x="434.4004" y="36.2969"/><line style="stroke:#000000;stroke-width:0.5;stroke-dasharray:5,5;" x1="437.6157" x2="437.6157" y1="36.2969" y2="1404.4141"/></g></g><g class="participant-lifeline" data-entity-uid="part3" data-qualified-name="Button" id="part3-lifeline"><g><title>DigitalIn BUTTON1</title><rect fill="#000000" fill-opacity="0.00000" height="1368.1172" width="8" x="579.2905" y="36.2969"/><line style="stroke:#000000;stroke-width:0.5;stroke-dasharray:5,5;" x1="583.1851" x2="583.1851" y1="36.2969" y2="1404.4141"/></g></g><g class="participant participant-head" data-entity-uid="part1" data-qualified-name="Main" id="part1-head"><rect fill="#E3E3E3" height="30.2969" rx="2.5" ry="2.5" style="stroke:#181818;stroke-width:0.5;" width="48.9795" x="40" y="5"/><text fill="#000000" font-family="Arial" font-size="14" lengthAdjust="spacing" textLength="34.9795" x="47" y="24.9951">main</text></g><g class="participant participant-head" data-entity-uid="part2" data-qualified-name="LED1" id="part2-head"><rect fill="#E3E3E3" height="30.2969" rx="2.5" ry="2.5" style="stroke:#181818;stroke-width:0.5;" width="125.5693" x="375.6157" y="5"/><text fill="#000000" font-family="Arial" font-size="14" lengthAdjust="spacing" textLength="111.5693" x="382.6157" y="24.9951">DigitalOut LED1</text></g><g class="participant participant-head" data-entity-uid="part3" data-qualified-name="Button" id="part3-head"><rect fill="#E3E3E3" height="30.2969" rx="2.5" ry="2.5" style="stroke:#181818;stroke-width:0.5;" width="144.2109" x="511.1851" y="5"/><text fill="#000000" font-family="Arial" font-size="14" lengthAdjust="spacing" textLength="130.2109" x="518.1851" y="24.9951">DigitalIn BUTTON1</text></g><g><title>main</title><rect fill="#F8F8F8" height="1303.8516" style="stroke:#181818;stroke-width:1;" width="10" x="59.4897" y="90.5625"/></g><g><title>DigitalOut LED1</title><rect fill="#F8F8F8" height="1246.5859" style="stroke:#181818;stroke-width:1;" width="10" x="433.4004" y="148.8281"/></g><g><title>DigitalOut LED1</title><rect fill="#F8F8F8" height="30" style="stroke:#181818;stroke-width:1;" width="10" x="438.4004" y="776.6172"/></g><g><title>DigitalOut LED1</title><rect fill="#F8F8F8" height="30" style="stroke:#181818;stroke-width:1;" width="10" x="438.4004" y="1065.3516"/></g><g><title>DigitalIn BUTTON1</title><rect fill="#F8F8F8" height="1009.5234" style="stroke:#181818;stroke-width:1;" width="10" x="578.2905" y="385.8906"/></g><g class="message" data-entity-1="part1" data-entity-2="part1" id="msg1"><line style="stroke:#181818;stroke-width:1;" x1="64.4897" x2="111.4897" y1="77.5625" y2="77.5625"/><line style="stroke:#181818;stroke-width:1;" x1="111.4897" x2="111.4897" y1="77.5625" y2="90.5625"/><line style="stroke:#181818;stroke-width:1;" x1="70.4897" x2="111.4897" y1="90.5625" y2="90.5625"/><polygon fill="#181818" points="80.4897,86.5625,70.4897,90.5625,80.4897,94.5625" style="stroke:#181818;stroke-width:1;"/><text fill="#000000" font-family="Arial" font-size="13" lengthAdjust="spacing" textLength="152.1978" x="76.4897" y="57.3638">printf("Program started</text><text fill="#000000" font-family="Arial" font-size="13" lengthAdjust="spacing" textLength="11.0513" x="76.4897" y="72.4966">")</text></g><path d="M20,110.5625 L84.4429,110.5625 L84.4429,117.6953 L74.4429,127.6953 L20,127.6953 L20,110.5625" fill="#EEEEEE" style="stroke:#000000;stroke-width:1.5;"/><rect fill="none" height="223.0625" style="stroke:#000000;stroke-width:1.5;" width="491.1851" x="20" y="110.5625"/><text fill="#000000" font-family="Arial" font-size="13" font-weight="bold" lengthAdjust="spacing" textLength="19.4429" x="35" y="123.6294">alt</text><text fill="#000000" font-family="Arial" font-size="11" font-weight="bold" lengthAdjust="spacing" textLength="98.4736" x="99.4429" y="122.7729">[defined(LED1)]</text><g class="message" data-entity-1="part1" data-entity-2="part2" id="msg2"><polygon fill="#181818" points="421.4004,144.8281,431.4004,148.8281,421.4004,152.8281" style="stroke:#181818;stroke-width:1;"/><line style="stroke:#181818;stroke-width:1;" x1="69.4897" x2="427.4004" y1="148.8281" y2="148.8281"/><text fill="#000000" font-family="Arial" font-size="13" lengthAdjust="spacing" textLength="133.6055" x="76.4897" y="143.7622">DigitalOut led(LED1)</text></g><g class="message" data-entity-1="part2" data-entity-2="part1" id="msg3"><polygon fill="#181818" points="80.4897,173.9609,70.4897,177.9609,80.4897,181.9609" style="stroke:#181818;stroke-width:1;"/><line style="stroke:#181818;stroke-width:1;stroke-dasharray:2,2;" x1="74.4897" x2="432.4004" y1="177.9609" y2="177.9609"/><text fill="#000000" font-family="Arial" font-size="13" lengthAdjust="spacing" textLength="247.2983" x="86.4897" y="172.895">previous_led_state = (led.read() != 0)</text></g><path d="M30,192.9609 L94.4429,192.9609 L94.4429,200.0938 L84.4429,210.0938 L30,210.0938 L30,192.9609" fill="#EEEEEE" style="stroke:#000000;stroke-width:1.5;"/><rect fill="none" height="133.6641" style="stroke:#000000;stroke-width:1.5;" width="262.2529" x="30" y="192.9609"/><text fill="#000000" font-family="Arial" font-size="13" font-weight="bold" lengthAdjust="spacing" textLength="19.4429" x="45" y="206.0278">alt</text><text fill="#000000" font-family="Arial" font-size="11" font-weight="bold" lengthAdjust="spacing" textLength="177.8101" x="109.4429" y="205.1714">[previous_led_state == true]</text><g class="message" data-entity-1="part1" data-entity-2="part1" id="msg4"><line style="stroke:#181818;stroke-width:1;" x1="69.4897" x2="111.4897" y1="246.3594" y2="246.3594"/><line style="stroke:#181818;stroke-width:1;" x1="111.4897" x2="111.4897" y1="246.3594" y2="259.3594"/><line style="stroke:#181818;stroke-width:1;" x1="70.4897" x2="111.4897" y1="259.3594" y2="259.3594"/><polygon fill="#181818" points="80.4897,255.3594,70.4897,259.3594,80.4897,263.3594" style="stroke:#181818;stroke-width:1;"/><text fill="#000000" font-family="Arial" font-size="13" lengthAdjust="spacing" textLength="164.0552" x="76.4897" y="226.1606">printf("LED1 starts as ON</text><text fill="#000000" font-family="Arial" font-size="13" lengthAdjust="spacing" textLength="11.0513" x="76.4897" y="241.2935">")</text></g><line style="stroke:#000000;stroke-width:1;stroke-dasharray:2,2;" x1="30" x2="292.2529" y1="268.3594" y2="268.3594"/><g class="message" data-entity-1="part1" data-entity-2="part1" id="msg5"><line style="stroke:#181818;stroke-width:1;" x1="69.4897" x2="111.4897" y1="305.625" y2="305.625"/><line style="stroke:#181818;stroke-width:1;" x1="111.4897" x2="111.4897" y1="305.625" y2="318.625"/><line style="stroke:#181818;stroke-width:1;" x1="70.4897" x2="111.4897" y1="318.625" y2="318.625"/><polygon fill="#181818" points="80.4897,314.625,70.4897,318.625,80.4897,322.625" style="stroke:#181818;stroke-width:1;"/><text fill="#000000" font-family="Arial" font-size="13" lengthAdjust="spacing" textLength="169.2856" x="76.4897" y="285.4263">printf("LED1 starts as OFF</text><text fill="#000000" font-family="Arial" font-size="13" lengthAdjust="spacing" textLength="11.0513" x="76.4897" y="300.5591">")</text></g><path d="M30,347.625 L94.4429,347.625 L94.4429,354.7578 L84.4429,364.7578 L30,364.7578 L30,347.625" fill="#EEEEEE" style="stroke:#000000;stroke-width:1.5;"/><rect fill="none" height="104.5313" style="stroke:#000000;stroke-width:1.5;" width="635.396" x="30" y="347.625"/><text fill="#000000" font-family="Arial" font-size="13" font-weight="bold" lengthAdjust="spacing" textLength="19.4429" x="45" y="360.6919">alt</text><text fill="#000000" font-family="Arial" font-size="11" font-weight="bold" lengthAdjust="spacing" textLength="125.6997" x="109.4429" y="359.8354">[defined(BUTTON1)]</text><g class="message" data-entity-1="part1" data-entity-2="part3" id="msg6"><polygon fill="#181818" points="566.2905,381.8906,576.2905,385.8906,566.2905,389.8906" style="stroke:#181818;stroke-width:1;"/><line style="stroke:#181818;stroke-width:1;" x1="69.4897" x2="572.2905" y1="385.8906" y2="385.8906"/><text fill="#000000" font-family="Arial" font-size="13" lengthAdjust="spacing" textLength="223.2661" x="76.4897" y="380.8247">DigitalIn button(BUTTON1, PullUp)</text></g><g class="message" data-entity-1="part3" data-entity-2="part1" id="msg7"><polygon fill="#181818" points="80.4897,411.0234,70.4897,415.0234,80.4897,419.0234" style="stroke:#181818;stroke-width:1;"/><line style="stroke:#181818;stroke-width:1;stroke-dasharray:2,2;" x1="74.4897" x2="577.2905" y1="415.0234" y2="415.0234"/><text fill="#000000" font-family="Arial" font-size="13" lengthAdjust="spacing" textLength="163.8394" x="86.4897" y="409.9575">previous_pressed = false</text></g><g class="message" data-entity-1="part3" data-entity-2="part1" id="msg8"><polygon fill="#181818" points="80.4897,440.1563,70.4897,444.1563,80.4897,448.1563" style="stroke:#181818;stroke-width:1;"/><line style="stroke:#181818;stroke-width:1;stroke-dasharray:2,2;" x1="74.4897" x2="577.2905" y1="444.1563" y2="444.1563"/><text fill="#000000" font-family="Arial" font-size="13" lengthAdjust="spacing" textLength="155.124" x="86.4897" y="439.0903">button_press_count = 0</text></g><path d="M10,466.1563 L86.624,466.1563 L86.624,473.2891 L76.624,483.2891 L10,483.2891 L10,466.1563" fill="#EEEEEE" style="stroke:#000000;stroke-width:1.5;"/><rect fill="none" height="921.2578" style="stroke:#000000;stroke-width:1.5;" width="665.396" x="10" y="466.1563"/><text fill="#000000" font-family="Arial" font-size="13" font-weight="bold" lengthAdjust="spacing" textLength="31.624" x="25" y="479.2231">loop</text><text fill="#000000" font-family="Arial" font-size="11" font-weight="bold" lengthAdjust="spacing" textLength="36.0293" x="101.624" y="478.3667">[true]</text><path d="M30,490.2891 L94.4429,490.2891 L94.4429,497.4219 L84.4429,507.4219 L30,507.4219 L30,490.2891" fill="#EEEEEE" style="stroke:#000000;stroke-width:1.5;"/><rect fill="none" height="116.5313" style="stroke:#000000;stroke-width:1.5;" width="228.2603" x="30" y="490.2891"/><text fill="#000000" font-family="Arial" font-size="13" font-weight="bold" lengthAdjust="spacing" textLength="19.4429" x="45" y="503.356">alt</text><text fill="#000000" font-family="Arial" font-size="11" font-weight="bold" lengthAdjust="spacing" textLength="92.5762" x="109.4429" y="502.4995">[!loop_started]</text><g class="message" data-entity-1="part1" data-entity-2="part1" id="msg9"><line style="stroke:#181818;stroke-width:1;" x1="69.4897" x2="111.4897" y1="543.6875" y2="543.6875"/><line style="stroke:#181818;stroke-width:1;" x1="111.4897" x2="111.4897" y1="543.6875" y2="556.6875"/><line style="stroke:#181818;stroke-width:1;" x1="70.4897" x2="111.4897" y1="556.6875" y2="556.6875"/><polygon fill="#181818" points="80.4897,552.6875,70.4897,556.6875,80.4897,560.6875" style="stroke:#181818;stroke-width:1;"/><text fill="#000000" font-family="Arial" font-size="13" lengthAdjust="spacing" textLength="159.7705" x="76.4897" y="523.4888">printf("Main loop started</text><text fill="#000000" font-family="Arial" font-size="13" lengthAdjust="spacing" textLength="11.0513" x="76.4897" y="538.6216">")</text></g><g class="message" data-entity-1="part1" data-entity-2="part1" id="msg10"><line style="stroke:#181818;stroke-width:1;" x1="69.4897" x2="111.4897" y1="585.8203" y2="585.8203"/><line style="stroke:#181818;stroke-width:1;" x1="111.4897" x2="111.4897" y1="585.8203" y2="598.8203"/><line style="stroke:#181818;stroke-width:1;" x1="70.4897" x2="111.4897" y1="598.8203" y2="598.8203"/><polygon fill="#181818" points="80.4897,594.8203,70.4897,598.8203,80.4897,602.8203" style="stroke:#181818;stroke-width:1;"/><text fill="#000000" font-family="Arial" font-size="13" lengthAdjust="spacing" textLength="126.6357" x="76.4897" y="580.7544">loop_started = true</text></g><path d="M30,620.8203 L94.4429,620.8203 L94.4429,627.9531 L84.4429,637.9531 L30,637.9531 L30,620.8203" fill="#EEEEEE" style="stroke:#000000;stroke-width:1.5;"/><rect fill="none" height="74.3984" style="stroke:#000000;stroke-width:1.5;" width="408.4004" x="30" y="620.8203"/><text fill="#000000" font-family="Arial" font-size="13" font-weight="bold" lengthAdjust="spacing" textLength="19.4429" x="45" y="633.8872">alt</text><text fill="#000000" font-family="Arial" font-size="11" font-weight="bold" lengthAdjust="spacing" textLength="156.0464" x="109.4429" y="633.0308">[button_press_count &gt; 0]</text><g class="message" data-entity-1="part1" data-entity-2="part1" id="msg11"><line style="stroke:#181818;stroke-width:1;" x1="69.4897" x2="111.4897" y1="674.2188" y2="674.2188"/><line style="stroke:#181818;stroke-width:1;" x1="111.4897" x2="111.4897" y1="674.2188" y2="687.2188"/><line style="stroke:#181818;stroke-width:1;" x1="70.4897" x2="111.4897" y1="687.2188" y2="687.2188"/><polygon fill="#181818" points="80.4897,683.2188,70.4897,687.2188,80.4897,691.2188" style="stroke:#181818;stroke-width:1;"/><text fill="#000000" font-family="Arial" font-size="13" lengthAdjust="spacing" textLength="232.1782" x="76.4897" y="654.02">printf("Total BUTTON1 presses: %lu</text><text fill="#000000" font-family="Arial" font-size="13" lengthAdjust="spacing" textLength="339.9106" x="76.4897" y="669.1528">", static_cast&lt;unsigned long&gt;(button_press_count))</text></g><path d="M20,709.2188 L84.4429,709.2188 L84.4429,716.3516 L74.4429,726.3516 L20,726.3516 L20,709.2188" fill="#EEEEEE" style="stroke:#000000;stroke-width:1.5;"/><rect fill="none" height="480.3984" style="stroke:#000000;stroke-width:1.5;" width="645.396" x="20" y="709.2188"/><text fill="#000000" font-family="Arial" font-size="13" font-weight="bold" lengthAdjust="spacing" textLength="19.4429" x="35" y="722.2856">alt</text><text fill="#000000" font-family="Arial" font-size="11" font-weight="bold" lengthAdjust="spacing" textLength="240.9634" x="99.4429" y="721.4292">[defined(LED1) &amp;&amp; defined(BUTTON1)]</text><g class="message" data-entity-1="part3" data-entity-2="part1" id="msg12"><polygon fill="#181818" points="80.4897,743.4844,70.4897,747.4844,80.4897,751.4844" style="stroke:#181818;stroke-width:1;"/><line style="stroke:#181818;stroke-width:1;stroke-dasharray:2,2;" x1="74.4897" x2="577.2905" y1="747.4844" y2="747.4844"/><text fill="#000000" font-family="Arial" font-size="13" lengthAdjust="spacing" textLength="205.7275" x="86.4897" y="742.4185">pressed = (button.read() == 0)</text></g><g class="message" data-entity-1="part1" data-entity-2="part2" id="msg13"><polygon fill="#181818" points="426.4004,772.6172,436.4004,776.6172,426.4004,780.6172" style="stroke:#181818;stroke-width:1;"/><line style="stroke:#181818;stroke-width:1;" x1="69.4897" x2="432.4004" y1="776.6172" y2="776.6172"/><text fill="#000000" font-family="Arial" font-size="13" lengthAdjust="spacing" textLength="183.5933" x="76.4897" y="771.5513">set_led1_state(led, pressed)</text></g><path d="M30,821.6172 L94.4429,821.6172 L94.4429,828.75 L84.4429,838.75 L30,838.75 L30,821.6172" fill="#EEEEEE" style="stroke:#000000;stroke-width:1.5;"/><rect fill="none" height="116.5313" style="stroke:#000000;stroke-width:1.5;" width="408.4004" x="30" y="821.6172"/><text fill="#000000" font-family="Arial" font-size="13" font-weight="bold" lengthAdjust="spacing" textLength="19.4429" x="45" y="834.6841">alt</text><text fill="#000000" font-family="Arial" font-size="11" font-weight="bold" lengthAdjust="spacing" textLength="199.4287" x="109.4429" y="833.8276">[pressed &amp;&amp; !previous_pressed]</text><g class="message" data-entity-1="part1" data-entity-2="part1" id="msg14"><line style="stroke:#181818;stroke-width:1;" x1="69.4897" x2="111.4897" y1="859.8828" y2="859.8828"/><line style="stroke:#181818;stroke-width:1;" x1="111.4897" x2="111.4897" y1="859.8828" y2="872.8828"/><line style="stroke:#181818;stroke-width:1;" x1="70.4897" x2="111.4897" y1="872.8828" y2="872.8828"/><polygon fill="#181818" points="80.4897,868.8828,70.4897,872.8828,80.4897,876.8828" style="stroke:#181818;stroke-width:1;"/><text fill="#000000" font-family="Arial" font-size="13" lengthAdjust="spacing" textLength="149.481" x="76.4897" y="854.8169">button_press_count++</text></g><g class="message" data-entity-1="part1" data-entity-2="part1" id="msg15"><line style="stroke:#181818;stroke-width:1;" x1="69.4897" x2="111.4897" y1="917.1484" y2="917.1484"/><line style="stroke:#181818;stroke-width:1;" x1="111.4897" x2="111.4897" y1="917.1484" y2="930.1484"/><line style="stroke:#181818;stroke-width:1;" x1="70.4897" x2="111.4897" y1="930.1484" y2="930.1484"/><polygon fill="#181818" points="80.4897,926.1484,70.4897,930.1484,80.4897,934.1484" style="stroke:#181818;stroke-width:1;"/><text fill="#000000" font-family="Arial" font-size="13" lengthAdjust="spacing" textLength="242.9946" x="76.4897" y="896.9497">printf("BUTTON1 pressed %lu time(s)</text><text fill="#000000" font-family="Arial" font-size="13" lengthAdjust="spacing" textLength="339.9106" x="76.4897" y="912.0825">", static_cast&lt;unsigned long&gt;(button_press_count))</text></g><g class="message" data-entity-1="part1" data-entity-2="part1" id="msg16"><line style="stroke:#181818;stroke-width:1;" x1="69.4897" x2="111.4897" y1="966.2813" y2="966.2813"/><line style="stroke:#181818;stroke-width:1;" x1="111.4897" x2="111.4897" y1="966.2813" y2="979.2813"/><line style="stroke:#181818;stroke-width:1;" x1="70.4897" x2="111.4897" y1="979.2813" y2="979.2813"/><polygon fill="#181818" points="80.4897,975.2813,70.4897,979.2813,80.4897,983.2813" style="stroke:#181818;stroke-width:1;"/><text fill="#000000" font-family="Arial" font-size="13" lengthAdjust="spacing" textLength="184.3042" x="76.4897" y="961.2153">previous_pressed = pressed</text></g><g class="message" data-entity-1="part1" data-entity-2="part1" id="msg17"><line style="stroke:#181818;stroke-width:1;" x1="69.4897" x2="111.4897" y1="1008.4141" y2="1008.4141"/><line style="stroke:#181818;stroke-width:1;" x1="111.4897" x2="111.4897" y1="1008.4141" y2="1021.4141"/><line style="stroke:#181818;stroke-width:1;" x1="70.4897" x2="111.4897" y1="1021.4141" y2="1021.4141"/><polygon fill="#181818" points="80.4897,1017.4141,70.4897,1021.4141,80.4897,1025.4141" style="stroke:#181818;stroke-width:1;"/><text fill="#000000" font-family="Arial" font-size="13" lengthAdjust="spacing" textLength="284.1274" x="76.4897" y="1003.3481">ThisThread::sleep_for(BUTTON_POLL_RATE)</text></g><line style="stroke:#000000;stroke-width:1;stroke-dasharray:2,2;" x1="20" x2="665.396" y1="1030.4141" y2="1030.4141"/><text fill="#000000" font-family="Arial" font-size="11" font-weight="bold" lengthAdjust="spacing" textLength="98.4736" x="25" y="1040.6245">[defined(LED1)]</text><g class="message" data-entity-1="part1" data-entity-2="part2" id="msg18"><polygon fill="#181818" points="426.4004,1061.3516,436.4004,1065.3516,426.4004,1069.3516" style="stroke:#181818;stroke-width:1;"/><line style="stroke:#181818;stroke-width:1;" x1="69.4897" x2="432.4004" y1="1065.3516" y2="1065.3516"/><text fill="#000000" font-family="Arial" font-size="13" lengthAdjust="spacing" textLength="95.8813" x="76.4897" y="1060.2856">blink_led1(led)</text></g><g class="message" data-entity-1="part1" data-entity-2="part1" id="msg19"><line style="stroke:#181818;stroke-width:1;" x1="69.4897" x2="111.4897" y1="1124.4844" y2="1124.4844"/><line style="stroke:#181818;stroke-width:1;" x1="111.4897" x2="111.4897" y1="1124.4844" y2="1137.4844"/><line style="stroke:#181818;stroke-width:1;" x1="70.4897" x2="111.4897" y1="1137.4844" y2="1137.4844"/><polygon fill="#181818" points="80.4897,1133.4844,70.4897,1137.4844,80.4897,1141.4844" style="stroke:#181818;stroke-width:1;"/><text fill="#000000" font-family="Arial" font-size="13" lengthAdjust="spacing" textLength="252.6748" x="76.4897" y="1119.4185">ThisThread::sleep_for(BLINKING_RATE)</text></g><line style="stroke:#000000;stroke-width:1;stroke-dasharray:2,2;" x1="20" x2="665.396" y1="1146.4844" y2="1146.4844"/><g class="message" data-entity-1="part1" data-entity-2="part1" id="msg20"><line style="stroke:#181818;stroke-width:1;" x1="69.4897" x2="111.4897" y1="1168.6172" y2="1168.6172"/><line style="stroke:#181818;stroke-width:1;" x1="111.4897" x2="111.4897" y1="1168.6172" y2="1181.6172"/><line style="stroke:#181818;stroke-width:1;" x1="70.4897" x2="111.4897" y1="1181.6172" y2="1181.6172"/><polygon fill="#181818" points="80.4897,1177.6172,70.4897,1181.6172,80.4897,1185.6172" style="stroke:#181818;stroke-width:1;"/><text fill="#000000" font-family="Arial" font-size="13" lengthAdjust="spacing" textLength="284.1274" x="76.4897" y="1163.5513">ThisThread::sleep_for(BUTTON_POLL_RATE)</text></g><path d="M20,1203.6172 L84.4429,1203.6172 L84.4429,1210.75 L74.4429,1220.75 L20,1220.75 L20,1203.6172" fill="#EEEEEE" style="stroke:#000000;stroke-width:1.5;"/><rect fill="none" height="176.7969" style="stroke:#000000;stroke-width:1.5;" width="491.1851" x="20" y="1203.6172"/><text fill="#000000" font-family="Arial" font-size="13" font-weight="bold" lengthAdjust="spacing" textLength="19.4429" x="35" y="1216.6841">alt</text><text fill="#000000" font-family="Arial" font-size="11" font-weight="bold" lengthAdjust="spacing" textLength="98.4736" x="99.4429" y="1215.8276">[defined(LED1)]</text><g class="message" data-entity-1="part2" data-entity-2="part1" id="msg21"><polygon fill="#181818" points="80.4897,1237.8828,70.4897,1241.8828,80.4897,1245.8828" style="stroke:#181818;stroke-width:1;"/><line style="stroke:#181818;stroke-width:1;stroke-dasharray:2,2;" x1="74.4897" x2="432.4004" y1="1241.8828" y2="1241.8828"/><text fill="#000000" font-family="Arial" font-size="13" lengthAdjust="spacing" textLength="238.8433" x="86.4897" y="1236.8169">current_led_state = (led.read() != 0)</text></g><path d="M30,1256.8828 L94.4429,1256.8828 L94.4429,1264.0156 L84.4429,1274.0156 L30,1274.0156 L30,1256.8828" fill="#EEEEEE" style="stroke:#000000;stroke-width:1.5;"/><rect fill="none" height="116.5313" style="stroke:#000000;stroke-width:1.5;" width="339.8813" x="30" y="1256.8828"/><text fill="#000000" font-family="Arial" font-size="13" font-weight="bold" lengthAdjust="spacing" textLength="19.4429" x="45" y="1269.9497">alt</text><text fill="#000000" font-family="Arial" font-size="11" font-weight="bold" lengthAdjust="spacing" textLength="255.4385" x="109.4429" y="1269.0933">[current_led_state != previous_led_state]</text><g class="message" data-entity-1="part1" data-entity-2="part1" id="msg22"><line style="stroke:#181818;stroke-width:1;" x1="69.4897" x2="111.4897" y1="1310.2813" y2="1310.2813"/><line style="stroke:#181818;stroke-width:1;" x1="111.4897" x2="111.4897" y1="1310.2813" y2="1323.2813"/><line style="stroke:#181818;stroke-width:1;" x1="70.4897" x2="111.4897" y1="1323.2813" y2="1323.2813"/><polygon fill="#181818" points="80.4897,1319.2813,70.4897,1323.2813,80.4897,1327.2813" style="stroke:#181818;stroke-width:1;"/><text fill="#000000" font-family="Arial" font-size="13" lengthAdjust="spacing" textLength="117.6855" x="76.4897" y="1290.0825">printf("LED1 is %s</text><text fill="#000000" font-family="Arial" font-size="13" lengthAdjust="spacing" textLength="229.3916" x="76.4897" y="1305.2153">", current_led_state ? "ON" : "OFF")</text></g><g class="message" data-entity-1="part1" data-entity-2="part1" id="msg23"><line style="stroke:#181818;stroke-width:1;" x1="69.4897" x2="111.4897" y1="1352.4141" y2="1352.4141"/><line style="stroke:#181818;stroke-width:1;" x1="111.4897" x2="111.4897" y1="1352.4141" y2="1365.4141"/><line style="stroke:#181818;stroke-width:1;" x1="70.4897" x2="111.4897" y1="1365.4141" y2="1365.4141"/><polygon fill="#181818" points="80.4897,1361.4141,70.4897,1365.4141,80.4897,1369.4141" style="stroke:#181818;stroke-width:1;"/><text fill="#000000" font-family="Arial" font-size="13" lengthAdjust="spacing" textLength="254.0205" x="76.4897" y="1347.3481">previous_led_state = current_led_state</text></g><?plantuml-src hLLTRzem57tFhxXaQaLKEhLl6nfCCCg4nW1Dz6rIv2OEM1YRsKwbgTf_txNpGK92FwP50WNxtkDppxdNw1qJ1wB87hJvpIb-AnQPTCyzNUxifP3HLiaz1QDIMjcPq8Iat4obC0k2soF5I3LJqryf5H659m_mcRE4pfcWOwbYghv8BXMCEObszLrSs2YPYZYBU3VzCFqu7Nb_F0zH3OlOWGW3_fumuGFHy1rVwbiJjc66y6LgO7utkNLHzgKrQYPWVBzUBnTPt3WrHWhFiwXmFNJeq8U3Oi8aNN-bv2QJ2w5e33-57tWaCkoH69fHyGWt4DC4QucxzjZ0rLS0sXK4h73ajRWIp35sojYCwoeN-iXagaDC3948nWwWYp_UAqhYRW2T0TpaO4YbBNoGMGdvSwPOTx2hL5jfbWjNhKsWNByvUpezfelOiv-QLBaBTRKoEuvweLiFRga8xy4gvVp-S29URgDToo7Q1CGNhT750IIagAWPdXsO1OSHTgR1X9ki02xbuQYbBQTZbyAyFrxIoFrq67b2AL5BKXKOAWuw8iNnBMI7IFO57ck9sXPp09aikWyNF4L2FKiEvoQCY3QVKg7P1lr2Ec8px3RF2u8cgzeumELbk-bdtSfDoWyhsdnGjddBV6bgRCFVPXrlfwDN81rpchDcdvZMru_XsJGvDbX3vxIFoi0MfPiwNLqz5ryuK_SajfQ0ONlQrS4_MrFOS_RendYS5dYIiTuolTvQM_fzpIazX8bKkRVXQZcVXpz6wxlZrT5oFRPO-C2Ps3aJhNrlTUrjLEUpnRVPuki9p_zIxzavAD5FB_WeLOeAyuhxlS1jPdG6BHV_QnhEaM4QBhJhhoRoP_2N2nypVBpIAxVLSvrKhQI1sEZ9yk-Xugb5_0i0?></g></svg>