<?xml version="1.0" encoding="UTF-8" standalone="no"?>
<!DOCTYPE svg PUBLIC "-//W3C//DTD SVG 1.1//EN"
 "http://www.w3.org/Graphics/SVG/1.1/DTD/svg11.dtd">
<!-- Generated by graphviz version 2.43.0 (0)
 -->
<!-- Title: blink_led1 Pages: 1 -->
<svg width="250pt" height="352pt"
 viewBox="0.00 0.00 250.00 352.25" xmlns="http://www.w3.org/2000/svg" xmlns:xlink="http://www.w3.org/1999/xlink">
<g id="graph0" class="graph" transform="scale(1 1) rotate(0) translate(18 334.25)">
<title>blink_led1</title>
<polygon fill="#d32f2f" stroke="transparent" points="-18,18 -18,-334.25 232,-334.25 232,18 -18,18"/>
<g id="clust1" class="cluster">
<title>cluster_blink_led1</title>
<path fill="#d32f2f" stroke="#d32f2f" stroke-width="3" d="M20,-8C20,-8 194,-8 194,-8 200,-8 206,-14 206,-20 206,-20 206,-296.25 206,-296.25 206,-302.25 200,-308.25 194,-308.25 194,-308.25 20,-308.25 20,-308.25 14,-308.25 8,-302.25 8,-296.25 8,-296.25 8,-20 8,-20 8,-14 14,-8 20,-8"/>
<text text-anchor="middle" x="107" y="-293.05" font-family="Helvetica,sans-Serif" font-size="14.00" fill="#333333">blink_led1</text>
</g>
<!-- blink_led1_START -->
<g id="node1" class="node">
<title>blink_led1_START</title>
<ellipse fill="#d32f2f" stroke="black" stroke-width="1.4" cx="107" cy="-250.63" rx="86.5" ry="22.76"/>
<text text-anchor="middle" x="107" y="-253.83" font-family="Helvetica,sans-Serif" font-size="11.00" fill="#333333">START</text>
<text text-anchor="middle" x="107" y="-241.83" font-family="Helvetica,sans-Serif" font-size="11.00" fill="#333333">blink_led1()</text>
</g>
<!-- blink_led1_N1 -->
<g id="node3" class="node">
<title>blink_led1_N1</title>
<polygon fill="#d32f2f" stroke="black" points="182.5,-160 31.5,-160 31.5,-124 182.5,-124 182.5,-160"/>
<text text-anchor="middle" x="107" y="-139.2" font-family="Helvetica,sans-Serif" font-size="11.00" fill="#333333">toggle LED state</text>
</g>
<!-- blink_led1_START&#45;&gt;blink_led1_N1 -->
<g id="edge1" class="edge">
<title>blink_led1_START&#45;&gt;blink_led1_N1</title>
<path fill="none" stroke="black" d="M107,-227.86C107,-227.86 107,-168.07 107,-168.07"/>
<polygon fill="black" stroke="black" points="109.8,-168.07 107,-160.07 104.2,-168.07 109.8,-168.07"/>
</g>
<!-- blink_led1_END -->
<g id="node2" class="node">
<title>blink_led1_END</title>
<ellipse fill="#d32f2f" stroke="black" stroke-width="1.2" cx="107" cy="-38" rx="65" ry="18"/>
<text text-anchor="middle" x="107" y="-35.2" font-family="Helvetica,sans-Serif" font-size="11.00" fill="#333333">blink_led1_end</text>
</g>
<!-- blink_led1_N1&#45;&gt;blink_led1_END -->
<g id="edge2" class="edge">
<title>blink_led1_N1&#45;&gt;blink_led1_END</title>
<path fill="none" stroke="black" d="M107,-123.88C107,-123.88 107,-64.26 107,-64.26"/>
<polygon fill="black" stroke="black" points="109.8,-64.26 107,-56.26 104.2,-64.26 109.8,-64.26"/>
</g>
</g>
</svg>
