<?xml version="1.0" encoding="UTF-8" standalone="no"?>
<!DOCTYPE svg PUBLIC "-//W3C//DTD SVG 1.1//EN"
 "http://www.w3.org/Graphics/SVG/1.1/DTD/svg11.dtd">
<!-- Generated by graphviz version 2.43.0 (0)
 -->
<!-- Title: main Pages: 1 -->
<svg width="632pt" height="3675pt"
 viewBox="0.00 0.00 632.00 3675.25" xmlns="http://www.w3.org/2000/svg" xmlns:xlink="http://www.w3.org/1999/xlink">
<g id="graph0" class="graph" transform="scale(1 1) rotate(0) translate(18 3657.25)">
<title>main</title>
<polygon fill="#ffffff" stroke="transparent" points="-18,18 -18,-3657.25 614,-3657.25 614,18 -18,18"/>
<g id="clust1" class="cluster">
<title>cluster_main</title>
<path fill="#ffffff" stroke="#ffffff" stroke-width="1.2" d="M20,-8C20,-8 576,-8 576,-8 582,-8 588,-14 588,-20 588,-20 588,-3619.25 588,-3619.25 588,-3625.25 582,-3631.25 576,-3631.25 576,-3631.25 20,-3631.25 20,-3631.25 14,-3631.25 8,-3625.25 8,-3619.25 8,-3619.25 8,-20 8,-20 8,-14 14,-8 20,-8"/>
<text text-anchor="middle" x="298" y="-3616.05" font-family="Helvetica,sans-Serif" font-size="14.00" fill="#333333">main</text>
</g>
<!-- main_START -->
<g id="node1" class="node">
<title>main_START</title>
<ellipse fill="#ffffff" stroke="black" stroke-width="1.4" cx="306" cy="-3573.63" rx="86.5" ry="22.76"/>
<text text-anchor="middle" x="306" y="-3576.83" font-family="Helvetica,sans-Serif" font-size="11.00" fill="#333333">START</text>
<text text-anchor="middle" x="306" y="-3564.83" font-family="Helvetica,sans-Serif" font-size="11.00" fill="#333333">main()</text>
</g>
<!-- main_N1 -->
<g id="node3" class="node">
<title>main_N1</title>
<polygon fill="#ffffff" stroke="black" points="399,-3482 213,-3482 213,-3446 399,-3446 399,-3482"/>
<text text-anchor="middle" x="306" y="-3461.2" font-family="Helvetica,sans-Serif" font-size="11.00" fill="#333333">Initialize loop_started to\nfalse</text>
</g>
<!-- main_START&#45;&gt;main_N1 -->
<g id="edge1" class="edge">
<title>main_START&#45;&gt;main_N1</title>
<path fill="none" stroke="black" d="M306,-3550.91C306,-3550.91 306,-3490.33 306,-3490.33"/>
<polygon fill="black" stroke="black" points="308.8,-3490.33 306,-3482.33 303.2,-3490.33 308.8,-3490.33"/>
</g>
<!-- main_END -->
<g id="node2" class="node">
<title>main_END</title>
<ellipse fill="#ffffff" stroke="black" stroke-width="1.2" cx="251" cy="-38" rx="65" ry="18"/>
<text text-anchor="middle" x="251" y="-35.2" font-family="Helvetica,sans-Serif" font-size="11.00" fill="#333333">main_end</text>
</g>
<!-- main_N2 -->
<g id="node4" class="node">
<title>main_N2</title>
<polygon fill="#ffffff" stroke="black" points="397,-3377 215,-3377 215,-3341 397,-3341 397,-3377"/>
<text text-anchor="middle" x="306" y="-3356.2" font-family="Helvetica,sans-Serif" font-size="11.00" fill="#333333">Print program start\nmessage</text>
</g>
<!-- main_N1&#45;&gt;main_N2 -->
<g id="edge2" class="edge">
<title>main_N1&#45;&gt;main_N2</title>
<path fill="none" stroke="black" d="M306,-3445.71C306,-3445.71 306,-3385.08 306,-3385.08"/>
<polygon fill="black" stroke="black" points="308.8,-3385.08 306,-3377.08 303.2,-3385.08 308.8,-3385.08"/>
</g>
<!-- main_N3 -->
<g id="node5" class="node">
<title>main_N3</title>
<polygon fill="#ffffff" stroke="black" stroke-width="1.1" points="306,-3272 186.2,-3239.5 306,-3207 425.8,-3239.5 306,-3272"/>
<text text-anchor="middle" x="306" y="-3236.7" font-family="Helvetica,sans-Serif" font-size="11.00" fill="#333333">[COMPILE] defined(LED1)?</text>
</g>
<!-- main_N2&#45;&gt;main_N3 -->
<g id="edge3" class="edge">
<title>main_N2&#45;&gt;main_N3</title>
<path fill="none" stroke="black" d="M306,-3340.85C306,-3340.85 306,-3280.28 306,-3280.28"/>
<polygon fill="black" stroke="black" points="308.8,-3280.28 306,-3272.28 303.2,-3280.28 308.8,-3280.28"/>
</g>
<!-- main_N4 -->
<g id="node6" class="node">
<title>main_N4</title>
<polygon fill="#ffffff" stroke="black" points="297.5,-3128 112.5,-3128 112.5,-3092 297.5,-3092 297.5,-3128"/>
<text text-anchor="middle" x="205" y="-3107.2" font-family="Helvetica,sans-Serif" font-size="11.00" fill="#333333">Initialize DigitalOut\nled(LED1)</text>
</g>
<!-- main_N3&#45;&gt;main_N4 -->
<g id="edge4" class="edge">
<title>main_N3&#45;&gt;main_N4</title>
<path fill="none" stroke="black" stroke-width="1.4" d="M241.93,-3224.14C241.93,-3224.14 241.93,-3136.26 241.93,-3136.26"/>
<polygon fill="black" stroke="black" stroke-width="1.4" points="244.73,-3136.26 241.93,-3128.26 239.13,-3136.26 244.73,-3136.26"/>
<text text-anchor="middle" x="240" y="-3165" font-family="Helvetica,sans-Serif" font-size="10.00">Yes</text>
</g>
<!-- main_N10 -->
<g id="node12" class="node">
<title>main_N10</title>
<polygon fill="#ffffff" stroke="black" points="403,-2420 141,-2420 141,-2384 403,-2384 403,-2420"/>
<text text-anchor="middle" x="272" y="-2399.2" font-family="Helvetica,sans-Serif" font-size="11.00" fill="#333333">Initialize DigitalIn\nbutton(BUTTON1, PullUp)</text>
</g>
<!-- main_N3&#45;&gt;main_N10 -->
<g id="edge5" class="edge">
<title>main_N3&#45;&gt;main_N10</title>
<path fill="none" stroke="black" stroke-width="1.4" d="M351.36,-3219.21C351.36,-3219.21 351.36,-2428.2 351.36,-2428.2"/>
<polygon fill="black" stroke="black" stroke-width="1.4" points="354.16,-2428.2 351.36,-2420.2 348.56,-2428.2 354.16,-2428.2"/>
<text text-anchor="middle" x="340" y="-2811" font-family="Helvetica,sans-Serif" font-size="10.00">No</text>
</g>
<!-- main_N5 -->
<g id="node7" class="node">
<title>main_N5</title>
<polygon fill="#ffffff" stroke="black" points="281.5,-3023 74.5,-3023 74.5,-2987 281.5,-2987 281.5,-3023"/>
<text text-anchor="middle" x="178" y="-3002.2" font-family="Helvetica,sans-Serif" font-size="11.00" fill="#333333">Read previous_led_state\nfrom led</text>
</g>
<!-- main_N4&#45;&gt;main_N5 -->
<g id="edge6" class="edge">
<title>main_N4&#45;&gt;main_N5</title>
<path fill="none" stroke="black" d="M197,-3091.71C197,-3091.71 197,-3031.08 197,-3031.08"/>
<polygon fill="black" stroke="black" points="199.8,-3031.08 197,-3023.08 194.2,-3031.08 199.8,-3031.08"/>
</g>
<!-- main_N6 -->
<g id="node8" class="node">
<title>main_N6</title>
<polygon fill="#ffffff" stroke="black" stroke-width="1.1" points="160,-2918 20.07,-2885.5 160,-2853 299.93,-2885.5 160,-2918"/>
<text text-anchor="middle" x="160" y="-2882.7" font-family="Helvetica,sans-Serif" font-size="11.00" fill="#333333">[RUNTIME] previous_led_state?</text>
</g>
<!-- main_N5&#45;&gt;main_N6 -->
<g id="edge7" class="edge">
<title>main_N5&#45;&gt;main_N6</title>
<path fill="none" stroke="black" d="M178,-2986.85C178,-2986.85 178,-2922.08 178,-2922.08"/>
<polygon fill="black" stroke="black" points="180.8,-2922.08 178,-2914.08 175.2,-2922.08 180.8,-2922.08"/>
</g>
<!-- main_N7 -->
<g id="node9" class="node">
<title>main_N7</title>
<polygon fill="#ffffff" stroke="black" points="283.5,-2774 132.5,-2774 132.5,-2738 283.5,-2738 283.5,-2774"/>
<text text-anchor="middle" x="208" y="-2753.2" font-family="Helvetica,sans-Serif" font-size="11.00" fill="#333333">Print LED1 starts as ON</text>
</g>
<!-- main_N6&#45;&gt;main_N7 -->
<g id="edge8" class="edge">
<title>main_N6&#45;&gt;main_N7</title>
<path fill="none" stroke="black" stroke-width="1.4" d="M208,-2864.12C208,-2864.12 208,-2782.07 208,-2782.07"/>
<polygon fill="black" stroke="black" stroke-width="1.4" points="210.8,-2782.07 208,-2774.07 205.2,-2782.07 210.8,-2782.07"/>
<text text-anchor="middle" x="192" y="-2811" font-family="Helvetica,sans-Serif" font-size="10.00">Yes</text>
</g>
<!-- main_N8 -->
<g id="node10" class="node">
<title>main_N8</title>
<polygon fill="#ffffff" stroke="black" points="235.5,-2669 84.5,-2669 84.5,-2633 235.5,-2633 235.5,-2669"/>
<text text-anchor="middle" x="160" y="-2648.2" font-family="Helvetica,sans-Serif" font-size="11.00" fill="#333333">Print LED1 starts as OFF</text>
</g>
<!-- main_N6&#45;&gt;main_N8 -->
<g id="edge9" class="edge">
<title>main_N6&#45;&gt;main_N8</title>
<path fill="none" stroke="black" stroke-width="1.4" d="M108.5,-2864.69C108.5,-2864.69 108.5,-2677.15 108.5,-2677.15"/>
<polygon fill="black" stroke="black" stroke-width="1.4" points="111.3,-2677.15 108.5,-2669.15 105.7,-2677.15 111.3,-2677.15"/>
<text text-anchor="middle" x="93" y="-2753.5" font-family="Helvetica,sans-Serif" font-size="10.00">No</text>
</g>
<!-- main_N7&#45;&gt;main_N8 -->
<g id="edge10" class="edge">
<title>main_N7&#45;&gt;main_N8</title>
<path fill="none" stroke="black" d="M184,-2737.71C184,-2737.71 184,-2677.08 184,-2677.08"/>
<polygon fill="black" stroke="black" points="186.8,-2677.08 184,-2669.08 181.2,-2677.08 186.8,-2677.08"/>
</g>
<!-- main_N9 -->
<g id="node11" class="node">
<title>main_N9</title>
<polygon fill="#ffffff" stroke="black" stroke-width="1.1" points="160,-2564 21.06,-2531.5 160,-2499 298.94,-2531.5 160,-2564"/>
<text text-anchor="middle" x="160" y="-2528.7" font-family="Helvetica,sans-Serif" font-size="11.00" fill="#333333">[COMPILE] defined(BUTTON1)?</text>
</g>
<!-- main_N8&#45;&gt;main_N9 -->
<g id="edge11" class="edge">
<title>main_N8&#45;&gt;main_N9</title>
<path fill="none" stroke="black" d="M160,-2632.85C160,-2632.85 160,-2572.28 160,-2572.28"/>
<polygon fill="black" stroke="black" points="162.8,-2572.28 160,-2564.28 157.2,-2572.28 162.8,-2572.28"/>
</g>
<!-- main_N9&#45;&gt;main_N10 -->
<g id="edge12" class="edge">
<title>main_N9&#45;&gt;main_N10</title>
<path fill="none" stroke="black" stroke-width="1.4" d="M219.99,-2512.95C219.99,-2512.95 219.99,-2428.1 219.99,-2428.1"/>
<polygon fill="black" stroke="black" stroke-width="1.4" points="222.79,-2428.1 219.99,-2420.1 217.19,-2428.1 222.79,-2428.1"/>
<text text-anchor="middle" x="224" y="-2457" font-family="Helvetica,sans-Serif" font-size="10.00">Yes</text>
</g>
<!-- main_N23 -->
<g id="node25" class="node">
<title>main_N23</title>
<polygon fill="#ffffff" stroke="black" points="243.5,-879 40.5,-879 40.5,-843 243.5,-843 243.5,-879"/>
<text text-anchor="middle" x="142" y="-858.2" font-family="Helvetica,sans-Serif" font-size="11.00" fill="#333333">Set previous_pressed to\npressed</text>
</g>
<!-- main_N9&#45;&gt;main_N23 -->
<g id="edge13" class="edge">
<title>main_N9&#45;&gt;main_N23</title>
<path fill="none" stroke="black" stroke-width="1.4" d="M63.26,-2521.27C63.26,-2521.27 63.26,-887.17 63.26,-887.17"/>
<polygon fill="black" stroke="black" stroke-width="1.4" points="66.06,-887.17 63.26,-879.17 60.46,-887.17 66.06,-887.17"/>
<text text-anchor="middle" x="59" y="-1716" font-family="Helvetica,sans-Serif" font-size="10.00">No</text>
</g>
<!-- main_N11 -->
<g id="node13" class="node">
<title>main_N11</title>
<polygon fill="#ffffff" stroke="black" points="379,-2315 165,-2315 165,-2279 379,-2279 379,-2315"/>
<text text-anchor="middle" x="272" y="-2294.2" font-family="Helvetica,sans-Serif" font-size="11.00" fill="#333333">Initialize\nprevious_pressed to false</text>
</g>
<!-- main_N10&#45;&gt;main_N11 -->
<g id="edge14" class="edge">
<title>main_N10&#45;&gt;main_N11</title>
<path fill="none" stroke="black" d="M272,-2383.71C272,-2383.71 272,-2323.08 272,-2323.08"/>
<polygon fill="black" stroke="black" points="274.8,-2323.08 272,-2315.08 269.2,-2323.08 274.8,-2323.08"/>
</g>
<!-- main_N12 -->
<g id="node14" class="node">
<title>main_N12</title>
<polygon fill="#ffffff" stroke="black" points="375,-2210 169,-2210 169,-2174 375,-2174 375,-2210"/>
<text text-anchor="middle" x="272" y="-2189.2" font-family="Helvetica,sans-Serif" font-size="11.00" fill="#333333">Initialize\nbutton_press_count to 0</text>
</g>
<!-- main_N11&#45;&gt;main_N12 -->
<g id="edge15" class="edge">
<title>main_N11&#45;&gt;main_N12</title>
<path fill="none" stroke="black" d="M272,-2278.71C272,-2278.71 272,-2218.08 272,-2218.08"/>
<polygon fill="black" stroke="black" points="274.8,-2218.08 272,-2210.08 269.2,-2218.08 274.8,-2218.08"/>
</g>
<!-- main_N13 -->
<g id="node15" class="node">
<title>main_N13</title>
<polygon fill="#ffffff" stroke="black" stroke-width="1.1" points="272,-2105 154.66,-2072.5 272,-2040 389.34,-2072.5 272,-2105"/>
<text text-anchor="middle" x="272" y="-2069.7" font-family="Helvetica,sans-Serif" font-size="11.00" fill="#333333">[RUNTIME] !loop_started?</text>
</g>
<!-- main_N12&#45;&gt;main_N13 -->
<g id="edge16" class="edge">
<title>main_N12&#45;&gt;main_N13</title>
<path fill="none" stroke="black" d="M272,-2173.85C272,-2173.85 272,-2113.28 272,-2113.28"/>
<polygon fill="black" stroke="black" points="274.8,-2113.28 272,-2105.28 269.2,-2113.28 274.8,-2113.28"/>
</g>
<!-- main_N14 -->
<g id="node16" class="node">
<title>main_N14</title>
<polygon fill="#ffffff" stroke="black" points="488.5,-1961 285.5,-1961 285.5,-1925 488.5,-1925 488.5,-1961"/>
<text text-anchor="middle" x="387" y="-1940.2" font-family="Helvetica,sans-Serif" font-size="11.00" fill="#333333">Print main loop started\nmessage</text>
</g>
<!-- main_N13&#45;&gt;main_N14 -->
<g id="edge17" class="edge">
<title>main_N13&#45;&gt;main_N14</title>
<path fill="none" stroke="black" stroke-width="1.4" d="M337.46,-2057.9C337.46,-2057.9 337.46,-1969.07 337.46,-1969.07"/>
<polygon fill="black" stroke="black" stroke-width="1.4" points="340.26,-1969.07 337.46,-1961.07 334.66,-1969.07 340.26,-1969.07"/>
<text text-anchor="middle" x="312" y="-1998" font-family="Helvetica,sans-Serif" font-size="10.00">Yes</text>
</g>
<!-- main_N15 -->
<g id="node17" class="node">
<title>main_N15</title>
<polygon fill="#ffffff" stroke="black" points="353.5,-1856 202.5,-1856 202.5,-1820 353.5,-1820 353.5,-1856"/>
<text text-anchor="middle" x="278" y="-1835.2" font-family="Helvetica,sans-Serif" font-size="11.00" fill="#333333">Set loop_started to true</text>
</g>
<!-- main_N13&#45;&gt;main_N15 -->
<g id="edge18" class="edge">
<title>main_N13&#45;&gt;main_N15</title>
<path fill="none" stroke="black" stroke-width="1.4" d="M244,-2047.4C244,-2047.4 244,-1864.27 244,-1864.27"/>
<polygon fill="black" stroke="black" stroke-width="1.4" points="246.8,-1864.27 244,-1856.27 241.2,-1864.27 246.8,-1864.27"/>
<text text-anchor="middle" x="246" y="-1940.5" font-family="Helvetica,sans-Serif" font-size="10.00">No</text>
</g>
<!-- main_N14&#45;&gt;main_N15 -->
<g id="edge19" class="edge">
<title>main_N14&#45;&gt;main_N15</title>
<path fill="none" stroke="black" d="M319.5,-1924.71C319.5,-1924.71 319.5,-1864.08 319.5,-1864.08"/>
<polygon fill="black" stroke="black" points="322.3,-1864.08 319.5,-1856.08 316.7,-1864.08 322.3,-1864.08"/>
</g>
<!-- main_N16 -->
<g id="node18" class="node">
<title>main_N16</title>
<polygon fill="#ffffff" stroke="black" stroke-width="1.1" points="278,-1751 112.05,-1718.5 278,-1686 443.95,-1718.5 278,-1751"/>
<text text-anchor="middle" x="278" y="-1715.7" font-family="Helvetica,sans-Serif" font-size="11.00" fill="#333333">[RUNTIME] button_press_count &gt;\n0?</text>
</g>
<!-- main_N15&#45;&gt;main_N16 -->
<g id="edge20" class="edge">
<title>main_N15&#45;&gt;main_N16</title>
<path fill="none" stroke="black" d="M278,-1819.85C278,-1819.85 278,-1759.28 278,-1759.28"/>
<polygon fill="black" stroke="black" points="280.8,-1759.28 278,-1751.28 275.2,-1759.28 280.8,-1759.28"/>
</g>
<!-- main_N17 -->
<g id="node19" class="node">
<title>main_N17</title>
<polygon fill="#ffffff" stroke="black" points="408,-1607 226,-1607 226,-1571 408,-1571 408,-1607"/>
<text text-anchor="middle" x="317" y="-1586.2" font-family="Helvetica,sans-Serif" font-size="11.00" fill="#333333">Print total BUTTON1\npresses</text>
</g>
<!-- main_N16&#45;&gt;main_N17 -->
<g id="edge21" class="edge">
<title>main_N16&#45;&gt;main_N17</title>
<path fill="none" stroke="black" stroke-width="1.4" d="M317,-1693.53C317,-1693.53 317,-1615.21 317,-1615.21"/>
<polygon fill="black" stroke="black" stroke-width="1.4" points="319.8,-1615.21 317,-1607.21 314.2,-1615.21 319.8,-1615.21"/>
<text text-anchor="middle" x="290" y="-1644" font-family="Helvetica,sans-Serif" font-size="10.00">Yes</text>
</g>
<!-- main_N16&#45;&gt;main_N23 -->
<g id="edge22" class="edge">
<title>main_N16&#45;&gt;main_N23</title>
<path fill="none" stroke="black" stroke-width="1.4" d="M114.34,-1718C97.27,-1718 86.01,-1718 86.01,-1718 86.01,-1718 86.01,-887.3 86.01,-887.3"/>
<polygon fill="black" stroke="black" stroke-width="1.4" points="88.81,-887.3 86.01,-879.3 83.21,-887.3 88.81,-887.3"/>
<text text-anchor="middle" x="66" y="-1280" font-family="Helvetica,sans-Serif" font-size="10.00">No</text>
</g>
<!-- main_N18 -->
<g id="node20" class="node">
<title>main_N18</title>
<polygon fill="#ffffff" stroke="black" stroke-width="1.1" points="328,-1502 108.54,-1469.5 328,-1437 547.46,-1469.5 328,-1502"/>
<text text-anchor="middle" x="328" y="-1466.7" font-family="Helvetica,sans-Serif" font-size="11.00" fill="#333333">[COMPILE] defined(LED1) &amp;&amp;\ndefined(BUTTON1)?</text>
</g>
<!-- main_N17&#45;&gt;main_N18 -->
<g id="edge23" class="edge">
<title>main_N17&#45;&gt;main_N18</title>
<path fill="none" stroke="black" d="M317,-1570.85C317,-1570.85 317,-1508.39 317,-1508.39"/>
<polygon fill="black" stroke="black" points="319.8,-1508.39 317,-1500.39 314.2,-1508.39 319.8,-1508.39"/>
</g>
<!-- main_N19 -->
<g id="node21" class="node">
<title>main_N19</title>
<polygon fill="#ffffff" stroke="black" points="408.5,-1358 247.5,-1358 247.5,-1322 408.5,-1322 408.5,-1358"/>
<text text-anchor="middle" x="328" y="-1337.2" font-family="Helvetica,sans-Serif" font-size="11.00" fill="#333333">Read pressed from button</text>
</g>
<!-- main_N18&#45;&gt;main_N19 -->
<g id="edge24" class="edge">
<title>main_N18&#45;&gt;main_N19</title>
<path fill="none" stroke="black" stroke-width="1.4" d="M328,-1436.82C328,-1436.82 328,-1366.26 328,-1366.26"/>
<polygon fill="black" stroke="black" stroke-width="1.4" points="330.8,-1366.26 328,-1358.26 325.2,-1366.26 330.8,-1366.26"/>
<text text-anchor="middle" x="336" y="-1395" font-family="Helvetica,sans-Serif" font-size="10.00">Yes</text>
</g>
<!-- main_N18&#45;&gt;main_N23 -->
<g id="edge25" class="edge">
<title>main_N18&#45;&gt;main_N23</title>
<path fill="none" stroke="black" stroke-width="1.4" d="M121.77,-1467.53C121.77,-1467.53 121.77,-887.01 121.77,-887.01"/>
<polygon fill="black" stroke="black" stroke-width="1.4" points="124.57,-887.01 121.77,-879.01 118.97,-887.01 124.57,-887.01"/>
<text text-anchor="middle" x="569" y="-1165" font-family="Helvetica,sans-Serif" font-size="10.00">No</text>
</g>
<!-- main_N20 -->
<g id="node22" class="node">
<title>main_N20</title>
<path fill="#ffffff" stroke="black" stroke-width="1.2" d="M417,-1243C417,-1243 239,-1243 239,-1243 233,-1243 227,-1237 227,-1231 227,-1231 227,-1219 227,-1219 227,-1213 233,-1207 239,-1207 239,-1207 417,-1207 417,-1207 423,-1207 429,-1213 429,-1219 429,-1219 429,-1231 429,-1231 429,-1237 423,-1243 417,-1243"/>
<text text-anchor="middle" x="328" y="-1222.2" font-family="Helvetica,sans-Serif" font-size="11.00" fill="#333333">call set_led1_state(led,\npressed)</text>
</g>
<!-- main_N19&#45;&gt;main_N20 -->
<g id="edge26" class="edge">
<title>main_N19&#45;&gt;main_N20</title>
<path fill="none" stroke="black" d="M328,-1321.78C328,-1321.78 328,-1251.14 328,-1251.14"/>
<polygon fill="black" stroke="black" points="330.8,-1251.14 328,-1243.14 325.2,-1251.14 330.8,-1251.14"/>
</g>
<!-- main_N21 -->
<g id="node23" class="node">
<title>main_N21</title>
<polygon fill="#ffffff" stroke="black" stroke-width="1.1" points="328,-1128 134.56,-1095.5 328,-1063 521.44,-1095.5 328,-1128"/>
<text text-anchor="middle" x="328" y="-1092.7" font-family="Helvetica,sans-Serif" font-size="11.00" fill="#333333">[RUNTIME] pressed &amp;&amp;\n!previous_pressed?</text>
</g>
<!-- main_N20&#45;&gt;main_N21 -->
<g id="edge27" class="edge">
<title>main_N20&#45;&gt;main_N21</title>
<path fill="none" stroke="black" d="M328,-1206.99C328,-1206.99 328,-1136.07 328,-1136.07"/>
<polygon fill="black" stroke="black" points="330.8,-1136.07 328,-1128.07 325.2,-1136.07 330.8,-1136.07"/>
</g>
<!-- main_N22 -->
<g id="node24" class="node">
<title>main_N22</title>
<polygon fill="#ffffff" stroke="black" points="541.5,-984 166.5,-984 166.5,-948 541.5,-948 541.5,-984"/>
<text text-anchor="middle" x="354" y="-963.2" font-family="Helvetica,sans-Serif" font-size="11.00" fill="#333333">Increment\nbutton_press_count and\nprint BUTTON1 press count</text>
</g>
<!-- main_N21&#45;&gt;main_N22 -->
<g id="edge28" class="edge">
<title>main_N21&#45;&gt;main_N22</title>
<path fill="none" stroke="black" stroke-width="1.4" d="M343.86,-1065.46C343.86,-1065.46 343.86,-992.28 343.86,-992.28"/>
<polygon fill="black" stroke="black" stroke-width="1.4" points="346.66,-992.28 343.86,-984.28 341.06,-992.28 346.66,-992.28"/>
<text text-anchor="middle" x="349" y="-1021" font-family="Helvetica,sans-Serif" font-size="10.00">Yes</text>
</g>
<!-- main_N21&#45;&gt;main_N23 -->
<g id="edge29" class="edge">
<title>main_N21&#45;&gt;main_N23</title>
<path fill="none" stroke="black" stroke-width="1.4" d="M150.64,-1092.54C150.64,-1092.54 150.64,-887.31 150.64,-887.31"/>
<polygon fill="black" stroke="black" stroke-width="1.4" points="153.44,-887.31 150.64,-879.31 147.84,-887.31 153.44,-887.31"/>
<text text-anchor="middle" x="127" y="-963.5" font-family="Helvetica,sans-Serif" font-size="10.00">No</text>
</g>
<!-- main_N22&#45;&gt;main_N23 -->
<g id="edge30" class="edge">
<title>main_N22&#45;&gt;main_N23</title>
<path fill="none" stroke="black" d="M205,-947.71C205,-947.71 205,-887.08 205,-887.08"/>
<polygon fill="black" stroke="black" points="207.8,-887.08 205,-879.08 202.2,-887.08 207.8,-887.08"/>
</g>
<!-- main_N24 -->
<g id="node26" class="node">
<title>main_N24</title>
<path fill="#ffffff" stroke="black" stroke-width="1.2" d="M339.5,-774C339.5,-774 74.5,-774 74.5,-774 68.5,-774 62.5,-768 62.5,-762 62.5,-762 62.5,-750 62.5,-750 62.5,-744 68.5,-738 74.5,-738 74.5,-738 339.5,-738 339.5,-738 345.5,-738 351.5,-744 351.5,-750 351.5,-750 351.5,-762 351.5,-762 351.5,-768 345.5,-774 339.5,-774"/>
<text text-anchor="middle" x="207" y="-753.2" font-family="Helvetica,sans-Serif" font-size="11.00" fill="#333333">call ThisThread::sleep_for(BU\nTTON_POLL_RATE)</text>
</g>
<!-- main_N23&#45;&gt;main_N24 -->
<g id="edge31" class="edge">
<title>main_N23&#45;&gt;main_N24</title>
<path fill="none" stroke="black" d="M153,-842.71C153,-842.71 153,-782.08 153,-782.08"/>
<polygon fill="black" stroke="black" points="155.8,-782.08 153,-774.08 150.2,-782.08 155.8,-782.08"/>
</g>
<!-- main_N25 -->
<g id="node27" class="node">
<title>main_N25</title>
<polygon fill="#ffffff" stroke="black" stroke-width="1.1" points="251,-669 131.2,-636.5 251,-604 370.8,-636.5 251,-669"/>
<text text-anchor="middle" x="251" y="-633.7" font-family="Helvetica,sans-Serif" font-size="11.00" fill="#333333">[COMPILE] defined(LED1)?</text>
</g>
<!-- main_N24&#45;&gt;main_N25 -->
<g id="edge32" class="edge">
<title>main_N24&#45;&gt;main_N25</title>
<path fill="none" stroke="black" d="M241.43,-737.85C241.43,-737.85 241.43,-674.46 241.43,-674.46"/>
<polygon fill="black" stroke="black" points="244.23,-674.46 241.43,-666.46 238.63,-674.46 244.23,-674.46"/>
</g>
<!-- main_N26 -->
<g id="node28" class="node">
<title>main_N26</title>
<polygon fill="#ffffff" stroke="black" points="351,-525 151,-525 151,-489 351,-489 351,-525"/>
<text text-anchor="middle" x="251" y="-504.2" font-family="Helvetica,sans-Serif" font-size="11.00" fill="#333333">Read current_led_state\nfrom led</text>
</g>
<!-- main_N25&#45;&gt;main_N26 -->
<g id="edge33" class="edge">
<title>main_N25&#45;&gt;main_N26</title>
<path fill="none" stroke="black" stroke-width="1.4" d="M251,-603.82C251,-603.82 251,-533.26 251,-533.26"/>
<polygon fill="black" stroke="black" stroke-width="1.4" points="253.8,-533.26 251,-525.26 248.2,-533.26 253.8,-533.26"/>
<text text-anchor="middle" x="259" y="-562" font-family="Helvetica,sans-Serif" font-size="10.00">Yes</text>
</g>
<!-- main_N30 -->
<g id="node32" class="node">
<title>main_N30</title>
<ellipse fill="none" stroke="black" cx="491" cy="-248" rx="42.89" ry="18"/>
<text text-anchor="middle" x="491" y="-245.2" font-family="Helvetica,sans-Serif" font-size="11.00">main_N30</text>
</g>
<!-- main_N25&#45;&gt;main_N30 -->
<g id="edge34" class="edge">
<title>main_N25&#45;&gt;main_N30</title>
<path fill="none" stroke="black" stroke-width="1.4" d="M369.3,-636C436.73,-636 507.91,-636 507.91,-636 507.91,-636 507.91,-272.67 507.91,-272.67"/>
<polygon fill="black" stroke="black" stroke-width="1.4" points="510.71,-272.67 507.91,-264.67 505.11,-272.67 510.71,-272.67"/>
<text text-anchor="middle" x="522" y="-447" font-family="Helvetica,sans-Serif" font-size="10.00">No</text>
</g>
<!-- main_N27 -->
<g id="node29" class="node">
<title>main_N27</title>
<polygon fill="#ffffff" stroke="black" stroke-width="1.1" points="251,-410 19.75,-377.5 251,-345 482.25,-377.5 251,-410"/>
<text text-anchor="middle" x="251" y="-374.7" font-family="Helvetica,sans-Serif" font-size="11.00" fill="#333333">[RUNTIME] current_led_state !=\nprevious_led_state?</text>
</g>
<!-- main_N26&#45;&gt;main_N27 -->
<g id="edge35" class="edge">
<title>main_N26&#45;&gt;main_N27</title>
<path fill="none" stroke="black" d="M251,-488.99C251,-488.99 251,-418.07 251,-418.07"/>
<polygon fill="black" stroke="black" points="253.8,-418.07 251,-410.07 248.2,-418.07 253.8,-418.07"/>
</g>
<!-- main_N28 -->
<g id="node30" class="node">
<title>main_N28</title>
<polygon fill="#ffffff" stroke="black" points="393.5,-266 108.5,-266 108.5,-230 393.5,-230 393.5,-266"/>
<text text-anchor="middle" x="251" y="-245.2" font-family="Helvetica,sans-Serif" font-size="11.00" fill="#333333">Print LED1 state and\nupdate previous_led_state</text>
</g>
<!-- main_N27&#45;&gt;main_N28 -->
<g id="edge36" class="edge">
<title>main_N27&#45;&gt;main_N28</title>
<path fill="none" stroke="black" stroke-width="1.4" d="M251,-344.82C251,-344.82 251,-274.26 251,-274.26"/>
<polygon fill="black" stroke="black" stroke-width="1.4" points="253.8,-274.26 251,-266.26 248.2,-274.26 253.8,-274.26"/>
<text text-anchor="middle" x="259" y="-303" font-family="Helvetica,sans-Serif" font-size="10.00">Yes</text>
</g>
<!-- main_N27&#45;&gt;main_N30 -->
<g id="edge37" class="edge">
<title>main_N27&#45;&gt;main_N30</title>
<path fill="none" stroke="black" stroke-width="1.4" d="M465.21,-374.8C465.21,-374.8 465.21,-270.36 465.21,-270.36"/>
<polygon fill="black" stroke="black" stroke-width="1.4" points="468.01,-270.36 465.21,-262.36 462.41,-270.36 468.01,-270.36"/>
<text text-anchor="middle" x="393" y="-303" font-family="Helvetica,sans-Serif" font-size="10.00">No</text>
</g>
<!-- main_N29 -->
<g id="node31" class="node">
<title>main_N29</title>
<path fill="#ffffff" stroke="black" stroke-width="1.2" d="M369.5,-161C369.5,-161 132.5,-161 132.5,-161 126.5,-161 120.5,-155 120.5,-149 120.5,-149 120.5,-137 120.5,-137 120.5,-131 126.5,-125 132.5,-125 132.5,-125 369.5,-125 369.5,-125 375.5,-125 381.5,-131 381.5,-137 381.5,-137 381.5,-149 381.5,-149 381.5,-155 375.5,-161 369.5,-161"/>
<text text-anchor="middle" x="251" y="-140.2" font-family="Helvetica,sans-Serif" font-size="11.00" fill="#333333">call ThisThread::sleep_for(BL\nINKING_RATE)</text>
</g>
<!-- main_N28&#45;&gt;main_N29 -->
<g id="edge38" class="edge">
<title>main_N28&#45;&gt;main_N29</title>
<path fill="none" stroke="black" d="M251,-229.71C251,-229.71 251,-169.08 251,-169.08"/>
<polygon fill="black" stroke="black" points="253.8,-169.08 251,-161.08 248.2,-169.08 253.8,-169.08"/>
</g>
<!-- main_N29&#45;&gt;main_END -->
<g id="edge39" class="edge">
<title>main_N29&#45;&gt;main_END</title>
<path fill="none" stroke="black" d="M251,-124.71C251,-124.71 251,-64.08 251,-64.08"/>
<polygon fill="black" stroke="black" points="253.8,-64.08 251,-56.08 248.2,-64.08 253.8,-64.08"/>
</g>
</g>
</svg>
