<?xml version="1.0" encoding="UTF-8" standalone="no"?>
<!DOCTYPE svg PUBLIC "-//W3C//DTD SVG 1.1//EN"
 "http://www.w3.org/Graphics/SVG/1.1/DTD/svg11.dtd">
<!-- Generated by graphviz version 2.43.0 (0)
 -->
<!-- Title: main Pages: 1 -->
<svg width="674pt" height="4114pt"
 viewBox="0.00 0.00 674.00 4114.25" xmlns="http://www.w3.org/2000/svg" xmlns:xlink="http://www.w3.org/1999/xlink">
<g id="graph0" class="graph" transform="scale(1 1) rotate(0) translate(18 4096.25)">
<title>main</title>
<polygon fill="#ffffff" stroke="transparent" points="-18,18 -18,-4096.25 656,-4096.25 656,18 -18,18"/>
<g id="clust1" class="cluster">
<title>cluster_main</title>
<path fill="#ffffff" stroke="#ffffff" stroke-width="1.2" d="M20,-8C20,-8 618,-8 618,-8 624,-8 630,-14 630,-20 630,-20 630,-4058.25 630,-4058.25 630,-4064.25 624,-4070.25 618,-4070.25 618,-4070.25 20,-4070.25 20,-4070.25 14,-4070.25 8,-4064.25 8,-4058.25 8,-4058.25 8,-20 8,-20 8,-14 14,-8 20,-8"/>
<text text-anchor="middle" x="319" y="-4055.05" font-family="Helvetica,sans-Serif" font-size="14.00" fill="#333333">main</text>
</g>
<!-- main_START -->
<g id="node1" class="node">
<title>main_START</title>
<ellipse fill="#ffffff" stroke="black" stroke-width="1.4" cx="151" cy="-4012.63" rx="86.5" ry="22.76"/>
<text text-anchor="middle" x="151" y="-4015.83" font-family="Helvetica,sans-Serif" font-size="11.00" fill="#333333">START</text>
<text text-anchor="middle" x="151" y="-4003.83" font-family="Helvetica,sans-Serif" font-size="11.00" fill="#333333">main()</text>
</g>
<!-- main_N1 -->
<g id="node3" class="node">
<title>main_N1</title>
<polygon fill="#ffffff" stroke="black" points="244,-3921 58,-3921 58,-3885 244,-3885 244,-3921"/>
<text text-anchor="middle" x="151" y="-3900.2" font-family="Helvetica,sans-Serif" font-size="11.00" fill="#333333">Initialize loop_started to\nfalse</text>
</g>
<!-- main_START&#45;&gt;main_N1 -->
<g id="edge1" class="edge">
<title>main_START&#45;&gt;main_N1</title>
<path fill="none" stroke="black" d="M151,-3989.91C151,-3989.91 151,-3929.33 151,-3929.33"/>
<polygon fill="black" stroke="black" points="153.8,-3929.33 151,-3921.33 148.2,-3929.33 153.8,-3929.33"/>
</g>
<!-- main_END -->
<g id="node2" class="node">
<title>main_END</title>
<ellipse fill="#ffffff" stroke="black" stroke-width="1.2" cx="108" cy="-38" rx="65" ry="18"/>
<text text-anchor="middle" x="108" y="-35.2" font-family="Helvetica,sans-Serif" font-size="11.00" fill="#333333">main_end</text>
</g>
<!-- main_N2 -->
<g id="node4" class="node">
<title>main_N2</title>
<polygon fill="#ffffff" stroke="black" points="242,-3816 60,-3816 60,-3780 242,-3780 242,-3816"/>
<text text-anchor="middle" x="151" y="-3795.2" font-family="Helvetica,sans-Serif" font-size="11.00" fill="#333333">Print program start\nmessage</text>
</g>
<!-- main_N1&#45;&gt;main_N2 -->
<g id="edge2" class="edge">
<title>main_N1&#45;&gt;main_N2</title>
<path fill="none" stroke="black" d="M151,-3884.71C151,-3884.71 151,-3824.08 151,-3824.08"/>
<polygon fill="black" stroke="black" points="153.8,-3824.08 151,-3816.08 148.2,-3824.08 153.8,-3824.08"/>
</g>
<!-- main_N3 -->
<g id="node5" class="node">
<title>main_N3</title>
<polygon fill="#ffffff" stroke="black" stroke-width="1.1" points="151,-3711 31.2,-3678.5 151,-3646 270.8,-3678.5 151,-3711"/>
<text text-anchor="middle" x="151" y="-3675.7" font-family="Helvetica,sans-Serif" font-size="11.00" fill="#333333">[COMPILE] defined(LED1)?</text>
</g>
<!-- main_N2&#45;&gt;main_N3 -->
<g id="edge3" class="edge">
<title>main_N2&#45;&gt;main_N3</title>
<path fill="none" stroke="black" d="M151,-3779.85C151,-3779.85 151,-3719.28 151,-3719.28"/>
<polygon fill="black" stroke="black" points="153.8,-3719.28 151,-3711.28 148.2,-3719.28 153.8,-3719.28"/>
</g>
<!-- main_N3&#45;&gt;main_END -->
<g id="edge5" class="edge">
<title>main_N3&#45;&gt;main_END</title>
<path fill="none" stroke="black" stroke-width="1.4" d="M62.14,-3669.91C62.14,-3669.91 62.14,-58.8 62.14,-58.8"/>
<polygon fill="black" stroke="black" stroke-width="1.4" points="64.94,-58.8 62.14,-50.8 59.34,-58.8 64.94,-58.8"/>
<text text-anchor="middle" x="59" y="-1834" font-family="Helvetica,sans-Serif" font-size="10.00">No</text>
</g>
<!-- main_N4 -->
<g id="node6" class="node">
<title>main_N4</title>
<polygon fill="#ffffff" stroke="black" points="289.5,-3567 104.5,-3567 104.5,-3531 289.5,-3531 289.5,-3567"/>
<text text-anchor="middle" x="197" y="-3546.2" font-family="Helvetica,sans-Serif" font-size="11.00" fill="#333333">Initialize DigitalOut\nled(LED1)</text>
</g>
<!-- main_N3&#45;&gt;main_N4 -->
<g id="edge4" class="edge">
<title>main_N3&#45;&gt;main_N4</title>
<path fill="none" stroke="black" stroke-width="1.4" d="M187.57,-3655.65C187.57,-3655.65 187.57,-3575.04 187.57,-3575.04"/>
<polygon fill="black" stroke="black" stroke-width="1.4" points="190.37,-3575.04 187.57,-3567.04 184.77,-3575.04 190.37,-3575.04"/>
<text text-anchor="middle" x="182" y="-3604" font-family="Helvetica,sans-Serif" font-size="10.00">Yes</text>
</g>
<!-- main_N5 -->
<g id="node7" class="node">
<title>main_N5</title>
<polygon fill="#ffffff" stroke="black" points="288,-3462 136,-3462 136,-3426 288,-3426 288,-3462"/>
<text text-anchor="middle" x="212" y="-3441.2" font-family="Helvetica,sans-Serif" font-size="11.00" fill="#333333">Read previous LED state</text>
</g>
<!-- main_N4&#45;&gt;main_N5 -->
<g id="edge6" class="edge">
<title>main_N4&#45;&gt;main_N5</title>
<path fill="none" stroke="black" d="M212,-3530.71C212,-3530.71 212,-3470.08 212,-3470.08"/>
<polygon fill="black" stroke="black" points="214.8,-3470.08 212,-3462.08 209.2,-3470.08 214.8,-3470.08"/>
</g>
<!-- main_N6 -->
<g id="node8" class="node">
<title>main_N6</title>
<polygon fill="#ffffff" stroke="black" stroke-width="1.1" points="221,-3357 81.07,-3324.5 221,-3292 360.93,-3324.5 221,-3357"/>
<text text-anchor="middle" x="221" y="-3321.7" font-family="Helvetica,sans-Serif" font-size="11.00" fill="#333333">[RUNTIME] previous_led_state?</text>
</g>
<!-- main_N5&#45;&gt;main_N6 -->
<g id="edge7" class="edge">
<title>main_N5&#45;&gt;main_N6</title>
<path fill="none" stroke="black" d="M212,-3425.85C212,-3425.85 212,-3362.93 212,-3362.93"/>
<polygon fill="black" stroke="black" points="214.8,-3362.93 212,-3354.93 209.2,-3362.93 214.8,-3362.93"/>
</g>
<!-- main_N7 -->
<g id="node9" class="node">
<title>main_N7</title>
<polygon fill="#ffffff" stroke="black" points="248.5,-3213 97.5,-3213 97.5,-3177 248.5,-3177 248.5,-3213"/>
<text text-anchor="middle" x="173" y="-3192.2" font-family="Helvetica,sans-Serif" font-size="11.00" fill="#333333">Print LED1 starts as ON</text>
</g>
<!-- main_N6&#45;&gt;main_N7 -->
<g id="edge8" class="edge">
<title>main_N6&#45;&gt;main_N7</title>
<path fill="none" stroke="black" stroke-width="1.4" d="M173,-3303.12C173,-3303.12 173,-3221.07 173,-3221.07"/>
<polygon fill="black" stroke="black" stroke-width="1.4" points="175.8,-3221.07 173,-3213.07 170.2,-3221.07 175.8,-3221.07"/>
<text text-anchor="middle" x="205" y="-3250" font-family="Helvetica,sans-Serif" font-size="10.00">Yes</text>
</g>
<!-- main_N8 -->
<g id="node10" class="node">
<title>main_N8</title>
<polygon fill="#ffffff" stroke="black" points="308.5,-3108 157.5,-3108 157.5,-3072 308.5,-3072 308.5,-3108"/>
<text text-anchor="middle" x="233" y="-3087.2" font-family="Helvetica,sans-Serif" font-size="11.00" fill="#333333">Print LED1 starts as OFF</text>
</g>
<!-- main_N6&#45;&gt;main_N8 -->
<g id="edge9" class="edge">
<title>main_N6&#45;&gt;main_N8</title>
<path fill="none" stroke="black" stroke-width="1.4" d="M278.5,-3305.31C278.5,-3305.31 278.5,-3116.15 278.5,-3116.15"/>
<polygon fill="black" stroke="black" stroke-width="1.4" points="281.3,-3116.15 278.5,-3108.15 275.7,-3116.15 281.3,-3116.15"/>
<text text-anchor="middle" x="320" y="-3192.5" font-family="Helvetica,sans-Serif" font-size="10.00">No</text>
</g>
<!-- main_N7&#45;&gt;main_N8 -->
<g id="edge10" class="edge">
<title>main_N7&#45;&gt;main_N8</title>
<path fill="none" stroke="black" d="M203,-3176.71C203,-3176.71 203,-3116.08 203,-3116.08"/>
<polygon fill="black" stroke="black" points="205.8,-3116.08 203,-3108.08 200.2,-3116.08 205.8,-3116.08"/>
</g>
<!-- main_N9 -->
<g id="node11" class="node">
<title>main_N9</title>
<polygon fill="#ffffff" stroke="black" stroke-width="1.1" points="233,-3003 94.06,-2970.5 233,-2938 371.94,-2970.5 233,-3003"/>
<text text-anchor="middle" x="233" y="-2967.7" font-family="Helvetica,sans-Serif" font-size="11.00" fill="#333333">[COMPILE] defined(BUTTON1)?</text>
</g>
<!-- main_N8&#45;&gt;main_N9 -->
<g id="edge11" class="edge">
<title>main_N8&#45;&gt;main_N9</title>
<path fill="none" stroke="black" d="M233,-3071.85C233,-3071.85 233,-3011.28 233,-3011.28"/>
<polygon fill="black" stroke="black" points="235.8,-3011.28 233,-3003.28 230.2,-3011.28 235.8,-3011.28"/>
</g>
<!-- main_N9&#45;&gt;main_END -->
<g id="edge13" class="edge">
<title>main_N9&#45;&gt;main_END</title>
<path fill="none" stroke="black" stroke-width="1.4" d="M104.51,-2967.81C104.51,-2967.81 104.51,-64.08 104.51,-64.08"/>
<polygon fill="black" stroke="black" stroke-width="1.4" points="107.31,-64.08 104.51,-56.08 101.71,-64.08 107.31,-64.08"/>
<text text-anchor="middle" x="69" y="-1480" font-family="Helvetica,sans-Serif" font-size="10.00">No</text>
</g>
<!-- main_N10 -->
<g id="node12" class="node">
<title>main_N10</title>
<polygon fill="#ffffff" stroke="black" points="377,-2859 115,-2859 115,-2823 377,-2823 377,-2859"/>
<text text-anchor="middle" x="246" y="-2838.2" font-family="Helvetica,sans-Serif" font-size="11.00" fill="#333333">Initialize DigitalIn\nbutton(BUTTON1, PullUp)</text>
</g>
<!-- main_N9&#45;&gt;main_N10 -->
<g id="edge12" class="edge">
<title>main_N9&#45;&gt;main_N10</title>
<path fill="none" stroke="black" stroke-width="1.4" d="M243.49,-2940.14C243.49,-2940.14 243.49,-2867.19 243.49,-2867.19"/>
<polygon fill="black" stroke="black" stroke-width="1.4" points="246.29,-2867.19 243.49,-2859.19 240.69,-2867.19 246.29,-2867.19"/>
<text text-anchor="middle" x="247" y="-2896" font-family="Helvetica,sans-Serif" font-size="10.00">Yes</text>
</g>
<!-- main_N11 -->
<g id="node13" class="node">
<title>main_N11</title>
<polygon fill="#ffffff" stroke="black" points="353,-2754 139,-2754 139,-2718 353,-2718 353,-2754"/>
<text text-anchor="middle" x="246" y="-2733.2" font-family="Helvetica,sans-Serif" font-size="11.00" fill="#333333">Initialize\nprevious_pressed to false</text>
</g>
<!-- main_N10&#45;&gt;main_N11 -->
<g id="edge14" class="edge">
<title>main_N10&#45;&gt;main_N11</title>
<path fill="none" stroke="black" d="M246,-2822.71C246,-2822.71 246,-2762.08 246,-2762.08"/>
<polygon fill="black" stroke="black" points="248.8,-2762.08 246,-2754.08 243.2,-2762.08 248.8,-2762.08"/>
</g>
<!-- main_N12 -->
<g id="node14" class="node">
<title>main_N12</title>
<polygon fill="#ffffff" stroke="black" points="349,-2649 143,-2649 143,-2613 349,-2613 349,-2649"/>
<text text-anchor="middle" x="246" y="-2628.2" font-family="Helvetica,sans-Serif" font-size="11.00" fill="#333333">Initialize\nbutton_press_count to 0</text>
</g>
<!-- main_N11&#45;&gt;main_N12 -->
<g id="edge15" class="edge">
<title>main_N11&#45;&gt;main_N12</title>
<path fill="none" stroke="black" d="M246,-2717.71C246,-2717.71 246,-2657.08 246,-2657.08"/>
<polygon fill="black" stroke="black" points="248.8,-2657.08 246,-2649.08 243.2,-2657.08 248.8,-2657.08"/>
</g>
<!-- main_N13 -->
<g id="node15" class="node">
<title>main_N13</title>
<polygon fill="#ffffff" stroke="black" stroke-width="1.1" points="246,-2544 128.66,-2511.5 246,-2479 363.34,-2511.5 246,-2544"/>
<text text-anchor="middle" x="246" y="-2508.7" font-family="Helvetica,sans-Serif" font-size="11.00" fill="#333333">[RUNTIME] !loop_started?</text>
</g>
<!-- main_N12&#45;&gt;main_N13 -->
<g id="edge16" class="edge">
<title>main_N12&#45;&gt;main_N13</title>
<path fill="none" stroke="black" d="M246,-2612.85C246,-2612.85 246,-2552.28 246,-2552.28"/>
<polygon fill="black" stroke="black" points="248.8,-2552.28 246,-2544.28 243.2,-2552.28 248.8,-2552.28"/>
</g>
<!-- main_N14 -->
<g id="node16" class="node">
<title>main_N14</title>
<polygon fill="#ffffff" stroke="black" points="332.5,-2400 129.5,-2400 129.5,-2364 332.5,-2364 332.5,-2400"/>
<text text-anchor="middle" x="231" y="-2379.2" font-family="Helvetica,sans-Serif" font-size="11.00" fill="#333333">Print main loop started\nmessage</text>
</g>
<!-- main_N13&#45;&gt;main_N14 -->
<g id="edge17" class="edge">
<title>main_N13&#45;&gt;main_N14</title>
<path fill="none" stroke="black" stroke-width="1.4" d="M231,-2483.08C231,-2483.08 231,-2408.37 231,-2408.37"/>
<polygon fill="black" stroke="black" stroke-width="1.4" points="233.8,-2408.37 231,-2400.37 228.2,-2408.37 233.8,-2408.37"/>
<text text-anchor="middle" x="246" y="-2437" font-family="Helvetica,sans-Serif" font-size="10.00">Yes</text>
</g>
<!-- main_N15 -->
<g id="node17" class="node">
<title>main_N15</title>
<polygon fill="#ffffff" stroke="black" points="406.5,-2295 255.5,-2295 255.5,-2259 406.5,-2259 406.5,-2295"/>
<text text-anchor="middle" x="331" y="-2274.2" font-family="Helvetica,sans-Serif" font-size="11.00" fill="#333333">Set loop_started to true</text>
</g>
<!-- main_N13&#45;&gt;main_N15 -->
<g id="edge18" class="edge">
<title>main_N13&#45;&gt;main_N15</title>
<path fill="none" stroke="black" stroke-width="1.4" d="M347.96,-2507.02C347.96,-2507.02 347.96,-2303.09 347.96,-2303.09"/>
<polygon fill="black" stroke="black" stroke-width="1.4" points="350.76,-2303.09 347.96,-2295.09 345.16,-2303.09 350.76,-2303.09"/>
<text text-anchor="middle" x="404" y="-2379.5" font-family="Helvetica,sans-Serif" font-size="10.00">No</text>
</g>
<!-- main_N14&#45;&gt;main_N15 -->
<g id="edge19" class="edge">
<title>main_N14&#45;&gt;main_N15</title>
<path fill="none" stroke="black" d="M294,-2363.71C294,-2363.71 294,-2303.08 294,-2303.08"/>
<polygon fill="black" stroke="black" points="296.8,-2303.08 294,-2295.08 291.2,-2303.08 296.8,-2303.08"/>
</g>
<!-- main_N16 -->
<g id="node18" class="node">
<title>main_N16</title>
<polygon fill="#ffffff" stroke="black" stroke-width="1.1" points="331,-2190 165.05,-2157.5 331,-2125 496.95,-2157.5 331,-2190"/>
<text text-anchor="middle" x="331" y="-2154.7" font-family="Helvetica,sans-Serif" font-size="11.00" fill="#333333">[RUNTIME] button_press_count &gt;\n0?</text>
</g>
<!-- main_N15&#45;&gt;main_N16 -->
<g id="edge20" class="edge">
<title>main_N15&#45;&gt;main_N16</title>
<path fill="none" stroke="black" d="M331,-2258.85C331,-2258.85 331,-2198.28 331,-2198.28"/>
<polygon fill="black" stroke="black" points="333.8,-2198.28 331,-2190.28 328.2,-2198.28 333.8,-2198.28"/>
</g>
<!-- main_N16&#45;&gt;main_END -->
<g id="edge22" class="edge">
<title>main_N16&#45;&gt;main_END</title>
<path fill="none" stroke="black" stroke-width="1.4" d="M167.53,-2157C149.36,-2157 137.26,-2157 137.26,-2157 137.26,-2157 137.26,-62.14 137.26,-62.14"/>
<polygon fill="black" stroke="black" stroke-width="1.4" points="140.06,-62.14 137.26,-54.14 134.46,-62.14 140.06,-62.14"/>
<text text-anchor="middle" x="127" y="-1107.5" font-family="Helvetica,sans-Serif" font-size="10.00">No</text>
</g>
<!-- main_N17 -->
<g id="node19" class="node">
<title>main_N17</title>
<polygon fill="#ffffff" stroke="black" points="451,-2046 269,-2046 269,-2010 451,-2010 451,-2046"/>
<text text-anchor="middle" x="360" y="-2025.2" font-family="Helvetica,sans-Serif" font-size="11.00" fill="#333333">Print total BUTTON1\npresses</text>
</g>
<!-- main_N16&#45;&gt;main_N17 -->
<g id="edge21" class="edge">
<title>main_N16&#45;&gt;main_N17</title>
<path fill="none" stroke="black" stroke-width="1.4" d="M360,-2130.67C360,-2130.67 360,-2054.06 360,-2054.06"/>
<polygon fill="black" stroke="black" stroke-width="1.4" points="362.8,-2054.06 360,-2046.06 357.2,-2054.06 362.8,-2054.06"/>
<text text-anchor="middle" x="343" y="-2083" font-family="Helvetica,sans-Serif" font-size="10.00">Yes</text>
</g>
<!-- main_N18 -->
<g id="node20" class="node">
<title>main_N18</title>
<polygon fill="#ffffff" stroke="black" stroke-width="1.1" points="372,-1941 152.54,-1908.5 372,-1876 591.46,-1908.5 372,-1941"/>
<text text-anchor="middle" x="372" y="-1905.7" font-family="Helvetica,sans-Serif" font-size="11.00" fill="#333333">[COMPILE] defined(LED1) &amp;&amp;\ndefined(BUTTON1)?</text>
</g>
<!-- main_N17&#45;&gt;main_N18 -->
<g id="edge23" class="edge">
<title>main_N17&#45;&gt;main_N18</title>
<path fill="none" stroke="black" d="M360,-2009.85C360,-2009.85 360,-1947.39 360,-1947.39"/>
<polygon fill="black" stroke="black" points="362.8,-1947.39 360,-1939.39 357.2,-1947.39 362.8,-1947.39"/>
</g>
<!-- main_N19 -->
<g id="node21" class="node">
<title>main_N19</title>
<polygon fill="#ffffff" stroke="black" points="446.5,-1797 295.5,-1797 295.5,-1761 446.5,-1761 446.5,-1797"/>
<text text-anchor="middle" x="371" y="-1776.2" font-family="Helvetica,sans-Serif" font-size="11.00" fill="#333333">Read button state</text>
</g>
<!-- main_N18&#45;&gt;main_N19 -->
<g id="edge24" class="edge">
<title>main_N18&#45;&gt;main_N19</title>
<path fill="none" stroke="black" stroke-width="1.4" d="M371,-1875.82C371,-1875.82 371,-1805.26 371,-1805.26"/>
<polygon fill="black" stroke="black" stroke-width="1.4" points="373.8,-1805.26 371,-1797.26 368.2,-1805.26 373.8,-1805.26"/>
<text text-anchor="middle" x="380" y="-1834" font-family="Helvetica,sans-Serif" font-size="10.00">Yes</text>
</g>
<!-- main_N26 -->
<g id="node28" class="node">
<title>main_N26</title>
<polygon fill="#ffffff" stroke="black" stroke-width="1.1" points="474,-1023 354.2,-990.5 474,-958 593.8,-990.5 474,-1023"/>
<text text-anchor="middle" x="474" y="-987.7" font-family="Helvetica,sans-Serif" font-size="11.00" fill="#333333">[COMPILE] defined(LED1)?</text>
</g>
<!-- main_N18&#45;&gt;main_N26 -->
<g id="edge25" class="edge">
<title>main_N18&#45;&gt;main_N26</title>
<path fill="none" stroke="black" stroke-width="1.4" d="M566.73,-1904.8C566.73,-1904.8 566.73,-1005.87 566.73,-1005.87"/>
<polygon fill="black" stroke="black" stroke-width="1.4" points="569.53,-1005.87 566.73,-997.87 563.93,-1005.87 569.53,-1005.87"/>
<text text-anchor="middle" x="582" y="-1422.5" font-family="Helvetica,sans-Serif" font-size="10.00">No</text>
</g>
<!-- main_N20 -->
<g id="node22" class="node">
<title>main_N20</title>
<path fill="#ffffff" stroke="black" stroke-width="1.2" d="M446,-1692C446,-1692 268,-1692 268,-1692 262,-1692 256,-1686 256,-1680 256,-1680 256,-1668 256,-1668 256,-1662 262,-1656 268,-1656 268,-1656 446,-1656 446,-1656 452,-1656 458,-1662 458,-1668 458,-1668 458,-1680 458,-1680 458,-1686 452,-1692 446,-1692"/>
<text text-anchor="middle" x="357" y="-1671.2" font-family="Helvetica,sans-Serif" font-size="11.00" fill="#333333">call set_led1_state(led,\npressed)</text>
</g>
<!-- main_N19&#45;&gt;main_N20 -->
<g id="edge26" class="edge">
<title>main_N19&#45;&gt;main_N20</title>
<path fill="none" stroke="black" d="M371,-1760.71C371,-1760.71 371,-1700.08 371,-1700.08"/>
<polygon fill="black" stroke="black" points="373.8,-1700.08 371,-1692.08 368.2,-1700.08 373.8,-1700.08"/>
</g>
<!-- main_N21 -->
<g id="node23" class="node">
<title>main_N21</title>
<polygon fill="#ffffff" stroke="black" stroke-width="1.1" points="349,-1587 155.56,-1554.5 349,-1522 542.44,-1554.5 349,-1587"/>
<text text-anchor="middle" x="349" y="-1551.7" font-family="Helvetica,sans-Serif" font-size="11.00" fill="#333333">[RUNTIME] pressed &amp;&amp;\n!previous_pressed?</text>
</g>
<!-- main_N20&#45;&gt;main_N21 -->
<g id="edge27" class="edge">
<title>main_N20&#45;&gt;main_N21</title>
<path fill="none" stroke="black" d="M357,-1655.85C357,-1655.85 357,-1593.86 357,-1593.86"/>
<polygon fill="black" stroke="black" points="359.8,-1593.86 357,-1585.86 354.2,-1593.86 359.8,-1593.86"/>
</g>
<!-- main_N22 -->
<g id="node24" class="node">
<title>main_N22</title>
<polygon fill="#ffffff" stroke="black" points="405,-1443 215,-1443 215,-1407 405,-1407 405,-1443"/>
<text text-anchor="middle" x="310" y="-1422.2" font-family="Helvetica,sans-Serif" font-size="11.00" fill="#333333">Increment\nbutton_press_count</text>
</g>
<!-- main_N21&#45;&gt;main_N22 -->
<g id="edge28" class="edge">
<title>main_N21&#45;&gt;main_N22</title>
<path fill="none" stroke="black" stroke-width="1.4" d="M310,-1528.29C310,-1528.29 310,-1451.24 310,-1451.24"/>
<polygon fill="black" stroke="black" stroke-width="1.4" points="312.8,-1451.24 310,-1443.24 307.2,-1451.24 312.8,-1451.24"/>
<text text-anchor="middle" x="338" y="-1480" font-family="Helvetica,sans-Serif" font-size="10.00">Yes</text>
</g>
<!-- main_N23 -->
<g id="node25" class="node">
<title>main_N23</title>
<polygon fill="#ffffff" stroke="black" points="534,-1338 346,-1338 346,-1302 534,-1302 534,-1338"/>
<text text-anchor="middle" x="440" y="-1317.2" font-family="Helvetica,sans-Serif" font-size="11.00" fill="#333333">Print BUTTON1 pressed\ntimes</text>
</g>
<!-- main_N21&#45;&gt;main_N23 -->
<g id="edge29" class="edge">
<title>main_N21&#45;&gt;main_N23</title>
<path fill="none" stroke="black" stroke-width="1.4" d="M469.5,-1542.22C469.5,-1542.22 469.5,-1346.01 469.5,-1346.01"/>
<polygon fill="black" stroke="black" stroke-width="1.4" points="472.3,-1346.01 469.5,-1338.01 466.7,-1346.01 472.3,-1346.01"/>
<text text-anchor="middle" x="476" y="-1422.5" font-family="Helvetica,sans-Serif" font-size="10.00">No</text>
</g>
<!-- main_N22&#45;&gt;main_N23 -->
<g id="edge30" class="edge">
<title>main_N22&#45;&gt;main_N23</title>
<path fill="none" stroke="black" d="M375.5,-1406.71C375.5,-1406.71 375.5,-1346.08 375.5,-1346.08"/>
<polygon fill="black" stroke="black" points="378.3,-1346.08 375.5,-1338.08 372.7,-1346.08 378.3,-1346.08"/>
</g>
<!-- main_N24 -->
<g id="node26" class="node">
<title>main_N24</title>
<polygon fill="#ffffff" stroke="black" points="541.5,-1233 338.5,-1233 338.5,-1197 541.5,-1197 541.5,-1233"/>
<text text-anchor="middle" x="440" y="-1212.2" font-family="Helvetica,sans-Serif" font-size="11.00" fill="#333333">Set previous_pressed to\npressed</text>
</g>
<!-- main_N23&#45;&gt;main_N24 -->
<g id="edge31" class="edge">
<title>main_N23&#45;&gt;main_N24</title>
<path fill="none" stroke="black" d="M440,-1301.71C440,-1301.71 440,-1241.08 440,-1241.08"/>
<polygon fill="black" stroke="black" points="442.8,-1241.08 440,-1233.08 437.2,-1241.08 442.8,-1241.08"/>
</g>
<!-- main_N25 -->
<g id="node27" class="node">
<title>main_N25</title>
<polygon fill="#ffffff" stroke="black" points="536,-1128 354,-1128 354,-1092 536,-1092 536,-1128"/>
<text text-anchor="middle" x="445" y="-1107.2" font-family="Helvetica,sans-Serif" font-size="11.00" fill="#333333">Sleep for BUTTON_POLL_RATE</text>
</g>
<!-- main_N24&#45;&gt;main_N25 -->
<g id="edge32" class="edge">
<title>main_N24&#45;&gt;main_N25</title>
<path fill="none" stroke="black" d="M445,-1196.71C445,-1196.71 445,-1136.08 445,-1136.08"/>
<polygon fill="black" stroke="black" points="447.8,-1136.08 445,-1128.08 442.2,-1136.08 447.8,-1136.08"/>
</g>
<!-- main_N25&#45;&gt;main_N26 -->
<g id="edge33" class="edge">
<title>main_N25&#45;&gt;main_N26</title>
<path fill="none" stroke="black" d="M445.18,-1091.85C445.18,-1091.85 445.18,-1023.49 445.18,-1023.49"/>
<polygon fill="black" stroke="black" points="447.98,-1023.49 445.18,-1015.49 442.38,-1023.49 447.98,-1023.49"/>
</g>
<!-- main_N27 -->
<g id="node29" class="node">
<title>main_N27</title>
<path fill="#ffffff" stroke="black" stroke-width="1.2" d="M398.5,-879C398.5,-879 271.5,-879 271.5,-879 265.5,-879 259.5,-873 259.5,-867 259.5,-867 259.5,-855 259.5,-855 259.5,-849 265.5,-843 271.5,-843 271.5,-843 398.5,-843 398.5,-843 404.5,-843 410.5,-849 410.5,-855 410.5,-855 410.5,-867 410.5,-867 410.5,-873 404.5,-879 398.5,-879"/>
<text text-anchor="middle" x="335" y="-858.2" font-family="Helvetica,sans-Serif" font-size="11.00" fill="#333333">call blink_led1(led)</text>
</g>
<!-- main_N26&#45;&gt;main_N27 -->
<g id="edge34" class="edge">
<title>main_N26&#45;&gt;main_N27</title>
<path fill="none" stroke="black" stroke-width="1.4" d="M382.43,-982.79C382.43,-982.79 382.43,-887.26 382.43,-887.26"/>
<polygon fill="black" stroke="black" stroke-width="1.4" points="385.23,-887.26 382.43,-879.26 379.63,-887.26 385.23,-887.26"/>
<text text-anchor="middle" x="402" y="-916" font-family="Helvetica,sans-Serif" font-size="10.00">Yes</text>
</g>
<!-- main_N28 -->
<g id="node30" class="node">
<title>main_N28</title>
<polygon fill="#ffffff" stroke="black" points="440,-774 286,-774 286,-738 440,-738 440,-774"/>
<text text-anchor="middle" x="363" y="-753.2" font-family="Helvetica,sans-Serif" font-size="11.00" fill="#333333">Sleep for BLINKING_RATE</text>
</g>
<!-- main_N26&#45;&gt;main_N28 -->
<g id="edge35" class="edge">
<title>main_N26&#45;&gt;main_N28</title>
<path fill="none" stroke="black" stroke-width="1.4" d="M425.25,-970.91C425.25,-970.91 425.25,-782.07 425.25,-782.07"/>
<polygon fill="black" stroke="black" stroke-width="1.4" points="428.05,-782.07 425.25,-774.07 422.45,-782.07 428.05,-782.07"/>
<text text-anchor="middle" x="482" y="-858.5" font-family="Helvetica,sans-Serif" font-size="10.00">No</text>
</g>
<!-- main_N27&#45;&gt;main_N28 -->
<g id="edge36" class="edge">
<title>main_N27&#45;&gt;main_N28</title>
<path fill="none" stroke="black" d="M348.25,-842.71C348.25,-842.71 348.25,-782.08 348.25,-782.08"/>
<polygon fill="black" stroke="black" points="351.05,-782.08 348.25,-774.08 345.45,-782.08 351.05,-782.08"/>
</g>
<!-- main_N29 -->
<g id="node31" class="node">
<title>main_N29</title>
<polygon fill="#ffffff" stroke="black" stroke-width="1.1" points="363,-669 243.2,-636.5 363,-604 482.8,-636.5 363,-669"/>
<text text-anchor="middle" x="363" y="-633.7" font-family="Helvetica,sans-Serif" font-size="11.00" fill="#333333">[COMPILE] defined(LED1)?</text>
</g>
<!-- main_N28&#45;&gt;main_N29 -->
<g id="edge37" class="edge">
<title>main_N28&#45;&gt;main_N29</title>
<path fill="none" stroke="black" d="M363,-737.85C363,-737.85 363,-677.28 363,-677.28"/>
<polygon fill="black" stroke="black" points="365.8,-677.28 363,-669.28 360.2,-677.28 365.8,-677.28"/>
</g>
<!-- main_N29&#45;&gt;main_END -->
<g id="edge39" class="edge">
<title>main_N29&#45;&gt;main_END</title>
<path fill="none" stroke="black" stroke-width="1.4" d="M244.76,-636C193.51,-636 145.01,-636 145.01,-636 145.01,-636 145.01,-61.08 145.01,-61.08"/>
<polygon fill="black" stroke="black" stroke-width="1.4" points="147.81,-61.08 145.01,-53.08 142.21,-61.08 147.81,-61.08"/>
<text text-anchor="middle" x="134" y="-313" font-family="Helvetica,sans-Serif" font-size="10.00">No</text>
</g>
<!-- main_N30 -->
<g id="node32" class="node">
<title>main_N30</title>
<polygon fill="#ffffff" stroke="black" points="454.5,-525 303.5,-525 303.5,-489 454.5,-489 454.5,-525"/>
<text text-anchor="middle" x="379" y="-504.2" font-family="Helvetica,sans-Serif" font-size="11.00" fill="#333333">Read current LED state</text>
</g>
<!-- main_N29&#45;&gt;main_N30 -->
<g id="edge38" class="edge">
<title>main_N29&#45;&gt;main_N30</title>
<path fill="none" stroke="black" stroke-width="1.4" d="M379,-608.08C379,-608.08 379,-533.37 379,-533.37"/>
<polygon fill="black" stroke="black" stroke-width="1.4" points="381.8,-533.37 379,-525.37 376.2,-533.37 381.8,-533.37"/>
<text text-anchor="middle" x="374" y="-562" font-family="Helvetica,sans-Serif" font-size="10.00">Yes</text>
</g>
<!-- main_N31 -->
<g id="node33" class="node">
<title>main_N31</title>
<polygon fill="#ffffff" stroke="black" stroke-width="1.1" points="387,-420 155.75,-387.5 387,-355 618.25,-387.5 387,-420"/>
<text text-anchor="middle" x="387" y="-384.7" font-family="Helvetica,sans-Serif" font-size="11.00" fill="#333333">[RUNTIME] current_led_state !=\nprevious_led_state?</text>
</g>
<!-- main_N30&#45;&gt;main_N31 -->
<g id="edge40" class="edge">
<title>main_N30&#45;&gt;main_N31</title>
<path fill="none" stroke="black" d="M379,-488.85C379,-488.85 379,-427.33 379,-427.33"/>
<polygon fill="black" stroke="black" points="381.8,-427.33 379,-419.33 376.2,-427.34 381.8,-427.33"/>
</g>
<!-- main_N31&#45;&gt;main_END -->
<g id="edge42" class="edge">
<title>main_N31&#45;&gt;main_END</title>
<path fill="none" stroke="black" stroke-width="1.4" d="M161.58,-386.5C161.58,-386.5 161.58,-56.2 161.58,-56.2"/>
<polygon fill="black" stroke="black" stroke-width="1.4" points="164.38,-56.2 161.58,-48.2 158.78,-56.2 164.38,-56.2"/>
<text text-anchor="middle" x="201" y="-198" font-family="Helvetica,sans-Serif" font-size="10.00">No</text>
</g>
<!-- main_N32 -->
<g id="node34" class="node">
<title>main_N32</title>
<polygon fill="#ffffff" stroke="black" points="463.5,-276 302.5,-276 302.5,-240 463.5,-240 463.5,-276"/>
<text text-anchor="middle" x="383" y="-255.2" font-family="Helvetica,sans-Serif" font-size="11.00" fill="#333333">Print LED1 state (ON/OFF)</text>
</g>
<!-- main_N31&#45;&gt;main_N32 -->
<g id="edge41" class="edge">
<title>main_N31&#45;&gt;main_N32</title>
<path fill="none" stroke="black" stroke-width="1.4" d="M383,-355.49C383,-355.49 383,-284.09 383,-284.09"/>
<polygon fill="black" stroke="black" stroke-width="1.4" points="385.8,-284.09 383,-276.09 380.2,-284.09 385.8,-284.09"/>
<text text-anchor="middle" x="393" y="-313" font-family="Helvetica,sans-Serif" font-size="10.00">Yes</text>
</g>
<!-- main_N33 -->
<g id="node35" class="node">
<title>main_N33</title>
<polygon fill="#ffffff" stroke="black" points="496,-161 234,-161 234,-125 496,-125 496,-161"/>
<text text-anchor="middle" x="365" y="-140.2" font-family="Helvetica,sans-Serif" font-size="11.00" fill="#333333">Set previous_led_state to\ncurrent_led_state</text>
</g>
<!-- main_N32&#45;&gt;main_N33 -->
<g id="edge43" class="edge">
<title>main_N32&#45;&gt;main_N33</title>
<path fill="none" stroke="black" d="M383,-239.78C383,-239.78 383,-169.14 383,-169.14"/>
<polygon fill="black" stroke="black" points="385.8,-169.14 383,-161.14 380.2,-169.14 385.8,-169.14"/>
</g>
<!-- main_N33&#45;&gt;main_END -->
<g id="edge44" class="edge">
<title>main_N33&#45;&gt;main_END</title>
<path fill="none" stroke="black" d="M233.95,-143C197.31,-143 167.29,-143 167.29,-143 167.29,-143 167.29,-53.55 167.29,-53.55"/>
<polygon fill="black" stroke="black" points="170.09,-53.55 167.29,-45.55 164.49,-53.55 170.09,-53.55"/>
</g>
</g>
</svg>
