<?xml version="1.0" encoding="UTF-8" standalone="no"?>
<!DOCTYPE svg PUBLIC "-//W3C//DTD SVG 1.1//EN"
 "http://www.w3.org/Graphics/SVG/1.1/DTD/svg11.dtd">
<!-- Generated by graphviz version 2.43.0 (0)
 -->
<!-- Title: main Pages: 1 -->
<svg width="402pt" height="1138pt"
 viewBox="0.00 0.00 402.00 1138.25" xmlns="http://www.w3.org/2000/svg" xmlns:xlink="http://www.w3.org/1999/xlink">
<g id="graph0" class="graph" transform="scale(1 1) rotate(0) translate(18 1120.25)">
<title>main</title>
<polygon fill="#ffffff" stroke="transparent" points="-18,18 -18,-1120.25 384,-1120.25 384,18 -18,18"/>
<g id="clust1" class="cluster">
<title>cluster_main</title>
<path fill="#ffffff" stroke="#d32f2f" stroke-width="3" d="M20,-8C20,-8 346,-8 346,-8 352,-8 358,-14 358,-20 358,-20 358,-1082.25 358,-1082.25 358,-1088.25 352,-1094.25 346,-1094.25 346,-1094.25 20,-1094.25 20,-1094.25 14,-1094.25 8,-1088.25 8,-1082.25 8,-1082.25 8,-20 8,-20 8,-14 14,-8 20,-8"/>
<text text-anchor="middle" x="183" y="-1079.05" font-family="Helvetica,sans-Serif" font-size="14.00" fill="#d32f2f">main</text>
</g>
<!-- main_START -->
<g id="node1" class="node">
<title>main_START</title>
<ellipse fill="#ffffff" stroke="black" stroke-width="1.4" cx="183" cy="-1036.63" rx="86.5" ry="22.76"/>
<text text-anchor="middle" x="183" y="-1039.83" font-family="Helvetica,sans-Serif" font-size="11.00" fill="#333333">START</text>
<text text-anchor="middle" x="183" y="-1027.83" font-family="Helvetica,sans-Serif" font-size="11.00" fill="#333333">main()</text>
</g>
<!-- main_N1 -->
<g id="node3" class="node">
<title>main_N1</title>
<polygon fill="#d32f2f" stroke="black" points="298,-945 68,-945 68,-909 298,-909 298,-945"/>
<text text-anchor="middle" x="183" y="-924.2" font-family="Helvetica,sans-Serif" font-size="11.00" fill="#ffffff">Check LED1 and BUTTON1\ndefinitions</text>
</g>
<!-- main_START&#45;&gt;main_N1 -->
<g id="edge1" class="edge">
<title>main_START&#45;&gt;main_N1</title>
<path fill="none" stroke="black" d="M183,-1013.91C183,-1013.91 183,-953.33 183,-953.33"/>
<polygon fill="black" stroke="black" points="185.8,-953.33 183,-945.33 180.2,-953.33 185.8,-953.33"/>
</g>
<!-- main_END -->
<g id="node2" class="node">
<title>main_END</title>
<ellipse fill="#ffffff" stroke="black" stroke-width="1.2" cx="218" cy="-38" rx="65" ry="18"/>
<text text-anchor="middle" x="218" y="-35.2" font-family="Helvetica,sans-Serif" font-size="11.00" fill="#333333">main_end</text>
</g>
<!-- main_N2 -->
<g id="node4" class="node">
<title>main_N2</title>
<path fill="#ffffff" stroke="black" stroke-width="1.2" d="M254,-840C254,-840 112,-840 112,-840 106,-840 100,-834 100,-828 100,-828 100,-816 100,-816 100,-810 106,-804 112,-804 112,-804 254,-804 254,-804 260,-804 266,-810 266,-816 266,-816 266,-828 266,-828 266,-834 260,-840 254,-840"/>
<text text-anchor="middle" x="183" y="-819.2" font-family="Helvetica,sans-Serif" font-size="11.00" fill="#333333">call DigitalOut led(LED1, 0)</text>
</g>
<!-- main_N1&#45;&gt;main_N2 -->
<g id="edge2" class="edge">
<title>main_N1&#45;&gt;main_N2</title>
<path fill="none" stroke="black" d="M183,-908.71C183,-908.71 183,-848.08 183,-848.08"/>
<polygon fill="black" stroke="black" points="185.8,-848.08 183,-840.08 180.2,-848.08 185.8,-848.08"/>
</g>
<!-- main_N3 -->
<g id="node5" class="node">
<title>main_N3</title>
<polygon fill="#d32f2f" stroke="black" points="258.5,-735 107.5,-735 107.5,-699 258.5,-699 258.5,-735"/>
<text text-anchor="middle" x="183" y="-714.2" font-family="Helvetica,sans-Serif" font-size="11.00" fill="#ffffff">Read button state</text>
</g>
<!-- main_N2&#45;&gt;main_N3 -->
<g id="edge3" class="edge">
<title>main_N2&#45;&gt;main_N3</title>
<path fill="none" stroke="black" d="M183,-803.71C183,-803.71 183,-743.08 183,-743.08"/>
<polygon fill="black" stroke="black" points="185.8,-743.08 183,-735.08 180.2,-743.08 185.8,-743.08"/>
</g>
<!-- main_N4 -->
<g id="node6" class="node">
<title>main_N4</title>
<polygon fill="#d32f2f" stroke="black" stroke-width="1.1" points="183,-630 19.51,-597.5 183,-565 346.49,-597.5 183,-630"/>
<text text-anchor="middle" x="183" y="-594.7" font-family="Helvetica,sans-Serif" font-size="11.00" fill="#ffffff">Button pressed and not\npreviously?</text>
</g>
<!-- main_N3&#45;&gt;main_N4 -->
<g id="edge4" class="edge">
<title>main_N3&#45;&gt;main_N4</title>
<path fill="none" stroke="black" d="M183,-698.85C183,-698.85 183,-638.28 183,-638.28"/>
<polygon fill="black" stroke="black" points="185.8,-638.28 183,-630.28 180.2,-638.28 185.8,-638.28"/>
</g>
<!-- main_N5 -->
<g id="node7" class="node">
<title>main_N5</title>
<polygon fill="#ffffff" stroke="black" points="241.5,-486 90.5,-486 90.5,-450 241.5,-450 241.5,-486"/>
<text text-anchor="middle" x="166" y="-465.2" font-family="Helvetica,sans-Serif" font-size="11.00" fill="#333333">Toggle LED state</text>
</g>
<!-- main_N4&#45;&gt;main_N5 -->
<g id="edge5" class="edge">
<title>main_N4&#45;&gt;main_N5</title>
<path fill="none" stroke="black" stroke-width="1.4" d="M166,-568.11C166,-568.11 166,-494.09 166,-494.09"/>
<polygon fill="black" stroke="black" stroke-width="1.4" points="168.8,-494.09 166,-486.09 163.2,-494.09 168.8,-494.09"/>
<text text-anchor="middle" x="182" y="-523" font-family="Helvetica,sans-Serif" font-size="10.00">Yes</text>
</g>
<!-- main_N7 -->
<g id="node9" class="node">
<title>main_N7</title>
<polygon fill="#ffffff" stroke="black" points="315.5,-266 120.5,-266 120.5,-230 315.5,-230 315.5,-266"/>
<text text-anchor="middle" x="218" y="-245.2" font-family="Helvetica,sans-Serif" font-size="11.00" fill="#333333">Update previous_pressed\nstate</text>
</g>
<!-- main_N4&#45;&gt;main_N7 -->
<g id="edge6" class="edge">
<title>main_N4&#45;&gt;main_N7</title>
<path fill="none" stroke="black" stroke-width="1.4" d="M282.25,-584.65C282.25,-584.65 282.25,-274.19 282.25,-274.19"/>
<polygon fill="black" stroke="black" stroke-width="1.4" points="285.05,-274.19 282.25,-266.19 279.45,-274.19 285.05,-274.19"/>
<text text-anchor="middle" x="289" y="-408" font-family="Helvetica,sans-Serif" font-size="10.00">No</text>
</g>
<!-- main_N6 -->
<g id="node8" class="node">
<title>main_N6</title>
<path fill="#d32f2f" stroke="black" stroke-width="1.2" d="M237,-371C237,-371 55,-371 55,-371 49,-371 43,-365 43,-359 43,-359 43,-347 43,-347 43,-341 49,-335 55,-335 55,-335 237,-335 237,-335 243,-335 249,-341 249,-347 249,-347 249,-359 249,-359 249,-365 243,-371 237,-371"/>
<text text-anchor="middle" x="146" y="-350.2" font-family="Helvetica,sans-Serif" font-size="11.00" fill="#ffffff">call ThisThread::sleep_for(50\nms)</text>
</g>
<!-- main_N5&#45;&gt;main_N6 -->
<g id="edge7" class="edge">
<title>main_N5&#45;&gt;main_N6</title>
<path fill="none" stroke="black" d="M166,-449.78C166,-449.78 166,-379.14 166,-379.14"/>
<polygon fill="black" stroke="black" points="168.8,-379.14 166,-371.14 163.2,-379.14 168.8,-379.14"/>
</g>
<!-- main_N6&#45;&gt;main_N7 -->
<g id="edge8" class="edge">
<title>main_N6&#45;&gt;main_N7</title>
<path fill="none" stroke="black" d="M184.75,-334.71C184.75,-334.71 184.75,-274.08 184.75,-274.08"/>
<polygon fill="black" stroke="black" points="187.55,-274.08 184.75,-266.08 181.95,-274.08 187.55,-274.08"/>
</g>
<!-- main_N8 -->
<g id="node10" class="node">
<title>main_N8</title>
<path fill="#d32f2f" stroke="black" stroke-width="1.2" d="M309,-161C309,-161 127,-161 127,-161 121,-161 115,-155 115,-149 115,-149 115,-137 115,-137 115,-131 121,-125 127,-125 127,-125 309,-125 309,-125 315,-125 321,-131 321,-137 321,-137 321,-149 321,-149 321,-155 315,-161 309,-161"/>
<text text-anchor="middle" x="218" y="-140.2" font-family="Helvetica,sans-Serif" font-size="11.00" fill="#ffffff">call ThisThread::sleep_for(10\nms)</text>
</g>
<!-- main_N7&#45;&gt;main_N8 -->
<g id="edge9" class="edge">
<title>main_N7&#45;&gt;main_N8</title>
<path fill="none" stroke="black" d="M218,-229.71C218,-229.71 218,-169.08 218,-169.08"/>
<polygon fill="black" stroke="black" points="220.8,-169.08 218,-161.08 215.2,-169.08 220.8,-169.08"/>
</g>
<!-- main_N8&#45;&gt;main_END -->
<g id="edge10" class="edge">
<title>main_N8&#45;&gt;main_END</title>
<path fill="none" stroke="black" d="M218,-124.71C218,-124.71 218,-64.08 218,-64.08"/>
<polygon fill="black" stroke="black" points="220.8,-64.08 218,-56.08 215.2,-64.08 220.8,-64.08"/>
</g>
</g>
</svg>
