<?xml version="1.0" encoding="UTF-8" standalone="no"?>
<!DOCTYPE svg PUBLIC "-//W3C//DTD SVG 1.1//EN"
 "http://www.w3.org/Graphics/SVG/1.1/DTD/svg11.dtd">
<!-- Generated by graphviz version 2.43.0 (0)
 -->
<!-- Title: main Pages: 1 -->
<svg width="436pt" height="3370pt"
 viewBox="0.00 0.00 436.00 3370.25" xmlns="http://www.w3.org/2000/svg" xmlns:xlink="http://www.w3.org/1999/xlink">
<g id="graph0" class="graph" transform="scale(1 1) rotate(0) translate(18 3352.25)">
<title>main</title>
<polygon fill="#ffffff" stroke="transparent" points="-18,18 -18,-3352.25 418,-3352.25 418,18 -18,18"/>
<g id="clust1" class="cluster">
<title>cluster_main</title>
<path fill="#ffffff" stroke="#d32f2f" stroke-width="3" d="M20,-8C20,-8 380,-8 380,-8 386,-8 392,-14 392,-20 392,-20 392,-3314.25 392,-3314.25 392,-3320.25 386,-3326.25 380,-3326.25 380,-3326.25 20,-3326.25 20,-3326.25 14,-3326.25 8,-3320.25 8,-3314.25 8,-3314.25 8,-20 8,-20 8,-14 14,-8 20,-8"/>
<text text-anchor="middle" x="200" y="-3311.05" font-family="Helvetica,sans-Serif" font-size="14.00" fill="#d32f2f">main</text>
</g>
<!-- main_START -->
<g id="node1" class="node">
<title>main_START</title>
<ellipse fill="#ffffff" stroke="black" stroke-width="1.4" cx="255" cy="-3268.63" rx="86.5" ry="22.76"/>
<text text-anchor="middle" x="255" y="-3271.83" font-family="Helvetica,sans-Serif" font-size="11.00" fill="#333333">START</text>
<text text-anchor="middle" x="255" y="-3259.83" font-family="Helvetica,sans-Serif" font-size="11.00" fill="#333333">main()</text>
</g>
<!-- main_N1 -->
<g id="node3" class="node">
<title>main_N1</title>
<polygon fill="#ffffff" stroke="black" points="348,-3177 162,-3177 162,-3141 348,-3141 348,-3177"/>
<text text-anchor="middle" x="255" y="-3156.2" font-family="Helvetica,sans-Serif" font-size="11.00" fill="#333333">Initialize loop_started to\nfalse</text>
</g>
<!-- main_START&#45;&gt;main_N1 -->
<g id="edge1" class="edge">
<title>main_START&#45;&gt;main_N1</title>
<path fill="none" stroke="black" d="M255,-3245.91C255,-3245.91 255,-3185.33 255,-3185.33"/>
<polygon fill="black" stroke="black" points="257.8,-3185.33 255,-3177.33 252.2,-3185.33 257.8,-3185.33"/>
</g>
<!-- main_END -->
<g id="node2" class="node">
<title>main_END</title>
<ellipse fill="#ffffff" stroke="black" stroke-width="1.2" cx="190" cy="-38" rx="65" ry="18"/>
<text text-anchor="middle" x="190" y="-35.2" font-family="Helvetica,sans-Serif" font-size="11.00" fill="#333333">main_end</text>
</g>
<!-- main_N2 -->
<g id="node4" class="node">
<title>main_N2</title>
<polygon fill="#ffffff" stroke="black" points="346,-3072 164,-3072 164,-3036 346,-3036 346,-3072"/>
<text text-anchor="middle" x="255" y="-3051.2" font-family="Helvetica,sans-Serif" font-size="11.00" fill="#333333">Print program start\nmessage</text>
</g>
<!-- main_N1&#45;&gt;main_N2 -->
<g id="edge2" class="edge">
<title>main_N1&#45;&gt;main_N2</title>
<path fill="none" stroke="black" d="M255,-3140.71C255,-3140.71 255,-3080.08 255,-3080.08"/>
<polygon fill="black" stroke="black" points="257.8,-3080.08 255,-3072.08 252.2,-3080.08 257.8,-3080.08"/>
</g>
<!-- main_N3 -->
<g id="node5" class="node">
<title>main_N3</title>
<polygon fill="#ffffff" stroke="black" stroke-width="1.1" points="255,-2967 140,-2934.5 255,-2902 370,-2934.5 255,-2967"/>
<text text-anchor="middle" x="255" y="-2931.7" font-family="Helvetica,sans-Serif" font-size="11.00" fill="#333333">LED1 defined?</text>
</g>
<!-- main_N2&#45;&gt;main_N3 -->
<g id="edge3" class="edge">
<title>main_N2&#45;&gt;main_N3</title>
<path fill="none" stroke="black" d="M255,-3035.85C255,-3035.85 255,-2975.28 255,-2975.28"/>
<polygon fill="black" stroke="black" points="257.8,-2975.28 255,-2967.28 252.2,-2975.28 257.8,-2975.28"/>
</g>
<!-- main_N4 -->
<g id="node6" class="node">
<title>main_N4</title>
<polygon fill="#ffffff" stroke="black" points="300.5,-2823 149.5,-2823 149.5,-2787 300.5,-2787 300.5,-2823"/>
<text text-anchor="middle" x="225" y="-2802.2" font-family="Helvetica,sans-Serif" font-size="11.00" fill="#333333">Initialize LED1</text>
</g>
<!-- main_N3&#45;&gt;main_N4 -->
<g id="edge4" class="edge">
<title>main_N3&#45;&gt;main_N4</title>
<path fill="none" stroke="black" stroke-width="1.4" d="M225,-2910.45C225,-2910.45 225,-2831.08 225,-2831.08"/>
<polygon fill="black" stroke="black" stroke-width="1.4" points="227.8,-2831.08 225,-2823.08 222.2,-2831.08 227.8,-2831.08"/>
<text text-anchor="middle" x="253" y="-2860" font-family="Helvetica,sans-Serif" font-size="10.00">Yes</text>
</g>
<!-- main_N6 -->
<g id="node8" class="node">
<title>main_N6</title>
<polygon fill="#ffffff" stroke="black" points="379.5,-2469 228.5,-2469 228.5,-2433 379.5,-2433 379.5,-2469"/>
<text text-anchor="middle" x="304" y="-2448.2" font-family="Helvetica,sans-Serif" font-size="11.00" fill="#333333">Skip LED1 initialization</text>
</g>
<!-- main_N3&#45;&gt;main_N6 -->
<g id="edge5" class="edge">
<title>main_N3&#45;&gt;main_N6</title>
<path fill="none" stroke="black" stroke-width="1.4" d="M344.25,-2926.91C344.25,-2926.91 344.25,-2477.2 344.25,-2477.2"/>
<polygon fill="black" stroke="black" stroke-width="1.4" points="347.05,-2477.2 344.25,-2469.2 341.45,-2477.2 347.05,-2477.2"/>
<text text-anchor="middle" x="359" y="-2683" font-family="Helvetica,sans-Serif" font-size="10.00">No</text>
</g>
<!-- main_N5 -->
<g id="node7" class="node">
<title>main_N5</title>
<polygon fill="#ffffff" stroke="black" stroke-width="1.1" points="173,-2718 58,-2685.5 173,-2653 288,-2685.5 173,-2718"/>
<text text-anchor="middle" x="173" y="-2682.7" font-family="Helvetica,sans-Serif" font-size="11.00" fill="#333333">LED1 initial state?</text>
</g>
<!-- main_N4&#45;&gt;main_N5 -->
<g id="edge6" class="edge">
<title>main_N4&#45;&gt;main_N5</title>
<path fill="none" stroke="black" d="M218.75,-2786.85C218.75,-2786.85 218.75,-2713.42 218.75,-2713.42"/>
<polygon fill="black" stroke="black" points="221.55,-2713.42 218.75,-2705.42 215.95,-2713.42 221.55,-2713.42"/>
</g>
<!-- main_N7 -->
<g id="node9" class="node">
<title>main_N7</title>
<polygon fill="#ffffff" stroke="black" points="318.5,-2574 167.5,-2574 167.5,-2538 318.5,-2538 318.5,-2574"/>
<text text-anchor="middle" x="243" y="-2553.2" font-family="Helvetica,sans-Serif" font-size="11.00" fill="#333333">Print LED1 starts as ON</text>
</g>
<!-- main_N5&#45;&gt;main_N7 -->
<g id="edge7" class="edge">
<title>main_N5&#45;&gt;main_N7</title>
<path fill="none" stroke="black" stroke-width="1.4" d="M227.75,-2668.3C227.75,-2668.3 227.75,-2582.1 227.75,-2582.1"/>
<polygon fill="black" stroke="black" stroke-width="1.4" points="230.55,-2582.1 227.75,-2574.1 224.95,-2582.1 230.55,-2582.1"/>
<text text-anchor="middle" x="216" y="-2611" font-family="Helvetica,sans-Serif" font-size="10.00">Yes</text>
</g>
<!-- main_N8 -->
<g id="node10" class="node">
<title>main_N8</title>
<polygon fill="#ffffff" stroke="black" points="196.5,-2469 45.5,-2469 45.5,-2433 196.5,-2433 196.5,-2469"/>
<text text-anchor="middle" x="121" y="-2448.2" font-family="Helvetica,sans-Serif" font-size="11.00" fill="#333333">Print LED1 starts as OFF</text>
</g>
<!-- main_N5&#45;&gt;main_N8 -->
<g id="edge8" class="edge">
<title>main_N5&#45;&gt;main_N8</title>
<path fill="none" stroke="black" stroke-width="1.4" d="M112.75,-2669.75C112.75,-2669.75 112.75,-2477.22 112.75,-2477.22"/>
<polygon fill="black" stroke="black" stroke-width="1.4" points="115.55,-2477.22 112.75,-2469.22 109.95,-2477.22 115.55,-2477.22"/>
<text text-anchor="middle" x="128" y="-2553.5" font-family="Helvetica,sans-Serif" font-size="10.00">No</text>
</g>
<!-- main_N6&#45;&gt;main_N7 -->
<g id="edge10" class="edge">
<title>main_N6&#45;&gt;main_N7</title>
<path fill="none" stroke="black" d="M258.5,-2469.29C258.5,-2469.29 258.5,-2529.92 258.5,-2529.92"/>
<polygon fill="black" stroke="black" points="255.7,-2529.92 258.5,-2537.92 261.3,-2529.92 255.7,-2529.92"/>
</g>
<!-- main_N7&#45;&gt;main_N6 -->
<g id="edge9" class="edge">
<title>main_N7&#45;&gt;main_N6</title>
<path fill="none" stroke="black" d="M288.5,-2537.71C288.5,-2537.71 288.5,-2477.08 288.5,-2477.08"/>
<polygon fill="black" stroke="black" points="291.3,-2477.08 288.5,-2469.08 285.7,-2477.08 291.3,-2477.08"/>
</g>
<!-- main_N7&#45;&gt;main_N8 -->
<g id="edge11" class="edge">
<title>main_N7&#45;&gt;main_N8</title>
<path fill="none" stroke="black" d="M182,-2537.71C182,-2537.71 182,-2477.08 182,-2477.08"/>
<polygon fill="black" stroke="black" points="184.8,-2477.08 182,-2469.08 179.2,-2477.08 184.8,-2477.08"/>
</g>
<!-- main_N9 -->
<g id="node11" class="node">
<title>main_N9</title>
<polygon fill="#ffffff" stroke="black" stroke-width="1.1" points="135,-2364 20,-2331.5 135,-2299 250,-2331.5 135,-2364"/>
<text text-anchor="middle" x="135" y="-2328.7" font-family="Helvetica,sans-Serif" font-size="11.00" fill="#333333">BUTTON1 defined?</text>
</g>
<!-- main_N8&#45;&gt;main_N9 -->
<g id="edge12" class="edge">
<title>main_N8&#45;&gt;main_N9</title>
<path fill="none" stroke="black" d="M121,-2432.85C121,-2432.85 121,-2368.08 121,-2368.08"/>
<polygon fill="black" stroke="black" points="123.8,-2368.08 121,-2360.08 118.2,-2368.08 123.8,-2368.08"/>
</g>
<!-- main_N10 -->
<g id="node12" class="node">
<title>main_N10</title>
<polygon fill="#ffffff" stroke="black" points="226.5,-2220 35.5,-2220 35.5,-2184 226.5,-2184 226.5,-2220"/>
<text text-anchor="middle" x="131" y="-2199.2" font-family="Helvetica,sans-Serif" font-size="11.00" fill="#333333">Initialize BUTTON1 with\nPullUp</text>
</g>
<!-- main_N9&#45;&gt;main_N10 -->
<g id="edge13" class="edge">
<title>main_N9&#45;&gt;main_N10</title>
<path fill="none" stroke="black" stroke-width="1.4" d="M131,-2299.82C131,-2299.82 131,-2228.18 131,-2228.18"/>
<polygon fill="black" stroke="black" stroke-width="1.4" points="133.8,-2228.18 131,-2220.18 128.2,-2228.18 133.8,-2228.18"/>
<text text-anchor="middle" x="141" y="-2257" font-family="Helvetica,sans-Serif" font-size="10.00">Yes</text>
</g>
<!-- main_N12 -->
<g id="node14" class="node">
<title>main_N12</title>
<polygon fill="#ffffff" stroke="black" points="285.5,-2000 112.5,-2000 112.5,-1964 285.5,-1964 285.5,-2000"/>
<text text-anchor="middle" x="199" y="-1979.2" font-family="Helvetica,sans-Serif" font-size="11.00" fill="#333333">Skip BUTTON1\ninitialization</text>
</g>
<!-- main_N9&#45;&gt;main_N12 -->
<g id="edge14" class="edge">
<title>main_N9&#45;&gt;main_N12</title>
<path fill="none" stroke="black" stroke-width="1.4" d="M240,-2328.48C240,-2328.48 240,-2008.25 240,-2008.25"/>
<polygon fill="black" stroke="black" stroke-width="1.4" points="242.8,-2008.25 240,-2000.25 237.2,-2008.25 242.8,-2008.25"/>
<text text-anchor="middle" x="270" y="-2142" font-family="Helvetica,sans-Serif" font-size="10.00">No</text>
</g>
<!-- main_N11 -->
<g id="node13" class="node">
<title>main_N11</title>
<polygon fill="#ffffff" stroke="black" points="230,-2105 24,-2105 24,-2069 230,-2069 230,-2105"/>
<text text-anchor="middle" x="127" y="-2084.2" font-family="Helvetica,sans-Serif" font-size="11.00" fill="#333333">Initialize\nbutton_press_count to 0</text>
</g>
<!-- main_N10&#45;&gt;main_N11 -->
<g id="edge15" class="edge">
<title>main_N10&#45;&gt;main_N11</title>
<path fill="none" stroke="black" d="M131,-2183.78C131,-2183.78 131,-2113.14 131,-2113.14"/>
<polygon fill="black" stroke="black" points="133.8,-2113.14 131,-2105.14 128.2,-2113.14 133.8,-2113.14"/>
</g>
<!-- main_N11&#45;&gt;main_N12 -->
<g id="edge16" class="edge">
<title>main_N11&#45;&gt;main_N12</title>
<path fill="none" stroke="black" d="M171.25,-2068.71C171.25,-2068.71 171.25,-2008.08 171.25,-2008.08"/>
<polygon fill="black" stroke="black" points="174.05,-2008.08 171.25,-2000.08 168.45,-2008.08 174.05,-2008.08"/>
</g>
<!-- main_N13 -->
<g id="node15" class="node">
<title>main_N13</title>
<polygon fill="#ffffff" stroke="black" stroke-width="1.1" points="199,-1895 84,-1862.5 199,-1830 314,-1862.5 199,-1895"/>
<text text-anchor="middle" x="199" y="-1859.7" font-family="Helvetica,sans-Serif" font-size="11.00" fill="#333333">loop_started?</text>
</g>
<!-- main_N12&#45;&gt;main_N13 -->
<g id="edge17" class="edge">
<title>main_N12&#45;&gt;main_N13</title>
<path fill="none" stroke="black" d="M199,-1963.85C199,-1963.85 199,-1903.28 199,-1903.28"/>
<polygon fill="black" stroke="black" points="201.8,-1903.28 199,-1895.28 196.2,-1903.28 201.8,-1903.28"/>
</g>
<!-- main_N14 -->
<g id="node16" class="node">
<title>main_N14</title>
<polygon fill="#ffffff" stroke="black" points="229.5,-1751 26.5,-1751 26.5,-1715 229.5,-1715 229.5,-1751"/>
<text text-anchor="middle" x="128" y="-1730.2" font-family="Helvetica,sans-Serif" font-size="11.00" fill="#333333">Print main loop started\nmessage</text>
</g>
<!-- main_N13&#45;&gt;main_N14 -->
<g id="edge18" class="edge">
<title>main_N13&#45;&gt;main_N14</title>
<path fill="none" stroke="black" stroke-width="1.4" d="M156.75,-1841.69C156.75,-1841.69 156.75,-1759.24 156.75,-1759.24"/>
<polygon fill="black" stroke="black" stroke-width="1.4" points="159.55,-1759.24 156.75,-1751.24 153.95,-1759.24 159.55,-1759.24"/>
<text text-anchor="middle" x="172" y="-1788" font-family="Helvetica,sans-Serif" font-size="10.00">Yes</text>
</g>
<!-- main_N15 -->
<g id="node17" class="node">
<title>main_N15</title>
<polygon fill="#ffffff" stroke="black" points="275.5,-1646 124.5,-1646 124.5,-1610 275.5,-1610 275.5,-1646"/>
<text text-anchor="middle" x="200" y="-1625.2" font-family="Helvetica,sans-Serif" font-size="11.00" fill="#333333">Set loop_started to true</text>
</g>
<!-- main_N13&#45;&gt;main_N15 -->
<g id="edge19" class="edge">
<title>main_N13&#45;&gt;main_N15</title>
<path fill="none" stroke="black" stroke-width="1.4" d="M252.5,-1844.87C252.5,-1844.87 252.5,-1654.15 252.5,-1654.15"/>
<polygon fill="black" stroke="black" stroke-width="1.4" points="255.3,-1654.15 252.5,-1646.15 249.7,-1654.15 255.3,-1654.15"/>
<text text-anchor="middle" x="301" y="-1730.5" font-family="Helvetica,sans-Serif" font-size="10.00">No</text>
</g>
<!-- main_N14&#45;&gt;main_N15 -->
<g id="edge20" class="edge">
<title>main_N14&#45;&gt;main_N15</title>
<path fill="none" stroke="black" d="M177,-1714.71C177,-1714.71 177,-1654.08 177,-1654.08"/>
<polygon fill="black" stroke="black" points="179.8,-1654.08 177,-1646.08 174.2,-1654.08 179.8,-1654.08"/>
</g>
<!-- main_N16 -->
<g id="node18" class="node">
<title>main_N16</title>
<polygon fill="#d32f2f" stroke="black" stroke-width="1.1" points="200,-1541 85,-1508.5 200,-1476 315,-1508.5 200,-1541"/>
<text text-anchor="middle" x="200" y="-1505.7" font-family="Helvetica,sans-Serif" font-size="11.00" fill="#ffffff">button_press_count &gt; 0?</text>
</g>
<!-- main_N15&#45;&gt;main_N16 -->
<g id="edge21" class="edge">
<title>main_N15&#45;&gt;main_N16</title>
<path fill="none" stroke="black" d="M200,-1609.85C200,-1609.85 200,-1549.28 200,-1549.28"/>
<polygon fill="black" stroke="black" points="202.8,-1549.28 200,-1541.28 197.2,-1549.28 202.8,-1549.28"/>
</g>
<!-- main_N17 -->
<g id="node19" class="node">
<title>main_N17</title>
<polygon fill="#d32f2f" stroke="black" points="246,-1397 64,-1397 64,-1361 246,-1361 246,-1397"/>
<text text-anchor="middle" x="155" y="-1376.2" font-family="Helvetica,sans-Serif" font-size="11.00" fill="#ffffff">Print total BUTTON1\npresses</text>
</g>
<!-- main_N16&#45;&gt;main_N17 -->
<g id="edge22" class="edge">
<title>main_N16&#45;&gt;main_N17</title>
<path fill="none" stroke="black" stroke-width="1.4" d="M165.5,-1485.65C165.5,-1485.65 165.5,-1405.04 165.5,-1405.04"/>
<polygon fill="black" stroke="black" stroke-width="1.4" points="168.3,-1405.04 165.5,-1397.04 162.7,-1405.04 168.3,-1405.04"/>
<text text-anchor="middle" x="185" y="-1434" font-family="Helvetica,sans-Serif" font-size="10.00">Yes</text>
</g>
<!-- main_N18 -->
<g id="node20" class="node">
<title>main_N18</title>
<polygon fill="#ffffff" stroke="black" stroke-width="1.1" points="241,-1292 110.41,-1259.5 241,-1227 371.59,-1259.5 241,-1292"/>
<text text-anchor="middle" x="241" y="-1256.7" font-family="Helvetica,sans-Serif" font-size="11.00" fill="#333333">LED1 and BUTTON1 defined?</text>
</g>
<!-- main_N16&#45;&gt;main_N18 -->
<g id="edge23" class="edge">
<title>main_N16&#45;&gt;main_N18</title>
<path fill="none" stroke="black" stroke-width="1.4" d="M280.5,-1498.74C280.5,-1498.74 280.5,-1290.49 280.5,-1290.49"/>
<polygon fill="black" stroke="black" stroke-width="1.4" points="283.3,-1290.49 280.5,-1282.49 277.7,-1290.49 283.3,-1290.49"/>
<text text-anchor="middle" x="317" y="-1376.5" font-family="Helvetica,sans-Serif" font-size="10.00">No</text>
</g>
<!-- main_N17&#45;&gt;main_N18 -->
<g id="edge24" class="edge">
<title>main_N17&#45;&gt;main_N18</title>
<path fill="none" stroke="black" d="M178.1,-1360.85C178.1,-1360.85 178.1,-1284.66 178.1,-1284.66"/>
<polygon fill="black" stroke="black" points="180.9,-1284.66 178.1,-1276.66 175.3,-1284.66 180.9,-1284.66"/>
</g>
<!-- main_N19 -->
<g id="node21" class="node">
<title>main_N19</title>
<polygon fill="#ffffff" stroke="black" points="313.5,-1148 162.5,-1148 162.5,-1112 313.5,-1112 313.5,-1148"/>
<text text-anchor="middle" x="238" y="-1127.2" font-family="Helvetica,sans-Serif" font-size="11.00" fill="#333333">Read button state</text>
</g>
<!-- main_N18&#45;&gt;main_N19 -->
<g id="edge25" class="edge">
<title>main_N18&#45;&gt;main_N19</title>
<path fill="none" stroke="black" stroke-width="1.4" d="M238,-1227.49C238,-1227.49 238,-1156.09 238,-1156.09"/>
<polygon fill="black" stroke="black" stroke-width="1.4" points="240.8,-1156.09 238,-1148.09 235.2,-1156.09 240.8,-1156.09"/>
<text text-anchor="middle" x="248" y="-1185" font-family="Helvetica,sans-Serif" font-size="10.00">Yes</text>
</g>
<!-- main_N23 -->
<g id="node25" class="node">
<title>main_N23</title>
<polygon fill="#ffffff" stroke="black" points="365.5,-669 156.5,-669 156.5,-633 365.5,-633 365.5,-669"/>
<text text-anchor="middle" x="261" y="-648.2" font-family="Helvetica,sans-Serif" font-size="11.00" fill="#333333">Skip LED1 and BUTTON1\nhandling</text>
</g>
<!-- main_N18&#45;&gt;main_N23 -->
<g id="edge26" class="edge">
<title>main_N18&#45;&gt;main_N23</title>
<path fill="none" stroke="black" stroke-width="1.4" d="M356,-1255.61C356,-1255.61 356,-677.14 356,-677.14"/>
<polygon fill="black" stroke="black" stroke-width="1.4" points="358.8,-677.14 356,-669.14 353.2,-677.14 358.8,-677.14"/>
<text text-anchor="middle" x="373" y="-965" font-family="Helvetica,sans-Serif" font-size="10.00">No</text>
</g>
<!-- main_N20 -->
<g id="node22" class="node">
<title>main_N20</title>
<path fill="#ffffff" stroke="black" stroke-width="1.2" d="M264.5,-1043C264.5,-1043 137.5,-1043 137.5,-1043 131.5,-1043 125.5,-1037 125.5,-1031 125.5,-1031 125.5,-1019 125.5,-1019 125.5,-1013 131.5,-1007 137.5,-1007 137.5,-1007 264.5,-1007 264.5,-1007 270.5,-1007 276.5,-1013 276.5,-1019 276.5,-1019 276.5,-1031 276.5,-1031 276.5,-1037 270.5,-1043 264.5,-1043"/>
<text text-anchor="middle" x="201" y="-1022.2" font-family="Helvetica,sans-Serif" font-size="11.00" fill="#333333">call set_led1_state()</text>
</g>
<!-- main_N19&#45;&gt;main_N20 -->
<g id="edge27" class="edge">
<title>main_N19&#45;&gt;main_N20</title>
<path fill="none" stroke="black" d="M219.5,-1111.71C219.5,-1111.71 219.5,-1051.08 219.5,-1051.08"/>
<polygon fill="black" stroke="black" points="222.3,-1051.08 219.5,-1043.08 216.7,-1051.08 222.3,-1051.08"/>
</g>
<!-- main_N21 -->
<g id="node23" class="node">
<title>main_N21</title>
<polygon fill="#ffffff" stroke="black" stroke-width="1.1" points="183,-928 19.51,-895.5 183,-863 346.49,-895.5 183,-928"/>
<text text-anchor="middle" x="183" y="-892.7" font-family="Helvetica,sans-Serif" font-size="11.00" fill="#333333">Button pressed and not\npreviously?</text>
</g>
<!-- main_N20&#45;&gt;main_N21 -->
<g id="edge28" class="edge">
<title>main_N20&#45;&gt;main_N21</title>
<path fill="none" stroke="black" d="M201,-1006.99C201,-1006.99 201,-932.79 201,-932.79"/>
<polygon fill="black" stroke="black" points="203.8,-932.79 201,-924.79 198.2,-932.79 203.8,-932.79"/>
</g>
<!-- main_N22 -->
<g id="node24" class="node">
<title>main_N22</title>
<polygon fill="#ffffff" stroke="black" points="346,-784 156,-784 156,-748 346,-748 346,-784"/>
<text text-anchor="middle" x="251" y="-763.2" font-family="Helvetica,sans-Serif" font-size="11.00" fill="#333333">Increment\nbutton_press_count</text>
</g>
<!-- main_N21&#45;&gt;main_N22 -->
<g id="edge29" class="edge">
<title>main_N21&#45;&gt;main_N22</title>
<path fill="none" stroke="black" stroke-width="1.4" d="M251,-876.39C251,-876.39 251,-792.35 251,-792.35"/>
<polygon fill="black" stroke="black" stroke-width="1.4" points="253.8,-792.35 251,-784.35 248.2,-792.35 253.8,-792.35"/>
<text text-anchor="middle" x="225" y="-821" font-family="Helvetica,sans-Serif" font-size="10.00">Yes</text>
</g>
<!-- main_N24 -->
<g id="node26" class="node">
<title>main_N24</title>
<polygon fill="#ffffff" stroke="black" stroke-width="1.1" points="242,-564 127,-531.5 242,-499 357,-531.5 242,-564"/>
<text text-anchor="middle" x="242" y="-528.7" font-family="Helvetica,sans-Serif" font-size="11.00" fill="#333333">LED1 defined?</text>
</g>
<!-- main_N21&#45;&gt;main_N24 -->
<g id="edge30" class="edge">
<title>main_N21&#45;&gt;main_N24</title>
<path fill="none" stroke="black" stroke-width="1.4" d="M141.5,-871.05C141.5,-871.05 141.5,-544.02 141.5,-544.02"/>
<polygon fill="black" stroke="black" stroke-width="1.4" points="144.3,-544.02 141.5,-536.02 138.7,-544.02 144.3,-544.02"/>
<text text-anchor="middle" x="130" y="-706" font-family="Helvetica,sans-Serif" font-size="10.00">No</text>
</g>
<!-- main_N22&#45;&gt;main_N23 -->
<g id="edge31" class="edge">
<title>main_N22&#45;&gt;main_N23</title>
<path fill="none" stroke="black" d="M251.25,-747.78C251.25,-747.78 251.25,-677.14 251.25,-677.14"/>
<polygon fill="black" stroke="black" points="254.05,-677.14 251.25,-669.14 248.45,-677.14 254.05,-677.14"/>
</g>
<!-- main_N23&#45;&gt;main_N24 -->
<g id="edge32" class="edge">
<title>main_N23&#45;&gt;main_N24</title>
<path fill="none" stroke="black" d="M256.75,-632.85C256.75,-632.85 256.75,-568.08 256.75,-568.08"/>
<polygon fill="black" stroke="black" points="259.55,-568.08 256.75,-560.08 253.95,-568.08 259.55,-568.08"/>
</g>
<!-- main_N25 -->
<g id="node27" class="node">
<title>main_N25</title>
<polygon fill="#ffffff" stroke="black" points="263,-420 111,-420 111,-384 263,-384 263,-420"/>
<text text-anchor="middle" x="187" y="-399.2" font-family="Helvetica,sans-Serif" font-size="11.00" fill="#333333">Read current LED1 state</text>
</g>
<!-- main_N24&#45;&gt;main_N25 -->
<g id="edge33" class="edge">
<title>main_N24&#45;&gt;main_N25</title>
<path fill="none" stroke="black" stroke-width="1.4" d="M195,-512.11C195,-512.11 195,-428.26 195,-428.26"/>
<polygon fill="black" stroke="black" stroke-width="1.4" points="197.8,-428.26 195,-420.26 192.2,-428.26 197.8,-428.26"/>
<text text-anchor="middle" x="232" y="-457" font-family="Helvetica,sans-Serif" font-size="10.00">Yes</text>
</g>
<!-- main_N27 -->
<g id="node29" class="node">
<title>main_N27</title>
<polygon fill="#ffffff" stroke="black" points="355.5,-161 204.5,-161 204.5,-125 355.5,-125 355.5,-161"/>
<text text-anchor="middle" x="280" y="-140.2" font-family="Helvetica,sans-Serif" font-size="11.00" fill="#333333">Print LED1 state change</text>
</g>
<!-- main_N24&#45;&gt;main_N27 -->
<g id="edge34" class="edge">
<title>main_N24&#45;&gt;main_N27</title>
<path fill="none" stroke="black" stroke-width="1.4" d="M314.25,-519.01C314.25,-519.01 314.25,-169.19 314.25,-169.19"/>
<polygon fill="black" stroke="black" stroke-width="1.4" points="317.05,-169.19 314.25,-161.19 311.45,-169.19 317.05,-169.19"/>
<text text-anchor="middle" x="313" y="-342" font-family="Helvetica,sans-Serif" font-size="10.00">No</text>
</g>
<!-- main_N26 -->
<g id="node28" class="node">
<title>main_N26</title>
<polygon fill="#ffffff" stroke="black" stroke-width="1.1" points="158,-305 43,-272.5 158,-240 273,-272.5 158,-305"/>
<text text-anchor="middle" x="158" y="-269.7" font-family="Helvetica,sans-Serif" font-size="11.00" fill="#333333">LED1 state changed?</text>
</g>
<!-- main_N25&#45;&gt;main_N26 -->
<g id="edge35" class="edge">
<title>main_N25&#45;&gt;main_N26</title>
<path fill="none" stroke="black" d="M187,-383.99C187,-383.99 187,-304.98 187,-304.98"/>
<polygon fill="black" stroke="black" points="189.8,-304.98 187,-296.98 184.2,-304.98 189.8,-304.98"/>
</g>
<!-- main_N26&#45;&gt;main_END -->
<g id="edge37" class="edge">
<title>main_N26&#45;&gt;main_END</title>
<path fill="none" stroke="black" stroke-width="1.4" d="M164.75,-241.84C164.75,-241.84 164.75,-62.69 164.75,-62.69"/>
<polygon fill="black" stroke="black" stroke-width="1.4" points="167.55,-62.69 164.75,-54.69 161.95,-62.69 167.55,-62.69"/>
<text text-anchor="middle" x="165" y="-140.5" font-family="Helvetica,sans-Serif" font-size="10.00">No</text>
</g>
<!-- main_N26&#45;&gt;main_N27 -->
<g id="edge36" class="edge">
<title>main_N26&#45;&gt;main_N27</title>
<path fill="none" stroke="black" stroke-width="1.4" d="M238.75,-262.77C238.75,-262.77 238.75,-169.41 238.75,-169.41"/>
<polygon fill="black" stroke="black" stroke-width="1.4" points="241.55,-169.41 238.75,-161.41 235.95,-169.41 241.55,-169.41"/>
<text text-anchor="middle" x="246" y="-198" font-family="Helvetica,sans-Serif" font-size="10.00">Yes</text>
</g>
<!-- main_N27&#45;&gt;main_END -->
<g id="edge38" class="edge">
<title>main_N27&#45;&gt;main_END</title>
<path fill="none" stroke="black" d="M229.75,-124.71C229.75,-124.71 229.75,-60.37 229.75,-60.37"/>
<polygon fill="black" stroke="black" points="232.55,-60.37 229.75,-52.37 226.95,-60.37 232.55,-60.37"/>
</g>
</g>
</svg>
