<?xml version="1.0" encoding="UTF-8" standalone="no"?>
<!DOCTYPE svg PUBLIC "-//W3C//DTD SVG 1.1//EN"
 "http://www.w3.org/Graphics/SVG/1.1/DTD/svg11.dtd">
<!-- Generated by graphviz version 2.43.0 (0)
 -->
<!-- Title: main Pages: 1 -->
<svg width="572pt" height="3616pt"
 viewBox="0.00 0.00 572.00 3616.25" xmlns="http://www.w3.org/2000/svg" xmlns:xlink="http://www.w3.org/1999/xlink">
<g id="graph0" class="graph" transform="scale(1 1) rotate(0) translate(18 3598.25)">
<title>main</title>
<polygon fill="#ffffff" stroke="transparent" points="-18,18 -18,-3598.25 554,-3598.25 554,18 -18,18"/>
<g id="clust1" class="cluster">
<title>cluster_main</title>
<path fill="#ffffff" stroke="#ffffff" stroke-width="1.2" d="M20,-8C20,-8 516,-8 516,-8 522,-8 528,-14 528,-20 528,-20 528,-3560.25 528,-3560.25 528,-3566.25 522,-3572.25 516,-3572.25 516,-3572.25 20,-3572.25 20,-3572.25 14,-3572.25 8,-3566.25 8,-3560.25 8,-3560.25 8,-20 8,-20 8,-14 14,-8 20,-8"/>
<text text-anchor="middle" x="268" y="-3557.05" font-family="Helvetica,sans-Serif" font-size="14.00" fill="#333333">main</text>
</g>
<!-- main_START -->
<g id="node1" class="node">
<title>main_START</title>
<ellipse fill="#ffffff" stroke="black" stroke-width="1.4" cx="306" cy="-3514.63" rx="86.5" ry="22.76"/>
<text text-anchor="middle" x="306" y="-3517.83" font-family="Helvetica,sans-Serif" font-size="11.00" fill="#333333">START</text>
<text text-anchor="middle" x="306" y="-3505.83" font-family="Helvetica,sans-Serif" font-size="11.00" fill="#333333">main()</text>
</g>
<!-- main_N1 -->
<g id="node3" class="node">
<title>main_N1</title>
<polygon fill="#ffffff" stroke="black" points="399,-3423 213,-3423 213,-3387 399,-3387 399,-3423"/>
<text text-anchor="middle" x="306" y="-3402.2" font-family="Helvetica,sans-Serif" font-size="11.00" fill="#333333">Initialize loop_started to\nfalse</text>
</g>
<!-- main_START&#45;&gt;main_N1 -->
<g id="edge1" class="edge">
<title>main_START&#45;&gt;main_N1</title>
<path fill="none" stroke="black" d="M306,-3491.91C306,-3491.91 306,-3431.33 306,-3431.33"/>
<polygon fill="black" stroke="black" points="308.8,-3431.33 306,-3423.33 303.2,-3431.33 308.8,-3431.33"/>
</g>
<!-- main_END -->
<g id="node2" class="node">
<title>main_END</title>
<ellipse fill="#ffffff" stroke="black" stroke-width="1.2" cx="251" cy="-38" rx="65" ry="18"/>
<text text-anchor="middle" x="251" y="-35.2" font-family="Helvetica,sans-Serif" font-size="11.00" fill="#333333">main_end</text>
</g>
<!-- main_N2 -->
<g id="node4" class="node">
<title>main_N2</title>
<polygon fill="#ffffff" stroke="black" points="397,-3318 215,-3318 215,-3282 397,-3282 397,-3318"/>
<text text-anchor="middle" x="306" y="-3297.2" font-family="Helvetica,sans-Serif" font-size="11.00" fill="#333333">Print program start\nmessage</text>
</g>
<!-- main_N1&#45;&gt;main_N2 -->
<g id="edge2" class="edge">
<title>main_N1&#45;&gt;main_N2</title>
<path fill="none" stroke="black" d="M306,-3386.71C306,-3386.71 306,-3326.08 306,-3326.08"/>
<polygon fill="black" stroke="black" points="308.8,-3326.08 306,-3318.08 303.2,-3326.08 308.8,-3326.08"/>
</g>
<!-- main_N3 -->
<g id="node5" class="node">
<title>main_N3</title>
<polygon fill="#ffffff" stroke="black" stroke-width="1.1" points="306,-3213 190.13,-3180.5 306,-3148 421.87,-3180.5 306,-3213"/>
<text text-anchor="middle" x="306" y="-3177.7" font-family="Helvetica,sans-Serif" font-size="11.00" fill="#333333">[COMPILE] LED1 defined?</text>
</g>
<!-- main_N2&#45;&gt;main_N3 -->
<g id="edge3" class="edge">
<title>main_N2&#45;&gt;main_N3</title>
<path fill="none" stroke="black" d="M306,-3281.85C306,-3281.85 306,-3221.28 306,-3221.28"/>
<polygon fill="black" stroke="black" points="308.8,-3221.28 306,-3213.28 303.2,-3221.28 308.8,-3221.28"/>
</g>
<!-- main_N4 -->
<g id="node6" class="node">
<title>main_N4</title>
<polygon fill="#ffffff" stroke="black" points="297.5,-3069 112.5,-3069 112.5,-3033 297.5,-3033 297.5,-3069"/>
<text text-anchor="middle" x="205" y="-3048.2" font-family="Helvetica,sans-Serif" font-size="11.00" fill="#333333">Initialize DigitalOut\nled(LED1)</text>
</g>
<!-- main_N3&#45;&gt;main_N4 -->
<g id="edge4" class="edge">
<title>main_N3&#45;&gt;main_N4</title>
<path fill="none" stroke="black" stroke-width="1.4" d="M243.78,-3165.39C243.78,-3165.39 243.78,-3077.34 243.78,-3077.34"/>
<polygon fill="black" stroke="black" stroke-width="1.4" points="246.58,-3077.34 243.78,-3069.34 240.98,-3077.34 246.58,-3077.34"/>
<text text-anchor="middle" x="240" y="-3106" font-family="Helvetica,sans-Serif" font-size="10.00">Yes</text>
</g>
<!-- main_N10 -->
<g id="node12" class="node">
<title>main_N10</title>
<polygon fill="#ffffff" stroke="black" points="407,-2361 145,-2361 145,-2325 407,-2325 407,-2361"/>
<text text-anchor="middle" x="276" y="-2340.2" font-family="Helvetica,sans-Serif" font-size="11.00" fill="#333333">Initialize DigitalIn\nbutton(BUTTON1, PullUp)</text>
</g>
<!-- main_N3&#45;&gt;main_N10 -->
<g id="edge5" class="edge">
<title>main_N3&#45;&gt;main_N10</title>
<path fill="none" stroke="black" stroke-width="1.4" d="M353.36,-3161.03C353.36,-3161.03 353.36,-2369.27 353.36,-2369.27"/>
<polygon fill="black" stroke="black" stroke-width="1.4" points="356.16,-2369.27 353.36,-2361.27 350.56,-2369.27 356.16,-2369.27"/>
<text text-anchor="middle" x="340" y="-2752" font-family="Helvetica,sans-Serif" font-size="10.00">No</text>
</g>
<!-- main_N5 -->
<g id="node7" class="node">
<title>main_N5</title>
<polygon fill="#ffffff" stroke="black" points="281.5,-2964 74.5,-2964 74.5,-2928 281.5,-2928 281.5,-2964"/>
<text text-anchor="middle" x="178" y="-2943.2" font-family="Helvetica,sans-Serif" font-size="11.00" fill="#333333">Read previous_led_state\nfrom led</text>
</g>
<!-- main_N4&#45;&gt;main_N5 -->
<g id="edge6" class="edge">
<title>main_N4&#45;&gt;main_N5</title>
<path fill="none" stroke="black" d="M197,-3032.71C197,-3032.71 197,-2972.08 197,-2972.08"/>
<polygon fill="black" stroke="black" points="199.8,-2972.08 197,-2964.08 194.2,-2972.08 199.8,-2972.08"/>
</g>
<!-- main_N6 -->
<g id="node8" class="node">
<title>main_N6</title>
<polygon fill="#ffffff" stroke="black" stroke-width="1.1" points="160,-2859 20.07,-2826.5 160,-2794 299.93,-2826.5 160,-2859"/>
<text text-anchor="middle" x="160" y="-2823.7" font-family="Helvetica,sans-Serif" font-size="11.00" fill="#333333">[RUNTIME] previous_led_state?</text>
</g>
<!-- main_N5&#45;&gt;main_N6 -->
<g id="edge7" class="edge">
<title>main_N5&#45;&gt;main_N6</title>
<path fill="none" stroke="black" d="M178,-2927.85C178,-2927.85 178,-2863.08 178,-2863.08"/>
<polygon fill="black" stroke="black" points="180.8,-2863.08 178,-2855.08 175.2,-2863.08 180.8,-2863.08"/>
</g>
<!-- main_N7 -->
<g id="node9" class="node">
<title>main_N7</title>
<polygon fill="#ffffff" stroke="black" points="274.5,-2715 123.5,-2715 123.5,-2679 274.5,-2679 274.5,-2715"/>
<text text-anchor="middle" x="199" y="-2694.2" font-family="Helvetica,sans-Serif" font-size="11.00" fill="#333333">Print LED1 starts as ON</text>
</g>
<!-- main_N6&#45;&gt;main_N7 -->
<g id="edge8" class="edge">
<title>main_N6&#45;&gt;main_N7</title>
<path fill="none" stroke="black" stroke-width="1.4" d="M199,-2803.05C199,-2803.05 199,-2723.26 199,-2723.26"/>
<polygon fill="black" stroke="black" stroke-width="1.4" points="201.8,-2723.26 199,-2715.26 196.2,-2723.26 201.8,-2723.26"/>
<text text-anchor="middle" x="188" y="-2752" font-family="Helvetica,sans-Serif" font-size="10.00">Yes</text>
</g>
<!-- main_N8 -->
<g id="node10" class="node">
<title>main_N8</title>
<polygon fill="#ffffff" stroke="black" points="235.5,-2610 84.5,-2610 84.5,-2574 235.5,-2574 235.5,-2610"/>
<text text-anchor="middle" x="160" y="-2589.2" font-family="Helvetica,sans-Serif" font-size="11.00" fill="#333333">Print LED1 starts as OFF</text>
</g>
<!-- main_N6&#45;&gt;main_N8 -->
<g id="edge9" class="edge">
<title>main_N6&#45;&gt;main_N8</title>
<path fill="none" stroke="black" stroke-width="1.4" d="M104,-2806.91C104,-2806.91 104,-2618.07 104,-2618.07"/>
<polygon fill="black" stroke="black" stroke-width="1.4" points="106.8,-2618.07 104,-2610.07 101.2,-2618.07 106.8,-2618.07"/>
<text text-anchor="middle" x="84" y="-2694.5" font-family="Helvetica,sans-Serif" font-size="10.00">No</text>
</g>
<!-- main_N7&#45;&gt;main_N8 -->
<g id="edge10" class="edge">
<title>main_N7&#45;&gt;main_N8</title>
<path fill="none" stroke="black" d="M179.5,-2678.71C179.5,-2678.71 179.5,-2618.08 179.5,-2618.08"/>
<polygon fill="black" stroke="black" points="182.3,-2618.08 179.5,-2610.08 176.7,-2618.08 182.3,-2618.08"/>
</g>
<!-- main_N9 -->
<g id="node11" class="node">
<title>main_N9</title>
<polygon fill="#ffffff" stroke="black" stroke-width="1.1" points="160,-2505 24.99,-2472.5 160,-2440 295.01,-2472.5 160,-2505"/>
<text text-anchor="middle" x="160" y="-2469.7" font-family="Helvetica,sans-Serif" font-size="11.00" fill="#333333">[COMPILE] BUTTON1 defined?</text>
</g>
<!-- main_N8&#45;&gt;main_N9 -->
<g id="edge11" class="edge">
<title>main_N8&#45;&gt;main_N9</title>
<path fill="none" stroke="black" d="M160,-2573.85C160,-2573.85 160,-2513.28 160,-2513.28"/>
<polygon fill="black" stroke="black" points="162.8,-2513.28 160,-2505.28 157.2,-2513.28 162.8,-2513.28"/>
</g>
<!-- main_N9&#45;&gt;main_N10 -->
<g id="edge12" class="edge">
<title>main_N9&#45;&gt;main_N10</title>
<path fill="none" stroke="black" stroke-width="1.4" d="M220.13,-2454.22C220.13,-2454.22 220.13,-2369.19 220.13,-2369.19"/>
<polygon fill="black" stroke="black" stroke-width="1.4" points="222.93,-2369.19 220.13,-2361.19 217.33,-2369.19 222.93,-2369.19"/>
<text text-anchor="middle" x="226" y="-2398" font-family="Helvetica,sans-Serif" font-size="10.00">Yes</text>
</g>
<!-- main_N23 -->
<g id="node25" class="node">
<title>main_N23</title>
<path fill="#ffffff" stroke="black" stroke-width="1.2" d="M367.5,-879C367.5,-879 102.5,-879 102.5,-879 96.5,-879 90.5,-873 90.5,-867 90.5,-867 90.5,-855 90.5,-855 90.5,-849 96.5,-843 102.5,-843 102.5,-843 367.5,-843 367.5,-843 373.5,-843 379.5,-849 379.5,-855 379.5,-855 379.5,-867 379.5,-867 379.5,-873 373.5,-879 367.5,-879"/>
<text text-anchor="middle" x="235" y="-858.2" font-family="Helvetica,sans-Serif" font-size="11.00" fill="#333333">call ThisThread::sleep_for(BU\nTTON_POLL_RATE)</text>
</g>
<!-- main_N9&#45;&gt;main_N23 -->
<g id="edge13" class="edge">
<title>main_N9&#45;&gt;main_N23</title>
<path fill="none" stroke="black" stroke-width="1.4" d="M54.87,-2464.96C54.87,-2346.04 54.87,-861 54.87,-861 54.87,-861 82.46,-861 82.46,-861"/>
<polygon fill="black" stroke="black" stroke-width="1.4" points="82.46,-863.8 90.46,-861 82.46,-858.2 82.46,-863.8"/>
<text text-anchor="middle" x="59" y="-1657" font-family="Helvetica,sans-Serif" font-size="10.00">No</text>
</g>
<!-- main_N11 -->
<g id="node13" class="node">
<title>main_N11</title>
<polygon fill="#ffffff" stroke="black" points="383,-2256 169,-2256 169,-2220 383,-2220 383,-2256"/>
<text text-anchor="middle" x="276" y="-2235.2" font-family="Helvetica,sans-Serif" font-size="11.00" fill="#333333">Initialize\nprevious_pressed to false</text>
</g>
<!-- main_N10&#45;&gt;main_N11 -->
<g id="edge14" class="edge">
<title>main_N10&#45;&gt;main_N11</title>
<path fill="none" stroke="black" d="M276,-2324.71C276,-2324.71 276,-2264.08 276,-2264.08"/>
<polygon fill="black" stroke="black" points="278.8,-2264.08 276,-2256.08 273.2,-2264.08 278.8,-2264.08"/>
</g>
<!-- main_N12 -->
<g id="node14" class="node">
<title>main_N12</title>
<polygon fill="#ffffff" stroke="black" points="379,-2151 173,-2151 173,-2115 379,-2115 379,-2151"/>
<text text-anchor="middle" x="276" y="-2130.2" font-family="Helvetica,sans-Serif" font-size="11.00" fill="#333333">Initialize\nbutton_press_count to 0</text>
</g>
<!-- main_N11&#45;&gt;main_N12 -->
<g id="edge15" class="edge">
<title>main_N11&#45;&gt;main_N12</title>
<path fill="none" stroke="black" d="M276,-2219.71C276,-2219.71 276,-2159.08 276,-2159.08"/>
<polygon fill="black" stroke="black" points="278.8,-2159.08 276,-2151.08 273.2,-2159.08 278.8,-2159.08"/>
</g>
<!-- main_N13 -->
<g id="node15" class="node">
<title>main_N13</title>
<polygon fill="#ffffff" stroke="black" stroke-width="1.1" points="276,-2046 158.66,-2013.5 276,-1981 393.34,-2013.5 276,-2046"/>
<text text-anchor="middle" x="276" y="-2010.7" font-family="Helvetica,sans-Serif" font-size="11.00" fill="#333333">[RUNTIME] !loop_started?</text>
</g>
<!-- main_N12&#45;&gt;main_N13 -->
<g id="edge16" class="edge">
<title>main_N12&#45;&gt;main_N13</title>
<path fill="none" stroke="black" d="M276,-2114.85C276,-2114.85 276,-2054.28 276,-2054.28"/>
<polygon fill="black" stroke="black" points="278.8,-2054.28 276,-2046.28 273.2,-2054.28 278.8,-2054.28"/>
</g>
<!-- main_N14 -->
<g id="node16" class="node">
<title>main_N14</title>
<polygon fill="#ffffff" stroke="black" points="491.5,-1902 288.5,-1902 288.5,-1866 491.5,-1866 491.5,-1902"/>
<text text-anchor="middle" x="390" y="-1881.2" font-family="Helvetica,sans-Serif" font-size="11.00" fill="#333333">Print main loop started\nmessage</text>
</g>
<!-- main_N13&#45;&gt;main_N14 -->
<g id="edge17" class="edge">
<title>main_N13&#45;&gt;main_N14</title>
<path fill="none" stroke="black" stroke-width="1.4" d="M340.96,-1998.9C340.96,-1998.9 340.96,-1910.07 340.96,-1910.07"/>
<polygon fill="black" stroke="black" stroke-width="1.4" points="343.76,-1910.07 340.96,-1902.07 338.16,-1910.07 343.76,-1910.07"/>
<text text-anchor="middle" x="343" y="-1939" font-family="Helvetica,sans-Serif" font-size="10.00">Yes</text>
</g>
<!-- main_N15 -->
<g id="node17" class="node">
<title>main_N15</title>
<polygon fill="#ffffff" stroke="black" points="374.5,-1797 223.5,-1797 223.5,-1761 374.5,-1761 374.5,-1797"/>
<text text-anchor="middle" x="299" y="-1776.2" font-family="Helvetica,sans-Serif" font-size="11.00" fill="#333333">Set loop_started to true</text>
</g>
<!-- main_N13&#45;&gt;main_N15 -->
<g id="edge18" class="edge">
<title>main_N13&#45;&gt;main_N15</title>
<path fill="none" stroke="black" stroke-width="1.4" d="M256,-1986.14C256,-1986.14 256,-1805.15 256,-1805.15"/>
<polygon fill="black" stroke="black" stroke-width="1.4" points="258.8,-1805.15 256,-1797.15 253.2,-1805.15 258.8,-1805.15"/>
<text text-anchor="middle" x="249" y="-1881.5" font-family="Helvetica,sans-Serif" font-size="10.00">No</text>
</g>
<!-- main_N14&#45;&gt;main_N15 -->
<g id="edge19" class="edge">
<title>main_N14&#45;&gt;main_N15</title>
<path fill="none" stroke="black" d="M331.5,-1865.71C331.5,-1865.71 331.5,-1805.08 331.5,-1805.08"/>
<polygon fill="black" stroke="black" points="334.3,-1805.08 331.5,-1797.08 328.7,-1805.08 334.3,-1805.08"/>
</g>
<!-- main_N16 -->
<g id="node18" class="node">
<title>main_N16</title>
<polygon fill="#ffffff" stroke="black" stroke-width="1.1" points="299,-1692 120.78,-1659.5 299,-1627 477.22,-1659.5 299,-1692"/>
<text text-anchor="middle" x="299" y="-1656.7" font-family="Helvetica,sans-Serif" font-size="11.00" fill="#333333">[COMPILE] LED1 &amp;&amp; BUTTON1\ndefined?</text>
</g>
<!-- main_N15&#45;&gt;main_N16 -->
<g id="edge20" class="edge">
<title>main_N15&#45;&gt;main_N16</title>
<path fill="none" stroke="black" d="M299,-1760.85C299,-1760.85 299,-1700.28 299,-1700.28"/>
<polygon fill="black" stroke="black" points="301.8,-1700.28 299,-1692.28 296.2,-1700.28 301.8,-1700.28"/>
</g>
<!-- main_N17 -->
<g id="node19" class="node">
<title>main_N17</title>
<polygon fill="#ffffff" stroke="black" points="392.5,-1548 231.5,-1548 231.5,-1512 392.5,-1512 392.5,-1548"/>
<text text-anchor="middle" x="312" y="-1527.2" font-family="Helvetica,sans-Serif" font-size="11.00" fill="#333333">Read pressed from button</text>
</g>
<!-- main_N16&#45;&gt;main_N17 -->
<g id="edge21" class="edge">
<title>main_N16&#45;&gt;main_N17</title>
<path fill="none" stroke="black" stroke-width="1.4" d="M312,-1629.14C312,-1629.14 312,-1556.19 312,-1556.19"/>
<polygon fill="black" stroke="black" stroke-width="1.4" points="314.8,-1556.19 312,-1548.19 309.2,-1556.19 314.8,-1556.19"/>
<text text-anchor="middle" x="308" y="-1585" font-family="Helvetica,sans-Serif" font-size="10.00">Yes</text>
</g>
<!-- main_N20 -->
<g id="node22" class="node">
<title>main_N20</title>
<polygon fill="#ffffff" stroke="black" points="275,-1194 85,-1194 85,-1158 275,-1158 275,-1194"/>
<text text-anchor="middle" x="180" y="-1173.2" font-family="Helvetica,sans-Serif" font-size="11.00" fill="#333333">Increment\nbutton_press_count</text>
</g>
<!-- main_N16&#45;&gt;main_N20 -->
<g id="edge22" class="edge">
<title>main_N16&#45;&gt;main_N20</title>
<path fill="none" stroke="black" stroke-width="1.4" d="M125.21,-1658.11C125.21,-1658.11 125.21,-1202.12 125.21,-1202.12"/>
<polygon fill="black" stroke="black" stroke-width="1.4" points="128.01,-1202.12 125.21,-1194.12 122.41,-1202.12 128.01,-1202.12"/>
<text text-anchor="middle" x="124" y="-1422.5" font-family="Helvetica,sans-Serif" font-size="10.00">No</text>
</g>
<!-- main_N18 -->
<g id="node20" class="node">
<title>main_N18</title>
<path fill="#ffffff" stroke="black" stroke-width="1.2" d="M408,-1443C408,-1443 230,-1443 230,-1443 224,-1443 218,-1437 218,-1431 218,-1431 218,-1419 218,-1419 218,-1413 224,-1407 230,-1407 230,-1407 408,-1407 408,-1407 414,-1407 420,-1413 420,-1419 420,-1419 420,-1431 420,-1431 420,-1437 414,-1443 408,-1443"/>
<text text-anchor="middle" x="319" y="-1422.2" font-family="Helvetica,sans-Serif" font-size="11.00" fill="#333333">call set_led1_state(led,\npressed)</text>
</g>
<!-- main_N17&#45;&gt;main_N18 -->
<g id="edge23" class="edge">
<title>main_N17&#45;&gt;main_N18</title>
<path fill="none" stroke="black" d="M312,-1511.71C312,-1511.71 312,-1451.08 312,-1451.08"/>
<polygon fill="black" stroke="black" points="314.8,-1451.08 312,-1443.08 309.2,-1451.08 314.8,-1451.08"/>
</g>
<!-- main_N19 -->
<g id="node21" class="node">
<title>main_N19</title>
<polygon fill="#ffffff" stroke="black" stroke-width="1.1" points="323,-1338 129.56,-1305.5 323,-1273 516.44,-1305.5 323,-1338"/>
<text text-anchor="middle" x="323" y="-1302.7" font-family="Helvetica,sans-Serif" font-size="11.00" fill="#333333">[RUNTIME] pressed &amp;&amp;\n!previous_pressed?</text>
</g>
<!-- main_N18&#45;&gt;main_N19 -->
<g id="edge24" class="edge">
<title>main_N18&#45;&gt;main_N19</title>
<path fill="none" stroke="black" d="M319,-1406.85C319,-1406.85 319,-1345.33 319,-1345.33"/>
<polygon fill="black" stroke="black" points="321.8,-1345.33 319,-1337.33 316.2,-1345.34 321.8,-1345.33"/>
</g>
<!-- main_N19&#45;&gt;main_N20 -->
<g id="edge25" class="edge">
<title>main_N19&#45;&gt;main_N20</title>
<path fill="none" stroke="black" stroke-width="1.4" d="M202.39,-1293.08C202.39,-1293.08 202.39,-1202.36 202.39,-1202.36"/>
<polygon fill="black" stroke="black" stroke-width="1.4" points="205.19,-1202.36 202.39,-1194.36 199.59,-1202.36 205.19,-1202.36"/>
<text text-anchor="middle" x="256" y="-1231" font-family="Helvetica,sans-Serif" font-size="10.00">Yes</text>
</g>
<!-- main_N21 -->
<g id="node23" class="node">
<title>main_N21</title>
<polygon fill="#ffffff" stroke="black" points="369,-1089 101,-1089 101,-1053 369,-1053 369,-1089"/>
<text text-anchor="middle" x="235" y="-1068.2" font-family="Helvetica,sans-Serif" font-size="11.00" fill="#333333">Print BUTTON1 pressed\nmessage with count</text>
</g>
<!-- main_N19&#45;&gt;main_N21 -->
<g id="edge26" class="edge">
<title>main_N19&#45;&gt;main_N21</title>
<path fill="none" stroke="black" stroke-width="1.4" d="M322,-1272.89C322,-1272.89 322,-1097.12 322,-1097.12"/>
<polygon fill="black" stroke="black" stroke-width="1.4" points="324.8,-1097.12 322,-1089.12 319.2,-1097.12 324.8,-1097.12"/>
<text text-anchor="middle" x="346" y="-1173.5" font-family="Helvetica,sans-Serif" font-size="10.00">No</text>
</g>
<!-- main_N20&#45;&gt;main_N21 -->
<g id="edge27" class="edge">
<title>main_N20&#45;&gt;main_N21</title>
<path fill="none" stroke="black" d="M188,-1157.71C188,-1157.71 188,-1097.08 188,-1097.08"/>
<polygon fill="black" stroke="black" points="190.8,-1097.08 188,-1089.08 185.2,-1097.08 190.8,-1097.08"/>
</g>
<!-- main_N22 -->
<g id="node24" class="node">
<title>main_N22</title>
<polygon fill="#ffffff" stroke="black" points="336.5,-984 133.5,-984 133.5,-948 336.5,-948 336.5,-984"/>
<text text-anchor="middle" x="235" y="-963.2" font-family="Helvetica,sans-Serif" font-size="11.00" fill="#333333">Set previous_pressed to\npressed</text>
</g>
<!-- main_N21&#45;&gt;main_N22 -->
<g id="edge28" class="edge">
<title>main_N21&#45;&gt;main_N22</title>
<path fill="none" stroke="black" d="M235,-1052.71C235,-1052.71 235,-992.08 235,-992.08"/>
<polygon fill="black" stroke="black" points="237.8,-992.08 235,-984.08 232.2,-992.08 237.8,-992.08"/>
</g>
<!-- main_N22&#45;&gt;main_N23 -->
<g id="edge29" class="edge">
<title>main_N22&#45;&gt;main_N23</title>
<path fill="none" stroke="black" d="M235,-947.71C235,-947.71 235,-887.08 235,-887.08"/>
<polygon fill="black" stroke="black" points="237.8,-887.08 235,-879.08 232.2,-887.08 237.8,-887.08"/>
</g>
<!-- main_N24 -->
<g id="node26" class="node">
<title>main_N24</title>
<polygon fill="#ffffff" stroke="black" stroke-width="1.1" points="251,-774 135.13,-741.5 251,-709 366.87,-741.5 251,-774"/>
<text text-anchor="middle" x="251" y="-738.7" font-family="Helvetica,sans-Serif" font-size="11.00" fill="#333333">[COMPILE] LED1 defined?</text>
</g>
<!-- main_N23&#45;&gt;main_N24 -->
<g id="edge30" class="edge">
<title>main_N23&#45;&gt;main_N24</title>
<path fill="none" stroke="black" d="M251,-842.85C251,-842.85 251,-782.28 251,-782.28"/>
<polygon fill="black" stroke="black" points="253.8,-782.28 251,-774.28 248.2,-782.28 253.8,-782.28"/>
</g>
<!-- main_N25 -->
<g id="node27" class="node">
<title>main_N25</title>
<polygon fill="#ffffff" stroke="black" points="351,-630 151,-630 151,-594 351,-594 351,-630"/>
<text text-anchor="middle" x="251" y="-609.2" font-family="Helvetica,sans-Serif" font-size="11.00" fill="#333333">Read current_led_state\nfrom led</text>
</g>
<!-- main_N24&#45;&gt;main_N25 -->
<g id="edge31" class="edge">
<title>main_N24&#45;&gt;main_N25</title>
<path fill="none" stroke="black" stroke-width="1.4" d="M251,-708.82C251,-708.82 251,-638.26 251,-638.26"/>
<polygon fill="black" stroke="black" stroke-width="1.4" points="253.8,-638.26 251,-630.26 248.2,-638.26 253.8,-638.26"/>
<text text-anchor="middle" x="259" y="-667" font-family="Helvetica,sans-Serif" font-size="10.00">Yes</text>
</g>
<!-- main_N30 -->
<g id="node32" class="node">
<title>main_N30</title>
<ellipse fill="none" stroke="black" cx="452" cy="-353" rx="42.89" ry="18"/>
<text text-anchor="middle" x="452" y="-350.2" font-family="Helvetica,sans-Serif" font-size="11.00">main_N30</text>
</g>
<!-- main_N24&#45;&gt;main_N30 -->
<g id="edge32" class="edge">
<title>main_N24&#45;&gt;main_N30</title>
<path fill="none" stroke="black" stroke-width="1.4" d="M365.18,-741C426,-741 488.41,-741 488.41,-741 488.41,-741 488.41,-370.59 488.41,-370.59"/>
<polygon fill="black" stroke="black" stroke-width="1.4" points="491.21,-370.59 488.41,-362.59 485.61,-370.59 491.21,-370.59"/>
<text text-anchor="middle" x="509" y="-552" font-family="Helvetica,sans-Serif" font-size="10.00">No</text>
</g>
<!-- main_N26 -->
<g id="node28" class="node">
<title>main_N26</title>
<polygon fill="#ffffff" stroke="black" stroke-width="1.1" points="251,-515 19.75,-482.5 251,-450 482.25,-482.5 251,-515"/>
<text text-anchor="middle" x="251" y="-479.7" font-family="Helvetica,sans-Serif" font-size="11.00" fill="#333333">[RUNTIME] current_led_state !=\nprevious_led_state?</text>
</g>
<!-- main_N25&#45;&gt;main_N26 -->
<g id="edge33" class="edge">
<title>main_N25&#45;&gt;main_N26</title>
<path fill="none" stroke="black" d="M251,-593.99C251,-593.99 251,-523.07 251,-523.07"/>
<polygon fill="black" stroke="black" points="253.8,-523.07 251,-515.07 248.2,-523.07 253.8,-523.07"/>
</g>
<!-- main_N27 -->
<g id="node29" class="node">
<title>main_N27</title>
<polygon fill="#ffffff" stroke="black" points="355.5,-371 146.5,-371 146.5,-335 355.5,-335 355.5,-371"/>
<text text-anchor="middle" x="251" y="-350.2" font-family="Helvetica,sans-Serif" font-size="11.00" fill="#333333">Print LED1 state change\nmessage</text>
</g>
<!-- main_N26&#45;&gt;main_N27 -->
<g id="edge34" class="edge">
<title>main_N26&#45;&gt;main_N27</title>
<path fill="none" stroke="black" stroke-width="1.4" d="M251,-449.82C251,-449.82 251,-379.26 251,-379.26"/>
<polygon fill="black" stroke="black" stroke-width="1.4" points="253.8,-379.26 251,-371.26 248.2,-379.26 253.8,-379.26"/>
<text text-anchor="middle" x="259" y="-408" font-family="Helvetica,sans-Serif" font-size="10.00">Yes</text>
</g>
<!-- main_N26&#45;&gt;main_N30 -->
<g id="edge35" class="edge">
<title>main_N26&#45;&gt;main_N30</title>
<path fill="none" stroke="black" stroke-width="1.4" d="M445.71,-477.26C445.71,-477.26 445.71,-378.88 445.71,-378.88"/>
<polygon fill="black" stroke="black" stroke-width="1.4" points="448.51,-378.88 445.71,-370.88 442.91,-378.88 448.51,-378.88"/>
<text text-anchor="middle" x="395" y="-408" font-family="Helvetica,sans-Serif" font-size="10.00">No</text>
</g>
<!-- main_N28 -->
<g id="node30" class="node">
<title>main_N28</title>
<polygon fill="#ffffff" stroke="black" points="382,-266 120,-266 120,-230 382,-230 382,-266"/>
<text text-anchor="middle" x="251" y="-245.2" font-family="Helvetica,sans-Serif" font-size="11.00" fill="#333333">Set previous_led_state to\ncurrent_led_state</text>
</g>
<!-- main_N27&#45;&gt;main_N28 -->
<g id="edge36" class="edge">
<title>main_N27&#45;&gt;main_N28</title>
<path fill="none" stroke="black" d="M251,-334.71C251,-334.71 251,-274.08 251,-274.08"/>
<polygon fill="black" stroke="black" points="253.8,-274.08 251,-266.08 248.2,-274.08 253.8,-274.08"/>
</g>
<!-- main_N29 -->
<g id="node31" class="node">
<title>main_N29</title>
<path fill="#ffffff" stroke="black" stroke-width="1.2" d="M383.5,-161C383.5,-161 118.5,-161 118.5,-161 112.5,-161 106.5,-155 106.5,-149 106.5,-149 106.5,-137 106.5,-137 106.5,-131 112.5,-125 118.5,-125 118.5,-125 383.5,-125 383.5,-125 389.5,-125 395.5,-131 395.5,-137 395.5,-137 395.5,-149 395.5,-149 395.5,-155 389.5,-161 383.5,-161"/>
<text text-anchor="middle" x="251" y="-140.2" font-family="Helvetica,sans-Serif" font-size="11.00" fill="#333333">call ThisThread::sleep_for(BU\nTTON_POLL_RATE)</text>
</g>
<!-- main_N28&#45;&gt;main_N29 -->
<g id="edge37" class="edge">
<title>main_N28&#45;&gt;main_N29</title>
<path fill="none" stroke="black" d="M251,-229.71C251,-229.71 251,-169.08 251,-169.08"/>
<polygon fill="black" stroke="black" points="253.8,-169.08 251,-161.08 248.2,-169.08 253.8,-169.08"/>
</g>
<!-- main_N29&#45;&gt;main_END -->
<g id="edge38" class="edge">
<title>main_N29&#45;&gt;main_END</title>
<path fill="none" stroke="black" d="M251,-124.71C251,-124.71 251,-64.08 251,-64.08"/>
<polygon fill="black" stroke="black" points="253.8,-64.08 251,-56.08 248.2,-64.08 253.8,-64.08"/>
</g>
</g>
</svg>
