<?xml version="1.0" encoding="UTF-8" standalone="no"?>
<!DOCTYPE svg PUBLIC "-//W3C//DTD SVG 1.1//EN"
 "http://www.w3.org/Graphics/SVG/1.1/DTD/svg11.dtd">
<!-- Generated by graphviz version 2.43.0 (0)
 -->
<!-- Title: main Pages: 1 -->
<svg width="674pt" height="4019pt"
 viewBox="0.00 0.00 674.00 4019.25" xmlns="http://www.w3.org/2000/svg" xmlns:xlink="http://www.w3.org/1999/xlink">
<g id="graph0" class="graph" transform="scale(1 1) rotate(0) translate(18 4001.25)">
<title>main</title>
<polygon fill="#ffffff" stroke="transparent" points="-18,18 -18,-4001.25 656,-4001.25 656,18 -18,18"/>
<g id="clust1" class="cluster">
<title>cluster_main</title>
<path fill="#ffffff" stroke="#ffffff" stroke-width="1.2" d="M20,-8C20,-8 618,-8 618,-8 624,-8 630,-14 630,-20 630,-20 630,-3963.25 630,-3963.25 630,-3969.25 624,-3975.25 618,-3975.25 618,-3975.25 20,-3975.25 20,-3975.25 14,-3975.25 8,-3969.25 8,-3963.25 8,-3963.25 8,-20 8,-20 8,-14 14,-8 20,-8"/>
<text text-anchor="middle" x="319" y="-3960.05" font-family="Helvetica,sans-Serif" font-size="14.00" fill="#333333">main</text>
</g>
<!-- main_START -->
<g id="node1" class="node">
<title>main_START</title>
<ellipse fill="#ffffff" stroke="black" stroke-width="1.4" cx="154" cy="-3917.63" rx="86.5" ry="22.76"/>
<text text-anchor="middle" x="154" y="-3920.83" font-family="Helvetica,sans-Serif" font-size="11.00" fill="#333333">START</text>
<text text-anchor="middle" x="154" y="-3908.83" font-family="Helvetica,sans-Serif" font-size="11.00" fill="#333333">main()</text>
</g>
<!-- main_N1 -->
<g id="node3" class="node">
<title>main_N1</title>
<polygon fill="#ffffff" stroke="black" points="247,-3826 61,-3826 61,-3790 247,-3790 247,-3826"/>
<text text-anchor="middle" x="154" y="-3805.2" font-family="Helvetica,sans-Serif" font-size="11.00" fill="#333333">Initialize loop_started to\nfalse</text>
</g>
<!-- main_START&#45;&gt;main_N1 -->
<g id="edge1" class="edge">
<title>main_START&#45;&gt;main_N1</title>
<path fill="none" stroke="black" d="M154,-3894.91C154,-3894.91 154,-3834.33 154,-3834.33"/>
<polygon fill="black" stroke="black" points="156.8,-3834.33 154,-3826.33 151.2,-3834.33 156.8,-3834.33"/>
</g>
<!-- main_END -->
<g id="node2" class="node">
<title>main_END</title>
<ellipse fill="#ffffff" stroke="black" stroke-width="1.2" cx="108" cy="-38" rx="65" ry="18"/>
<text text-anchor="middle" x="108" y="-35.2" font-family="Helvetica,sans-Serif" font-size="11.00" fill="#333333">main_end</text>
</g>
<!-- main_N2 -->
<g id="node4" class="node">
<title>main_N2</title>
<polygon fill="#ffffff" stroke="black" points="245,-3721 63,-3721 63,-3685 245,-3685 245,-3721"/>
<text text-anchor="middle" x="154" y="-3700.2" font-family="Helvetica,sans-Serif" font-size="11.00" fill="#333333">Print program start\nmessage</text>
</g>
<!-- main_N1&#45;&gt;main_N2 -->
<g id="edge2" class="edge">
<title>main_N1&#45;&gt;main_N2</title>
<path fill="none" stroke="black" d="M154,-3789.71C154,-3789.71 154,-3729.08 154,-3729.08"/>
<polygon fill="black" stroke="black" points="156.8,-3729.08 154,-3721.08 151.2,-3729.08 156.8,-3729.08"/>
</g>
<!-- main_N3 -->
<g id="node5" class="node">
<title>main_N3</title>
<polygon fill="#ffffff" stroke="black" stroke-width="1.1" points="154,-3616 34.2,-3583.5 154,-3551 273.8,-3583.5 154,-3616"/>
<text text-anchor="middle" x="154" y="-3580.7" font-family="Helvetica,sans-Serif" font-size="11.00" fill="#333333">[COMPILE] defined(LED1)?</text>
</g>
<!-- main_N2&#45;&gt;main_N3 -->
<g id="edge3" class="edge">
<title>main_N2&#45;&gt;main_N3</title>
<path fill="none" stroke="black" d="M154,-3684.85C154,-3684.85 154,-3624.28 154,-3624.28"/>
<polygon fill="black" stroke="black" points="156.8,-3624.28 154,-3616.28 151.2,-3624.28 156.8,-3624.28"/>
</g>
<!-- main_N3&#45;&gt;main_END -->
<g id="edge5" class="edge">
<title>main_N3&#45;&gt;main_END</title>
<path fill="none" stroke="black" stroke-width="1.4" d="M64.14,-3575.13C64.14,-3575.13 64.14,-59.5 64.14,-59.5"/>
<polygon fill="black" stroke="black" stroke-width="1.4" points="66.94,-59.5 64.14,-51.5 61.34,-59.5 66.94,-59.5"/>
<text text-anchor="middle" x="59" y="-1786.5" font-family="Helvetica,sans-Serif" font-size="10.00">No</text>
</g>
<!-- main_N4 -->
<g id="node6" class="node">
<title>main_N4</title>
<polygon fill="#ffffff" stroke="black" points="281,-3472 113,-3472 113,-3436 281,-3436 281,-3472"/>
<text text-anchor="middle" x="197" y="-3451.2" font-family="Helvetica,sans-Serif" font-size="11.00" fill="#333333">Initialize led with LED1\npin</text>
</g>
<!-- main_N3&#45;&gt;main_N4 -->
<g id="edge4" class="edge">
<title>main_N3&#45;&gt;main_N4</title>
<path fill="none" stroke="black" stroke-width="1.4" d="M193.32,-3561.53C193.32,-3561.53 193.32,-3480.3 193.32,-3480.3"/>
<polygon fill="black" stroke="black" stroke-width="1.4" points="196.12,-3480.3 193.32,-3472.3 190.52,-3480.3 196.12,-3480.3"/>
<text text-anchor="middle" x="183" y="-3509" font-family="Helvetica,sans-Serif" font-size="10.00">Yes</text>
</g>
<!-- main_N5 -->
<g id="node7" class="node">
<title>main_N5</title>
<polygon fill="#ffffff" stroke="black" stroke-width="1.1" points="225,-3367 85.07,-3334.5 225,-3302 364.93,-3334.5 225,-3367"/>
<text text-anchor="middle" x="225" y="-3331.7" font-family="Helvetica,sans-Serif" font-size="11.00" fill="#333333">[RUNTIME] previous_led_state?</text>
</g>
<!-- main_N4&#45;&gt;main_N5 -->
<g id="edge6" class="edge">
<title>main_N4&#45;&gt;main_N5</title>
<path fill="none" stroke="black" d="M197,-3435.85C197,-3435.85 197,-3368.81 197,-3368.81"/>
<polygon fill="black" stroke="black" points="199.8,-3368.81 197,-3360.81 194.2,-3368.81 199.8,-3368.81"/>
</g>
<!-- main_N6 -->
<g id="node8" class="node">
<title>main_N6</title>
<polygon fill="#ffffff" stroke="black" points="252.5,-3223 101.5,-3223 101.5,-3187 252.5,-3187 252.5,-3223"/>
<text text-anchor="middle" x="177" y="-3202.2" font-family="Helvetica,sans-Serif" font-size="11.00" fill="#333333">Print LED1 starts as ON</text>
</g>
<!-- main_N5&#45;&gt;main_N6 -->
<g id="edge7" class="edge">
<title>main_N5&#45;&gt;main_N6</title>
<path fill="none" stroke="black" stroke-width="1.4" d="M177,-3313.12C177,-3313.12 177,-3231.07 177,-3231.07"/>
<polygon fill="black" stroke="black" stroke-width="1.4" points="179.8,-3231.07 177,-3223.07 174.2,-3231.07 179.8,-3231.07"/>
<text text-anchor="middle" x="209" y="-3260" font-family="Helvetica,sans-Serif" font-size="10.00">Yes</text>
</g>
<!-- main_N7 -->
<g id="node9" class="node">
<title>main_N7</title>
<polygon fill="#ffffff" stroke="black" points="332.5,-3118 181.5,-3118 181.5,-3082 332.5,-3082 332.5,-3118"/>
<text text-anchor="middle" x="257" y="-3097.2" font-family="Helvetica,sans-Serif" font-size="11.00" fill="#333333">Print LED1 starts as OFF</text>
</g>
<!-- main_N5&#45;&gt;main_N7 -->
<g id="edge8" class="edge">
<title>main_N5&#45;&gt;main_N7</title>
<path fill="none" stroke="black" stroke-width="1.4" d="M292.5,-3317.64C292.5,-3317.64 292.5,-3126.31 292.5,-3126.31"/>
<polygon fill="black" stroke="black" stroke-width="1.4" points="295.3,-3126.31 292.5,-3118.31 289.7,-3126.31 295.3,-3126.31"/>
<text text-anchor="middle" x="324" y="-3202.5" font-family="Helvetica,sans-Serif" font-size="10.00">No</text>
</g>
<!-- main_N6&#45;&gt;main_N7 -->
<g id="edge9" class="edge">
<title>main_N6&#45;&gt;main_N7</title>
<path fill="none" stroke="black" d="M217,-3186.71C217,-3186.71 217,-3126.08 217,-3126.08"/>
<polygon fill="black" stroke="black" points="219.8,-3126.08 217,-3118.08 214.2,-3126.08 219.8,-3126.08"/>
</g>
<!-- main_N8 -->
<g id="node10" class="node">
<title>main_N8</title>
<polygon fill="#ffffff" stroke="black" stroke-width="1.1" points="257,-3013 118.06,-2980.5 257,-2948 395.94,-2980.5 257,-3013"/>
<text text-anchor="middle" x="257" y="-2977.7" font-family="Helvetica,sans-Serif" font-size="11.00" fill="#333333">[COMPILE] defined(BUTTON1)?</text>
</g>
<!-- main_N7&#45;&gt;main_N8 -->
<g id="edge10" class="edge">
<title>main_N7&#45;&gt;main_N8</title>
<path fill="none" stroke="black" d="M257,-3081.85C257,-3081.85 257,-3021.28 257,-3021.28"/>
<polygon fill="black" stroke="black" points="259.8,-3021.28 257,-3013.28 254.2,-3021.28 259.8,-3021.28"/>
</g>
<!-- main_N8&#45;&gt;main_END -->
<g id="edge12" class="edge">
<title>main_N8&#45;&gt;main_END</title>
<path fill="none" stroke="black" stroke-width="1.4" d="M125.26,-2978.37C125.26,-2978.37 125.26,-63.48 125.26,-63.48"/>
<polygon fill="black" stroke="black" stroke-width="1.4" points="128.06,-63.48 125.26,-55.48 122.46,-63.48 128.06,-63.48"/>
<text text-anchor="middle" x="86" y="-1490" font-family="Helvetica,sans-Serif" font-size="10.00">No</text>
</g>
<!-- main_N9 -->
<g id="node11" class="node">
<title>main_N9</title>
<polygon fill="#ffffff" stroke="black" points="449.5,-2869 132.5,-2869 132.5,-2833 449.5,-2833 449.5,-2869"/>
<text text-anchor="middle" x="291" y="-2848.2" font-family="Helvetica,sans-Serif" font-size="11.00" fill="#333333">Initialize button with\nBUTTON1 pin and PullUp\nmode</text>
</g>
<!-- main_N8&#45;&gt;main_N9 -->
<g id="edge11" class="edge">
<title>main_N8&#45;&gt;main_N9</title>
<path fill="none" stroke="black" stroke-width="1.4" d="M264.24,-2949.48C264.24,-2949.48 264.24,-2877.37 264.24,-2877.37"/>
<polygon fill="black" stroke="black" stroke-width="1.4" points="267.04,-2877.37 264.24,-2869.37 261.44,-2877.37 267.04,-2877.37"/>
<text text-anchor="middle" x="282" y="-2906" font-family="Helvetica,sans-Serif" font-size="10.00">Yes</text>
</g>
<!-- main_N10 -->
<g id="node12" class="node">
<title>main_N10</title>
<polygon fill="#ffffff" stroke="black" points="398,-2764 184,-2764 184,-2728 398,-2728 398,-2764"/>
<text text-anchor="middle" x="291" y="-2743.2" font-family="Helvetica,sans-Serif" font-size="11.00" fill="#333333">Initialize\nprevious_pressed to false</text>
</g>
<!-- main_N9&#45;&gt;main_N10 -->
<g id="edge13" class="edge">
<title>main_N9&#45;&gt;main_N10</title>
<path fill="none" stroke="black" d="M291,-2832.71C291,-2832.71 291,-2772.08 291,-2772.08"/>
<polygon fill="black" stroke="black" points="293.8,-2772.08 291,-2764.08 288.2,-2772.08 293.8,-2772.08"/>
</g>
<!-- main_N11 -->
<g id="node13" class="node">
<title>main_N11</title>
<polygon fill="#ffffff" stroke="black" points="394,-2659 188,-2659 188,-2623 394,-2623 394,-2659"/>
<text text-anchor="middle" x="291" y="-2638.2" font-family="Helvetica,sans-Serif" font-size="11.00" fill="#333333">Initialize\nbutton_press_count to 0</text>
</g>
<!-- main_N10&#45;&gt;main_N11 -->
<g id="edge14" class="edge">
<title>main_N10&#45;&gt;main_N11</title>
<path fill="none" stroke="black" d="M291,-2727.71C291,-2727.71 291,-2667.08 291,-2667.08"/>
<polygon fill="black" stroke="black" points="293.8,-2667.08 291,-2659.08 288.2,-2667.08 293.8,-2667.08"/>
</g>
<!-- main_N12 -->
<g id="node14" class="node">
<title>main_N12</title>
<polygon fill="#ffffff" stroke="black" stroke-width="1.1" points="291,-2554 173.66,-2521.5 291,-2489 408.34,-2521.5 291,-2554"/>
<text text-anchor="middle" x="291" y="-2518.7" font-family="Helvetica,sans-Serif" font-size="11.00" fill="#333333">[RUNTIME] !loop_started?</text>
</g>
<!-- main_N11&#45;&gt;main_N12 -->
<g id="edge15" class="edge">
<title>main_N11&#45;&gt;main_N12</title>
<path fill="none" stroke="black" d="M291,-2622.85C291,-2622.85 291,-2562.28 291,-2562.28"/>
<polygon fill="black" stroke="black" points="293.8,-2562.28 291,-2554.28 288.2,-2562.28 293.8,-2562.28"/>
</g>
<!-- main_N13 -->
<g id="node15" class="node">
<title>main_N13</title>
<polygon fill="#ffffff" stroke="black" points="351.5,-2410 148.5,-2410 148.5,-2374 351.5,-2374 351.5,-2410"/>
<text text-anchor="middle" x="250" y="-2389.2" font-family="Helvetica,sans-Serif" font-size="11.00" fill="#333333">Print main loop started\nmessage</text>
</g>
<!-- main_N12&#45;&gt;main_N13 -->
<g id="edge16" class="edge">
<title>main_N12&#45;&gt;main_N13</title>
<path fill="none" stroke="black" stroke-width="1.4" d="M262.54,-2496.84C262.54,-2496.84 262.54,-2418.3 262.54,-2418.3"/>
<polygon fill="black" stroke="black" stroke-width="1.4" points="265.34,-2418.3 262.54,-2410.3 259.74,-2418.3 265.34,-2418.3"/>
<text text-anchor="middle" x="279" y="-2447" font-family="Helvetica,sans-Serif" font-size="10.00">Yes</text>
</g>
<!-- main_N14 -->
<g id="node16" class="node">
<title>main_N14</title>
<polygon fill="#ffffff" stroke="black" points="416.5,-2305 265.5,-2305 265.5,-2269 416.5,-2269 416.5,-2305"/>
<text text-anchor="middle" x="341" y="-2284.2" font-family="Helvetica,sans-Serif" font-size="11.00" fill="#333333">Set loop_started to true</text>
</g>
<!-- main_N12&#45;&gt;main_N14 -->
<g id="edge17" class="edge">
<title>main_N12&#45;&gt;main_N14</title>
<path fill="none" stroke="black" stroke-width="1.4" d="M379.96,-2513.43C379.96,-2513.43 379.96,-2313.05 379.96,-2313.05"/>
<polygon fill="black" stroke="black" stroke-width="1.4" points="382.76,-2313.05 379.96,-2305.05 377.16,-2313.05 382.76,-2313.05"/>
<text text-anchor="middle" x="423" y="-2389.5" font-family="Helvetica,sans-Serif" font-size="10.00">No</text>
</g>
<!-- main_N13&#45;&gt;main_N14 -->
<g id="edge18" class="edge">
<title>main_N13&#45;&gt;main_N14</title>
<path fill="none" stroke="black" d="M308.5,-2373.71C308.5,-2373.71 308.5,-2313.08 308.5,-2313.08"/>
<polygon fill="black" stroke="black" points="311.3,-2313.08 308.5,-2305.08 305.7,-2313.08 311.3,-2313.08"/>
</g>
<!-- main_N15 -->
<g id="node17" class="node">
<title>main_N15</title>
<polygon fill="#ffffff" stroke="black" stroke-width="1.1" points="341,-2200 175.05,-2167.5 341,-2135 506.95,-2167.5 341,-2200"/>
<text text-anchor="middle" x="341" y="-2164.7" font-family="Helvetica,sans-Serif" font-size="11.00" fill="#333333">[RUNTIME] button_press_count &gt;\n0?</text>
</g>
<!-- main_N14&#45;&gt;main_N15 -->
<g id="edge19" class="edge">
<title>main_N14&#45;&gt;main_N15</title>
<path fill="none" stroke="black" d="M341,-2268.85C341,-2268.85 341,-2208.28 341,-2208.28"/>
<polygon fill="black" stroke="black" points="343.8,-2208.28 341,-2200.28 338.2,-2208.28 343.8,-2208.28"/>
</g>
<!-- main_N15&#45;&gt;main_END -->
<g id="edge21" class="edge">
<title>main_N15&#45;&gt;main_END</title>
<path fill="none" stroke="black" stroke-width="1.4" d="M177.38,-2167C161.4,-2167 150.96,-2167 150.96,-2167 150.96,-2167 150.96,-59.6 150.96,-59.6"/>
<polygon fill="black" stroke="black" stroke-width="1.4" points="153.76,-59.6 150.96,-51.6 148.16,-59.6 153.76,-59.6"/>
<text text-anchor="middle" x="127" y="-1107.5" font-family="Helvetica,sans-Serif" font-size="10.00">No</text>
</g>
<!-- main_N16 -->
<g id="node18" class="node">
<title>main_N16</title>
<polygon fill="#ffffff" stroke="black" points="459,-2056 277,-2056 277,-2020 459,-2020 459,-2056"/>
<text text-anchor="middle" x="368" y="-2035.2" font-family="Helvetica,sans-Serif" font-size="11.00" fill="#333333">Print total BUTTON1\npresses</text>
</g>
<!-- main_N15&#45;&gt;main_N16 -->
<g id="edge20" class="edge">
<title>main_N15&#45;&gt;main_N16</title>
<path fill="none" stroke="black" stroke-width="1.4" d="M368,-2140.04C368,-2140.04 368,-2064.26 368,-2064.26"/>
<polygon fill="black" stroke="black" stroke-width="1.4" points="370.8,-2064.26 368,-2056.26 365.2,-2064.26 370.8,-2064.26"/>
<text text-anchor="middle" x="354" y="-2093" font-family="Helvetica,sans-Serif" font-size="10.00">Yes</text>
</g>
<!-- main_N17 -->
<g id="node19" class="node">
<title>main_N17</title>
<polygon fill="#ffffff" stroke="black" stroke-width="1.1" points="385,-1951 165.54,-1918.5 385,-1886 604.46,-1918.5 385,-1951"/>
<text text-anchor="middle" x="385" y="-1915.7" font-family="Helvetica,sans-Serif" font-size="11.00" fill="#333333">[COMPILE] defined(LED1) &amp;&amp;\ndefined(BUTTON1)?</text>
</g>
<!-- main_N16&#45;&gt;main_N17 -->
<g id="edge22" class="edge">
<title>main_N16&#45;&gt;main_N17</title>
<path fill="none" stroke="black" d="M368,-2019.85C368,-2019.85 368,-1956.93 368,-1956.93"/>
<polygon fill="black" stroke="black" points="370.8,-1956.93 368,-1948.93 365.2,-1956.93 370.8,-1956.93"/>
</g>
<!-- main_N18 -->
<g id="node20" class="node">
<title>main_N18</title>
<polygon fill="#ffffff" stroke="black" points="505,-1807 265,-1807 265,-1771 505,-1771 505,-1807"/>
<text text-anchor="middle" x="385" y="-1786.2" font-family="Helvetica,sans-Serif" font-size="11.00" fill="#333333">Read button state and\nstore in pressed</text>
</g>
<!-- main_N17&#45;&gt;main_N18 -->
<g id="edge23" class="edge">
<title>main_N17&#45;&gt;main_N18</title>
<path fill="none" stroke="black" stroke-width="1.4" d="M385,-1885.82C385,-1885.82 385,-1815.26 385,-1815.26"/>
<polygon fill="black" stroke="black" stroke-width="1.4" points="387.8,-1815.26 385,-1807.26 382.2,-1815.26 387.8,-1815.26"/>
<text text-anchor="middle" x="393" y="-1844" font-family="Helvetica,sans-Serif" font-size="10.00">Yes</text>
</g>
<!-- main_N25 -->
<g id="node27" class="node">
<title>main_N25</title>
<polygon fill="#ffffff" stroke="black" stroke-width="1.1" points="474,-1023 354.2,-990.5 474,-958 593.8,-990.5 474,-1023"/>
<text text-anchor="middle" x="474" y="-987.7" font-family="Helvetica,sans-Serif" font-size="11.00" fill="#333333">[COMPILE] defined(LED1)?</text>
</g>
<!-- main_N17&#45;&gt;main_N25 -->
<g id="edge24" class="edge">
<title>main_N17&#45;&gt;main_N25</title>
<path fill="none" stroke="black" stroke-width="1.4" d="M570.94,-1913.51C570.94,-1913.51 570.94,-1004.86 570.94,-1004.86"/>
<polygon fill="black" stroke="black" stroke-width="1.4" points="573.74,-1004.86 570.94,-996.86 568.14,-1004.86 573.74,-1004.86"/>
<text text-anchor="middle" x="588" y="-1432.5" font-family="Helvetica,sans-Serif" font-size="10.00">No</text>
</g>
<!-- main_N19 -->
<g id="node21" class="node">
<title>main_N19</title>
<path fill="#ffffff" stroke="black" stroke-width="1.2" d="M455,-1702C455,-1702 277,-1702 277,-1702 271,-1702 265,-1696 265,-1690 265,-1690 265,-1678 265,-1678 265,-1672 271,-1666 277,-1666 277,-1666 455,-1666 455,-1666 461,-1666 467,-1672 467,-1678 467,-1678 467,-1690 467,-1690 467,-1696 461,-1702 455,-1702"/>
<text text-anchor="middle" x="366" y="-1681.2" font-family="Helvetica,sans-Serif" font-size="11.00" fill="#333333">call set_led1_state(led,\npressed)</text>
</g>
<!-- main_N18&#45;&gt;main_N19 -->
<g id="edge25" class="edge">
<title>main_N18&#45;&gt;main_N19</title>
<path fill="none" stroke="black" d="M366,-1770.71C366,-1770.71 366,-1710.08 366,-1710.08"/>
<polygon fill="black" stroke="black" points="368.8,-1710.08 366,-1702.08 363.2,-1710.08 368.8,-1710.08"/>
</g>
<!-- main_N20 -->
<g id="node22" class="node">
<title>main_N20</title>
<polygon fill="#ffffff" stroke="black" stroke-width="1.1" points="355,-1597 161.56,-1564.5 355,-1532 548.44,-1564.5 355,-1597"/>
<text text-anchor="middle" x="355" y="-1561.7" font-family="Helvetica,sans-Serif" font-size="11.00" fill="#333333">[RUNTIME] pressed &amp;&amp;\n!previous_pressed?</text>
</g>
<!-- main_N19&#45;&gt;main_N20 -->
<g id="edge26" class="edge">
<title>main_N19&#45;&gt;main_N20</title>
<path fill="none" stroke="black" d="M366,-1665.85C366,-1665.85 366,-1603.39 366,-1603.39"/>
<polygon fill="black" stroke="black" points="368.8,-1603.39 366,-1595.39 363.2,-1603.39 368.8,-1603.39"/>
</g>
<!-- main_N21 -->
<g id="node23" class="node">
<title>main_N21</title>
<polygon fill="#ffffff" stroke="black" points="424,-1453 234,-1453 234,-1417 424,-1417 424,-1453"/>
<text text-anchor="middle" x="329" y="-1432.2" font-family="Helvetica,sans-Serif" font-size="11.00" fill="#333333">Increment\nbutton_press_count</text>
</g>
<!-- main_N20&#45;&gt;main_N21 -->
<g id="edge27" class="edge">
<title>main_N20&#45;&gt;main_N21</title>
<path fill="none" stroke="black" stroke-width="1.4" d="M329,-1536.08C329,-1536.08 329,-1461.37 329,-1461.37"/>
<polygon fill="black" stroke="black" stroke-width="1.4" points="331.8,-1461.37 329,-1453.37 326.2,-1461.37 331.8,-1461.37"/>
<text text-anchor="middle" x="350" y="-1490" font-family="Helvetica,sans-Serif" font-size="10.00">Yes</text>
</g>
<!-- main_N23 -->
<g id="node25" class="node">
<title>main_N23</title>
<polygon fill="#ffffff" stroke="black" points="547.5,-1233 344.5,-1233 344.5,-1197 547.5,-1197 547.5,-1233"/>
<text text-anchor="middle" x="446" y="-1212.2" font-family="Helvetica,sans-Serif" font-size="11.00" fill="#333333">Set previous_pressed to\npressed</text>
</g>
<!-- main_N20&#45;&gt;main_N23 -->
<g id="edge28" class="edge">
<title>main_N20&#45;&gt;main_N23</title>
<path fill="none" stroke="black" stroke-width="1.4" d="M485.75,-1553.66C485.75,-1553.66 485.75,-1241.14 485.75,-1241.14"/>
<polygon fill="black" stroke="black" stroke-width="1.4" points="488.55,-1241.14 485.75,-1233.14 482.95,-1241.14 488.55,-1241.14"/>
<text text-anchor="middle" x="464" y="-1375" font-family="Helvetica,sans-Serif" font-size="10.00">No</text>
</g>
<!-- main_N22 -->
<g id="node24" class="node">
<title>main_N22</title>
<polygon fill="#ffffff" stroke="black" points="424,-1338 236,-1338 236,-1302 424,-1302 424,-1338"/>
<text text-anchor="middle" x="330" y="-1317.2" font-family="Helvetica,sans-Serif" font-size="11.00" fill="#333333">Print BUTTON1 pressed\ntimes</text>
</g>
<!-- main_N21&#45;&gt;main_N22 -->
<g id="edge29" class="edge">
<title>main_N21&#45;&gt;main_N22</title>
<path fill="none" stroke="black" d="M330,-1416.78C330,-1416.78 330,-1346.14 330,-1346.14"/>
<polygon fill="black" stroke="black" points="332.8,-1346.14 330,-1338.14 327.2,-1346.14 332.8,-1346.14"/>
</g>
<!-- main_N22&#45;&gt;main_N23 -->
<g id="edge30" class="edge">
<title>main_N22&#45;&gt;main_N23</title>
<path fill="none" stroke="black" d="M384.25,-1301.71C384.25,-1301.71 384.25,-1241.08 384.25,-1241.08"/>
<polygon fill="black" stroke="black" points="387.05,-1241.08 384.25,-1233.08 381.45,-1241.08 387.05,-1241.08"/>
</g>
<!-- main_N24 -->
<g id="node26" class="node">
<title>main_N24</title>
<polygon fill="#ffffff" stroke="black" points="542,-1128 360,-1128 360,-1092 542,-1092 542,-1128"/>
<text text-anchor="middle" x="451" y="-1107.2" font-family="Helvetica,sans-Serif" font-size="11.00" fill="#333333">Sleep for BUTTON_POLL_RATE</text>
</g>
<!-- main_N23&#45;&gt;main_N24 -->
<g id="edge31" class="edge">
<title>main_N23&#45;&gt;main_N24</title>
<path fill="none" stroke="black" d="M451,-1196.71C451,-1196.71 451,-1136.08 451,-1136.08"/>
<polygon fill="black" stroke="black" points="453.8,-1136.08 451,-1128.08 448.2,-1136.08 453.8,-1136.08"/>
</g>
<!-- main_N24&#45;&gt;main_N25 -->
<g id="edge32" class="edge">
<title>main_N24&#45;&gt;main_N25</title>
<path fill="none" stroke="black" d="M451,-1091.85C451,-1091.85 451,-1024.81 451,-1024.81"/>
<polygon fill="black" stroke="black" points="453.8,-1024.81 451,-1016.81 448.2,-1024.81 453.8,-1024.81"/>
</g>
<!-- main_N26 -->
<g id="node28" class="node">
<title>main_N26</title>
<path fill="#ffffff" stroke="black" stroke-width="1.2" d="M398.5,-879C398.5,-879 271.5,-879 271.5,-879 265.5,-879 259.5,-873 259.5,-867 259.5,-867 259.5,-855 259.5,-855 259.5,-849 265.5,-843 271.5,-843 271.5,-843 398.5,-843 398.5,-843 404.5,-843 410.5,-849 410.5,-855 410.5,-855 410.5,-867 410.5,-867 410.5,-873 404.5,-879 398.5,-879"/>
<text text-anchor="middle" x="335" y="-858.2" font-family="Helvetica,sans-Serif" font-size="11.00" fill="#333333">call blink_led1(led)</text>
</g>
<!-- main_N25&#45;&gt;main_N26 -->
<g id="edge33" class="edge">
<title>main_N25&#45;&gt;main_N26</title>
<path fill="none" stroke="black" stroke-width="1.4" d="M382.43,-982.79C382.43,-982.79 382.43,-887.26 382.43,-887.26"/>
<polygon fill="black" stroke="black" stroke-width="1.4" points="385.23,-887.26 382.43,-879.26 379.63,-887.26 385.23,-887.26"/>
<text text-anchor="middle" x="402" y="-916" font-family="Helvetica,sans-Serif" font-size="10.00">Yes</text>
</g>
<!-- main_N27 -->
<g id="node29" class="node">
<title>main_N27</title>
<polygon fill="#ffffff" stroke="black" points="440,-774 286,-774 286,-738 440,-738 440,-774"/>
<text text-anchor="middle" x="363" y="-753.2" font-family="Helvetica,sans-Serif" font-size="11.00" fill="#333333">Sleep for BLINKING_RATE</text>
</g>
<!-- main_N25&#45;&gt;main_N27 -->
<g id="edge34" class="edge">
<title>main_N25&#45;&gt;main_N27</title>
<path fill="none" stroke="black" stroke-width="1.4" d="M425.25,-970.91C425.25,-970.91 425.25,-782.07 425.25,-782.07"/>
<polygon fill="black" stroke="black" stroke-width="1.4" points="428.05,-782.07 425.25,-774.07 422.45,-782.07 428.05,-782.07"/>
<text text-anchor="middle" x="482" y="-858.5" font-family="Helvetica,sans-Serif" font-size="10.00">No</text>
</g>
<!-- main_N26&#45;&gt;main_N27 -->
<g id="edge35" class="edge">
<title>main_N26&#45;&gt;main_N27</title>
<path fill="none" stroke="black" d="M348.25,-842.71C348.25,-842.71 348.25,-782.08 348.25,-782.08"/>
<polygon fill="black" stroke="black" points="351.05,-782.08 348.25,-774.08 345.45,-782.08 351.05,-782.08"/>
</g>
<!-- main_N28 -->
<g id="node30" class="node">
<title>main_N28</title>
<polygon fill="#ffffff" stroke="black" stroke-width="1.1" points="363,-669 243.2,-636.5 363,-604 482.8,-636.5 363,-669"/>
<text text-anchor="middle" x="363" y="-633.7" font-family="Helvetica,sans-Serif" font-size="11.00" fill="#333333">[COMPILE] defined(LED1)?</text>
</g>
<!-- main_N27&#45;&gt;main_N28 -->
<g id="edge36" class="edge">
<title>main_N27&#45;&gt;main_N28</title>
<path fill="none" stroke="black" d="M363,-737.85C363,-737.85 363,-677.28 363,-677.28"/>
<polygon fill="black" stroke="black" points="365.8,-677.28 363,-669.28 360.2,-677.28 365.8,-677.28"/>
</g>
<!-- main_N28&#45;&gt;main_END -->
<g id="edge38" class="edge">
<title>main_N28&#45;&gt;main_END</title>
<path fill="none" stroke="black" stroke-width="1.4" d="M245.04,-636C197.38,-636 153.42,-636 153.42,-636 153.42,-636 153.42,-59.05 153.42,-59.05"/>
<polygon fill="black" stroke="black" stroke-width="1.4" points="156.22,-59.05 153.42,-51.05 150.62,-59.05 156.22,-59.05"/>
<text text-anchor="middle" x="134" y="-313" font-family="Helvetica,sans-Serif" font-size="10.00">No</text>
</g>
<!-- main_N29 -->
<g id="node31" class="node">
<title>main_N29</title>
<polygon fill="#ffffff" stroke="black" points="515,-525 243,-525 243,-489 515,-489 515,-525"/>
<text text-anchor="middle" x="379" y="-504.2" font-family="Helvetica,sans-Serif" font-size="11.00" fill="#333333">Read led state and store\nin current_led_state</text>
</g>
<!-- main_N28&#45;&gt;main_N29 -->
<g id="edge37" class="edge">
<title>main_N28&#45;&gt;main_N29</title>
<path fill="none" stroke="black" stroke-width="1.4" d="M363,-603.82C363,-603.82 363,-533.26 363,-533.26"/>
<polygon fill="black" stroke="black" stroke-width="1.4" points="365.8,-533.26 363,-525.26 360.2,-533.26 365.8,-533.26"/>
<text text-anchor="middle" x="374" y="-562" font-family="Helvetica,sans-Serif" font-size="10.00">Yes</text>
</g>
<!-- main_N30 -->
<g id="node32" class="node">
<title>main_N30</title>
<polygon fill="#ffffff" stroke="black" stroke-width="1.1" points="387,-420 155.75,-387.5 387,-355 618.25,-387.5 387,-420"/>
<text text-anchor="middle" x="387" y="-384.7" font-family="Helvetica,sans-Serif" font-size="11.00" fill="#333333">[RUNTIME] current_led_state !=\nprevious_led_state?</text>
</g>
<!-- main_N29&#45;&gt;main_N30 -->
<g id="edge39" class="edge">
<title>main_N29&#45;&gt;main_N30</title>
<path fill="none" stroke="black" d="M379,-488.85C379,-488.85 379,-427.33 379,-427.33"/>
<polygon fill="black" stroke="black" points="381.8,-427.33 379,-419.33 376.2,-427.34 381.8,-427.33"/>
</g>
<!-- main_N30&#45;&gt;main_END -->
<g id="edge41" class="edge">
<title>main_N30&#45;&gt;main_END</title>
<path fill="none" stroke="black" stroke-width="1.4" d="M161.58,-386.5C161.58,-386.5 161.58,-56.2 161.58,-56.2"/>
<polygon fill="black" stroke="black" stroke-width="1.4" points="164.38,-56.2 161.58,-48.2 158.78,-56.2 164.38,-56.2"/>
<text text-anchor="middle" x="201" y="-198" font-family="Helvetica,sans-Serif" font-size="10.00">No</text>
</g>
<!-- main_N31 -->
<g id="node33" class="node">
<title>main_N31</title>
<polygon fill="#ffffff" stroke="black" points="458.5,-276 307.5,-276 307.5,-240 458.5,-240 458.5,-276"/>
<text text-anchor="middle" x="383" y="-255.2" font-family="Helvetica,sans-Serif" font-size="11.00" fill="#333333">Print LED1 is ON/OFF</text>
</g>
<!-- main_N30&#45;&gt;main_N31 -->
<g id="edge40" class="edge">
<title>main_N30&#45;&gt;main_N31</title>
<path fill="none" stroke="black" stroke-width="1.4" d="M383,-355.49C383,-355.49 383,-284.09 383,-284.09"/>
<polygon fill="black" stroke="black" stroke-width="1.4" points="385.8,-284.09 383,-276.09 380.2,-284.09 385.8,-284.09"/>
<text text-anchor="middle" x="393" y="-313" font-family="Helvetica,sans-Serif" font-size="10.00">Yes</text>
</g>
<!-- main_N32 -->
<g id="node34" class="node">
<title>main_N32</title>
<polygon fill="#ffffff" stroke="black" points="496,-161 234,-161 234,-125 496,-125 496,-161"/>
<text text-anchor="middle" x="365" y="-140.2" font-family="Helvetica,sans-Serif" font-size="11.00" fill="#333333">Set previous_led_state to\ncurrent_led_state</text>
</g>
<!-- main_N31&#45;&gt;main_N32 -->
<g id="edge42" class="edge">
<title>main_N31&#45;&gt;main_N32</title>
<path fill="none" stroke="black" d="M383,-239.78C383,-239.78 383,-169.14 383,-169.14"/>
<polygon fill="black" stroke="black" points="385.8,-169.14 383,-161.14 380.2,-169.14 385.8,-169.14"/>
</g>
<!-- main_N32&#45;&gt;main_END -->
<g id="edge43" class="edge">
<title>main_N32&#45;&gt;main_END</title>
<path fill="none" stroke="black" d="M233.95,-143C197.31,-143 167.29,-143 167.29,-143 167.29,-143 167.29,-53.55 167.29,-53.55"/>
<polygon fill="black" stroke="black" points="170.09,-53.55 167.29,-45.55 164.49,-53.55 170.09,-53.55"/>
</g>
</g>
</svg>
