<?xml version="1.0" encoding="UTF-8" standalone="no"?>
<!DOCTYPE svg PUBLIC "-//W3C//DTD SVG 1.1//EN"
 "http://www.w3.org/Graphics/SVG/1.1/DTD/svg11.dtd">
<!-- Generated by graphviz version 2.43.0 (0)
 -->
<!-- Title: set_led1_state Pages: 1 -->
<svg width="314pt" height="352pt"
 viewBox="0.00 0.00 314.00 352.25" xmlns="http://www.w3.org/2000/svg" xmlns:xlink="http://www.w3.org/1999/xlink">
<g id="graph0" class="graph" transform="scale(1 1) rotate(0) translate(18 334.25)">
<title>set_led1_state</title>
<polygon fill="#ffffff" stroke="transparent" points="-18,18 -18,-334.25 296,-334.25 296,18 -18,18"/>
<g id="clust1" class="cluster">
<title>cluster_set_led1_state</title>
<path fill="#ffffff" stroke="#ffffff" stroke-width="1.2" d="M20,-8C20,-8 258,-8 258,-8 264,-8 270,-14 270,-20 270,-20 270,-296.25 270,-296.25 270,-302.25 264,-308.25 258,-308.25 258,-308.25 20,-308.25 20,-308.25 14,-308.25 8,-302.25 8,-296.25 8,-296.25 8,-20 8,-20 8,-14 14,-8 20,-8"/>
<text text-anchor="middle" x="139" y="-293.05" font-family="Helvetica,sans-Serif" font-size="14.00" fill="#333333">set_led1_state</text>
</g>
<!-- set_led1_state_START -->
<g id="node1" class="node">
<title>set_led1_state_START</title>
<ellipse fill="#ffffff" stroke="black" stroke-width="1.4" cx="139" cy="-250.63" rx="86.5" ry="22.76"/>
<text text-anchor="middle" x="139" y="-253.83" font-family="Helvetica,sans-Serif" font-size="11.00" fill="#333333">START</text>
<text text-anchor="middle" x="139" y="-241.83" font-family="Helvetica,sans-Serif" font-size="11.00" fill="#333333">set_led1_state()</text>
</g>
<!-- set_led1_state_N1 -->
<g id="node3" class="node">
<title>set_led1_state_N1</title>
<polygon fill="#ffffff" stroke="black" points="257.5,-160 20.5,-160 20.5,-124 257.5,-124 257.5,-160"/>
<text text-anchor="middle" x="139" y="-139.2" font-family="Helvetica,sans-Serif" font-size="11.00" fill="#333333">Set LED state based on\n&#39;on&#39; parameter</text>
</g>
<!-- set_led1_state_START&#45;&gt;set_led1_state_N1 -->
<g id="edge1" class="edge">
<title>set_led1_state_START&#45;&gt;set_led1_state_N1</title>
<path fill="none" stroke="black" d="M139,-227.86C139,-227.86 139,-168.07 139,-168.07"/>
<polygon fill="black" stroke="black" points="141.8,-168.07 139,-160.07 136.2,-168.07 141.8,-168.07"/>
</g>
<!-- set_led1_state_END -->
<g id="node2" class="node">
<title>set_led1_state_END</title>
<ellipse fill="#ffffff" stroke="black" stroke-width="1.2" cx="139" cy="-38" rx="73.23" ry="18"/>
<text text-anchor="middle" x="139" y="-35.2" font-family="Helvetica,sans-Serif" font-size="11.00" fill="#333333">set_led1_state_end</text>
</g>
<!-- set_led1_state_N1&#45;&gt;set_led1_state_END -->
<g id="edge2" class="edge">
<title>set_led1_state_N1&#45;&gt;set_led1_state_END</title>
<path fill="none" stroke="black" d="M139,-123.88C139,-123.88 139,-64.26 139,-64.26"/>
<polygon fill="black" stroke="black" points="141.8,-64.26 139,-56.26 136.2,-64.26 141.8,-64.26"/>
</g>
</g>
</svg>
