<?xml version="1.0" encoding="UTF-8" standalone="no"?>
<!DOCTYPE svg PUBLIC "-//W3C//DTD SVG 1.1//EN"
 "http://www.w3.org/Graphics/SVG/1.1/DTD/svg11.dtd">
<!-- Generated by graphviz version 2.43.0 (0)
 -->
<!-- Title: set_led1_state Pages: 1 -->
<svg width="284pt" height="352pt"
 viewBox="0.00 0.00 284.00 352.25" xmlns="http://www.w3.org/2000/svg" xmlns:xlink="http://www.w3.org/1999/xlink">
<g id="graph0" class="graph" transform="scale(1 1) rotate(0) translate(18 334.25)">
<title>set_led1_state</title>
<polygon fill="#ffffff" stroke="transparent" points="-18,18 -18,-334.25 266,-334.25 266,18 -18,18"/>
<g id="clust1" class="cluster">
<title>cluster_set_led1_state</title>
<path fill="#ffffff" stroke="#ffffff" stroke-width="1.2" d="M20,-8C20,-8 228,-8 228,-8 234,-8 240,-14 240,-20 240,-20 240,-296.25 240,-296.25 240,-302.25 234,-308.25 228,-308.25 228,-308.25 20,-308.25 20,-308.25 14,-308.25 8,-302.25 8,-296.25 8,-296.25 8,-20 8,-20 8,-14 14,-8 20,-8"/>
<text text-anchor="middle" x="124" y="-293.05" font-family="Helvetica,sans-Serif" font-size="14.00" fill="#333333">set_led1_state</text>
</g>
<!-- set_led1_state_START -->
<g id="node1" class="node">
<title>set_led1_state_START</title>
<ellipse fill="#ffffff" stroke="black" stroke-width="1.4" cx="124" cy="-250.63" rx="86.5" ry="22.76"/>
<text text-anchor="middle" x="124" y="-253.83" font-family="Helvetica,sans-Serif" font-size="11.00" fill="#333333">START</text>
<text text-anchor="middle" x="124" y="-241.83" font-family="Helvetica,sans-Serif" font-size="11.00" fill="#333333">set_led1_state()</text>
</g>
<!-- set_led1_state_N1 -->
<g id="node3" class="node">
<title>set_led1_state_N1</title>
<polygon fill="#ffffff" stroke="black" points="228,-160 20,-160 20,-124 228,-124 228,-160"/>
<text text-anchor="middle" x="124" y="-139.2" font-family="Helvetica,sans-Serif" font-size="11.00" fill="#333333">Set led to on or off based\non bool</text>
</g>
<!-- set_led1_state_START&#45;&gt;set_led1_state_N1 -->
<g id="edge1" class="edge">
<title>set_led1_state_START&#45;&gt;set_led1_state_N1</title>
<path fill="none" stroke="black" d="M124,-227.86C124,-227.86 124,-168.07 124,-168.07"/>
<polygon fill="black" stroke="black" points="126.8,-168.07 124,-160.07 121.2,-168.07 126.8,-168.07"/>
</g>
<!-- set_led1_state_END -->
<g id="node2" class="node">
<title>set_led1_state_END</title>
<ellipse fill="#ffffff" stroke="black" stroke-width="1.2" cx="124" cy="-38" rx="73.23" ry="18"/>
<text text-anchor="middle" x="124" y="-35.2" font-family="Helvetica,sans-Serif" font-size="11.00" fill="#333333">set_led1_state_end</text>
</g>
<!-- set_led1_state_N1&#45;&gt;set_led1_state_END -->
<g id="edge2" class="edge">
<title>set_led1_state_N1&#45;&gt;set_led1_state_END</title>
<path fill="none" stroke="black" d="M124,-123.88C124,-123.88 124,-64.26 124,-64.26"/>
<polygon fill="black" stroke="black" points="126.8,-64.26 124,-56.26 121.2,-64.26 126.8,-64.26"/>
</g>
</g>
</svg>
